M48
;DRILL file {KiCad 4.0.7} date 09/18/22 11:46:49
;FORMAT={-:-/ absolute / inch / decimal}
FMAT,2
INCH,TZ
T1C0.016
T2C0.030
T3C0.031
T4C0.032
T5C0.035
T6C0.039
T7C0.039
T8C0.040
T9C0.047
T10C0.059
T11C0.067
T12C0.091
T13C0.126
%
G90
G05
M72
T1
X4.1063Y-4.4764
X4.1388Y-3.4577
X4.3238Y-3.4793
X4.35Y-3.9921
X4.4409Y-3.8386
X4.4646Y-4.0984
X4.5827Y-4.128
X4.6063Y-3.8612
X4.6287Y-4.8669
X4.6388Y-3.4272
X4.6555Y-3.5738
X4.6919Y-3.3927
X4.7037Y-3.5305
X4.7343Y-3.9892
X4.7579Y-3.7461
X4.7854Y-4.7559
X4.8652Y-3.2028
X4.8986Y-3.4429
X4.9646Y-4.1535
X5.0502Y-5.5266
X5.0846Y-5.4272
X5.0876Y-4.6339
X5.1063Y-4.9823
X5.1299Y-4.1063
X5.1309Y-4.4823
X5.3435Y-3.7146
X5.3465Y-4.4882
X5.3583Y-3.5276
X5.3681Y-3.372
X5.5236Y-5.5551
X5.5807Y-3.8652
X5.5915Y-3.6978
X5.627Y-4.7156
X5.6929Y-5.3071
X5.7283Y-4.0148
X5.7283Y-5.4961
X5.8465Y-5.4173
X5.874Y-3.2579
X5.8898Y-4.3583
X5.9163Y-4.5423
X5.9685Y-5.1299
X5.9685Y-5.252
X5.9803Y-5.5157
X5.9813Y-4.7569
X6.0512Y-3.8307
X6.0787Y-5.126
X6.1388Y-4.25
X6.1496Y-5.4016
X6.1555Y-3.2628
X6.1575Y-5.2559
X6.2087Y-5.6063
X6.2421Y-4.25
X6.311Y-4.6014
X6.3258Y-4.3159
X6.3346Y-5.6102
X6.378Y-5.1476
X6.4715Y-4.6378
T2
X5.4732Y-5.0272
X5.4732Y-5.1272
X5.5732Y-4.9772
X5.5732Y-5.0772
X6.0024Y-4.9398
X6.0024Y-5.0398
X6.1024Y-4.8898
X6.1024Y-4.9898
T3
X4.0827Y-2.7362
X4.0827Y-2.815
X4.1496Y-4.6939
X4.1496Y-4.7923
X4.2411Y-4.0923
X4.2411Y-4.2844
X4.4488Y-4.5768
X4.8488Y-4.5768
X5.0291Y-5.9697
X5.0866Y-4.8071
X5.1079Y-5.9697
X5.1654Y-4.8071
X5.4181Y-5.4854
X5.4181Y-5.6776
X5.4695Y-3.5413
X5.4695Y-3.6398
X5.4803Y-3.0138
X5.4803Y-3.4075
X5.5669Y-2.7333
X5.5669Y-2.9301
X5.6461Y-5.4854
X5.6461Y-5.6776
X5.811Y-3.4557
X5.84Y-4.13
X5.84Y-4.43
X5.8728Y-5.3232
X5.8728Y-5.5154
X5.9094Y-3.4557
X5.94Y-4.13
X5.94Y-4.43
X5.98Y-2.4331
X5.98Y-2.63
X6.04Y-4.13
X6.04Y-4.43
X6.0945Y-5.3232
X6.0945Y-5.5154
X6.14Y-4.13
X6.14Y-4.43
X6.1732Y-2.4331
X6.1732Y-2.6299
X6.24Y-4.13
X6.24Y-4.43
X6.2631Y-3.94
X6.34Y-4.13
X6.34Y-4.43
X6.35Y-5.07
X6.35Y-5.29
X6.3579Y-5.51
X6.3878Y-5.812
X6.3878Y-5.9104
X6.44Y-4.13
X6.44Y-4.43
X6.46Y-3.94
X6.5421Y-5.07
X6.5421Y-5.29
X6.55Y-5.51
X6.6Y-2.4331
X6.6Y-2.63
X6.61Y-4.11
X6.61Y-4.21
X6.61Y-4.31
X6.61Y-4.41
X6.61Y-4.51
X6.61Y-4.61
X6.61Y-4.71
X6.61Y-4.81
X6.61Y-4.91
T4
X4.6795Y-2.8898
X4.6795Y-2.9685
X4.7795Y-2.8898
X4.7795Y-2.9685
T5
X5.1417Y-2.7165
X5.2417Y-2.7165
X5.3543Y-2.7165
X5.4543Y-2.7165
T6
X4.0502Y-3.622
X4.0502Y-3.722
X4.0502Y-3.822
X4.0502Y-3.922
X4.0502Y-4.022
X4.0502Y-4.122
X4.0502Y-4.222
X4.0502Y-4.322
X4.0502Y-4.422
X4.0502Y-4.522
X4.9833Y-3.323
X4.9833Y-3.423
X4.9833Y-3.523
X4.9833Y-3.623
X5.6004Y-5.2756
X6.28Y-3.31
X6.28Y-3.71
X6.28Y-3.81
X6.58Y-3.31
X6.58Y-3.71
X6.58Y-3.81
T7
X4.0276Y-5.4165
X4.3276Y-5.4165
X4.541Y-3.1457
X4.9008Y-5.5087
X4.9008Y-5.8087
X4.941Y-3.1457
X5.0394Y-4.9606
X5.0394Y-5.3606
X5.51Y-3.93
X5.51Y-4.15
X5.51Y-4.27
X5.51Y-4.49
X5.51Y-4.62
X5.51Y-4.84
X5.7109Y-2.9703
X5.9309Y-2.9703
X6.06Y-2.97
X6.22Y-4.56
X6.22Y-4.78
X6.28Y-2.97
X6.3989Y-2.9703
X6.6053Y-5.6906
X6.6053Y-6.0906
X6.6189Y-2.9703
T8
X4.5787Y-4.2677
X4.5787Y-4.3677
X4.6787Y-4.2677
X4.6787Y-4.3677
X4.7787Y-4.2677
X4.7787Y-4.3677
T10
X5.7372Y-2.5256
T11
X5.6372Y-2.4256
X5.6372Y-2.6256
X5.8372Y-2.4256
X5.8372Y-2.6256
T12
X4.4933Y-2.7835
X4.9657Y-2.7835
T13
X4.2126Y-2.5197
X4.2126Y-6.1417
X6.4173Y-2.5197
X6.437Y-6.1614
T5
X4.5031Y-5.9494G85X4.5031Y-5.9769
G05
X4.6016Y-5.9494G85X4.6016Y-5.9769
G05
X4.6862Y-6.16G85X4.7138Y-6.16
G05
X4.7984Y-5.9494G85X4.7984Y-5.9769
G05
X4.8969Y-5.9494G85X4.8969Y-5.9769
G05
X5.2331Y-5.9494G85X5.2331Y-5.9769
G05
X5.3316Y-5.9494G85X5.3316Y-5.9769
G05
X5.4162Y-6.16G85X5.4438Y-6.16
G05
X5.5284Y-5.9494G85X5.5284Y-5.9769
G05
X5.6269Y-5.9494G85X5.6269Y-5.9769
G05
T7
X5.865Y-5.9133G85X5.865Y-5.8346
G05
X6.0107Y-5.7559G85X6.0893Y-5.7559
G05
X6.0107Y-5.9921G85X6.0893Y-5.9921
G05
T9
X4.5031Y-6.16G85X4.5031Y-6.16
G05
X4.5031Y-6.2584G85X4.5031Y-6.2584
G05
X4.7Y-5.9631G85X4.7Y-5.9631
G05
X4.8969Y-6.16G85X4.8969Y-6.16
G05
X4.8969Y-6.2584G85X4.8969Y-6.2584
G05
X5.2331Y-6.16G85X5.2331Y-6.16
G05
X5.2331Y-6.2584G85X5.2331Y-6.2584
G05
X5.43Y-5.9631G85X5.43Y-5.9631
G05
X5.6269Y-6.16G85X5.6269Y-6.16
G05
X5.6269Y-6.2584G85X5.6269Y-6.2584
G05
T0
M30
