G04 #@! TF.FileFunction,Legend,Top*
%FSLAX46Y46*%
G04 Gerber Fmt 4.6, Leading zero omitted, Abs format (unit mm)*
G04 Created by KiCad (PCBNEW 4.0.7) date 05/26/22 10:22:03*
%MOMM*%
%LPD*%
G01*
G04 APERTURE LIST*
%ADD10C,0.100000*%
%ADD11C,0.150000*%
%ADD12C,0.120000*%
G04 APERTURE END LIST*
D10*
D11*
X139200000Y-77850000D02*
X139200000Y-78350000D01*
X138000000Y-78350000D02*
X138000000Y-77850000D01*
X107200000Y-59150000D02*
X107200000Y-59650000D01*
X106000000Y-59650000D02*
X106000000Y-59150000D01*
X113100000Y-55500000D02*
X113600000Y-55500000D01*
X113600000Y-56700000D02*
X113100000Y-56700000D01*
X145825000Y-70100000D02*
X145825000Y-70900000D01*
X144475000Y-70900000D02*
X144475000Y-70100000D01*
X129700000Y-32050000D02*
X129700000Y-31550000D01*
X130900000Y-31550000D02*
X130900000Y-32050000D01*
X135600000Y-31650000D02*
X135600000Y-32150000D01*
X134400000Y-32150000D02*
X134400000Y-31650000D01*
X140250000Y-34800000D02*
X140750000Y-34800000D01*
X140750000Y-36000000D02*
X140250000Y-36000000D01*
X141400000Y-41050000D02*
X141400000Y-41550000D01*
X140200000Y-41550000D02*
X140200000Y-41050000D01*
X141100000Y-51400000D02*
X141600000Y-51400000D01*
X141600000Y-52600000D02*
X141100000Y-52600000D01*
X117650000Y-93450000D02*
X117650000Y-93950000D01*
X116450000Y-93950000D02*
X116450000Y-93450000D01*
X121750000Y-80950000D02*
X122250000Y-80950000D01*
X122250000Y-82150000D02*
X121750000Y-82150000D01*
X117200000Y-28150000D02*
X117200000Y-27650000D01*
X118400000Y-27650000D02*
X118400000Y-28150000D01*
X132850000Y-62600000D02*
X133350000Y-62600000D01*
X133350000Y-63800000D02*
X132850000Y-63800000D01*
X111750000Y-63300000D02*
X111250000Y-63300000D01*
X111250000Y-62100000D02*
X111750000Y-62100000D01*
X132850000Y-58700000D02*
X133350000Y-58700000D01*
X133350000Y-59900000D02*
X132850000Y-59900000D01*
X112500000Y-70400000D02*
X113000000Y-70400000D01*
X113000000Y-71600000D02*
X112500000Y-71600000D01*
X106100000Y-66450000D02*
X106100000Y-65950000D01*
X107300000Y-65950000D02*
X107300000Y-66450000D01*
D12*
X125140000Y-47620000D02*
X125140000Y-48550000D01*
X125140000Y-50780000D02*
X125140000Y-49850000D01*
X125140000Y-50780000D02*
X127300000Y-50780000D01*
X125140000Y-47620000D02*
X126600000Y-47620000D01*
X120640000Y-45220000D02*
X120640000Y-46150000D01*
X120640000Y-48380000D02*
X120640000Y-47450000D01*
X120640000Y-48380000D02*
X122800000Y-48380000D01*
X120640000Y-45220000D02*
X122100000Y-45220000D01*
D11*
X145900000Y-81425000D02*
X145100000Y-81425000D01*
X145100000Y-80075000D02*
X145900000Y-80075000D01*
X107050000Y-49975000D02*
X106250000Y-49975000D01*
X106250000Y-48625000D02*
X107050000Y-48625000D01*
X130825000Y-37925000D02*
X130825000Y-38150000D01*
X134175000Y-37925000D02*
X134175000Y-38225000D01*
X134175000Y-41275000D02*
X134175000Y-40975000D01*
X130825000Y-41275000D02*
X130825000Y-40975000D01*
X130825000Y-37925000D02*
X134175000Y-37925000D01*
X130825000Y-41275000D02*
X134175000Y-41275000D01*
X130825000Y-38150000D02*
X129600000Y-38150000D01*
D12*
X125960000Y-90010000D02*
X125960000Y-88750000D01*
X125960000Y-83190000D02*
X125960000Y-84450000D01*
X122200000Y-90010000D02*
X125960000Y-90010000D01*
X119950000Y-83190000D02*
X125960000Y-83190000D01*
X109210000Y-38510000D02*
X109210000Y-37250000D01*
X109210000Y-31690000D02*
X109210000Y-32950000D01*
X105450000Y-38510000D02*
X109210000Y-38510000D01*
X103200000Y-31690000D02*
X109210000Y-31690000D01*
D11*
X117175000Y-58175000D02*
X117175000Y-58400000D01*
X124425000Y-58175000D02*
X124425000Y-58500000D01*
X124425000Y-65425000D02*
X124425000Y-65100000D01*
X117175000Y-65425000D02*
X117175000Y-65100000D01*
X117175000Y-58175000D02*
X117500000Y-58175000D01*
X117175000Y-65425000D02*
X117500000Y-65425000D01*
X124425000Y-65425000D02*
X124100000Y-65425000D01*
X124425000Y-58175000D02*
X124100000Y-58175000D01*
X117175000Y-58400000D02*
X115750000Y-58400000D01*
D12*
X125500000Y-34450000D02*
X112900000Y-34450000D01*
X112900000Y-34450000D02*
X112900000Y-39550000D01*
X112900000Y-39550000D02*
X125500000Y-39550000D01*
X118450000Y-41370000D02*
X119450000Y-41370000D01*
X118450000Y-44730000D02*
X119450000Y-44730000D01*
D11*
X105925000Y-54600000D02*
X105925000Y-53800000D01*
X107275000Y-53800000D02*
X107275000Y-54600000D01*
X108525000Y-54600000D02*
X108525000Y-53800000D01*
X109875000Y-53800000D02*
X109875000Y-54600000D01*
X142175000Y-30300000D02*
X142175000Y-31100000D01*
X140825000Y-31100000D02*
X140825000Y-30300000D01*
X145850000Y-77675000D02*
X145050000Y-77675000D01*
X145050000Y-76325000D02*
X145850000Y-76325000D01*
X143350000Y-61950000D02*
X143850000Y-61950000D01*
X143850000Y-63150000D02*
X143350000Y-63150000D01*
D12*
X141450000Y-57840000D02*
X139550000Y-57840000D01*
X140050000Y-60160000D02*
X141450000Y-60160000D01*
D11*
X140857143Y-78266666D02*
X140904762Y-78314285D01*
X140952381Y-78457142D01*
X140952381Y-78552380D01*
X140904762Y-78695238D01*
X140809524Y-78790476D01*
X140714286Y-78838095D01*
X140523810Y-78885714D01*
X140380952Y-78885714D01*
X140190476Y-78838095D01*
X140095238Y-78790476D01*
X140000000Y-78695238D01*
X139952381Y-78552380D01*
X139952381Y-78457142D01*
X140000000Y-78314285D01*
X140047619Y-78266666D01*
X139952381Y-77361904D02*
X139952381Y-77838095D01*
X140428571Y-77885714D01*
X140380952Y-77838095D01*
X140333333Y-77742857D01*
X140333333Y-77504761D01*
X140380952Y-77409523D01*
X140428571Y-77361904D01*
X140523810Y-77314285D01*
X140761905Y-77314285D01*
X140857143Y-77361904D01*
X140904762Y-77409523D01*
X140952381Y-77504761D01*
X140952381Y-77742857D01*
X140904762Y-77838095D01*
X140857143Y-77885714D01*
X108857143Y-60042857D02*
X108904762Y-60090476D01*
X108952381Y-60233333D01*
X108952381Y-60328571D01*
X108904762Y-60471429D01*
X108809524Y-60566667D01*
X108714286Y-60614286D01*
X108523810Y-60661905D01*
X108380952Y-60661905D01*
X108190476Y-60614286D01*
X108095238Y-60566667D01*
X108000000Y-60471429D01*
X107952381Y-60328571D01*
X107952381Y-60233333D01*
X108000000Y-60090476D01*
X108047619Y-60042857D01*
X108952381Y-59090476D02*
X108952381Y-59661905D01*
X108952381Y-59376191D02*
X107952381Y-59376191D01*
X108095238Y-59471429D01*
X108190476Y-59566667D01*
X108238095Y-59661905D01*
X108285714Y-58233333D02*
X108952381Y-58233333D01*
X107904762Y-58471429D02*
X108619048Y-58709524D01*
X108619048Y-58090476D01*
X112707143Y-58082143D02*
X112659524Y-58129762D01*
X112516667Y-58177381D01*
X112421429Y-58177381D01*
X112278571Y-58129762D01*
X112183333Y-58034524D01*
X112135714Y-57939286D01*
X112088095Y-57748810D01*
X112088095Y-57605952D01*
X112135714Y-57415476D01*
X112183333Y-57320238D01*
X112278571Y-57225000D01*
X112421429Y-57177381D01*
X112516667Y-57177381D01*
X112659524Y-57225000D01*
X112707143Y-57272619D01*
X113659524Y-58177381D02*
X113088095Y-58177381D01*
X113373809Y-58177381D02*
X113373809Y-57177381D01*
X113278571Y-57320238D01*
X113183333Y-57415476D01*
X113088095Y-57463095D01*
X114516667Y-57177381D02*
X114326190Y-57177381D01*
X114230952Y-57225000D01*
X114183333Y-57272619D01*
X114088095Y-57415476D01*
X114040476Y-57605952D01*
X114040476Y-57986905D01*
X114088095Y-58082143D01*
X114135714Y-58129762D01*
X114230952Y-58177381D01*
X114421429Y-58177381D01*
X114516667Y-58129762D01*
X114564286Y-58082143D01*
X114611905Y-57986905D01*
X114611905Y-57748810D01*
X114564286Y-57653571D01*
X114516667Y-57605952D01*
X114421429Y-57558333D01*
X114230952Y-57558333D01*
X114135714Y-57605952D01*
X114088095Y-57653571D01*
X114040476Y-57748810D01*
X143702381Y-70666666D02*
X143226190Y-71000000D01*
X143702381Y-71238095D02*
X142702381Y-71238095D01*
X142702381Y-70857142D01*
X142750000Y-70761904D01*
X142797619Y-70714285D01*
X142892857Y-70666666D01*
X143035714Y-70666666D01*
X143130952Y-70714285D01*
X143178571Y-70761904D01*
X143226190Y-70857142D01*
X143226190Y-71238095D01*
X142797619Y-70285714D02*
X142750000Y-70238095D01*
X142702381Y-70142857D01*
X142702381Y-69904761D01*
X142750000Y-69809523D01*
X142797619Y-69761904D01*
X142892857Y-69714285D01*
X142988095Y-69714285D01*
X143130952Y-69761904D01*
X143702381Y-70333333D01*
X143702381Y-69714285D01*
X128757143Y-31966666D02*
X128804762Y-32014285D01*
X128852381Y-32157142D01*
X128852381Y-32252380D01*
X128804762Y-32395238D01*
X128709524Y-32490476D01*
X128614286Y-32538095D01*
X128423810Y-32585714D01*
X128280952Y-32585714D01*
X128090476Y-32538095D01*
X127995238Y-32490476D01*
X127900000Y-32395238D01*
X127852381Y-32252380D01*
X127852381Y-32157142D01*
X127900000Y-32014285D01*
X127947619Y-31966666D01*
X128852381Y-31014285D02*
X128852381Y-31585714D01*
X128852381Y-31300000D02*
X127852381Y-31300000D01*
X127995238Y-31395238D01*
X128090476Y-31490476D01*
X128138095Y-31585714D01*
X137257143Y-32066666D02*
X137304762Y-32114285D01*
X137352381Y-32257142D01*
X137352381Y-32352380D01*
X137304762Y-32495238D01*
X137209524Y-32590476D01*
X137114286Y-32638095D01*
X136923810Y-32685714D01*
X136780952Y-32685714D01*
X136590476Y-32638095D01*
X136495238Y-32590476D01*
X136400000Y-32495238D01*
X136352381Y-32352380D01*
X136352381Y-32257142D01*
X136400000Y-32114285D01*
X136447619Y-32066666D01*
X136447619Y-31685714D02*
X136400000Y-31638095D01*
X136352381Y-31542857D01*
X136352381Y-31304761D01*
X136400000Y-31209523D01*
X136447619Y-31161904D01*
X136542857Y-31114285D01*
X136638095Y-31114285D01*
X136780952Y-31161904D01*
X137352381Y-31733333D01*
X137352381Y-31114285D01*
X140333334Y-37607143D02*
X140285715Y-37654762D01*
X140142858Y-37702381D01*
X140047620Y-37702381D01*
X139904762Y-37654762D01*
X139809524Y-37559524D01*
X139761905Y-37464286D01*
X139714286Y-37273810D01*
X139714286Y-37130952D01*
X139761905Y-36940476D01*
X139809524Y-36845238D01*
X139904762Y-36750000D01*
X140047620Y-36702381D01*
X140142858Y-36702381D01*
X140285715Y-36750000D01*
X140333334Y-36797619D01*
X140666667Y-36702381D02*
X141285715Y-36702381D01*
X140952381Y-37083333D01*
X141095239Y-37083333D01*
X141190477Y-37130952D01*
X141238096Y-37178571D01*
X141285715Y-37273810D01*
X141285715Y-37511905D01*
X141238096Y-37607143D01*
X141190477Y-37654762D01*
X141095239Y-37702381D01*
X140809524Y-37702381D01*
X140714286Y-37654762D01*
X140666667Y-37607143D01*
X139457143Y-41466666D02*
X139504762Y-41514285D01*
X139552381Y-41657142D01*
X139552381Y-41752380D01*
X139504762Y-41895238D01*
X139409524Y-41990476D01*
X139314286Y-42038095D01*
X139123810Y-42085714D01*
X138980952Y-42085714D01*
X138790476Y-42038095D01*
X138695238Y-41990476D01*
X138600000Y-41895238D01*
X138552381Y-41752380D01*
X138552381Y-41657142D01*
X138600000Y-41514285D01*
X138647619Y-41466666D01*
X138885714Y-40609523D02*
X139552381Y-40609523D01*
X138504762Y-40847619D02*
X139219048Y-41085714D01*
X139219048Y-40466666D01*
X141183334Y-54107143D02*
X141135715Y-54154762D01*
X140992858Y-54202381D01*
X140897620Y-54202381D01*
X140754762Y-54154762D01*
X140659524Y-54059524D01*
X140611905Y-53964286D01*
X140564286Y-53773810D01*
X140564286Y-53630952D01*
X140611905Y-53440476D01*
X140659524Y-53345238D01*
X140754762Y-53250000D01*
X140897620Y-53202381D01*
X140992858Y-53202381D01*
X141135715Y-53250000D01*
X141183334Y-53297619D01*
X142040477Y-53202381D02*
X141850000Y-53202381D01*
X141754762Y-53250000D01*
X141707143Y-53297619D01*
X141611905Y-53440476D01*
X141564286Y-53630952D01*
X141564286Y-54011905D01*
X141611905Y-54107143D01*
X141659524Y-54154762D01*
X141754762Y-54202381D01*
X141945239Y-54202381D01*
X142040477Y-54154762D01*
X142088096Y-54107143D01*
X142135715Y-54011905D01*
X142135715Y-53773810D01*
X142088096Y-53678571D01*
X142040477Y-53630952D01*
X141945239Y-53583333D01*
X141754762Y-53583333D01*
X141659524Y-53630952D01*
X141611905Y-53678571D01*
X141564286Y-53773810D01*
X119307143Y-93866666D02*
X119354762Y-93914285D01*
X119402381Y-94057142D01*
X119402381Y-94152380D01*
X119354762Y-94295238D01*
X119259524Y-94390476D01*
X119164286Y-94438095D01*
X118973810Y-94485714D01*
X118830952Y-94485714D01*
X118640476Y-94438095D01*
X118545238Y-94390476D01*
X118450000Y-94295238D01*
X118402381Y-94152380D01*
X118402381Y-94057142D01*
X118450000Y-93914285D01*
X118497619Y-93866666D01*
X119402381Y-93390476D02*
X119402381Y-93200000D01*
X119354762Y-93104761D01*
X119307143Y-93057142D01*
X119164286Y-92961904D01*
X118973810Y-92914285D01*
X118592857Y-92914285D01*
X118497619Y-92961904D01*
X118450000Y-93009523D01*
X118402381Y-93104761D01*
X118402381Y-93295238D01*
X118450000Y-93390476D01*
X118497619Y-93438095D01*
X118592857Y-93485714D01*
X118830952Y-93485714D01*
X118926190Y-93438095D01*
X118973810Y-93390476D01*
X119021429Y-93295238D01*
X119021429Y-93104761D01*
X118973810Y-93009523D01*
X118926190Y-92961904D01*
X118830952Y-92914285D01*
X121357143Y-80007143D02*
X121309524Y-80054762D01*
X121166667Y-80102381D01*
X121071429Y-80102381D01*
X120928571Y-80054762D01*
X120833333Y-79959524D01*
X120785714Y-79864286D01*
X120738095Y-79673810D01*
X120738095Y-79530952D01*
X120785714Y-79340476D01*
X120833333Y-79245238D01*
X120928571Y-79150000D01*
X121071429Y-79102381D01*
X121166667Y-79102381D01*
X121309524Y-79150000D01*
X121357143Y-79197619D01*
X122309524Y-80102381D02*
X121738095Y-80102381D01*
X122023809Y-80102381D02*
X122023809Y-79102381D01*
X121928571Y-79245238D01*
X121833333Y-79340476D01*
X121738095Y-79388095D01*
X122690476Y-79197619D02*
X122738095Y-79150000D01*
X122833333Y-79102381D01*
X123071429Y-79102381D01*
X123166667Y-79150000D01*
X123214286Y-79197619D01*
X123261905Y-79292857D01*
X123261905Y-79388095D01*
X123214286Y-79530952D01*
X122642857Y-80102381D01*
X123261905Y-80102381D01*
X116257143Y-28542857D02*
X116304762Y-28590476D01*
X116352381Y-28733333D01*
X116352381Y-28828571D01*
X116304762Y-28971429D01*
X116209524Y-29066667D01*
X116114286Y-29114286D01*
X115923810Y-29161905D01*
X115780952Y-29161905D01*
X115590476Y-29114286D01*
X115495238Y-29066667D01*
X115400000Y-28971429D01*
X115352381Y-28828571D01*
X115352381Y-28733333D01*
X115400000Y-28590476D01*
X115447619Y-28542857D01*
X116352381Y-27590476D02*
X116352381Y-28161905D01*
X116352381Y-27876191D02*
X115352381Y-27876191D01*
X115495238Y-27971429D01*
X115590476Y-28066667D01*
X115638095Y-28161905D01*
X115352381Y-27257143D02*
X115352381Y-26638095D01*
X115733333Y-26971429D01*
X115733333Y-26828571D01*
X115780952Y-26733333D01*
X115828571Y-26685714D01*
X115923810Y-26638095D01*
X116161905Y-26638095D01*
X116257143Y-26685714D01*
X116304762Y-26733333D01*
X116352381Y-26828571D01*
X116352381Y-27114286D01*
X116304762Y-27209524D01*
X116257143Y-27257143D01*
X132457143Y-61657143D02*
X132409524Y-61704762D01*
X132266667Y-61752381D01*
X132171429Y-61752381D01*
X132028571Y-61704762D01*
X131933333Y-61609524D01*
X131885714Y-61514286D01*
X131838095Y-61323810D01*
X131838095Y-61180952D01*
X131885714Y-60990476D01*
X131933333Y-60895238D01*
X132028571Y-60800000D01*
X132171429Y-60752381D01*
X132266667Y-60752381D01*
X132409524Y-60800000D01*
X132457143Y-60847619D01*
X133409524Y-61752381D02*
X132838095Y-61752381D01*
X133123809Y-61752381D02*
X133123809Y-60752381D01*
X133028571Y-60895238D01*
X132933333Y-60990476D01*
X132838095Y-61038095D01*
X134314286Y-60752381D02*
X133838095Y-60752381D01*
X133790476Y-61228571D01*
X133838095Y-61180952D01*
X133933333Y-61133333D01*
X134171429Y-61133333D01*
X134266667Y-61180952D01*
X134314286Y-61228571D01*
X134361905Y-61323810D01*
X134361905Y-61561905D01*
X134314286Y-61657143D01*
X134266667Y-61704762D01*
X134171429Y-61752381D01*
X133933333Y-61752381D01*
X133838095Y-61704762D01*
X133790476Y-61657143D01*
X110857143Y-64957143D02*
X110809524Y-65004762D01*
X110666667Y-65052381D01*
X110571429Y-65052381D01*
X110428571Y-65004762D01*
X110333333Y-64909524D01*
X110285714Y-64814286D01*
X110238095Y-64623810D01*
X110238095Y-64480952D01*
X110285714Y-64290476D01*
X110333333Y-64195238D01*
X110428571Y-64100000D01*
X110571429Y-64052381D01*
X110666667Y-64052381D01*
X110809524Y-64100000D01*
X110857143Y-64147619D01*
X111809524Y-65052381D02*
X111238095Y-65052381D01*
X111523809Y-65052381D02*
X111523809Y-64052381D01*
X111428571Y-64195238D01*
X111333333Y-64290476D01*
X111238095Y-64338095D01*
X112142857Y-64052381D02*
X112809524Y-64052381D01*
X112380952Y-65052381D01*
X132457143Y-57757143D02*
X132409524Y-57804762D01*
X132266667Y-57852381D01*
X132171429Y-57852381D01*
X132028571Y-57804762D01*
X131933333Y-57709524D01*
X131885714Y-57614286D01*
X131838095Y-57423810D01*
X131838095Y-57280952D01*
X131885714Y-57090476D01*
X131933333Y-56995238D01*
X132028571Y-56900000D01*
X132171429Y-56852381D01*
X132266667Y-56852381D01*
X132409524Y-56900000D01*
X132457143Y-56947619D01*
X133409524Y-57852381D02*
X132838095Y-57852381D01*
X133123809Y-57852381D02*
X133123809Y-56852381D01*
X133028571Y-56995238D01*
X132933333Y-57090476D01*
X132838095Y-57138095D01*
X133980952Y-57280952D02*
X133885714Y-57233333D01*
X133838095Y-57185714D01*
X133790476Y-57090476D01*
X133790476Y-57042857D01*
X133838095Y-56947619D01*
X133885714Y-56900000D01*
X133980952Y-56852381D01*
X134171429Y-56852381D01*
X134266667Y-56900000D01*
X134314286Y-56947619D01*
X134361905Y-57042857D01*
X134361905Y-57090476D01*
X134314286Y-57185714D01*
X134266667Y-57233333D01*
X134171429Y-57280952D01*
X133980952Y-57280952D01*
X133885714Y-57328571D01*
X133838095Y-57376190D01*
X133790476Y-57471429D01*
X133790476Y-57661905D01*
X133838095Y-57757143D01*
X133885714Y-57804762D01*
X133980952Y-57852381D01*
X134171429Y-57852381D01*
X134266667Y-57804762D01*
X134314286Y-57757143D01*
X134361905Y-57661905D01*
X134361905Y-57471429D01*
X134314286Y-57376190D01*
X134266667Y-57328571D01*
X134171429Y-57280952D01*
X112057143Y-73107143D02*
X112009524Y-73154762D01*
X111866667Y-73202381D01*
X111771429Y-73202381D01*
X111628571Y-73154762D01*
X111533333Y-73059524D01*
X111485714Y-72964286D01*
X111438095Y-72773810D01*
X111438095Y-72630952D01*
X111485714Y-72440476D01*
X111533333Y-72345238D01*
X111628571Y-72250000D01*
X111771429Y-72202381D01*
X111866667Y-72202381D01*
X112009524Y-72250000D01*
X112057143Y-72297619D01*
X113009524Y-73202381D02*
X112438095Y-73202381D01*
X112723809Y-73202381D02*
X112723809Y-72202381D01*
X112628571Y-72345238D01*
X112533333Y-72440476D01*
X112438095Y-72488095D01*
X113485714Y-73202381D02*
X113676190Y-73202381D01*
X113771429Y-73154762D01*
X113819048Y-73107143D01*
X113914286Y-72964286D01*
X113961905Y-72773810D01*
X113961905Y-72392857D01*
X113914286Y-72297619D01*
X113866667Y-72250000D01*
X113771429Y-72202381D01*
X113580952Y-72202381D01*
X113485714Y-72250000D01*
X113438095Y-72297619D01*
X113390476Y-72392857D01*
X113390476Y-72630952D01*
X113438095Y-72726190D01*
X113485714Y-72773810D01*
X113580952Y-72821429D01*
X113771429Y-72821429D01*
X113866667Y-72773810D01*
X113914286Y-72726190D01*
X113961905Y-72630952D01*
X105157143Y-66842857D02*
X105204762Y-66890476D01*
X105252381Y-67033333D01*
X105252381Y-67128571D01*
X105204762Y-67271429D01*
X105109524Y-67366667D01*
X105014286Y-67414286D01*
X104823810Y-67461905D01*
X104680952Y-67461905D01*
X104490476Y-67414286D01*
X104395238Y-67366667D01*
X104300000Y-67271429D01*
X104252381Y-67128571D01*
X104252381Y-67033333D01*
X104300000Y-66890476D01*
X104347619Y-66842857D01*
X104347619Y-66461905D02*
X104300000Y-66414286D01*
X104252381Y-66319048D01*
X104252381Y-66080952D01*
X104300000Y-65985714D01*
X104347619Y-65938095D01*
X104442857Y-65890476D01*
X104538095Y-65890476D01*
X104680952Y-65938095D01*
X105252381Y-66509524D01*
X105252381Y-65890476D01*
X104252381Y-65271429D02*
X104252381Y-65176190D01*
X104300000Y-65080952D01*
X104347619Y-65033333D01*
X104442857Y-64985714D01*
X104633333Y-64938095D01*
X104871429Y-64938095D01*
X105061905Y-64985714D01*
X105157143Y-65033333D01*
X105204762Y-65080952D01*
X105252381Y-65176190D01*
X105252381Y-65271429D01*
X105204762Y-65366667D01*
X105157143Y-65414286D01*
X105061905Y-65461905D01*
X104871429Y-65509524D01*
X104633333Y-65509524D01*
X104442857Y-65461905D01*
X104347619Y-65414286D01*
X104300000Y-65366667D01*
X104252381Y-65271429D01*
X129097619Y-49295238D02*
X129050000Y-49390476D01*
X128954762Y-49485714D01*
X128811905Y-49628571D01*
X128764286Y-49723810D01*
X128764286Y-49819048D01*
X129002381Y-49771429D02*
X128954762Y-49866667D01*
X128859524Y-49961905D01*
X128669048Y-50009524D01*
X128335714Y-50009524D01*
X128145238Y-49961905D01*
X128050000Y-49866667D01*
X128002381Y-49771429D01*
X128002381Y-49580952D01*
X128050000Y-49485714D01*
X128145238Y-49390476D01*
X128335714Y-49342857D01*
X128669048Y-49342857D01*
X128859524Y-49390476D01*
X128954762Y-49485714D01*
X129002381Y-49580952D01*
X129002381Y-49771429D01*
X129002381Y-48390476D02*
X129002381Y-48961905D01*
X129002381Y-48676191D02*
X128002381Y-48676191D01*
X128145238Y-48771429D01*
X128240476Y-48866667D01*
X128288095Y-48961905D01*
X124497619Y-46895238D02*
X124450000Y-46990476D01*
X124354762Y-47085714D01*
X124211905Y-47228571D01*
X124164286Y-47323810D01*
X124164286Y-47419048D01*
X124402381Y-47371429D02*
X124354762Y-47466667D01*
X124259524Y-47561905D01*
X124069048Y-47609524D01*
X123735714Y-47609524D01*
X123545238Y-47561905D01*
X123450000Y-47466667D01*
X123402381Y-47371429D01*
X123402381Y-47180952D01*
X123450000Y-47085714D01*
X123545238Y-46990476D01*
X123735714Y-46942857D01*
X124069048Y-46942857D01*
X124259524Y-46990476D01*
X124354762Y-47085714D01*
X124402381Y-47180952D01*
X124402381Y-47371429D01*
X123497619Y-46561905D02*
X123450000Y-46514286D01*
X123402381Y-46419048D01*
X123402381Y-46180952D01*
X123450000Y-46085714D01*
X123497619Y-46038095D01*
X123592857Y-45990476D01*
X123688095Y-45990476D01*
X123830952Y-46038095D01*
X124402381Y-46609524D01*
X124402381Y-45990476D01*
X145333334Y-83052381D02*
X145000000Y-82576190D01*
X144761905Y-83052381D02*
X144761905Y-82052381D01*
X145142858Y-82052381D01*
X145238096Y-82100000D01*
X145285715Y-82147619D01*
X145333334Y-82242857D01*
X145333334Y-82385714D01*
X145285715Y-82480952D01*
X145238096Y-82528571D01*
X145142858Y-82576190D01*
X144761905Y-82576190D01*
X146238096Y-82052381D02*
X145761905Y-82052381D01*
X145714286Y-82528571D01*
X145761905Y-82480952D01*
X145857143Y-82433333D01*
X146095239Y-82433333D01*
X146190477Y-82480952D01*
X146238096Y-82528571D01*
X146285715Y-82623810D01*
X146285715Y-82861905D01*
X146238096Y-82957143D01*
X146190477Y-83004762D01*
X146095239Y-83052381D01*
X145857143Y-83052381D01*
X145761905Y-83004762D01*
X145714286Y-82957143D01*
X105883334Y-48002381D02*
X105550000Y-47526190D01*
X105311905Y-48002381D02*
X105311905Y-47002381D01*
X105692858Y-47002381D01*
X105788096Y-47050000D01*
X105835715Y-47097619D01*
X105883334Y-47192857D01*
X105883334Y-47335714D01*
X105835715Y-47430952D01*
X105788096Y-47478571D01*
X105692858Y-47526190D01*
X105311905Y-47526190D01*
X106216667Y-47002381D02*
X106883334Y-47002381D01*
X106454762Y-48002381D01*
X131688095Y-41752381D02*
X131688095Y-42561905D01*
X131735714Y-42657143D01*
X131783333Y-42704762D01*
X131878571Y-42752381D01*
X132069048Y-42752381D01*
X132164286Y-42704762D01*
X132211905Y-42657143D01*
X132259524Y-42561905D01*
X132259524Y-41752381D01*
X132688095Y-41847619D02*
X132735714Y-41800000D01*
X132830952Y-41752381D01*
X133069048Y-41752381D01*
X133164286Y-41800000D01*
X133211905Y-41847619D01*
X133259524Y-41942857D01*
X133259524Y-42038095D01*
X133211905Y-42180952D01*
X132640476Y-42752381D01*
X133259524Y-42752381D01*
X128852381Y-87261905D02*
X129661905Y-87261905D01*
X129757143Y-87214286D01*
X129804762Y-87166667D01*
X129852381Y-87071429D01*
X129852381Y-86880952D01*
X129804762Y-86785714D01*
X129757143Y-86738095D01*
X129661905Y-86690476D01*
X128852381Y-86690476D01*
X129185714Y-85785714D02*
X129852381Y-85785714D01*
X128804762Y-86023810D02*
X129519048Y-86261905D01*
X129519048Y-85642857D01*
X109838095Y-31502381D02*
X109838095Y-32311905D01*
X109885714Y-32407143D01*
X109933333Y-32454762D01*
X110028571Y-32502381D01*
X110219048Y-32502381D01*
X110314286Y-32454762D01*
X110361905Y-32407143D01*
X110409524Y-32311905D01*
X110409524Y-31502381D01*
X111361905Y-31502381D02*
X110885714Y-31502381D01*
X110838095Y-31978571D01*
X110885714Y-31930952D01*
X110980952Y-31883333D01*
X111219048Y-31883333D01*
X111314286Y-31930952D01*
X111361905Y-31978571D01*
X111409524Y-32073810D01*
X111409524Y-32311905D01*
X111361905Y-32407143D01*
X111314286Y-32454762D01*
X111219048Y-32502381D01*
X110980952Y-32502381D01*
X110885714Y-32454762D01*
X110838095Y-32407143D01*
X115238095Y-65852381D02*
X115238095Y-66661905D01*
X115285714Y-66757143D01*
X115333333Y-66804762D01*
X115428571Y-66852381D01*
X115619048Y-66852381D01*
X115714286Y-66804762D01*
X115761905Y-66757143D01*
X115809524Y-66661905D01*
X115809524Y-65852381D01*
X116714286Y-65852381D02*
X116523809Y-65852381D01*
X116428571Y-65900000D01*
X116380952Y-65947619D01*
X116285714Y-66090476D01*
X116238095Y-66280952D01*
X116238095Y-66661905D01*
X116285714Y-66757143D01*
X116333333Y-66804762D01*
X116428571Y-66852381D01*
X116619048Y-66852381D01*
X116714286Y-66804762D01*
X116761905Y-66757143D01*
X116809524Y-66661905D01*
X116809524Y-66423810D01*
X116761905Y-66328571D01*
X116714286Y-66280952D01*
X116619048Y-66233333D01*
X116428571Y-66233333D01*
X116333333Y-66280952D01*
X116285714Y-66328571D01*
X116238095Y-66423810D01*
X119123809Y-33426190D02*
X119123809Y-33902381D01*
X118790476Y-32902381D02*
X119123809Y-33426190D01*
X119457143Y-32902381D01*
X120314286Y-33902381D02*
X119742857Y-33902381D01*
X120028571Y-33902381D02*
X120028571Y-32902381D01*
X119933333Y-33045238D01*
X119838095Y-33140476D01*
X119742857Y-33188095D01*
X118209524Y-40852381D02*
X117876190Y-40376190D01*
X117638095Y-40852381D02*
X117638095Y-39852381D01*
X118019048Y-39852381D01*
X118114286Y-39900000D01*
X118161905Y-39947619D01*
X118209524Y-40042857D01*
X118209524Y-40185714D01*
X118161905Y-40280952D01*
X118114286Y-40328571D01*
X118019048Y-40376190D01*
X117638095Y-40376190D01*
X118638095Y-40852381D02*
X118638095Y-39852381D01*
X119209524Y-40852381D01*
X119209524Y-39852381D01*
X120209524Y-40852381D02*
X119638095Y-40852381D01*
X119923809Y-40852381D02*
X119923809Y-39852381D01*
X119828571Y-39995238D01*
X119733333Y-40090476D01*
X119638095Y-40138095D01*
X106433334Y-51852381D02*
X106100000Y-51376190D01*
X105861905Y-51852381D02*
X105861905Y-50852381D01*
X106242858Y-50852381D01*
X106338096Y-50900000D01*
X106385715Y-50947619D01*
X106433334Y-51042857D01*
X106433334Y-51185714D01*
X106385715Y-51280952D01*
X106338096Y-51328571D01*
X106242858Y-51376190D01*
X105861905Y-51376190D01*
X106766667Y-50852381D02*
X107385715Y-50852381D01*
X107052381Y-51233333D01*
X107195239Y-51233333D01*
X107290477Y-51280952D01*
X107338096Y-51328571D01*
X107385715Y-51423810D01*
X107385715Y-51661905D01*
X107338096Y-51757143D01*
X107290477Y-51804762D01*
X107195239Y-51852381D01*
X106909524Y-51852381D01*
X106814286Y-51804762D01*
X106766667Y-51757143D01*
X111452381Y-54366666D02*
X110976190Y-54700000D01*
X111452381Y-54938095D02*
X110452381Y-54938095D01*
X110452381Y-54557142D01*
X110500000Y-54461904D01*
X110547619Y-54414285D01*
X110642857Y-54366666D01*
X110785714Y-54366666D01*
X110880952Y-54414285D01*
X110928571Y-54461904D01*
X110976190Y-54557142D01*
X110976190Y-54938095D01*
X110785714Y-53509523D02*
X111452381Y-53509523D01*
X110404762Y-53747619D02*
X111119048Y-53985714D01*
X111119048Y-53366666D01*
X140052381Y-30866666D02*
X139576190Y-31200000D01*
X140052381Y-31438095D02*
X139052381Y-31438095D01*
X139052381Y-31057142D01*
X139100000Y-30961904D01*
X139147619Y-30914285D01*
X139242857Y-30866666D01*
X139385714Y-30866666D01*
X139480952Y-30914285D01*
X139528571Y-30961904D01*
X139576190Y-31057142D01*
X139576190Y-31438095D01*
X139052381Y-30009523D02*
X139052381Y-30200000D01*
X139100000Y-30295238D01*
X139147619Y-30342857D01*
X139290476Y-30438095D01*
X139480952Y-30485714D01*
X139861905Y-30485714D01*
X139957143Y-30438095D01*
X140004762Y-30390476D01*
X140052381Y-30295238D01*
X140052381Y-30104761D01*
X140004762Y-30009523D01*
X139957143Y-29961904D01*
X139861905Y-29914285D01*
X139623810Y-29914285D01*
X139528571Y-29961904D01*
X139480952Y-30009523D01*
X139433333Y-30104761D01*
X139433333Y-30295238D01*
X139480952Y-30390476D01*
X139528571Y-30438095D01*
X139623810Y-30485714D01*
X145283334Y-79152381D02*
X144950000Y-78676190D01*
X144711905Y-79152381D02*
X144711905Y-78152381D01*
X145092858Y-78152381D01*
X145188096Y-78200000D01*
X145235715Y-78247619D01*
X145283334Y-78342857D01*
X145283334Y-78485714D01*
X145235715Y-78580952D01*
X145188096Y-78628571D01*
X145092858Y-78676190D01*
X144711905Y-78676190D01*
X146235715Y-79152381D02*
X145664286Y-79152381D01*
X145950000Y-79152381D02*
X145950000Y-78152381D01*
X145854762Y-78295238D01*
X145759524Y-78390476D01*
X145664286Y-78438095D01*
X143433334Y-61007143D02*
X143385715Y-61054762D01*
X143242858Y-61102381D01*
X143147620Y-61102381D01*
X143004762Y-61054762D01*
X142909524Y-60959524D01*
X142861905Y-60864286D01*
X142814286Y-60673810D01*
X142814286Y-60530952D01*
X142861905Y-60340476D01*
X142909524Y-60245238D01*
X143004762Y-60150000D01*
X143147620Y-60102381D01*
X143242858Y-60102381D01*
X143385715Y-60150000D01*
X143433334Y-60197619D01*
X143766667Y-60102381D02*
X144433334Y-60102381D01*
X144004762Y-61102381D01*
X139988095Y-56452381D02*
X139988095Y-57261905D01*
X140035714Y-57357143D01*
X140083333Y-57404762D01*
X140178571Y-57452381D01*
X140369048Y-57452381D01*
X140464286Y-57404762D01*
X140511905Y-57357143D01*
X140559524Y-57261905D01*
X140559524Y-56452381D01*
X140940476Y-56452381D02*
X141559524Y-56452381D01*
X141226190Y-56833333D01*
X141369048Y-56833333D01*
X141464286Y-56880952D01*
X141511905Y-56928571D01*
X141559524Y-57023810D01*
X141559524Y-57261905D01*
X141511905Y-57357143D01*
X141464286Y-57404762D01*
X141369048Y-57452381D01*
X141083333Y-57452381D01*
X140988095Y-57404762D01*
X140940476Y-57357143D01*
M02*
