G04 #@! TF.FileFunction,Soldermask,Bot*
%FSLAX46Y46*%
G04 Gerber Fmt 4.6, Leading zero omitted, Abs format (unit mm)*
G04 Created by KiCad (PCBNEW 4.0.7) date 09/18/22 11:46:45*
%MOMM*%
%LPD*%
G01*
G04 APERTURE LIST*
%ADD10C,0.100000*%
%ADD11R,1.600000X1.600000*%
%ADD12C,1.600000*%
%ADD13O,2.500000X1.600000*%
%ADD14O,1.200000X1.200000*%
%ADD15O,1.600000X2.500000*%
%ADD16R,2.200000X1.050000*%
%ADD17R,1.000000X1.000000*%
%ADD18R,1.600000X2.400000*%
%ADD19O,1.600000X2.400000*%
%ADD20R,1.700000X1.700000*%
%ADD21O,1.700000X1.700000*%
%ADD22C,5.600000*%
%ADD23C,1.500000*%
%ADD24R,1.727200X1.727200*%
%ADD25O,1.727200X1.727200*%
%ADD26C,2.200000*%
%ADD27C,2.000000*%
%ADD28O,2.300000X1.600000*%
%ADD29O,1.600000X1.600000*%
%ADD30C,1.998980*%
%ADD31C,1.520000*%
%ADD32R,1.520000X1.520000*%
%ADD33R,3.500120X3.500120*%
%ADD34C,2.700000*%
%ADD35R,1.800000X1.800000*%
%ADD36C,1.800000*%
%ADD37R,1.050000X2.200000*%
%ADD38C,1.524000*%
G04 APERTURE END LIST*
D10*
D11*
X147600000Y-87775000D03*
D12*
X150100000Y-87775000D03*
D13*
X137922000Y-156464000D03*
D14*
X137922000Y-151464000D03*
D15*
X142922000Y-151464000D03*
X140422000Y-151464000D03*
X135422000Y-151464000D03*
X132922000Y-151464000D03*
D14*
X142922000Y-156464000D03*
X132922000Y-156464000D03*
X142922000Y-158964000D03*
X132922000Y-158964000D03*
D16*
X116950000Y-118900000D03*
X116950000Y-121850000D03*
D17*
X115450000Y-120375000D03*
X118450000Y-120375000D03*
D18*
X148336000Y-104902000D03*
D19*
X163576000Y-112522000D03*
X150876000Y-104902000D03*
X161036000Y-112522000D03*
X153416000Y-104902000D03*
X158496000Y-112522000D03*
X155956000Y-104902000D03*
X155956000Y-112522000D03*
X158496000Y-104902000D03*
X153416000Y-112522000D03*
X161036000Y-104902000D03*
X150876000Y-112522000D03*
X163576000Y-104902000D03*
X148336000Y-112522000D03*
D11*
X127740000Y-151630000D03*
D12*
X129740000Y-151630000D03*
D20*
X126575000Y-92025000D03*
D21*
X126575000Y-89485000D03*
X126575000Y-86945000D03*
X126575000Y-84405000D03*
D22*
X163500000Y-156500000D03*
X107000000Y-64000000D03*
X163000000Y-64000000D03*
D11*
X138925000Y-89950000D03*
D12*
X138925000Y-92450000D03*
D23*
X107725000Y-108825000D03*
X107725000Y-103945000D03*
D24*
X116300000Y-108400000D03*
D25*
X116300000Y-110940000D03*
X118840000Y-108400000D03*
X118840000Y-110940000D03*
X121380000Y-108400000D03*
X121380000Y-110940000D03*
D26*
X143185000Y-61610000D03*
X143185000Y-66690000D03*
X148265000Y-66690000D03*
X148265000Y-61610000D03*
D27*
X145725000Y-64150000D03*
D13*
X119380000Y-156464000D03*
D14*
X119380000Y-151464000D03*
D15*
X124380000Y-151464000D03*
X121880000Y-151464000D03*
X116880000Y-151464000D03*
X114380000Y-151464000D03*
D14*
X124380000Y-156464000D03*
X114380000Y-156464000D03*
X124380000Y-158964000D03*
X114380000Y-158964000D03*
D28*
X159512000Y-84074000D03*
X159512000Y-94234000D03*
X167132000Y-84074000D03*
X167132000Y-94234000D03*
X159512000Y-96774000D03*
X167132000Y-96774000D03*
D12*
X113000000Y-116250000D03*
D29*
X123160000Y-116250000D03*
D30*
X167775000Y-154701260D03*
X167775000Y-144541260D03*
X157988000Y-121412000D03*
X157988000Y-115824000D03*
D31*
X167894000Y-122174000D03*
X167894000Y-124714000D03*
D32*
X167894000Y-119634000D03*
D31*
X167894000Y-106934000D03*
X167894000Y-109474000D03*
D32*
X167894000Y-104394000D03*
D33*
X153670000Y-146199860D03*
X153670000Y-152199340D03*
X148971000Y-149199600D03*
D11*
X103700000Y-71500000D03*
D12*
X103700000Y-69500000D03*
D30*
X125501260Y-79900000D03*
X115341260Y-79900000D03*
D31*
X118860000Y-75400000D03*
X121400000Y-75400000D03*
X121400000Y-73400000D03*
X118860000Y-73400000D03*
D34*
X114130000Y-70700000D03*
X126130000Y-70700000D03*
D11*
X162250000Y-147625000D03*
D12*
X162250000Y-150125000D03*
D11*
X105400000Y-121725000D03*
D12*
X105400000Y-119225000D03*
D31*
X167894000Y-114554000D03*
X167894000Y-117094000D03*
D32*
X167894000Y-112014000D03*
D12*
X141400000Y-74425000D03*
X141400000Y-69425000D03*
X151892000Y-66802000D03*
X151892000Y-61802000D03*
X156800000Y-66800000D03*
X156800000Y-61800000D03*
X167640000Y-66802000D03*
X167640000Y-61802000D03*
X139200000Y-86550000D03*
X139200000Y-76550000D03*
D35*
X130600000Y-69000000D03*
D36*
X133140000Y-69000000D03*
D37*
X152225000Y-99950000D03*
X155175000Y-99950000D03*
D17*
X153700000Y-101450000D03*
X153700000Y-98450000D03*
D37*
X147555000Y-117420000D03*
X150505000Y-117420000D03*
D17*
X149030000Y-118920000D03*
X149030000Y-115920000D03*
D12*
X164084000Y-100076000D03*
X159084000Y-100076000D03*
D35*
X136000000Y-69000000D03*
D36*
X138540000Y-69000000D03*
D30*
X139954000Y-108458000D03*
X139954000Y-114046000D03*
X139954000Y-117348000D03*
X139954000Y-122936000D03*
X139954000Y-99822000D03*
X139954000Y-105410000D03*
X145058000Y-75446000D03*
X150646000Y-75446000D03*
X153924000Y-75438000D03*
X159512000Y-75438000D03*
X162533000Y-75446000D03*
X168121000Y-75446000D03*
D11*
X129200000Y-122100000D03*
D12*
X131200000Y-122100000D03*
D23*
X161290000Y-134366000D03*
X166170000Y-134366000D03*
X161290000Y-128778000D03*
X166170000Y-128778000D03*
X166370000Y-139954000D03*
X161490000Y-139954000D03*
X154800000Y-140090000D03*
X154800000Y-135210000D03*
X149170000Y-135210000D03*
X149170000Y-140090000D03*
X137620000Y-144210000D03*
X137620000Y-139330000D03*
X143410000Y-144210000D03*
X143410000Y-139330000D03*
D38*
X152460000Y-128010000D03*
X155000000Y-126740000D03*
X152460000Y-125470000D03*
X155000000Y-124200000D03*
X139020000Y-130230000D03*
X141560000Y-128960000D03*
X139020000Y-127690000D03*
X141560000Y-126420000D03*
D22*
X107000000Y-156000000D03*
D30*
X128000000Y-125998740D03*
X128000000Y-136158740D03*
D37*
X153800000Y-86475000D03*
X156750000Y-86475000D03*
D17*
X155275000Y-87975000D03*
X155275000Y-84975000D03*
D30*
X124480000Y-147540000D03*
X124480000Y-139920000D03*
X102300000Y-137580000D03*
X109920000Y-137580000D03*
D20*
X102875000Y-92000000D03*
D21*
X102875000Y-94540000D03*
X102875000Y-97080000D03*
X102875000Y-99620000D03*
X102875000Y-102160000D03*
X102875000Y-104700000D03*
X102875000Y-107240000D03*
X102875000Y-109780000D03*
X102875000Y-112320000D03*
X102875000Y-114860000D03*
D20*
X142250000Y-134000000D03*
M02*
