G04 #@! TF.FileFunction,Legend,Bot*
%FSLAX46Y46*%
G04 Gerber Fmt 4.6, Leading zero omitted, Abs format (unit mm)*
G04 Created by KiCad (PCBNEW 4.0.7) date 09/18/22 11:46:45*
%MOMM*%
%LPD*%
G01*
G04 APERTURE LIST*
%ADD10C,0.100000*%
%ADD11C,0.120000*%
%ADD12C,0.150000*%
G04 APERTURE END LIST*
D10*
D11*
X151867820Y-88954136D02*
G75*
G02X145832518Y-88955000I-3017820J1179136D01*
G01*
X151867820Y-86595864D02*
G75*
G03X145832518Y-86595000I-3017820J-1179136D01*
G01*
X151867820Y-86595864D02*
G75*
G02X151867482Y-88955000I-3017820J-1179136D01*
G01*
X148850000Y-90975000D02*
X148850000Y-84575000D01*
X148890000Y-90975000D02*
X148890000Y-84575000D01*
X148930000Y-90975000D02*
X148930000Y-84575000D01*
X148970000Y-90973000D02*
X148970000Y-84577000D01*
X149010000Y-90972000D02*
X149010000Y-84578000D01*
X149050000Y-90969000D02*
X149050000Y-84581000D01*
X149090000Y-90967000D02*
X149090000Y-84583000D01*
X149130000Y-90963000D02*
X149130000Y-88755000D01*
X149130000Y-86795000D02*
X149130000Y-84587000D01*
X149170000Y-90960000D02*
X149170000Y-88755000D01*
X149170000Y-86795000D02*
X149170000Y-84590000D01*
X149210000Y-90955000D02*
X149210000Y-88755000D01*
X149210000Y-86795000D02*
X149210000Y-84595000D01*
X149250000Y-90951000D02*
X149250000Y-88755000D01*
X149250000Y-86795000D02*
X149250000Y-84599000D01*
X149290000Y-90945000D02*
X149290000Y-88755000D01*
X149290000Y-86795000D02*
X149290000Y-84605000D01*
X149330000Y-90940000D02*
X149330000Y-88755000D01*
X149330000Y-86795000D02*
X149330000Y-84610000D01*
X149370000Y-90933000D02*
X149370000Y-88755000D01*
X149370000Y-86795000D02*
X149370000Y-84617000D01*
X149410000Y-90927000D02*
X149410000Y-88755000D01*
X149410000Y-86795000D02*
X149410000Y-84623000D01*
X149450000Y-90919000D02*
X149450000Y-88755000D01*
X149450000Y-86795000D02*
X149450000Y-84631000D01*
X149490000Y-90912000D02*
X149490000Y-88755000D01*
X149490000Y-86795000D02*
X149490000Y-84638000D01*
X149530000Y-90903000D02*
X149530000Y-88755000D01*
X149530000Y-86795000D02*
X149530000Y-84647000D01*
X149571000Y-90894000D02*
X149571000Y-88755000D01*
X149571000Y-86795000D02*
X149571000Y-84656000D01*
X149611000Y-90885000D02*
X149611000Y-88755000D01*
X149611000Y-86795000D02*
X149611000Y-84665000D01*
X149651000Y-90875000D02*
X149651000Y-88755000D01*
X149651000Y-86795000D02*
X149651000Y-84675000D01*
X149691000Y-90865000D02*
X149691000Y-88755000D01*
X149691000Y-86795000D02*
X149691000Y-84685000D01*
X149731000Y-90854000D02*
X149731000Y-88755000D01*
X149731000Y-86795000D02*
X149731000Y-84696000D01*
X149771000Y-90842000D02*
X149771000Y-88755000D01*
X149771000Y-86795000D02*
X149771000Y-84708000D01*
X149811000Y-90830000D02*
X149811000Y-88755000D01*
X149811000Y-86795000D02*
X149811000Y-84720000D01*
X149851000Y-90817000D02*
X149851000Y-88755000D01*
X149851000Y-86795000D02*
X149851000Y-84733000D01*
X149891000Y-90804000D02*
X149891000Y-88755000D01*
X149891000Y-86795000D02*
X149891000Y-84746000D01*
X149931000Y-90790000D02*
X149931000Y-88755000D01*
X149931000Y-86795000D02*
X149931000Y-84760000D01*
X149971000Y-90776000D02*
X149971000Y-88755000D01*
X149971000Y-86795000D02*
X149971000Y-84774000D01*
X150011000Y-90761000D02*
X150011000Y-88755000D01*
X150011000Y-86795000D02*
X150011000Y-84789000D01*
X150051000Y-90745000D02*
X150051000Y-88755000D01*
X150051000Y-86795000D02*
X150051000Y-84805000D01*
X150091000Y-90729000D02*
X150091000Y-88755000D01*
X150091000Y-86795000D02*
X150091000Y-84821000D01*
X150131000Y-90712000D02*
X150131000Y-88755000D01*
X150131000Y-86795000D02*
X150131000Y-84838000D01*
X150171000Y-90694000D02*
X150171000Y-88755000D01*
X150171000Y-86795000D02*
X150171000Y-84856000D01*
X150211000Y-90676000D02*
X150211000Y-88755000D01*
X150211000Y-86795000D02*
X150211000Y-84874000D01*
X150251000Y-90657000D02*
X150251000Y-88755000D01*
X150251000Y-86795000D02*
X150251000Y-84893000D01*
X150291000Y-90638000D02*
X150291000Y-88755000D01*
X150291000Y-86795000D02*
X150291000Y-84912000D01*
X150331000Y-90618000D02*
X150331000Y-88755000D01*
X150331000Y-86795000D02*
X150331000Y-84932000D01*
X150371000Y-90597000D02*
X150371000Y-88755000D01*
X150371000Y-86795000D02*
X150371000Y-84953000D01*
X150411000Y-90575000D02*
X150411000Y-88755000D01*
X150411000Y-86795000D02*
X150411000Y-84975000D01*
X150451000Y-90553000D02*
X150451000Y-88755000D01*
X150451000Y-86795000D02*
X150451000Y-84997000D01*
X150491000Y-90530000D02*
X150491000Y-88755000D01*
X150491000Y-86795000D02*
X150491000Y-85020000D01*
X150531000Y-90506000D02*
X150531000Y-88755000D01*
X150531000Y-86795000D02*
X150531000Y-85044000D01*
X150571000Y-90481000D02*
X150571000Y-88755000D01*
X150571000Y-86795000D02*
X150571000Y-85069000D01*
X150611000Y-90456000D02*
X150611000Y-88755000D01*
X150611000Y-86795000D02*
X150611000Y-85094000D01*
X150651000Y-90429000D02*
X150651000Y-88755000D01*
X150651000Y-86795000D02*
X150651000Y-85121000D01*
X150691000Y-90402000D02*
X150691000Y-88755000D01*
X150691000Y-86795000D02*
X150691000Y-85148000D01*
X150731000Y-90374000D02*
X150731000Y-88755000D01*
X150731000Y-86795000D02*
X150731000Y-85176000D01*
X150771000Y-90345000D02*
X150771000Y-88755000D01*
X150771000Y-86795000D02*
X150771000Y-85205000D01*
X150811000Y-90315000D02*
X150811000Y-88755000D01*
X150811000Y-86795000D02*
X150811000Y-85235000D01*
X150851000Y-90285000D02*
X150851000Y-88755000D01*
X150851000Y-86795000D02*
X150851000Y-85265000D01*
X150891000Y-90253000D02*
X150891000Y-88755000D01*
X150891000Y-86795000D02*
X150891000Y-85297000D01*
X150931000Y-90220000D02*
X150931000Y-88755000D01*
X150931000Y-86795000D02*
X150931000Y-85330000D01*
X150971000Y-90186000D02*
X150971000Y-88755000D01*
X150971000Y-86795000D02*
X150971000Y-85364000D01*
X151011000Y-90150000D02*
X151011000Y-88755000D01*
X151011000Y-86795000D02*
X151011000Y-85400000D01*
X151051000Y-90114000D02*
X151051000Y-88755000D01*
X151051000Y-86795000D02*
X151051000Y-85436000D01*
X151091000Y-90076000D02*
X151091000Y-85474000D01*
X151131000Y-90037000D02*
X151131000Y-85513000D01*
X151171000Y-89997000D02*
X151171000Y-85553000D01*
X151211000Y-89955000D02*
X151211000Y-85595000D01*
X151251000Y-89912000D02*
X151251000Y-85638000D01*
X151291000Y-89867000D02*
X151291000Y-85683000D01*
X151331000Y-89820000D02*
X151331000Y-85730000D01*
X151371000Y-89772000D02*
X151371000Y-85778000D01*
X151411000Y-89721000D02*
X151411000Y-85829000D01*
X151451000Y-89669000D02*
X151451000Y-85881000D01*
X151491000Y-89614000D02*
X151491000Y-85936000D01*
X151531000Y-89556000D02*
X151531000Y-85994000D01*
X151571000Y-89496000D02*
X151571000Y-86054000D01*
X151611000Y-89433000D02*
X151611000Y-86117000D01*
X151651000Y-89366000D02*
X151651000Y-86184000D01*
X151691000Y-89295000D02*
X151691000Y-86255000D01*
X151731000Y-89220000D02*
X151731000Y-86330000D01*
X151771000Y-89139000D02*
X151771000Y-86411000D01*
X151811000Y-89053000D02*
X151811000Y-86497000D01*
X151851000Y-88959000D02*
X151851000Y-86591000D01*
X151891000Y-88856000D02*
X151891000Y-86694000D01*
X151931000Y-88741000D02*
X151931000Y-86809000D01*
X151971000Y-88609000D02*
X151971000Y-86941000D01*
X152011000Y-88451000D02*
X152011000Y-87099000D01*
X152051000Y-88243000D02*
X152051000Y-87307000D01*
X145400000Y-87775000D02*
X146600000Y-87775000D01*
X146000000Y-88425000D02*
X146000000Y-87125000D01*
D12*
X131922000Y-159964000D02*
X131922000Y-148964000D01*
X143922000Y-159964000D02*
X143922000Y-148964000D01*
X131922000Y-159964000D02*
X143922000Y-159964000D01*
D11*
X118450000Y-121075000D02*
X118950000Y-121075000D01*
X118450000Y-119675000D02*
X118950000Y-119675000D01*
X118450000Y-119675000D02*
X118450000Y-119075000D01*
X118450000Y-119075000D02*
X118250000Y-118875000D01*
X118250000Y-121875000D02*
X118450000Y-121875000D01*
X118450000Y-121875000D02*
X118450000Y-121075000D01*
X115450000Y-121075000D02*
X115450000Y-121875000D01*
X115450000Y-121875000D02*
X115650000Y-121875000D01*
X115650000Y-118875000D02*
X115450000Y-118875000D01*
X115450000Y-118875000D02*
X115450000Y-119675000D01*
X147006000Y-109712000D02*
G75*
G03X147006000Y-107712000I0J1000000D01*
G01*
X147006000Y-107712000D02*
X147006000Y-106462000D01*
X147006000Y-106462000D02*
X164906000Y-106462000D01*
X164906000Y-106462000D02*
X164906000Y-110962000D01*
X164906000Y-110962000D02*
X147006000Y-110962000D01*
X147006000Y-110962000D02*
X147006000Y-109712000D01*
X131045722Y-152809723D02*
G75*
G02X126434420Y-152810000I-2305722J1179723D01*
G01*
X131045722Y-150450277D02*
G75*
G03X126434420Y-150450000I-2305722J-1179723D01*
G01*
X131045722Y-150450277D02*
G75*
G02X131045580Y-152810000I-2305722J-1179723D01*
G01*
X128740000Y-154180000D02*
X128740000Y-149080000D01*
X128780000Y-154180000D02*
X128780000Y-152610000D01*
X128780000Y-150650000D02*
X128780000Y-149080000D01*
X128820000Y-154179000D02*
X128820000Y-152610000D01*
X128820000Y-150650000D02*
X128820000Y-149081000D01*
X128860000Y-154178000D02*
X128860000Y-152610000D01*
X128860000Y-150650000D02*
X128860000Y-149082000D01*
X128900000Y-154176000D02*
X128900000Y-152610000D01*
X128900000Y-150650000D02*
X128900000Y-149084000D01*
X128940000Y-154173000D02*
X128940000Y-152610000D01*
X128940000Y-150650000D02*
X128940000Y-149087000D01*
X128980000Y-154169000D02*
X128980000Y-152610000D01*
X128980000Y-150650000D02*
X128980000Y-149091000D01*
X129020000Y-154165000D02*
X129020000Y-152610000D01*
X129020000Y-150650000D02*
X129020000Y-149095000D01*
X129060000Y-154161000D02*
X129060000Y-152610000D01*
X129060000Y-150650000D02*
X129060000Y-149099000D01*
X129100000Y-154155000D02*
X129100000Y-152610000D01*
X129100000Y-150650000D02*
X129100000Y-149105000D01*
X129140000Y-154149000D02*
X129140000Y-152610000D01*
X129140000Y-150650000D02*
X129140000Y-149111000D01*
X129180000Y-154143000D02*
X129180000Y-152610000D01*
X129180000Y-150650000D02*
X129180000Y-149117000D01*
X129220000Y-154136000D02*
X129220000Y-152610000D01*
X129220000Y-150650000D02*
X129220000Y-149124000D01*
X129260000Y-154128000D02*
X129260000Y-152610000D01*
X129260000Y-150650000D02*
X129260000Y-149132000D01*
X129300000Y-154119000D02*
X129300000Y-152610000D01*
X129300000Y-150650000D02*
X129300000Y-149141000D01*
X129340000Y-154110000D02*
X129340000Y-152610000D01*
X129340000Y-150650000D02*
X129340000Y-149150000D01*
X129380000Y-154100000D02*
X129380000Y-152610000D01*
X129380000Y-150650000D02*
X129380000Y-149160000D01*
X129420000Y-154090000D02*
X129420000Y-152610000D01*
X129420000Y-150650000D02*
X129420000Y-149170000D01*
X129461000Y-154078000D02*
X129461000Y-152610000D01*
X129461000Y-150650000D02*
X129461000Y-149182000D01*
X129501000Y-154066000D02*
X129501000Y-152610000D01*
X129501000Y-150650000D02*
X129501000Y-149194000D01*
X129541000Y-154054000D02*
X129541000Y-152610000D01*
X129541000Y-150650000D02*
X129541000Y-149206000D01*
X129581000Y-154040000D02*
X129581000Y-152610000D01*
X129581000Y-150650000D02*
X129581000Y-149220000D01*
X129621000Y-154026000D02*
X129621000Y-152610000D01*
X129621000Y-150650000D02*
X129621000Y-149234000D01*
X129661000Y-154012000D02*
X129661000Y-152610000D01*
X129661000Y-150650000D02*
X129661000Y-149248000D01*
X129701000Y-153996000D02*
X129701000Y-152610000D01*
X129701000Y-150650000D02*
X129701000Y-149264000D01*
X129741000Y-153980000D02*
X129741000Y-152610000D01*
X129741000Y-150650000D02*
X129741000Y-149280000D01*
X129781000Y-153963000D02*
X129781000Y-152610000D01*
X129781000Y-150650000D02*
X129781000Y-149297000D01*
X129821000Y-153945000D02*
X129821000Y-152610000D01*
X129821000Y-150650000D02*
X129821000Y-149315000D01*
X129861000Y-153926000D02*
X129861000Y-152610000D01*
X129861000Y-150650000D02*
X129861000Y-149334000D01*
X129901000Y-153906000D02*
X129901000Y-152610000D01*
X129901000Y-150650000D02*
X129901000Y-149354000D01*
X129941000Y-153886000D02*
X129941000Y-152610000D01*
X129941000Y-150650000D02*
X129941000Y-149374000D01*
X129981000Y-153864000D02*
X129981000Y-152610000D01*
X129981000Y-150650000D02*
X129981000Y-149396000D01*
X130021000Y-153842000D02*
X130021000Y-152610000D01*
X130021000Y-150650000D02*
X130021000Y-149418000D01*
X130061000Y-153819000D02*
X130061000Y-152610000D01*
X130061000Y-150650000D02*
X130061000Y-149441000D01*
X130101000Y-153795000D02*
X130101000Y-152610000D01*
X130101000Y-150650000D02*
X130101000Y-149465000D01*
X130141000Y-153770000D02*
X130141000Y-152610000D01*
X130141000Y-150650000D02*
X130141000Y-149490000D01*
X130181000Y-153743000D02*
X130181000Y-152610000D01*
X130181000Y-150650000D02*
X130181000Y-149517000D01*
X130221000Y-153716000D02*
X130221000Y-152610000D01*
X130221000Y-150650000D02*
X130221000Y-149544000D01*
X130261000Y-153688000D02*
X130261000Y-152610000D01*
X130261000Y-150650000D02*
X130261000Y-149572000D01*
X130301000Y-153658000D02*
X130301000Y-152610000D01*
X130301000Y-150650000D02*
X130301000Y-149602000D01*
X130341000Y-153627000D02*
X130341000Y-152610000D01*
X130341000Y-150650000D02*
X130341000Y-149633000D01*
X130381000Y-153595000D02*
X130381000Y-152610000D01*
X130381000Y-150650000D02*
X130381000Y-149665000D01*
X130421000Y-153562000D02*
X130421000Y-152610000D01*
X130421000Y-150650000D02*
X130421000Y-149698000D01*
X130461000Y-153527000D02*
X130461000Y-152610000D01*
X130461000Y-150650000D02*
X130461000Y-149733000D01*
X130501000Y-153491000D02*
X130501000Y-152610000D01*
X130501000Y-150650000D02*
X130501000Y-149769000D01*
X130541000Y-153453000D02*
X130541000Y-152610000D01*
X130541000Y-150650000D02*
X130541000Y-149807000D01*
X130581000Y-153413000D02*
X130581000Y-152610000D01*
X130581000Y-150650000D02*
X130581000Y-149847000D01*
X130621000Y-153372000D02*
X130621000Y-152610000D01*
X130621000Y-150650000D02*
X130621000Y-149888000D01*
X130661000Y-153329000D02*
X130661000Y-152610000D01*
X130661000Y-150650000D02*
X130661000Y-149931000D01*
X130701000Y-153284000D02*
X130701000Y-152610000D01*
X130701000Y-150650000D02*
X130701000Y-149976000D01*
X130741000Y-153236000D02*
X130741000Y-150024000D01*
X130781000Y-153186000D02*
X130781000Y-150074000D01*
X130821000Y-153134000D02*
X130821000Y-150126000D01*
X130861000Y-153078000D02*
X130861000Y-150182000D01*
X130901000Y-153020000D02*
X130901000Y-150240000D01*
X130941000Y-152957000D02*
X130941000Y-150303000D01*
X130981000Y-152891000D02*
X130981000Y-150369000D01*
X131021000Y-152819000D02*
X131021000Y-150441000D01*
X131061000Y-152742000D02*
X131061000Y-150518000D01*
X131101000Y-152658000D02*
X131101000Y-150602000D01*
X131141000Y-152564000D02*
X131141000Y-150696000D01*
X131181000Y-152459000D02*
X131181000Y-150801000D01*
X131221000Y-152337000D02*
X131221000Y-150923000D01*
X131261000Y-152189000D02*
X131261000Y-151071000D01*
X131301000Y-151984000D02*
X131301000Y-151276000D01*
X125540000Y-151630000D02*
X126740000Y-151630000D01*
X126140000Y-152280000D02*
X126140000Y-150980000D01*
X125245000Y-83075000D02*
X127905000Y-83075000D01*
X125245000Y-90755000D02*
X125245000Y-83075000D01*
X127905000Y-90755000D02*
X127905000Y-83075000D01*
X125245000Y-90755000D02*
X127905000Y-90755000D01*
X125245000Y-92025000D02*
X125245000Y-93355000D01*
X125245000Y-93355000D02*
X126575000Y-93355000D01*
X137745864Y-94217820D02*
G75*
G02X137745000Y-88182518I1179136J3017820D01*
G01*
X140104136Y-94217820D02*
G75*
G03X140105000Y-88182518I-1179136J3017820D01*
G01*
X140104136Y-94217820D02*
G75*
G02X137745000Y-94217482I-1179136J3017820D01*
G01*
X135725000Y-91200000D02*
X142125000Y-91200000D01*
X135725000Y-91240000D02*
X142125000Y-91240000D01*
X135725000Y-91280000D02*
X142125000Y-91280000D01*
X135727000Y-91320000D02*
X142123000Y-91320000D01*
X135728000Y-91360000D02*
X142122000Y-91360000D01*
X135731000Y-91400000D02*
X142119000Y-91400000D01*
X135733000Y-91440000D02*
X142117000Y-91440000D01*
X135737000Y-91480000D02*
X137945000Y-91480000D01*
X139905000Y-91480000D02*
X142113000Y-91480000D01*
X135740000Y-91520000D02*
X137945000Y-91520000D01*
X139905000Y-91520000D02*
X142110000Y-91520000D01*
X135745000Y-91560000D02*
X137945000Y-91560000D01*
X139905000Y-91560000D02*
X142105000Y-91560000D01*
X135749000Y-91600000D02*
X137945000Y-91600000D01*
X139905000Y-91600000D02*
X142101000Y-91600000D01*
X135755000Y-91640000D02*
X137945000Y-91640000D01*
X139905000Y-91640000D02*
X142095000Y-91640000D01*
X135760000Y-91680000D02*
X137945000Y-91680000D01*
X139905000Y-91680000D02*
X142090000Y-91680000D01*
X135767000Y-91720000D02*
X137945000Y-91720000D01*
X139905000Y-91720000D02*
X142083000Y-91720000D01*
X135773000Y-91760000D02*
X137945000Y-91760000D01*
X139905000Y-91760000D02*
X142077000Y-91760000D01*
X135781000Y-91800000D02*
X137945000Y-91800000D01*
X139905000Y-91800000D02*
X142069000Y-91800000D01*
X135788000Y-91840000D02*
X137945000Y-91840000D01*
X139905000Y-91840000D02*
X142062000Y-91840000D01*
X135797000Y-91880000D02*
X137945000Y-91880000D01*
X139905000Y-91880000D02*
X142053000Y-91880000D01*
X135806000Y-91921000D02*
X137945000Y-91921000D01*
X139905000Y-91921000D02*
X142044000Y-91921000D01*
X135815000Y-91961000D02*
X137945000Y-91961000D01*
X139905000Y-91961000D02*
X142035000Y-91961000D01*
X135825000Y-92001000D02*
X137945000Y-92001000D01*
X139905000Y-92001000D02*
X142025000Y-92001000D01*
X135835000Y-92041000D02*
X137945000Y-92041000D01*
X139905000Y-92041000D02*
X142015000Y-92041000D01*
X135846000Y-92081000D02*
X137945000Y-92081000D01*
X139905000Y-92081000D02*
X142004000Y-92081000D01*
X135858000Y-92121000D02*
X137945000Y-92121000D01*
X139905000Y-92121000D02*
X141992000Y-92121000D01*
X135870000Y-92161000D02*
X137945000Y-92161000D01*
X139905000Y-92161000D02*
X141980000Y-92161000D01*
X135883000Y-92201000D02*
X137945000Y-92201000D01*
X139905000Y-92201000D02*
X141967000Y-92201000D01*
X135896000Y-92241000D02*
X137945000Y-92241000D01*
X139905000Y-92241000D02*
X141954000Y-92241000D01*
X135910000Y-92281000D02*
X137945000Y-92281000D01*
X139905000Y-92281000D02*
X141940000Y-92281000D01*
X135924000Y-92321000D02*
X137945000Y-92321000D01*
X139905000Y-92321000D02*
X141926000Y-92321000D01*
X135939000Y-92361000D02*
X137945000Y-92361000D01*
X139905000Y-92361000D02*
X141911000Y-92361000D01*
X135955000Y-92401000D02*
X137945000Y-92401000D01*
X139905000Y-92401000D02*
X141895000Y-92401000D01*
X135971000Y-92441000D02*
X137945000Y-92441000D01*
X139905000Y-92441000D02*
X141879000Y-92441000D01*
X135988000Y-92481000D02*
X137945000Y-92481000D01*
X139905000Y-92481000D02*
X141862000Y-92481000D01*
X136006000Y-92521000D02*
X137945000Y-92521000D01*
X139905000Y-92521000D02*
X141844000Y-92521000D01*
X136024000Y-92561000D02*
X137945000Y-92561000D01*
X139905000Y-92561000D02*
X141826000Y-92561000D01*
X136043000Y-92601000D02*
X137945000Y-92601000D01*
X139905000Y-92601000D02*
X141807000Y-92601000D01*
X136062000Y-92641000D02*
X137945000Y-92641000D01*
X139905000Y-92641000D02*
X141788000Y-92641000D01*
X136082000Y-92681000D02*
X137945000Y-92681000D01*
X139905000Y-92681000D02*
X141768000Y-92681000D01*
X136103000Y-92721000D02*
X137945000Y-92721000D01*
X139905000Y-92721000D02*
X141747000Y-92721000D01*
X136125000Y-92761000D02*
X137945000Y-92761000D01*
X139905000Y-92761000D02*
X141725000Y-92761000D01*
X136147000Y-92801000D02*
X137945000Y-92801000D01*
X139905000Y-92801000D02*
X141703000Y-92801000D01*
X136170000Y-92841000D02*
X137945000Y-92841000D01*
X139905000Y-92841000D02*
X141680000Y-92841000D01*
X136194000Y-92881000D02*
X137945000Y-92881000D01*
X139905000Y-92881000D02*
X141656000Y-92881000D01*
X136219000Y-92921000D02*
X137945000Y-92921000D01*
X139905000Y-92921000D02*
X141631000Y-92921000D01*
X136244000Y-92961000D02*
X137945000Y-92961000D01*
X139905000Y-92961000D02*
X141606000Y-92961000D01*
X136271000Y-93001000D02*
X137945000Y-93001000D01*
X139905000Y-93001000D02*
X141579000Y-93001000D01*
X136298000Y-93041000D02*
X137945000Y-93041000D01*
X139905000Y-93041000D02*
X141552000Y-93041000D01*
X136326000Y-93081000D02*
X137945000Y-93081000D01*
X139905000Y-93081000D02*
X141524000Y-93081000D01*
X136355000Y-93121000D02*
X137945000Y-93121000D01*
X139905000Y-93121000D02*
X141495000Y-93121000D01*
X136385000Y-93161000D02*
X137945000Y-93161000D01*
X139905000Y-93161000D02*
X141465000Y-93161000D01*
X136415000Y-93201000D02*
X137945000Y-93201000D01*
X139905000Y-93201000D02*
X141435000Y-93201000D01*
X136447000Y-93241000D02*
X137945000Y-93241000D01*
X139905000Y-93241000D02*
X141403000Y-93241000D01*
X136480000Y-93281000D02*
X137945000Y-93281000D01*
X139905000Y-93281000D02*
X141370000Y-93281000D01*
X136514000Y-93321000D02*
X137945000Y-93321000D01*
X139905000Y-93321000D02*
X141336000Y-93321000D01*
X136550000Y-93361000D02*
X137945000Y-93361000D01*
X139905000Y-93361000D02*
X141300000Y-93361000D01*
X136586000Y-93401000D02*
X137945000Y-93401000D01*
X139905000Y-93401000D02*
X141264000Y-93401000D01*
X136624000Y-93441000D02*
X141226000Y-93441000D01*
X136663000Y-93481000D02*
X141187000Y-93481000D01*
X136703000Y-93521000D02*
X141147000Y-93521000D01*
X136745000Y-93561000D02*
X141105000Y-93561000D01*
X136788000Y-93601000D02*
X141062000Y-93601000D01*
X136833000Y-93641000D02*
X141017000Y-93641000D01*
X136880000Y-93681000D02*
X140970000Y-93681000D01*
X136928000Y-93721000D02*
X140922000Y-93721000D01*
X136979000Y-93761000D02*
X140871000Y-93761000D01*
X137031000Y-93801000D02*
X140819000Y-93801000D01*
X137086000Y-93841000D02*
X140764000Y-93841000D01*
X137144000Y-93881000D02*
X140706000Y-93881000D01*
X137204000Y-93921000D02*
X140646000Y-93921000D01*
X137267000Y-93961000D02*
X140583000Y-93961000D01*
X137334000Y-94001000D02*
X140516000Y-94001000D01*
X137405000Y-94041000D02*
X140445000Y-94041000D01*
X137480000Y-94081000D02*
X140370000Y-94081000D01*
X137561000Y-94121000D02*
X140289000Y-94121000D01*
X137647000Y-94161000D02*
X140203000Y-94161000D01*
X137741000Y-94201000D02*
X140109000Y-94201000D01*
X137844000Y-94241000D02*
X140006000Y-94241000D01*
X137959000Y-94281000D02*
X139891000Y-94281000D01*
X138091000Y-94321000D02*
X139759000Y-94321000D01*
X138249000Y-94361000D02*
X139601000Y-94361000D01*
X138457000Y-94401000D02*
X139393000Y-94401000D01*
X138925000Y-87750000D02*
X138925000Y-88950000D01*
X138275000Y-88350000D02*
X139575000Y-88350000D01*
X110250000Y-109510000D02*
X110250000Y-103260000D01*
X105200000Y-109510000D02*
X105200000Y-103260000D01*
X105200000Y-109510000D02*
G75*
G03X110250000Y-109510000I2525000J0D01*
G01*
X105200000Y-103260000D02*
G75*
G02X110250000Y-103260000I2525000J0D01*
G01*
X110950000Y-114345000D02*
X126730000Y-114345000D01*
X126730000Y-114345000D02*
X126730000Y-104995000D01*
X126730000Y-104995000D02*
X110950000Y-104995000D01*
X110950000Y-104995000D02*
X110950000Y-114345000D01*
X110700000Y-104745000D02*
X113240000Y-104745000D01*
X110700000Y-104745000D02*
X110700000Y-107285000D01*
X144725000Y-67450000D02*
X146725000Y-67450000D01*
X144725000Y-60850000D02*
X146725000Y-60850000D01*
X149025000Y-65150000D02*
X149025000Y-63150000D01*
X142425000Y-65150000D02*
X142425000Y-63150000D01*
D12*
X113380000Y-159964000D02*
X113380000Y-148964000D01*
X125380000Y-159964000D02*
X125380000Y-148964000D01*
X113380000Y-159964000D02*
X125380000Y-159964000D01*
D11*
X158242000Y-83058000D02*
X158242000Y-97790000D01*
X158242000Y-97790000D02*
X168402000Y-97790000D01*
X168402000Y-97790000D02*
X168402000Y-83058000D01*
X168402000Y-83058000D02*
X158242000Y-83058000D01*
X162916000Y-94234000D02*
X163551000Y-95250000D01*
X165100000Y-94107000D02*
X165100000Y-94742000D01*
X165100000Y-94742000D02*
X164440000Y-94742000D01*
X161900000Y-94107000D02*
X161900000Y-94742000D01*
X161900000Y-94742000D02*
X162535000Y-94742000D01*
X162535000Y-94234000D02*
X164440000Y-94234000D01*
X164440000Y-94234000D02*
X164440000Y-95250000D01*
X164440000Y-95250000D02*
X162535000Y-95250000D01*
X162535000Y-94234000D02*
X162535000Y-95250000D01*
X114870000Y-117560000D02*
X114870000Y-114940000D01*
X114870000Y-114940000D02*
X121290000Y-114940000D01*
X121290000Y-114940000D02*
X121290000Y-117560000D01*
X121290000Y-117560000D02*
X114870000Y-117560000D01*
X113980000Y-116250000D02*
X114870000Y-116250000D01*
X122180000Y-116250000D02*
X121290000Y-116250000D01*
D12*
X167775000Y-152415260D02*
X167775000Y-153177260D01*
X167775000Y-146954260D02*
X167775000Y-146065260D01*
X166505000Y-152415260D02*
X169172000Y-152415260D01*
X169172000Y-152415260D02*
X169172000Y-146954260D01*
X169172000Y-146954260D02*
X166505000Y-146954260D01*
X166505000Y-146954260D02*
X166505000Y-152415260D01*
X164592000Y-115316000D02*
X159385000Y-115316000D01*
X151511000Y-115316000D02*
X156464000Y-115316000D01*
X164592000Y-121920000D02*
X159512000Y-121920000D01*
X151511000Y-121920000D02*
X156591000Y-121920000D01*
X151511000Y-121920000D02*
X151511000Y-115316000D01*
X164592000Y-115316000D02*
X164592000Y-121920000D01*
D11*
X169744000Y-120374000D02*
X169744000Y-123974000D01*
X169016795Y-119849816D02*
G75*
G02X169744000Y-120374000I-1122795J-2324184D01*
G01*
X166795193Y-119817600D02*
G75*
G03X165294000Y-122174000I1098807J-2356400D01*
G01*
X166795193Y-124530400D02*
G75*
G02X165294000Y-122174000I1098807J2356400D01*
G01*
X169016795Y-124498184D02*
G75*
G03X169744000Y-123974000I-1122795J2324184D01*
G01*
X169744000Y-105134000D02*
X169744000Y-108734000D01*
X169016795Y-104609816D02*
G75*
G02X169744000Y-105134000I-1122795J-2324184D01*
G01*
X166795193Y-104577600D02*
G75*
G03X165294000Y-106934000I1098807J-2356400D01*
G01*
X166795193Y-109290400D02*
G75*
G02X165294000Y-106934000I1098807J2356400D01*
G01*
X169016795Y-109258184D02*
G75*
G03X169744000Y-108734000I-1122795J2324184D01*
G01*
D12*
X158170880Y-156400500D02*
X149169120Y-156400500D01*
X158170880Y-159900620D02*
X149169120Y-159900620D01*
X149169120Y-159900620D02*
X149169120Y-145399760D01*
X149169120Y-145399760D02*
X158170880Y-145399760D01*
X158170880Y-145399760D02*
X158170880Y-159900620D01*
D11*
X104879723Y-68194278D02*
G75*
G02X104880000Y-72805580I-1179723J-2305722D01*
G01*
X102520277Y-68194278D02*
G75*
G03X102520000Y-72805580I1179723J-2305722D01*
G01*
X102520277Y-68194278D02*
G75*
G02X104880000Y-68194420I1179723J-2305722D01*
G01*
X106250000Y-70500000D02*
X101150000Y-70500000D01*
X106250000Y-70460000D02*
X104680000Y-70460000D01*
X102720000Y-70460000D02*
X101150000Y-70460000D01*
X106249000Y-70420000D02*
X104680000Y-70420000D01*
X102720000Y-70420000D02*
X101151000Y-70420000D01*
X106248000Y-70380000D02*
X104680000Y-70380000D01*
X102720000Y-70380000D02*
X101152000Y-70380000D01*
X106246000Y-70340000D02*
X104680000Y-70340000D01*
X102720000Y-70340000D02*
X101154000Y-70340000D01*
X106243000Y-70300000D02*
X104680000Y-70300000D01*
X102720000Y-70300000D02*
X101157000Y-70300000D01*
X106239000Y-70260000D02*
X104680000Y-70260000D01*
X102720000Y-70260000D02*
X101161000Y-70260000D01*
X106235000Y-70220000D02*
X104680000Y-70220000D01*
X102720000Y-70220000D02*
X101165000Y-70220000D01*
X106231000Y-70180000D02*
X104680000Y-70180000D01*
X102720000Y-70180000D02*
X101169000Y-70180000D01*
X106225000Y-70140000D02*
X104680000Y-70140000D01*
X102720000Y-70140000D02*
X101175000Y-70140000D01*
X106219000Y-70100000D02*
X104680000Y-70100000D01*
X102720000Y-70100000D02*
X101181000Y-70100000D01*
X106213000Y-70060000D02*
X104680000Y-70060000D01*
X102720000Y-70060000D02*
X101187000Y-70060000D01*
X106206000Y-70020000D02*
X104680000Y-70020000D01*
X102720000Y-70020000D02*
X101194000Y-70020000D01*
X106198000Y-69980000D02*
X104680000Y-69980000D01*
X102720000Y-69980000D02*
X101202000Y-69980000D01*
X106189000Y-69940000D02*
X104680000Y-69940000D01*
X102720000Y-69940000D02*
X101211000Y-69940000D01*
X106180000Y-69900000D02*
X104680000Y-69900000D01*
X102720000Y-69900000D02*
X101220000Y-69900000D01*
X106170000Y-69860000D02*
X104680000Y-69860000D01*
X102720000Y-69860000D02*
X101230000Y-69860000D01*
X106160000Y-69820000D02*
X104680000Y-69820000D01*
X102720000Y-69820000D02*
X101240000Y-69820000D01*
X106148000Y-69779000D02*
X104680000Y-69779000D01*
X102720000Y-69779000D02*
X101252000Y-69779000D01*
X106136000Y-69739000D02*
X104680000Y-69739000D01*
X102720000Y-69739000D02*
X101264000Y-69739000D01*
X106124000Y-69699000D02*
X104680000Y-69699000D01*
X102720000Y-69699000D02*
X101276000Y-69699000D01*
X106110000Y-69659000D02*
X104680000Y-69659000D01*
X102720000Y-69659000D02*
X101290000Y-69659000D01*
X106096000Y-69619000D02*
X104680000Y-69619000D01*
X102720000Y-69619000D02*
X101304000Y-69619000D01*
X106082000Y-69579000D02*
X104680000Y-69579000D01*
X102720000Y-69579000D02*
X101318000Y-69579000D01*
X106066000Y-69539000D02*
X104680000Y-69539000D01*
X102720000Y-69539000D02*
X101334000Y-69539000D01*
X106050000Y-69499000D02*
X104680000Y-69499000D01*
X102720000Y-69499000D02*
X101350000Y-69499000D01*
X106033000Y-69459000D02*
X104680000Y-69459000D01*
X102720000Y-69459000D02*
X101367000Y-69459000D01*
X106015000Y-69419000D02*
X104680000Y-69419000D01*
X102720000Y-69419000D02*
X101385000Y-69419000D01*
X105996000Y-69379000D02*
X104680000Y-69379000D01*
X102720000Y-69379000D02*
X101404000Y-69379000D01*
X105976000Y-69339000D02*
X104680000Y-69339000D01*
X102720000Y-69339000D02*
X101424000Y-69339000D01*
X105956000Y-69299000D02*
X104680000Y-69299000D01*
X102720000Y-69299000D02*
X101444000Y-69299000D01*
X105934000Y-69259000D02*
X104680000Y-69259000D01*
X102720000Y-69259000D02*
X101466000Y-69259000D01*
X105912000Y-69219000D02*
X104680000Y-69219000D01*
X102720000Y-69219000D02*
X101488000Y-69219000D01*
X105889000Y-69179000D02*
X104680000Y-69179000D01*
X102720000Y-69179000D02*
X101511000Y-69179000D01*
X105865000Y-69139000D02*
X104680000Y-69139000D01*
X102720000Y-69139000D02*
X101535000Y-69139000D01*
X105840000Y-69099000D02*
X104680000Y-69099000D01*
X102720000Y-69099000D02*
X101560000Y-69099000D01*
X105813000Y-69059000D02*
X104680000Y-69059000D01*
X102720000Y-69059000D02*
X101587000Y-69059000D01*
X105786000Y-69019000D02*
X104680000Y-69019000D01*
X102720000Y-69019000D02*
X101614000Y-69019000D01*
X105758000Y-68979000D02*
X104680000Y-68979000D01*
X102720000Y-68979000D02*
X101642000Y-68979000D01*
X105728000Y-68939000D02*
X104680000Y-68939000D01*
X102720000Y-68939000D02*
X101672000Y-68939000D01*
X105697000Y-68899000D02*
X104680000Y-68899000D01*
X102720000Y-68899000D02*
X101703000Y-68899000D01*
X105665000Y-68859000D02*
X104680000Y-68859000D01*
X102720000Y-68859000D02*
X101735000Y-68859000D01*
X105632000Y-68819000D02*
X104680000Y-68819000D01*
X102720000Y-68819000D02*
X101768000Y-68819000D01*
X105597000Y-68779000D02*
X104680000Y-68779000D01*
X102720000Y-68779000D02*
X101803000Y-68779000D01*
X105561000Y-68739000D02*
X104680000Y-68739000D01*
X102720000Y-68739000D02*
X101839000Y-68739000D01*
X105523000Y-68699000D02*
X104680000Y-68699000D01*
X102720000Y-68699000D02*
X101877000Y-68699000D01*
X105483000Y-68659000D02*
X104680000Y-68659000D01*
X102720000Y-68659000D02*
X101917000Y-68659000D01*
X105442000Y-68619000D02*
X104680000Y-68619000D01*
X102720000Y-68619000D02*
X101958000Y-68619000D01*
X105399000Y-68579000D02*
X104680000Y-68579000D01*
X102720000Y-68579000D02*
X102001000Y-68579000D01*
X105354000Y-68539000D02*
X104680000Y-68539000D01*
X102720000Y-68539000D02*
X102046000Y-68539000D01*
X105306000Y-68499000D02*
X102094000Y-68499000D01*
X105256000Y-68459000D02*
X102144000Y-68459000D01*
X105204000Y-68419000D02*
X102196000Y-68419000D01*
X105148000Y-68379000D02*
X102252000Y-68379000D01*
X105090000Y-68339000D02*
X102310000Y-68339000D01*
X105027000Y-68299000D02*
X102373000Y-68299000D01*
X104961000Y-68259000D02*
X102439000Y-68259000D01*
X104889000Y-68219000D02*
X102511000Y-68219000D01*
X104812000Y-68179000D02*
X102588000Y-68179000D01*
X104728000Y-68139000D02*
X102672000Y-68139000D01*
X104634000Y-68099000D02*
X102766000Y-68099000D01*
X104529000Y-68059000D02*
X102871000Y-68059000D01*
X104407000Y-68019000D02*
X102993000Y-68019000D01*
X104259000Y-67979000D02*
X103141000Y-67979000D01*
X104054000Y-67939000D02*
X103346000Y-67939000D01*
X103700000Y-73700000D02*
X103700000Y-72500000D01*
X104350000Y-73100000D02*
X103050000Y-73100000D01*
D12*
X123215260Y-79900000D02*
X123977260Y-79900000D01*
X117754260Y-79900000D02*
X116865260Y-79900000D01*
X123215260Y-81170000D02*
X123215260Y-78503000D01*
X123215260Y-78503000D02*
X117754260Y-78503000D01*
X117754260Y-78503000D02*
X117754260Y-81170000D01*
X117754260Y-81170000D02*
X123215260Y-81170000D01*
D11*
X114030000Y-69050000D02*
X114030000Y-60410000D01*
X114030000Y-77430000D02*
X114030000Y-72350000D01*
X126230000Y-69050000D02*
X126230000Y-60410000D01*
X126230000Y-77430000D02*
X126230000Y-72350000D01*
X126230000Y-60410000D02*
X114030000Y-60410000D01*
X114030000Y-77430000D02*
X126230000Y-77430000D01*
X161070864Y-151892820D02*
G75*
G02X161070000Y-145857518I1179136J3017820D01*
G01*
X163429136Y-151892820D02*
G75*
G03X163430000Y-145857518I-1179136J3017820D01*
G01*
X163429136Y-151892820D02*
G75*
G02X161070000Y-151892482I-1179136J3017820D01*
G01*
X159050000Y-148875000D02*
X165450000Y-148875000D01*
X159050000Y-148915000D02*
X165450000Y-148915000D01*
X159050000Y-148955000D02*
X165450000Y-148955000D01*
X159052000Y-148995000D02*
X165448000Y-148995000D01*
X159053000Y-149035000D02*
X165447000Y-149035000D01*
X159056000Y-149075000D02*
X165444000Y-149075000D01*
X159058000Y-149115000D02*
X165442000Y-149115000D01*
X159062000Y-149155000D02*
X161270000Y-149155000D01*
X163230000Y-149155000D02*
X165438000Y-149155000D01*
X159065000Y-149195000D02*
X161270000Y-149195000D01*
X163230000Y-149195000D02*
X165435000Y-149195000D01*
X159070000Y-149235000D02*
X161270000Y-149235000D01*
X163230000Y-149235000D02*
X165430000Y-149235000D01*
X159074000Y-149275000D02*
X161270000Y-149275000D01*
X163230000Y-149275000D02*
X165426000Y-149275000D01*
X159080000Y-149315000D02*
X161270000Y-149315000D01*
X163230000Y-149315000D02*
X165420000Y-149315000D01*
X159085000Y-149355000D02*
X161270000Y-149355000D01*
X163230000Y-149355000D02*
X165415000Y-149355000D01*
X159092000Y-149395000D02*
X161270000Y-149395000D01*
X163230000Y-149395000D02*
X165408000Y-149395000D01*
X159098000Y-149435000D02*
X161270000Y-149435000D01*
X163230000Y-149435000D02*
X165402000Y-149435000D01*
X159106000Y-149475000D02*
X161270000Y-149475000D01*
X163230000Y-149475000D02*
X165394000Y-149475000D01*
X159113000Y-149515000D02*
X161270000Y-149515000D01*
X163230000Y-149515000D02*
X165387000Y-149515000D01*
X159122000Y-149555000D02*
X161270000Y-149555000D01*
X163230000Y-149555000D02*
X165378000Y-149555000D01*
X159131000Y-149596000D02*
X161270000Y-149596000D01*
X163230000Y-149596000D02*
X165369000Y-149596000D01*
X159140000Y-149636000D02*
X161270000Y-149636000D01*
X163230000Y-149636000D02*
X165360000Y-149636000D01*
X159150000Y-149676000D02*
X161270000Y-149676000D01*
X163230000Y-149676000D02*
X165350000Y-149676000D01*
X159160000Y-149716000D02*
X161270000Y-149716000D01*
X163230000Y-149716000D02*
X165340000Y-149716000D01*
X159171000Y-149756000D02*
X161270000Y-149756000D01*
X163230000Y-149756000D02*
X165329000Y-149756000D01*
X159183000Y-149796000D02*
X161270000Y-149796000D01*
X163230000Y-149796000D02*
X165317000Y-149796000D01*
X159195000Y-149836000D02*
X161270000Y-149836000D01*
X163230000Y-149836000D02*
X165305000Y-149836000D01*
X159208000Y-149876000D02*
X161270000Y-149876000D01*
X163230000Y-149876000D02*
X165292000Y-149876000D01*
X159221000Y-149916000D02*
X161270000Y-149916000D01*
X163230000Y-149916000D02*
X165279000Y-149916000D01*
X159235000Y-149956000D02*
X161270000Y-149956000D01*
X163230000Y-149956000D02*
X165265000Y-149956000D01*
X159249000Y-149996000D02*
X161270000Y-149996000D01*
X163230000Y-149996000D02*
X165251000Y-149996000D01*
X159264000Y-150036000D02*
X161270000Y-150036000D01*
X163230000Y-150036000D02*
X165236000Y-150036000D01*
X159280000Y-150076000D02*
X161270000Y-150076000D01*
X163230000Y-150076000D02*
X165220000Y-150076000D01*
X159296000Y-150116000D02*
X161270000Y-150116000D01*
X163230000Y-150116000D02*
X165204000Y-150116000D01*
X159313000Y-150156000D02*
X161270000Y-150156000D01*
X163230000Y-150156000D02*
X165187000Y-150156000D01*
X159331000Y-150196000D02*
X161270000Y-150196000D01*
X163230000Y-150196000D02*
X165169000Y-150196000D01*
X159349000Y-150236000D02*
X161270000Y-150236000D01*
X163230000Y-150236000D02*
X165151000Y-150236000D01*
X159368000Y-150276000D02*
X161270000Y-150276000D01*
X163230000Y-150276000D02*
X165132000Y-150276000D01*
X159387000Y-150316000D02*
X161270000Y-150316000D01*
X163230000Y-150316000D02*
X165113000Y-150316000D01*
X159407000Y-150356000D02*
X161270000Y-150356000D01*
X163230000Y-150356000D02*
X165093000Y-150356000D01*
X159428000Y-150396000D02*
X161270000Y-150396000D01*
X163230000Y-150396000D02*
X165072000Y-150396000D01*
X159450000Y-150436000D02*
X161270000Y-150436000D01*
X163230000Y-150436000D02*
X165050000Y-150436000D01*
X159472000Y-150476000D02*
X161270000Y-150476000D01*
X163230000Y-150476000D02*
X165028000Y-150476000D01*
X159495000Y-150516000D02*
X161270000Y-150516000D01*
X163230000Y-150516000D02*
X165005000Y-150516000D01*
X159519000Y-150556000D02*
X161270000Y-150556000D01*
X163230000Y-150556000D02*
X164981000Y-150556000D01*
X159544000Y-150596000D02*
X161270000Y-150596000D01*
X163230000Y-150596000D02*
X164956000Y-150596000D01*
X159569000Y-150636000D02*
X161270000Y-150636000D01*
X163230000Y-150636000D02*
X164931000Y-150636000D01*
X159596000Y-150676000D02*
X161270000Y-150676000D01*
X163230000Y-150676000D02*
X164904000Y-150676000D01*
X159623000Y-150716000D02*
X161270000Y-150716000D01*
X163230000Y-150716000D02*
X164877000Y-150716000D01*
X159651000Y-150756000D02*
X161270000Y-150756000D01*
X163230000Y-150756000D02*
X164849000Y-150756000D01*
X159680000Y-150796000D02*
X161270000Y-150796000D01*
X163230000Y-150796000D02*
X164820000Y-150796000D01*
X159710000Y-150836000D02*
X161270000Y-150836000D01*
X163230000Y-150836000D02*
X164790000Y-150836000D01*
X159740000Y-150876000D02*
X161270000Y-150876000D01*
X163230000Y-150876000D02*
X164760000Y-150876000D01*
X159772000Y-150916000D02*
X161270000Y-150916000D01*
X163230000Y-150916000D02*
X164728000Y-150916000D01*
X159805000Y-150956000D02*
X161270000Y-150956000D01*
X163230000Y-150956000D02*
X164695000Y-150956000D01*
X159839000Y-150996000D02*
X161270000Y-150996000D01*
X163230000Y-150996000D02*
X164661000Y-150996000D01*
X159875000Y-151036000D02*
X161270000Y-151036000D01*
X163230000Y-151036000D02*
X164625000Y-151036000D01*
X159911000Y-151076000D02*
X161270000Y-151076000D01*
X163230000Y-151076000D02*
X164589000Y-151076000D01*
X159949000Y-151116000D02*
X164551000Y-151116000D01*
X159988000Y-151156000D02*
X164512000Y-151156000D01*
X160028000Y-151196000D02*
X164472000Y-151196000D01*
X160070000Y-151236000D02*
X164430000Y-151236000D01*
X160113000Y-151276000D02*
X164387000Y-151276000D01*
X160158000Y-151316000D02*
X164342000Y-151316000D01*
X160205000Y-151356000D02*
X164295000Y-151356000D01*
X160253000Y-151396000D02*
X164247000Y-151396000D01*
X160304000Y-151436000D02*
X164196000Y-151436000D01*
X160356000Y-151476000D02*
X164144000Y-151476000D01*
X160411000Y-151516000D02*
X164089000Y-151516000D01*
X160469000Y-151556000D02*
X164031000Y-151556000D01*
X160529000Y-151596000D02*
X163971000Y-151596000D01*
X160592000Y-151636000D02*
X163908000Y-151636000D01*
X160659000Y-151676000D02*
X163841000Y-151676000D01*
X160730000Y-151716000D02*
X163770000Y-151716000D01*
X160805000Y-151756000D02*
X163695000Y-151756000D01*
X160886000Y-151796000D02*
X163614000Y-151796000D01*
X160972000Y-151836000D02*
X163528000Y-151836000D01*
X161066000Y-151876000D02*
X163434000Y-151876000D01*
X161169000Y-151916000D02*
X163331000Y-151916000D01*
X161284000Y-151956000D02*
X163216000Y-151956000D01*
X161416000Y-151996000D02*
X163084000Y-151996000D01*
X161574000Y-152036000D02*
X162926000Y-152036000D01*
X161782000Y-152076000D02*
X162718000Y-152076000D01*
X162250000Y-145425000D02*
X162250000Y-146625000D01*
X161600000Y-146025000D02*
X162900000Y-146025000D01*
X106579136Y-117457180D02*
G75*
G02X106580000Y-123492482I-1179136J-3017820D01*
G01*
X104220864Y-117457180D02*
G75*
G03X104220000Y-123492482I1179136J-3017820D01*
G01*
X104220864Y-117457180D02*
G75*
G02X106580000Y-117457518I1179136J-3017820D01*
G01*
X108600000Y-120475000D02*
X102200000Y-120475000D01*
X108600000Y-120435000D02*
X102200000Y-120435000D01*
X108600000Y-120395000D02*
X102200000Y-120395000D01*
X108598000Y-120355000D02*
X102202000Y-120355000D01*
X108597000Y-120315000D02*
X102203000Y-120315000D01*
X108594000Y-120275000D02*
X102206000Y-120275000D01*
X108592000Y-120235000D02*
X102208000Y-120235000D01*
X108588000Y-120195000D02*
X106380000Y-120195000D01*
X104420000Y-120195000D02*
X102212000Y-120195000D01*
X108585000Y-120155000D02*
X106380000Y-120155000D01*
X104420000Y-120155000D02*
X102215000Y-120155000D01*
X108580000Y-120115000D02*
X106380000Y-120115000D01*
X104420000Y-120115000D02*
X102220000Y-120115000D01*
X108576000Y-120075000D02*
X106380000Y-120075000D01*
X104420000Y-120075000D02*
X102224000Y-120075000D01*
X108570000Y-120035000D02*
X106380000Y-120035000D01*
X104420000Y-120035000D02*
X102230000Y-120035000D01*
X108565000Y-119995000D02*
X106380000Y-119995000D01*
X104420000Y-119995000D02*
X102235000Y-119995000D01*
X108558000Y-119955000D02*
X106380000Y-119955000D01*
X104420000Y-119955000D02*
X102242000Y-119955000D01*
X108552000Y-119915000D02*
X106380000Y-119915000D01*
X104420000Y-119915000D02*
X102248000Y-119915000D01*
X108544000Y-119875000D02*
X106380000Y-119875000D01*
X104420000Y-119875000D02*
X102256000Y-119875000D01*
X108537000Y-119835000D02*
X106380000Y-119835000D01*
X104420000Y-119835000D02*
X102263000Y-119835000D01*
X108528000Y-119795000D02*
X106380000Y-119795000D01*
X104420000Y-119795000D02*
X102272000Y-119795000D01*
X108519000Y-119754000D02*
X106380000Y-119754000D01*
X104420000Y-119754000D02*
X102281000Y-119754000D01*
X108510000Y-119714000D02*
X106380000Y-119714000D01*
X104420000Y-119714000D02*
X102290000Y-119714000D01*
X108500000Y-119674000D02*
X106380000Y-119674000D01*
X104420000Y-119674000D02*
X102300000Y-119674000D01*
X108490000Y-119634000D02*
X106380000Y-119634000D01*
X104420000Y-119634000D02*
X102310000Y-119634000D01*
X108479000Y-119594000D02*
X106380000Y-119594000D01*
X104420000Y-119594000D02*
X102321000Y-119594000D01*
X108467000Y-119554000D02*
X106380000Y-119554000D01*
X104420000Y-119554000D02*
X102333000Y-119554000D01*
X108455000Y-119514000D02*
X106380000Y-119514000D01*
X104420000Y-119514000D02*
X102345000Y-119514000D01*
X108442000Y-119474000D02*
X106380000Y-119474000D01*
X104420000Y-119474000D02*
X102358000Y-119474000D01*
X108429000Y-119434000D02*
X106380000Y-119434000D01*
X104420000Y-119434000D02*
X102371000Y-119434000D01*
X108415000Y-119394000D02*
X106380000Y-119394000D01*
X104420000Y-119394000D02*
X102385000Y-119394000D01*
X108401000Y-119354000D02*
X106380000Y-119354000D01*
X104420000Y-119354000D02*
X102399000Y-119354000D01*
X108386000Y-119314000D02*
X106380000Y-119314000D01*
X104420000Y-119314000D02*
X102414000Y-119314000D01*
X108370000Y-119274000D02*
X106380000Y-119274000D01*
X104420000Y-119274000D02*
X102430000Y-119274000D01*
X108354000Y-119234000D02*
X106380000Y-119234000D01*
X104420000Y-119234000D02*
X102446000Y-119234000D01*
X108337000Y-119194000D02*
X106380000Y-119194000D01*
X104420000Y-119194000D02*
X102463000Y-119194000D01*
X108319000Y-119154000D02*
X106380000Y-119154000D01*
X104420000Y-119154000D02*
X102481000Y-119154000D01*
X108301000Y-119114000D02*
X106380000Y-119114000D01*
X104420000Y-119114000D02*
X102499000Y-119114000D01*
X108282000Y-119074000D02*
X106380000Y-119074000D01*
X104420000Y-119074000D02*
X102518000Y-119074000D01*
X108263000Y-119034000D02*
X106380000Y-119034000D01*
X104420000Y-119034000D02*
X102537000Y-119034000D01*
X108243000Y-118994000D02*
X106380000Y-118994000D01*
X104420000Y-118994000D02*
X102557000Y-118994000D01*
X108222000Y-118954000D02*
X106380000Y-118954000D01*
X104420000Y-118954000D02*
X102578000Y-118954000D01*
X108200000Y-118914000D02*
X106380000Y-118914000D01*
X104420000Y-118914000D02*
X102600000Y-118914000D01*
X108178000Y-118874000D02*
X106380000Y-118874000D01*
X104420000Y-118874000D02*
X102622000Y-118874000D01*
X108155000Y-118834000D02*
X106380000Y-118834000D01*
X104420000Y-118834000D02*
X102645000Y-118834000D01*
X108131000Y-118794000D02*
X106380000Y-118794000D01*
X104420000Y-118794000D02*
X102669000Y-118794000D01*
X108106000Y-118754000D02*
X106380000Y-118754000D01*
X104420000Y-118754000D02*
X102694000Y-118754000D01*
X108081000Y-118714000D02*
X106380000Y-118714000D01*
X104420000Y-118714000D02*
X102719000Y-118714000D01*
X108054000Y-118674000D02*
X106380000Y-118674000D01*
X104420000Y-118674000D02*
X102746000Y-118674000D01*
X108027000Y-118634000D02*
X106380000Y-118634000D01*
X104420000Y-118634000D02*
X102773000Y-118634000D01*
X107999000Y-118594000D02*
X106380000Y-118594000D01*
X104420000Y-118594000D02*
X102801000Y-118594000D01*
X107970000Y-118554000D02*
X106380000Y-118554000D01*
X104420000Y-118554000D02*
X102830000Y-118554000D01*
X107940000Y-118514000D02*
X106380000Y-118514000D01*
X104420000Y-118514000D02*
X102860000Y-118514000D01*
X107910000Y-118474000D02*
X106380000Y-118474000D01*
X104420000Y-118474000D02*
X102890000Y-118474000D01*
X107878000Y-118434000D02*
X106380000Y-118434000D01*
X104420000Y-118434000D02*
X102922000Y-118434000D01*
X107845000Y-118394000D02*
X106380000Y-118394000D01*
X104420000Y-118394000D02*
X102955000Y-118394000D01*
X107811000Y-118354000D02*
X106380000Y-118354000D01*
X104420000Y-118354000D02*
X102989000Y-118354000D01*
X107775000Y-118314000D02*
X106380000Y-118314000D01*
X104420000Y-118314000D02*
X103025000Y-118314000D01*
X107739000Y-118274000D02*
X106380000Y-118274000D01*
X104420000Y-118274000D02*
X103061000Y-118274000D01*
X107701000Y-118234000D02*
X103099000Y-118234000D01*
X107662000Y-118194000D02*
X103138000Y-118194000D01*
X107622000Y-118154000D02*
X103178000Y-118154000D01*
X107580000Y-118114000D02*
X103220000Y-118114000D01*
X107537000Y-118074000D02*
X103263000Y-118074000D01*
X107492000Y-118034000D02*
X103308000Y-118034000D01*
X107445000Y-117994000D02*
X103355000Y-117994000D01*
X107397000Y-117954000D02*
X103403000Y-117954000D01*
X107346000Y-117914000D02*
X103454000Y-117914000D01*
X107294000Y-117874000D02*
X103506000Y-117874000D01*
X107239000Y-117834000D02*
X103561000Y-117834000D01*
X107181000Y-117794000D02*
X103619000Y-117794000D01*
X107121000Y-117754000D02*
X103679000Y-117754000D01*
X107058000Y-117714000D02*
X103742000Y-117714000D01*
X106991000Y-117674000D02*
X103809000Y-117674000D01*
X106920000Y-117634000D02*
X103880000Y-117634000D01*
X106845000Y-117594000D02*
X103955000Y-117594000D01*
X106764000Y-117554000D02*
X104036000Y-117554000D01*
X106678000Y-117514000D02*
X104122000Y-117514000D01*
X106584000Y-117474000D02*
X104216000Y-117474000D01*
X106481000Y-117434000D02*
X104319000Y-117434000D01*
X106366000Y-117394000D02*
X104434000Y-117394000D01*
X106234000Y-117354000D02*
X104566000Y-117354000D01*
X106076000Y-117314000D02*
X104724000Y-117314000D01*
X105868000Y-117274000D02*
X104932000Y-117274000D01*
X105400000Y-123925000D02*
X105400000Y-122725000D01*
X106050000Y-123325000D02*
X104750000Y-123325000D01*
X169744000Y-112754000D02*
X169744000Y-116354000D01*
X169016795Y-112229816D02*
G75*
G02X169744000Y-112754000I-1122795J-2324184D01*
G01*
X166795193Y-112197600D02*
G75*
G03X165294000Y-114554000I1098807J-2356400D01*
G01*
X166795193Y-116910400D02*
G75*
G02X165294000Y-114554000I1098807J2356400D01*
G01*
X169016795Y-116878184D02*
G75*
G03X169744000Y-116354000I-1122795J2324184D01*
G01*
X142710000Y-74335000D02*
X142710000Y-69515000D01*
X140090000Y-74335000D02*
X140090000Y-69515000D01*
X142710000Y-74335000D02*
X142396000Y-74335000D01*
X140404000Y-74335000D02*
X140090000Y-74335000D01*
X142710000Y-69515000D02*
X142396000Y-69515000D01*
X140404000Y-69515000D02*
X140090000Y-69515000D01*
X153202000Y-66712000D02*
X153202000Y-61892000D01*
X150582000Y-66712000D02*
X150582000Y-61892000D01*
X153202000Y-66712000D02*
X152888000Y-66712000D01*
X150896000Y-66712000D02*
X150582000Y-66712000D01*
X153202000Y-61892000D02*
X152888000Y-61892000D01*
X150896000Y-61892000D02*
X150582000Y-61892000D01*
X158110000Y-66710000D02*
X158110000Y-61890000D01*
X155490000Y-66710000D02*
X155490000Y-61890000D01*
X158110000Y-66710000D02*
X157796000Y-66710000D01*
X155804000Y-66710000D02*
X155490000Y-66710000D01*
X158110000Y-61890000D02*
X157796000Y-61890000D01*
X155804000Y-61890000D02*
X155490000Y-61890000D01*
X168950000Y-66712000D02*
X168950000Y-61892000D01*
X166330000Y-66712000D02*
X166330000Y-61892000D01*
X168950000Y-66712000D02*
X168636000Y-66712000D01*
X166644000Y-66712000D02*
X166330000Y-66712000D01*
X168950000Y-61892000D02*
X168636000Y-61892000D01*
X166644000Y-61892000D02*
X166330000Y-61892000D01*
X140196000Y-87110000D02*
X143660000Y-87110000D01*
X134740000Y-87110000D02*
X138204000Y-87110000D01*
X140196000Y-75990000D02*
X143660000Y-75990000D01*
X134740000Y-75990000D02*
X138204000Y-75990000D01*
X143660000Y-75990000D02*
X143660000Y-87110000D01*
X134740000Y-75990000D02*
X134740000Y-87110000D01*
X133430000Y-61390000D02*
G75*
G03X130310000Y-61390000I-1560000J0D01*
G01*
X130310000Y-65250000D02*
X130310000Y-61390000D01*
X133430000Y-65250000D02*
X133430000Y-61390000D01*
X130310000Y-65250000D02*
X133430000Y-65250000D01*
X133830000Y-65250000D02*
X133830000Y-64130000D01*
X133830000Y-64130000D02*
X133430000Y-64130000D01*
X133430000Y-64130000D02*
X133430000Y-65250000D01*
X133430000Y-65250000D02*
X133830000Y-65250000D01*
X130600000Y-67920000D02*
X130600000Y-65250000D01*
X130600000Y-65250000D02*
X130600000Y-65250000D01*
X130600000Y-65250000D02*
X130600000Y-67920000D01*
X130600000Y-67920000D02*
X130600000Y-67920000D01*
X133140000Y-67920000D02*
X133140000Y-65250000D01*
X133140000Y-65250000D02*
X133140000Y-65250000D01*
X133140000Y-65250000D02*
X133140000Y-67920000D01*
X133140000Y-67920000D02*
X133140000Y-67920000D01*
X154400000Y-98450000D02*
X154400000Y-97950000D01*
X153000000Y-98450000D02*
X153000000Y-97950000D01*
X153000000Y-98450000D02*
X152400000Y-98450000D01*
X152400000Y-98450000D02*
X152200000Y-98650000D01*
X155200000Y-98650000D02*
X155200000Y-98450000D01*
X155200000Y-98450000D02*
X154400000Y-98450000D01*
X154400000Y-101450000D02*
X155200000Y-101450000D01*
X155200000Y-101450000D02*
X155200000Y-101250000D01*
X152200000Y-101250000D02*
X152200000Y-101450000D01*
X152200000Y-101450000D02*
X153000000Y-101450000D01*
X149730000Y-115920000D02*
X149730000Y-115420000D01*
X148330000Y-115920000D02*
X148330000Y-115420000D01*
X148330000Y-115920000D02*
X147730000Y-115920000D01*
X147730000Y-115920000D02*
X147530000Y-116120000D01*
X150530000Y-116120000D02*
X150530000Y-115920000D01*
X150530000Y-115920000D02*
X149730000Y-115920000D01*
X149730000Y-118920000D02*
X150530000Y-118920000D01*
X150530000Y-118920000D02*
X150530000Y-118720000D01*
X147530000Y-118720000D02*
X147530000Y-118920000D01*
X147530000Y-118920000D02*
X148330000Y-118920000D01*
X163994000Y-98766000D02*
X159174000Y-98766000D01*
X163994000Y-101386000D02*
X159174000Y-101386000D01*
X163994000Y-98766000D02*
X163994000Y-99080000D01*
X163994000Y-101072000D02*
X163994000Y-101386000D01*
X159174000Y-98766000D02*
X159174000Y-99080000D01*
X159174000Y-101072000D02*
X159174000Y-101386000D01*
X138830000Y-61390000D02*
G75*
G03X135710000Y-61390000I-1560000J0D01*
G01*
X135710000Y-65250000D02*
X135710000Y-61390000D01*
X138830000Y-65250000D02*
X138830000Y-61390000D01*
X135710000Y-65250000D02*
X138830000Y-65250000D01*
X139230000Y-65250000D02*
X139230000Y-64130000D01*
X139230000Y-64130000D02*
X138830000Y-64130000D01*
X138830000Y-64130000D02*
X138830000Y-65250000D01*
X138830000Y-65250000D02*
X139230000Y-65250000D01*
X136000000Y-67920000D02*
X136000000Y-65250000D01*
X136000000Y-65250000D02*
X136000000Y-65250000D01*
X136000000Y-65250000D02*
X136000000Y-67920000D01*
X136000000Y-67920000D02*
X136000000Y-67920000D01*
X138540000Y-67920000D02*
X138540000Y-65250000D01*
X138540000Y-65250000D02*
X138540000Y-65250000D01*
X138540000Y-65250000D02*
X138540000Y-67920000D01*
X138540000Y-67920000D02*
X138540000Y-67920000D01*
D12*
X133350000Y-114554000D02*
X138557000Y-114554000D01*
X146431000Y-114554000D02*
X141478000Y-114554000D01*
X133350000Y-107950000D02*
X138430000Y-107950000D01*
X146431000Y-107950000D02*
X141351000Y-107950000D01*
X146431000Y-107950000D02*
X146431000Y-114554000D01*
X133350000Y-114554000D02*
X133350000Y-107950000D01*
X133350000Y-123444000D02*
X138557000Y-123444000D01*
X146431000Y-123444000D02*
X141478000Y-123444000D01*
X133350000Y-116840000D02*
X138430000Y-116840000D01*
X146431000Y-116840000D02*
X141351000Y-116840000D01*
X146431000Y-116840000D02*
X146431000Y-123444000D01*
X133350000Y-123444000D02*
X133350000Y-116840000D01*
X133350000Y-105918000D02*
X138557000Y-105918000D01*
X146431000Y-105918000D02*
X141478000Y-105918000D01*
X133350000Y-99314000D02*
X138430000Y-99314000D01*
X146431000Y-99314000D02*
X141351000Y-99314000D01*
X146431000Y-99314000D02*
X146431000Y-105918000D01*
X133350000Y-105918000D02*
X133350000Y-99314000D01*
X151154000Y-82050000D02*
X151154000Y-76843000D01*
X151154000Y-68969000D02*
X151154000Y-73922000D01*
X144550000Y-82050000D02*
X144550000Y-76970000D01*
X144550000Y-68969000D02*
X144550000Y-74049000D01*
X144550000Y-68969000D02*
X151154000Y-68969000D01*
X151154000Y-82050000D02*
X144550000Y-82050000D01*
X160020000Y-82042000D02*
X160020000Y-76835000D01*
X160020000Y-68961000D02*
X160020000Y-73914000D01*
X153416000Y-82042000D02*
X153416000Y-76962000D01*
X153416000Y-68961000D02*
X153416000Y-74041000D01*
X153416000Y-68961000D02*
X160020000Y-68961000D01*
X160020000Y-82042000D02*
X153416000Y-82042000D01*
X168629000Y-82050000D02*
X168629000Y-76843000D01*
X168629000Y-68969000D02*
X168629000Y-73922000D01*
X162025000Y-82050000D02*
X162025000Y-76970000D01*
X162025000Y-68969000D02*
X162025000Y-74049000D01*
X162025000Y-68969000D02*
X168629000Y-68969000D01*
X168629000Y-82050000D02*
X162025000Y-82050000D01*
D11*
X132505722Y-123279723D02*
G75*
G02X127894420Y-123280000I-2305722J1179723D01*
G01*
X132505722Y-120920277D02*
G75*
G03X127894420Y-120920000I-2305722J-1179723D01*
G01*
X132505722Y-120920277D02*
G75*
G02X132505580Y-123280000I-2305722J-1179723D01*
G01*
X130200000Y-124650000D02*
X130200000Y-119550000D01*
X130240000Y-124650000D02*
X130240000Y-123080000D01*
X130240000Y-121120000D02*
X130240000Y-119550000D01*
X130280000Y-124649000D02*
X130280000Y-123080000D01*
X130280000Y-121120000D02*
X130280000Y-119551000D01*
X130320000Y-124648000D02*
X130320000Y-123080000D01*
X130320000Y-121120000D02*
X130320000Y-119552000D01*
X130360000Y-124646000D02*
X130360000Y-123080000D01*
X130360000Y-121120000D02*
X130360000Y-119554000D01*
X130400000Y-124643000D02*
X130400000Y-123080000D01*
X130400000Y-121120000D02*
X130400000Y-119557000D01*
X130440000Y-124639000D02*
X130440000Y-123080000D01*
X130440000Y-121120000D02*
X130440000Y-119561000D01*
X130480000Y-124635000D02*
X130480000Y-123080000D01*
X130480000Y-121120000D02*
X130480000Y-119565000D01*
X130520000Y-124631000D02*
X130520000Y-123080000D01*
X130520000Y-121120000D02*
X130520000Y-119569000D01*
X130560000Y-124625000D02*
X130560000Y-123080000D01*
X130560000Y-121120000D02*
X130560000Y-119575000D01*
X130600000Y-124619000D02*
X130600000Y-123080000D01*
X130600000Y-121120000D02*
X130600000Y-119581000D01*
X130640000Y-124613000D02*
X130640000Y-123080000D01*
X130640000Y-121120000D02*
X130640000Y-119587000D01*
X130680000Y-124606000D02*
X130680000Y-123080000D01*
X130680000Y-121120000D02*
X130680000Y-119594000D01*
X130720000Y-124598000D02*
X130720000Y-123080000D01*
X130720000Y-121120000D02*
X130720000Y-119602000D01*
X130760000Y-124589000D02*
X130760000Y-123080000D01*
X130760000Y-121120000D02*
X130760000Y-119611000D01*
X130800000Y-124580000D02*
X130800000Y-123080000D01*
X130800000Y-121120000D02*
X130800000Y-119620000D01*
X130840000Y-124570000D02*
X130840000Y-123080000D01*
X130840000Y-121120000D02*
X130840000Y-119630000D01*
X130880000Y-124560000D02*
X130880000Y-123080000D01*
X130880000Y-121120000D02*
X130880000Y-119640000D01*
X130921000Y-124548000D02*
X130921000Y-123080000D01*
X130921000Y-121120000D02*
X130921000Y-119652000D01*
X130961000Y-124536000D02*
X130961000Y-123080000D01*
X130961000Y-121120000D02*
X130961000Y-119664000D01*
X131001000Y-124524000D02*
X131001000Y-123080000D01*
X131001000Y-121120000D02*
X131001000Y-119676000D01*
X131041000Y-124510000D02*
X131041000Y-123080000D01*
X131041000Y-121120000D02*
X131041000Y-119690000D01*
X131081000Y-124496000D02*
X131081000Y-123080000D01*
X131081000Y-121120000D02*
X131081000Y-119704000D01*
X131121000Y-124482000D02*
X131121000Y-123080000D01*
X131121000Y-121120000D02*
X131121000Y-119718000D01*
X131161000Y-124466000D02*
X131161000Y-123080000D01*
X131161000Y-121120000D02*
X131161000Y-119734000D01*
X131201000Y-124450000D02*
X131201000Y-123080000D01*
X131201000Y-121120000D02*
X131201000Y-119750000D01*
X131241000Y-124433000D02*
X131241000Y-123080000D01*
X131241000Y-121120000D02*
X131241000Y-119767000D01*
X131281000Y-124415000D02*
X131281000Y-123080000D01*
X131281000Y-121120000D02*
X131281000Y-119785000D01*
X131321000Y-124396000D02*
X131321000Y-123080000D01*
X131321000Y-121120000D02*
X131321000Y-119804000D01*
X131361000Y-124376000D02*
X131361000Y-123080000D01*
X131361000Y-121120000D02*
X131361000Y-119824000D01*
X131401000Y-124356000D02*
X131401000Y-123080000D01*
X131401000Y-121120000D02*
X131401000Y-119844000D01*
X131441000Y-124334000D02*
X131441000Y-123080000D01*
X131441000Y-121120000D02*
X131441000Y-119866000D01*
X131481000Y-124312000D02*
X131481000Y-123080000D01*
X131481000Y-121120000D02*
X131481000Y-119888000D01*
X131521000Y-124289000D02*
X131521000Y-123080000D01*
X131521000Y-121120000D02*
X131521000Y-119911000D01*
X131561000Y-124265000D02*
X131561000Y-123080000D01*
X131561000Y-121120000D02*
X131561000Y-119935000D01*
X131601000Y-124240000D02*
X131601000Y-123080000D01*
X131601000Y-121120000D02*
X131601000Y-119960000D01*
X131641000Y-124213000D02*
X131641000Y-123080000D01*
X131641000Y-121120000D02*
X131641000Y-119987000D01*
X131681000Y-124186000D02*
X131681000Y-123080000D01*
X131681000Y-121120000D02*
X131681000Y-120014000D01*
X131721000Y-124158000D02*
X131721000Y-123080000D01*
X131721000Y-121120000D02*
X131721000Y-120042000D01*
X131761000Y-124128000D02*
X131761000Y-123080000D01*
X131761000Y-121120000D02*
X131761000Y-120072000D01*
X131801000Y-124097000D02*
X131801000Y-123080000D01*
X131801000Y-121120000D02*
X131801000Y-120103000D01*
X131841000Y-124065000D02*
X131841000Y-123080000D01*
X131841000Y-121120000D02*
X131841000Y-120135000D01*
X131881000Y-124032000D02*
X131881000Y-123080000D01*
X131881000Y-121120000D02*
X131881000Y-120168000D01*
X131921000Y-123997000D02*
X131921000Y-123080000D01*
X131921000Y-121120000D02*
X131921000Y-120203000D01*
X131961000Y-123961000D02*
X131961000Y-123080000D01*
X131961000Y-121120000D02*
X131961000Y-120239000D01*
X132001000Y-123923000D02*
X132001000Y-123080000D01*
X132001000Y-121120000D02*
X132001000Y-120277000D01*
X132041000Y-123883000D02*
X132041000Y-123080000D01*
X132041000Y-121120000D02*
X132041000Y-120317000D01*
X132081000Y-123842000D02*
X132081000Y-123080000D01*
X132081000Y-121120000D02*
X132081000Y-120358000D01*
X132121000Y-123799000D02*
X132121000Y-123080000D01*
X132121000Y-121120000D02*
X132121000Y-120401000D01*
X132161000Y-123754000D02*
X132161000Y-123080000D01*
X132161000Y-121120000D02*
X132161000Y-120446000D01*
X132201000Y-123706000D02*
X132201000Y-120494000D01*
X132241000Y-123656000D02*
X132241000Y-120544000D01*
X132281000Y-123604000D02*
X132281000Y-120596000D01*
X132321000Y-123548000D02*
X132321000Y-120652000D01*
X132361000Y-123490000D02*
X132361000Y-120710000D01*
X132401000Y-123427000D02*
X132401000Y-120773000D01*
X132441000Y-123361000D02*
X132441000Y-120839000D01*
X132481000Y-123289000D02*
X132481000Y-120911000D01*
X132521000Y-123212000D02*
X132521000Y-120988000D01*
X132561000Y-123128000D02*
X132561000Y-121072000D01*
X132601000Y-123034000D02*
X132601000Y-121166000D01*
X132641000Y-122929000D02*
X132641000Y-121271000D01*
X132681000Y-122807000D02*
X132681000Y-121393000D01*
X132721000Y-122659000D02*
X132721000Y-121541000D01*
X132761000Y-122454000D02*
X132761000Y-121746000D01*
X127000000Y-122100000D02*
X128200000Y-122100000D01*
X127600000Y-122750000D02*
X127600000Y-121450000D01*
X160605000Y-136891000D02*
X166855000Y-136891000D01*
X160605000Y-131841000D02*
X166855000Y-131841000D01*
X160605000Y-131841000D02*
G75*
G03X160605000Y-136891000I0J-2525000D01*
G01*
X166855000Y-131841000D02*
G75*
G02X166855000Y-136891000I0J-2525000D01*
G01*
X160605000Y-131303000D02*
X166855000Y-131303000D01*
X160605000Y-126253000D02*
X166855000Y-126253000D01*
X160605000Y-126253000D02*
G75*
G03X160605000Y-131303000I0J-2525000D01*
G01*
X166855000Y-126253000D02*
G75*
G02X166855000Y-131303000I0J-2525000D01*
G01*
X167055000Y-137429000D02*
X160805000Y-137429000D01*
X167055000Y-142479000D02*
X160805000Y-142479000D01*
X167055000Y-142479000D02*
G75*
G03X167055000Y-137429000I0J2525000D01*
G01*
X160805000Y-142479000D02*
G75*
G02X160805000Y-137429000I0J2525000D01*
G01*
X157325000Y-140775000D02*
X157325000Y-134525000D01*
X152275000Y-140775000D02*
X152275000Y-134525000D01*
X152275000Y-140775000D02*
G75*
G03X157325000Y-140775000I2525000J0D01*
G01*
X152275000Y-134525000D02*
G75*
G02X157325000Y-134525000I2525000J0D01*
G01*
X146645000Y-134525000D02*
X146645000Y-140775000D01*
X151695000Y-134525000D02*
X151695000Y-140775000D01*
X151695000Y-134525000D02*
G75*
G03X146645000Y-134525000I-2525000J0D01*
G01*
X151695000Y-140775000D02*
G75*
G02X146645000Y-140775000I-2525000J0D01*
G01*
X140145000Y-144895000D02*
X140145000Y-138645000D01*
X135095000Y-144895000D02*
X135095000Y-138645000D01*
X135095000Y-144895000D02*
G75*
G03X140145000Y-144895000I2525000J0D01*
G01*
X135095000Y-138645000D02*
G75*
G02X140145000Y-138645000I2525000J0D01*
G01*
X145935000Y-144895000D02*
X145935000Y-138645000D01*
X140885000Y-144895000D02*
X140885000Y-138645000D01*
X140885000Y-144895000D02*
G75*
G03X145935000Y-144895000I2525000J0D01*
G01*
X140885000Y-138645000D02*
G75*
G02X145935000Y-138645000I2525000J0D01*
G01*
D12*
X155400000Y-122400000D02*
X151400000Y-122400000D01*
X151400000Y-122400000D02*
X151400000Y-130000000D01*
X156000000Y-130000000D02*
X156000000Y-122400000D01*
X156000000Y-130000000D02*
X155800000Y-130000000D01*
X151400000Y-130000000D02*
X155800000Y-130000000D01*
X141960000Y-124620000D02*
X137960000Y-124620000D01*
X137960000Y-124620000D02*
X137960000Y-132220000D01*
X142560000Y-132220000D02*
X142560000Y-124620000D01*
X142560000Y-132220000D02*
X142360000Y-132220000D01*
X137960000Y-132220000D02*
X142360000Y-132220000D01*
X128000000Y-128284740D02*
X128000000Y-127522740D01*
X128000000Y-133745740D02*
X128000000Y-134634740D01*
X129270000Y-128284740D02*
X126603000Y-128284740D01*
X126603000Y-128284740D02*
X126603000Y-133745740D01*
X126603000Y-133745740D02*
X129270000Y-133745740D01*
X129270000Y-133745740D02*
X129270000Y-128284740D01*
D11*
X155975000Y-84975000D02*
X155975000Y-84475000D01*
X154575000Y-84975000D02*
X154575000Y-84475000D01*
X154575000Y-84975000D02*
X153975000Y-84975000D01*
X153975000Y-84975000D02*
X153775000Y-85175000D01*
X156775000Y-85175000D02*
X156775000Y-84975000D01*
X156775000Y-84975000D02*
X155975000Y-84975000D01*
X155975000Y-87975000D02*
X156775000Y-87975000D01*
X156775000Y-87975000D02*
X156775000Y-87775000D01*
X153775000Y-87775000D02*
X153775000Y-87975000D01*
X153775000Y-87975000D02*
X154575000Y-87975000D01*
D12*
X116098000Y-147540000D02*
X122956000Y-147540000D01*
X132100000Y-147540000D02*
X126004000Y-147540000D01*
X126004000Y-139539000D02*
X132100000Y-139539000D01*
X116098000Y-139539000D02*
X122956000Y-139539000D01*
X116098000Y-147540000D02*
X116098000Y-139539000D01*
X132100000Y-139539000D02*
X132100000Y-147540000D01*
X102300000Y-129198000D02*
X102300000Y-136056000D01*
X102300000Y-145200000D02*
X102300000Y-139104000D01*
X110301000Y-139104000D02*
X110301000Y-145200000D01*
X110301000Y-129198000D02*
X110301000Y-136056000D01*
X102300000Y-129198000D02*
X110301000Y-129198000D01*
X110301000Y-145200000D02*
X102300000Y-145200000D01*
D11*
X104205000Y-116190000D02*
X101545000Y-116190000D01*
X104205000Y-93270000D02*
X104205000Y-116190000D01*
X101545000Y-93270000D02*
X101545000Y-116190000D01*
X104205000Y-93270000D02*
X101545000Y-93270000D01*
X104205000Y-92000000D02*
X104205000Y-90670000D01*
X104205000Y-90670000D02*
X102875000Y-90670000D01*
X140920000Y-132670000D02*
X143580000Y-132670000D01*
X140920000Y-132730000D02*
X140920000Y-132670000D01*
X143580000Y-132730000D02*
X143580000Y-132670000D01*
X140920000Y-132730000D02*
X143580000Y-132730000D01*
X140920000Y-134000000D02*
X140920000Y-135330000D01*
X140920000Y-135330000D02*
X142250000Y-135330000D01*
D12*
X148966666Y-92457143D02*
X149014285Y-92504762D01*
X149157142Y-92552381D01*
X149252380Y-92552381D01*
X149395238Y-92504762D01*
X149490476Y-92409524D01*
X149538095Y-92314286D01*
X149585714Y-92123810D01*
X149585714Y-91980952D01*
X149538095Y-91790476D01*
X149490476Y-91695238D01*
X149395238Y-91600000D01*
X149252380Y-91552381D01*
X149157142Y-91552381D01*
X149014285Y-91600000D01*
X148966666Y-91647619D01*
X148395238Y-91980952D02*
X148490476Y-91933333D01*
X148538095Y-91885714D01*
X148585714Y-91790476D01*
X148585714Y-91742857D01*
X148538095Y-91647619D01*
X148490476Y-91600000D01*
X148395238Y-91552381D01*
X148204761Y-91552381D01*
X148109523Y-91600000D01*
X148061904Y-91647619D01*
X148014285Y-91742857D01*
X148014285Y-91790476D01*
X148061904Y-91885714D01*
X148109523Y-91933333D01*
X148204761Y-91980952D01*
X148395238Y-91980952D01*
X148490476Y-92028571D01*
X148538095Y-92076190D01*
X148585714Y-92171429D01*
X148585714Y-92361905D01*
X148538095Y-92457143D01*
X148490476Y-92504762D01*
X148395238Y-92552381D01*
X148204761Y-92552381D01*
X148109523Y-92504762D01*
X148061904Y-92457143D01*
X148014285Y-92361905D01*
X148014285Y-92171429D01*
X148061904Y-92076190D01*
X148109523Y-92028571D01*
X148204761Y-91980952D01*
X133433333Y-147052381D02*
X133433333Y-147766667D01*
X133480953Y-147909524D01*
X133576191Y-148004762D01*
X133719048Y-148052381D01*
X133814286Y-148052381D01*
X132433333Y-148052381D02*
X133004762Y-148052381D01*
X132719048Y-148052381D02*
X132719048Y-147052381D01*
X132814286Y-147195238D01*
X132909524Y-147290476D01*
X133004762Y-147338095D01*
X113577381Y-120041667D02*
X114291667Y-120041667D01*
X114434524Y-119994047D01*
X114529762Y-119898809D01*
X114577381Y-119755952D01*
X114577381Y-119660714D01*
X113910714Y-120946429D02*
X114577381Y-120946429D01*
X113529762Y-120708333D02*
X114244048Y-120470238D01*
X114244048Y-121089286D01*
X149761905Y-102152381D02*
X149761905Y-102961905D01*
X149714286Y-103057143D01*
X149666667Y-103104762D01*
X149571429Y-103152381D01*
X149380952Y-103152381D01*
X149285714Y-103104762D01*
X149238095Y-103057143D01*
X149190476Y-102961905D01*
X149190476Y-102152381D01*
X148190476Y-103152381D02*
X148761905Y-103152381D01*
X148476191Y-103152381D02*
X148476191Y-102152381D01*
X148571429Y-102295238D01*
X148666667Y-102390476D01*
X148761905Y-102438095D01*
X128906666Y-155797143D02*
X128954285Y-155844762D01*
X129097142Y-155892381D01*
X129192380Y-155892381D01*
X129335238Y-155844762D01*
X129430476Y-155749524D01*
X129478095Y-155654286D01*
X129525714Y-155463810D01*
X129525714Y-155320952D01*
X129478095Y-155130476D01*
X129430476Y-155035238D01*
X129335238Y-154940000D01*
X129192380Y-154892381D01*
X129097142Y-154892381D01*
X128954285Y-154940000D01*
X128906666Y-154987619D01*
X128049523Y-155225714D02*
X128049523Y-155892381D01*
X128287619Y-154844762D02*
X128525714Y-155559048D01*
X127906666Y-155559048D01*
X123887381Y-88931667D02*
X124601667Y-88931667D01*
X124744524Y-88884047D01*
X124839762Y-88788809D01*
X124887381Y-88645952D01*
X124887381Y-88550714D01*
X123887381Y-89836429D02*
X123887381Y-89645952D01*
X123935000Y-89550714D01*
X123982619Y-89503095D01*
X124125476Y-89407857D01*
X124315952Y-89360238D01*
X124696905Y-89360238D01*
X124792143Y-89407857D01*
X124839762Y-89455476D01*
X124887381Y-89550714D01*
X124887381Y-89741191D01*
X124839762Y-89836429D01*
X124792143Y-89884048D01*
X124696905Y-89931667D01*
X124458810Y-89931667D01*
X124363571Y-89884048D01*
X124315952Y-89836429D01*
X124268333Y-89741191D01*
X124268333Y-89550714D01*
X124315952Y-89455476D01*
X124363571Y-89407857D01*
X124458810Y-89360238D01*
X139467857Y-96007143D02*
X139515476Y-96054762D01*
X139658333Y-96102381D01*
X139753571Y-96102381D01*
X139896429Y-96054762D01*
X139991667Y-95959524D01*
X140039286Y-95864286D01*
X140086905Y-95673810D01*
X140086905Y-95530952D01*
X140039286Y-95340476D01*
X139991667Y-95245238D01*
X139896429Y-95150000D01*
X139753571Y-95102381D01*
X139658333Y-95102381D01*
X139515476Y-95150000D01*
X139467857Y-95197619D01*
X138515476Y-96102381D02*
X139086905Y-96102381D01*
X138801191Y-96102381D02*
X138801191Y-95102381D01*
X138896429Y-95245238D01*
X138991667Y-95340476D01*
X139086905Y-95388095D01*
X137896429Y-95102381D02*
X137801190Y-95102381D01*
X137705952Y-95150000D01*
X137658333Y-95197619D01*
X137610714Y-95292857D01*
X137563095Y-95483333D01*
X137563095Y-95721429D01*
X137610714Y-95911905D01*
X137658333Y-96007143D01*
X137705952Y-96054762D01*
X137801190Y-96102381D01*
X137896429Y-96102381D01*
X137991667Y-96054762D01*
X138039286Y-96007143D01*
X138086905Y-95911905D01*
X138134524Y-95721429D01*
X138134524Y-95483333D01*
X138086905Y-95292857D01*
X138039286Y-95197619D01*
X137991667Y-95150000D01*
X137896429Y-95102381D01*
X111176190Y-102823809D02*
X111652381Y-102823809D01*
X110652381Y-102490476D02*
X111176190Y-102823809D01*
X110652381Y-103157143D01*
X110747619Y-103442857D02*
X110700000Y-103490476D01*
X110652381Y-103585714D01*
X110652381Y-103823810D01*
X110700000Y-103919048D01*
X110747619Y-103966667D01*
X110842857Y-104014286D01*
X110938095Y-104014286D01*
X111080952Y-103966667D01*
X111652381Y-103395238D01*
X111652381Y-104014286D01*
X120189285Y-104482143D02*
X120236904Y-104529762D01*
X120379761Y-104577381D01*
X120474999Y-104577381D01*
X120617857Y-104529762D01*
X120713095Y-104434524D01*
X120760714Y-104339286D01*
X120808333Y-104148810D01*
X120808333Y-104005952D01*
X120760714Y-103815476D01*
X120713095Y-103720238D01*
X120617857Y-103625000D01*
X120474999Y-103577381D01*
X120379761Y-103577381D01*
X120236904Y-103625000D01*
X120189285Y-103672619D01*
X119570238Y-103577381D02*
X119379761Y-103577381D01*
X119284523Y-103625000D01*
X119189285Y-103720238D01*
X119141666Y-103910714D01*
X119141666Y-104244048D01*
X119189285Y-104434524D01*
X119284523Y-104529762D01*
X119379761Y-104577381D01*
X119570238Y-104577381D01*
X119665476Y-104529762D01*
X119760714Y-104434524D01*
X119808333Y-104244048D01*
X119808333Y-103910714D01*
X119760714Y-103720238D01*
X119665476Y-103625000D01*
X119570238Y-103577381D01*
X118713095Y-104577381D02*
X118713095Y-103577381D01*
X118141666Y-104577381D01*
X118141666Y-103577381D01*
X117713095Y-103672619D02*
X117665476Y-103625000D01*
X117570238Y-103577381D01*
X117332142Y-103577381D01*
X117236904Y-103625000D01*
X117189285Y-103672619D01*
X117141666Y-103767857D01*
X117141666Y-103863095D01*
X117189285Y-104005952D01*
X117760714Y-104577381D01*
X117141666Y-104577381D01*
X141052381Y-63816667D02*
X141766667Y-63816667D01*
X141909524Y-63769047D01*
X142004762Y-63673809D01*
X142052381Y-63530952D01*
X142052381Y-63435714D01*
X141147619Y-64245238D02*
X141100000Y-64292857D01*
X141052381Y-64388095D01*
X141052381Y-64626191D01*
X141100000Y-64721429D01*
X141147619Y-64769048D01*
X141242857Y-64816667D01*
X141338095Y-64816667D01*
X141480952Y-64769048D01*
X142052381Y-64197619D01*
X142052381Y-64816667D01*
X115269523Y-147052381D02*
X115269523Y-147766667D01*
X115317143Y-147909524D01*
X115412381Y-148004762D01*
X115555238Y-148052381D01*
X115650476Y-148052381D01*
X114269523Y-148052381D02*
X114840952Y-148052381D01*
X114555238Y-148052381D02*
X114555238Y-147052381D01*
X114650476Y-147195238D01*
X114745714Y-147290476D01*
X114840952Y-147338095D01*
X113650476Y-147052381D02*
X113555237Y-147052381D01*
X113459999Y-147100000D01*
X113412380Y-147147619D01*
X113364761Y-147242857D01*
X113317142Y-147433333D01*
X113317142Y-147671429D01*
X113364761Y-147861905D01*
X113412380Y-147957143D01*
X113459999Y-148004762D01*
X113555237Y-148052381D01*
X113650476Y-148052381D01*
X113745714Y-148004762D01*
X113793333Y-147957143D01*
X113840952Y-147861905D01*
X113888571Y-147671429D01*
X113888571Y-147433333D01*
X113840952Y-147242857D01*
X113793333Y-147147619D01*
X113745714Y-147100000D01*
X113650476Y-147052381D01*
X157752381Y-93461905D02*
X156752381Y-93461905D01*
X157752381Y-94033334D02*
X157180952Y-93604762D01*
X156752381Y-94033334D02*
X157323810Y-93461905D01*
X157752381Y-94985715D02*
X157752381Y-94414286D01*
X157752381Y-94700000D02*
X156752381Y-94700000D01*
X156895238Y-94604762D01*
X156990476Y-94509524D01*
X157038095Y-94414286D01*
X120216666Y-118902381D02*
X120692857Y-118902381D01*
X120692857Y-117902381D01*
X119359523Y-118902381D02*
X119930952Y-118902381D01*
X119645238Y-118902381D02*
X119645238Y-117902381D01*
X119740476Y-118045238D01*
X119835714Y-118140476D01*
X119930952Y-118188095D01*
X166152381Y-145633334D02*
X166152381Y-145157143D01*
X165152381Y-145157143D01*
X165247619Y-145919048D02*
X165200000Y-145966667D01*
X165152381Y-146061905D01*
X165152381Y-146300001D01*
X165200000Y-146395239D01*
X165247619Y-146442858D01*
X165342857Y-146490477D01*
X165438095Y-146490477D01*
X165580952Y-146442858D01*
X166152381Y-145871429D01*
X166152381Y-146490477D01*
X160841666Y-123152381D02*
X161317857Y-123152381D01*
X161317857Y-122152381D01*
X160032142Y-122152381D02*
X160508333Y-122152381D01*
X160555952Y-122628571D01*
X160508333Y-122580952D01*
X160413095Y-122533333D01*
X160174999Y-122533333D01*
X160079761Y-122580952D01*
X160032142Y-122628571D01*
X159984523Y-122723810D01*
X159984523Y-122961905D01*
X160032142Y-123057143D01*
X160079761Y-123104762D01*
X160174999Y-123152381D01*
X160413095Y-123152381D01*
X160508333Y-123104762D01*
X160555952Y-123057143D01*
X166547619Y-118704762D02*
X166500000Y-118609524D01*
X166404762Y-118514286D01*
X166261905Y-118371429D01*
X166214286Y-118276190D01*
X166214286Y-118180952D01*
X166452381Y-118228571D02*
X166404762Y-118133333D01*
X166309524Y-118038095D01*
X166119048Y-117990476D01*
X165785714Y-117990476D01*
X165595238Y-118038095D01*
X165500000Y-118133333D01*
X165452381Y-118228571D01*
X165452381Y-118419048D01*
X165500000Y-118514286D01*
X165595238Y-118609524D01*
X165785714Y-118657143D01*
X166119048Y-118657143D01*
X166309524Y-118609524D01*
X166404762Y-118514286D01*
X166452381Y-118419048D01*
X166452381Y-118228571D01*
X165452381Y-119514286D02*
X165452381Y-119323809D01*
X165500000Y-119228571D01*
X165547619Y-119180952D01*
X165690476Y-119085714D01*
X165880952Y-119038095D01*
X166261905Y-119038095D01*
X166357143Y-119085714D01*
X166404762Y-119133333D01*
X166452381Y-119228571D01*
X166452381Y-119419048D01*
X166404762Y-119514286D01*
X166357143Y-119561905D01*
X166261905Y-119609524D01*
X166023810Y-119609524D01*
X165928571Y-119561905D01*
X165880952Y-119514286D01*
X165833333Y-119419048D01*
X165833333Y-119228571D01*
X165880952Y-119133333D01*
X165928571Y-119085714D01*
X166023810Y-119038095D01*
X166247619Y-103704762D02*
X166200000Y-103609524D01*
X166104762Y-103514286D01*
X165961905Y-103371429D01*
X165914286Y-103276190D01*
X165914286Y-103180952D01*
X166152381Y-103228571D02*
X166104762Y-103133333D01*
X166009524Y-103038095D01*
X165819048Y-102990476D01*
X165485714Y-102990476D01*
X165295238Y-103038095D01*
X165200000Y-103133333D01*
X165152381Y-103228571D01*
X165152381Y-103419048D01*
X165200000Y-103514286D01*
X165295238Y-103609524D01*
X165485714Y-103657143D01*
X165819048Y-103657143D01*
X166009524Y-103609524D01*
X166104762Y-103514286D01*
X166152381Y-103419048D01*
X166152381Y-103228571D01*
X165580952Y-104228571D02*
X165533333Y-104133333D01*
X165485714Y-104085714D01*
X165390476Y-104038095D01*
X165342857Y-104038095D01*
X165247619Y-104085714D01*
X165200000Y-104133333D01*
X165152381Y-104228571D01*
X165152381Y-104419048D01*
X165200000Y-104514286D01*
X165247619Y-104561905D01*
X165342857Y-104609524D01*
X165390476Y-104609524D01*
X165485714Y-104561905D01*
X165533333Y-104514286D01*
X165580952Y-104419048D01*
X165580952Y-104228571D01*
X165628571Y-104133333D01*
X165676190Y-104085714D01*
X165771429Y-104038095D01*
X165961905Y-104038095D01*
X166057143Y-104085714D01*
X166104762Y-104133333D01*
X166152381Y-104228571D01*
X166152381Y-104419048D01*
X166104762Y-104514286D01*
X166057143Y-104561905D01*
X165961905Y-104609524D01*
X165771429Y-104609524D01*
X165676190Y-104561905D01*
X165628571Y-104514286D01*
X165580952Y-104419048D01*
X147152381Y-157066667D02*
X147866667Y-157066667D01*
X148009524Y-157019047D01*
X148104762Y-156923809D01*
X148152381Y-156780952D01*
X148152381Y-156685714D01*
X147580952Y-157685714D02*
X147533333Y-157590476D01*
X147485714Y-157542857D01*
X147390476Y-157495238D01*
X147342857Y-157495238D01*
X147247619Y-157542857D01*
X147200000Y-157590476D01*
X147152381Y-157685714D01*
X147152381Y-157876191D01*
X147200000Y-157971429D01*
X147247619Y-158019048D01*
X147342857Y-158066667D01*
X147390476Y-158066667D01*
X147485714Y-158019048D01*
X147533333Y-157971429D01*
X147580952Y-157876191D01*
X147580952Y-157685714D01*
X147628571Y-157590476D01*
X147676190Y-157542857D01*
X147771429Y-157495238D01*
X147961905Y-157495238D01*
X148057143Y-157542857D01*
X148104762Y-157590476D01*
X148152381Y-157685714D01*
X148152381Y-157876191D01*
X148104762Y-157971429D01*
X148057143Y-158019048D01*
X147961905Y-158066667D01*
X147771429Y-158066667D01*
X147676190Y-158019048D01*
X147628571Y-157971429D01*
X147580952Y-157876191D01*
X107867143Y-69857143D02*
X107914762Y-69809524D01*
X107962381Y-69666667D01*
X107962381Y-69571429D01*
X107914762Y-69428571D01*
X107819524Y-69333333D01*
X107724286Y-69285714D01*
X107533810Y-69238095D01*
X107390952Y-69238095D01*
X107200476Y-69285714D01*
X107105238Y-69333333D01*
X107010000Y-69428571D01*
X106962381Y-69571429D01*
X106962381Y-69666667D01*
X107010000Y-69809524D01*
X107057619Y-69857143D01*
X107295714Y-70714286D02*
X107962381Y-70714286D01*
X106914762Y-70476190D02*
X107629048Y-70238095D01*
X107629048Y-70857143D01*
X107295714Y-71666667D02*
X107962381Y-71666667D01*
X106914762Y-71428571D02*
X107629048Y-71190476D01*
X107629048Y-71809524D01*
X121092857Y-82452381D02*
X121569048Y-82452381D01*
X121569048Y-81452381D01*
X120235714Y-82452381D02*
X120807143Y-82452381D01*
X120521429Y-82452381D02*
X120521429Y-81452381D01*
X120616667Y-81595238D01*
X120711905Y-81690476D01*
X120807143Y-81738095D01*
X119854762Y-81547619D02*
X119807143Y-81500000D01*
X119711905Y-81452381D01*
X119473809Y-81452381D01*
X119378571Y-81500000D01*
X119330952Y-81547619D01*
X119283333Y-81642857D01*
X119283333Y-81738095D01*
X119330952Y-81880952D01*
X119902381Y-82452381D01*
X119283333Y-82452381D01*
X120463333Y-63802381D02*
X120463333Y-64516667D01*
X120510953Y-64659524D01*
X120606191Y-64754762D01*
X120749048Y-64802381D01*
X120844286Y-64802381D01*
X120082381Y-63802381D02*
X119463333Y-63802381D01*
X119796667Y-64183333D01*
X119653809Y-64183333D01*
X119558571Y-64230952D01*
X119510952Y-64278571D01*
X119463333Y-64373810D01*
X119463333Y-64611905D01*
X119510952Y-64707143D01*
X119558571Y-64754762D01*
X119653809Y-64802381D01*
X119939524Y-64802381D01*
X120034762Y-64754762D01*
X120082381Y-64707143D01*
X162642857Y-144857143D02*
X162690476Y-144904762D01*
X162833333Y-144952381D01*
X162928571Y-144952381D01*
X163071429Y-144904762D01*
X163166667Y-144809524D01*
X163214286Y-144714286D01*
X163261905Y-144523810D01*
X163261905Y-144380952D01*
X163214286Y-144190476D01*
X163166667Y-144095238D01*
X163071429Y-144000000D01*
X162928571Y-143952381D01*
X162833333Y-143952381D01*
X162690476Y-144000000D01*
X162642857Y-144047619D01*
X162309524Y-143952381D02*
X161690476Y-143952381D01*
X162023810Y-144333333D01*
X161880952Y-144333333D01*
X161785714Y-144380952D01*
X161738095Y-144428571D01*
X161690476Y-144523810D01*
X161690476Y-144761905D01*
X161738095Y-144857143D01*
X161785714Y-144904762D01*
X161880952Y-144952381D01*
X162166667Y-144952381D01*
X162261905Y-144904762D01*
X162309524Y-144857143D01*
X160785714Y-143952381D02*
X161261905Y-143952381D01*
X161309524Y-144428571D01*
X161261905Y-144380952D01*
X161166667Y-144333333D01*
X160928571Y-144333333D01*
X160833333Y-144380952D01*
X160785714Y-144428571D01*
X160738095Y-144523810D01*
X160738095Y-144761905D01*
X160785714Y-144857143D01*
X160833333Y-144904762D01*
X160928571Y-144952381D01*
X161166667Y-144952381D01*
X161261905Y-144904762D01*
X161309524Y-144857143D01*
X107542857Y-125082143D02*
X107590476Y-125129762D01*
X107733333Y-125177381D01*
X107828571Y-125177381D01*
X107971429Y-125129762D01*
X108066667Y-125034524D01*
X108114286Y-124939286D01*
X108161905Y-124748810D01*
X108161905Y-124605952D01*
X108114286Y-124415476D01*
X108066667Y-124320238D01*
X107971429Y-124225000D01*
X107828571Y-124177381D01*
X107733333Y-124177381D01*
X107590476Y-124225000D01*
X107542857Y-124272619D01*
X106590476Y-125177381D02*
X107161905Y-125177381D01*
X106876191Y-125177381D02*
X106876191Y-124177381D01*
X106971429Y-124320238D01*
X107066667Y-124415476D01*
X107161905Y-124463095D01*
X105638095Y-125177381D02*
X106209524Y-125177381D01*
X105923810Y-125177381D02*
X105923810Y-124177381D01*
X106019048Y-124320238D01*
X106114286Y-124415476D01*
X106209524Y-124463095D01*
X166547619Y-111304762D02*
X166500000Y-111209524D01*
X166404762Y-111114286D01*
X166261905Y-110971429D01*
X166214286Y-110876190D01*
X166214286Y-110780952D01*
X166452381Y-110828571D02*
X166404762Y-110733333D01*
X166309524Y-110638095D01*
X166119048Y-110590476D01*
X165785714Y-110590476D01*
X165595238Y-110638095D01*
X165500000Y-110733333D01*
X165452381Y-110828571D01*
X165452381Y-111019048D01*
X165500000Y-111114286D01*
X165595238Y-111209524D01*
X165785714Y-111257143D01*
X166119048Y-111257143D01*
X166309524Y-111209524D01*
X166404762Y-111114286D01*
X166452381Y-111019048D01*
X166452381Y-110828571D01*
X165785714Y-112114286D02*
X166452381Y-112114286D01*
X165404762Y-111876190D02*
X166119048Y-111638095D01*
X166119048Y-112257143D01*
X143957143Y-71057143D02*
X144004762Y-71009524D01*
X144052381Y-70866667D01*
X144052381Y-70771429D01*
X144004762Y-70628571D01*
X143909524Y-70533333D01*
X143814286Y-70485714D01*
X143623810Y-70438095D01*
X143480952Y-70438095D01*
X143290476Y-70485714D01*
X143195238Y-70533333D01*
X143100000Y-70628571D01*
X143052381Y-70771429D01*
X143052381Y-70866667D01*
X143100000Y-71009524D01*
X143147619Y-71057143D01*
X143052381Y-71390476D02*
X143052381Y-72009524D01*
X143433333Y-71676190D01*
X143433333Y-71819048D01*
X143480952Y-71914286D01*
X143528571Y-71961905D01*
X143623810Y-72009524D01*
X143861905Y-72009524D01*
X143957143Y-71961905D01*
X144004762Y-71914286D01*
X144052381Y-71819048D01*
X144052381Y-71533333D01*
X144004762Y-71438095D01*
X143957143Y-71390476D01*
X143052381Y-72628571D02*
X143052381Y-72723810D01*
X143100000Y-72819048D01*
X143147619Y-72866667D01*
X143242857Y-72914286D01*
X143433333Y-72961905D01*
X143671429Y-72961905D01*
X143861905Y-72914286D01*
X143957143Y-72866667D01*
X144004762Y-72819048D01*
X144052381Y-72723810D01*
X144052381Y-72628571D01*
X144004762Y-72533333D01*
X143957143Y-72485714D01*
X143861905Y-72438095D01*
X143671429Y-72390476D01*
X143433333Y-72390476D01*
X143242857Y-72438095D01*
X143147619Y-72485714D01*
X143100000Y-72533333D01*
X143052381Y-72628571D01*
X154457143Y-63557143D02*
X154504762Y-63509524D01*
X154552381Y-63366667D01*
X154552381Y-63271429D01*
X154504762Y-63128571D01*
X154409524Y-63033333D01*
X154314286Y-62985714D01*
X154123810Y-62938095D01*
X153980952Y-62938095D01*
X153790476Y-62985714D01*
X153695238Y-63033333D01*
X153600000Y-63128571D01*
X153552381Y-63271429D01*
X153552381Y-63366667D01*
X153600000Y-63509524D01*
X153647619Y-63557143D01*
X153552381Y-63890476D02*
X153552381Y-64509524D01*
X153933333Y-64176190D01*
X153933333Y-64319048D01*
X153980952Y-64414286D01*
X154028571Y-64461905D01*
X154123810Y-64509524D01*
X154361905Y-64509524D01*
X154457143Y-64461905D01*
X154504762Y-64414286D01*
X154552381Y-64319048D01*
X154552381Y-64033333D01*
X154504762Y-63938095D01*
X154457143Y-63890476D01*
X153647619Y-64890476D02*
X153600000Y-64938095D01*
X153552381Y-65033333D01*
X153552381Y-65271429D01*
X153600000Y-65366667D01*
X153647619Y-65414286D01*
X153742857Y-65461905D01*
X153838095Y-65461905D01*
X153980952Y-65414286D01*
X154552381Y-64842857D01*
X154552381Y-65461905D01*
X159357143Y-63557143D02*
X159404762Y-63509524D01*
X159452381Y-63366667D01*
X159452381Y-63271429D01*
X159404762Y-63128571D01*
X159309524Y-63033333D01*
X159214286Y-62985714D01*
X159023810Y-62938095D01*
X158880952Y-62938095D01*
X158690476Y-62985714D01*
X158595238Y-63033333D01*
X158500000Y-63128571D01*
X158452381Y-63271429D01*
X158452381Y-63366667D01*
X158500000Y-63509524D01*
X158547619Y-63557143D01*
X158452381Y-63890476D02*
X158452381Y-64509524D01*
X158833333Y-64176190D01*
X158833333Y-64319048D01*
X158880952Y-64414286D01*
X158928571Y-64461905D01*
X159023810Y-64509524D01*
X159261905Y-64509524D01*
X159357143Y-64461905D01*
X159404762Y-64414286D01*
X159452381Y-64319048D01*
X159452381Y-64033333D01*
X159404762Y-63938095D01*
X159357143Y-63890476D01*
X158785714Y-65366667D02*
X159452381Y-65366667D01*
X158404762Y-65128571D02*
X159119048Y-64890476D01*
X159119048Y-65509524D01*
X165842857Y-68407143D02*
X165890476Y-68454762D01*
X166033333Y-68502381D01*
X166128571Y-68502381D01*
X166271429Y-68454762D01*
X166366667Y-68359524D01*
X166414286Y-68264286D01*
X166461905Y-68073810D01*
X166461905Y-67930952D01*
X166414286Y-67740476D01*
X166366667Y-67645238D01*
X166271429Y-67550000D01*
X166128571Y-67502381D01*
X166033333Y-67502381D01*
X165890476Y-67550000D01*
X165842857Y-67597619D01*
X165509524Y-67502381D02*
X164890476Y-67502381D01*
X165223810Y-67883333D01*
X165080952Y-67883333D01*
X164985714Y-67930952D01*
X164938095Y-67978571D01*
X164890476Y-68073810D01*
X164890476Y-68311905D01*
X164938095Y-68407143D01*
X164985714Y-68454762D01*
X165080952Y-68502381D01*
X165366667Y-68502381D01*
X165461905Y-68454762D01*
X165509524Y-68407143D01*
X164033333Y-67502381D02*
X164223810Y-67502381D01*
X164319048Y-67550000D01*
X164366667Y-67597619D01*
X164461905Y-67740476D01*
X164509524Y-67930952D01*
X164509524Y-68311905D01*
X164461905Y-68407143D01*
X164414286Y-68454762D01*
X164319048Y-68502381D01*
X164128571Y-68502381D01*
X164033333Y-68454762D01*
X163985714Y-68407143D01*
X163938095Y-68311905D01*
X163938095Y-68073810D01*
X163985714Y-67978571D01*
X164033333Y-67930952D01*
X164128571Y-67883333D01*
X164319048Y-67883333D01*
X164414286Y-67930952D01*
X164461905Y-67978571D01*
X164509524Y-68073810D01*
X137140476Y-74928571D02*
X136807142Y-74928571D01*
X136664285Y-75452381D02*
X137140476Y-75452381D01*
X137140476Y-74452381D01*
X136664285Y-74452381D01*
X135711904Y-75452381D02*
X136283333Y-75452381D01*
X135997619Y-75452381D02*
X135997619Y-74452381D01*
X136092857Y-74595238D01*
X136188095Y-74690476D01*
X136283333Y-74738095D01*
X132608095Y-71412381D02*
X132608095Y-70412381D01*
X132370000Y-70412381D01*
X132227142Y-70460000D01*
X132131904Y-70555238D01*
X132084285Y-70650476D01*
X132036666Y-70840952D01*
X132036666Y-70983810D01*
X132084285Y-71174286D01*
X132131904Y-71269524D01*
X132227142Y-71364762D01*
X132370000Y-71412381D01*
X132608095Y-71412381D01*
X131703333Y-70412381D02*
X131084285Y-70412381D01*
X131417619Y-70793333D01*
X131274761Y-70793333D01*
X131179523Y-70840952D01*
X131131904Y-70888571D01*
X131084285Y-70983810D01*
X131084285Y-71221905D01*
X131131904Y-71317143D01*
X131179523Y-71364762D01*
X131274761Y-71412381D01*
X131560476Y-71412381D01*
X131655714Y-71364762D01*
X131703333Y-71317143D01*
X149952381Y-99566667D02*
X150666667Y-99566667D01*
X150809524Y-99519047D01*
X150904762Y-99423809D01*
X150952381Y-99280952D01*
X150952381Y-99185714D01*
X149952381Y-100519048D02*
X149952381Y-100042857D01*
X150428571Y-99995238D01*
X150380952Y-100042857D01*
X150333333Y-100138095D01*
X150333333Y-100376191D01*
X150380952Y-100471429D01*
X150428571Y-100519048D01*
X150523810Y-100566667D01*
X150761905Y-100566667D01*
X150857143Y-100519048D01*
X150904762Y-100471429D01*
X150952381Y-100376191D01*
X150952381Y-100138095D01*
X150904762Y-100042857D01*
X150857143Y-99995238D01*
X149383333Y-120212381D02*
X149383333Y-120926667D01*
X149430953Y-121069524D01*
X149526191Y-121164762D01*
X149669048Y-121212381D01*
X149764286Y-121212381D01*
X149002381Y-120212381D02*
X148335714Y-120212381D01*
X148764286Y-121212381D01*
X162186857Y-102465143D02*
X162234476Y-102512762D01*
X162377333Y-102560381D01*
X162472571Y-102560381D01*
X162615429Y-102512762D01*
X162710667Y-102417524D01*
X162758286Y-102322286D01*
X162805905Y-102131810D01*
X162805905Y-101988952D01*
X162758286Y-101798476D01*
X162710667Y-101703238D01*
X162615429Y-101608000D01*
X162472571Y-101560381D01*
X162377333Y-101560381D01*
X162234476Y-101608000D01*
X162186857Y-101655619D01*
X161805905Y-101655619D02*
X161758286Y-101608000D01*
X161663048Y-101560381D01*
X161424952Y-101560381D01*
X161329714Y-101608000D01*
X161282095Y-101655619D01*
X161234476Y-101750857D01*
X161234476Y-101846095D01*
X161282095Y-101988952D01*
X161853524Y-102560381D01*
X161234476Y-102560381D01*
X160901143Y-101560381D02*
X160234476Y-101560381D01*
X160663048Y-102560381D01*
X138008095Y-71412381D02*
X138008095Y-70412381D01*
X137770000Y-70412381D01*
X137627142Y-70460000D01*
X137531904Y-70555238D01*
X137484285Y-70650476D01*
X137436666Y-70840952D01*
X137436666Y-70983810D01*
X137484285Y-71174286D01*
X137531904Y-71269524D01*
X137627142Y-71364762D01*
X137770000Y-71412381D01*
X138008095Y-71412381D01*
X136579523Y-70745714D02*
X136579523Y-71412381D01*
X136817619Y-70364762D02*
X137055714Y-71079048D01*
X136436666Y-71079048D01*
X135442857Y-115852381D02*
X135919048Y-115852381D01*
X135919048Y-114852381D01*
X134585714Y-115852381D02*
X135157143Y-115852381D01*
X134871429Y-115852381D02*
X134871429Y-114852381D01*
X134966667Y-114995238D01*
X135061905Y-115090476D01*
X135157143Y-115138095D01*
X133680952Y-114852381D02*
X134157143Y-114852381D01*
X134204762Y-115328571D01*
X134157143Y-115280952D01*
X134061905Y-115233333D01*
X133823809Y-115233333D01*
X133728571Y-115280952D01*
X133680952Y-115328571D01*
X133633333Y-115423810D01*
X133633333Y-115661905D01*
X133680952Y-115757143D01*
X133728571Y-115804762D01*
X133823809Y-115852381D01*
X134061905Y-115852381D01*
X134157143Y-115804762D01*
X134204762Y-115757143D01*
X135642857Y-124752381D02*
X136119048Y-124752381D01*
X136119048Y-123752381D01*
X134785714Y-124752381D02*
X135357143Y-124752381D01*
X135071429Y-124752381D02*
X135071429Y-123752381D01*
X135166667Y-123895238D01*
X135261905Y-123990476D01*
X135357143Y-124038095D01*
X134452381Y-123752381D02*
X133785714Y-123752381D01*
X134214286Y-124752381D01*
X135242857Y-107352381D02*
X135719048Y-107352381D01*
X135719048Y-106352381D01*
X134385714Y-107352381D02*
X134957143Y-107352381D01*
X134671429Y-107352381D02*
X134671429Y-106352381D01*
X134766667Y-106495238D01*
X134861905Y-106590476D01*
X134957143Y-106638095D01*
X134052381Y-106352381D02*
X133433333Y-106352381D01*
X133766667Y-106733333D01*
X133623809Y-106733333D01*
X133528571Y-106780952D01*
X133480952Y-106828571D01*
X133433333Y-106923810D01*
X133433333Y-107161905D01*
X133480952Y-107257143D01*
X133528571Y-107304762D01*
X133623809Y-107352381D01*
X133909524Y-107352381D01*
X134004762Y-107304762D01*
X134052381Y-107257143D01*
X146166666Y-83352381D02*
X146642857Y-83352381D01*
X146642857Y-82352381D01*
X145404761Y-82352381D02*
X145595238Y-82352381D01*
X145690476Y-82400000D01*
X145738095Y-82447619D01*
X145833333Y-82590476D01*
X145880952Y-82780952D01*
X145880952Y-83161905D01*
X145833333Y-83257143D01*
X145785714Y-83304762D01*
X145690476Y-83352381D01*
X145499999Y-83352381D01*
X145404761Y-83304762D01*
X145357142Y-83257143D01*
X145309523Y-83161905D01*
X145309523Y-82923810D01*
X145357142Y-82828571D01*
X145404761Y-82780952D01*
X145499999Y-82733333D01*
X145690476Y-82733333D01*
X145785714Y-82780952D01*
X145833333Y-82828571D01*
X145880952Y-82923810D01*
X153002381Y-80508334D02*
X153002381Y-80032143D01*
X152002381Y-80032143D01*
X152430952Y-80984524D02*
X152383333Y-80889286D01*
X152335714Y-80841667D01*
X152240476Y-80794048D01*
X152192857Y-80794048D01*
X152097619Y-80841667D01*
X152050000Y-80889286D01*
X152002381Y-80984524D01*
X152002381Y-81175001D01*
X152050000Y-81270239D01*
X152097619Y-81317858D01*
X152192857Y-81365477D01*
X152240476Y-81365477D01*
X152335714Y-81317858D01*
X152383333Y-81270239D01*
X152430952Y-81175001D01*
X152430952Y-80984524D01*
X152478571Y-80889286D01*
X152526190Y-80841667D01*
X152621429Y-80794048D01*
X152811905Y-80794048D01*
X152907143Y-80841667D01*
X152954762Y-80889286D01*
X153002381Y-80984524D01*
X153002381Y-81175001D01*
X152954762Y-81270239D01*
X152907143Y-81317858D01*
X152811905Y-81365477D01*
X152621429Y-81365477D01*
X152526190Y-81317858D01*
X152478571Y-81270239D01*
X152430952Y-81175001D01*
X161652381Y-79732143D02*
X161652381Y-79255952D01*
X160652381Y-79255952D01*
X161652381Y-80589286D02*
X161652381Y-80017857D01*
X161652381Y-80303571D02*
X160652381Y-80303571D01*
X160795238Y-80208333D01*
X160890476Y-80113095D01*
X160938095Y-80017857D01*
X160652381Y-81208333D02*
X160652381Y-81303572D01*
X160700000Y-81398810D01*
X160747619Y-81446429D01*
X160842857Y-81494048D01*
X161033333Y-81541667D01*
X161271429Y-81541667D01*
X161461905Y-81494048D01*
X161557143Y-81446429D01*
X161604762Y-81398810D01*
X161652381Y-81303572D01*
X161652381Y-81208333D01*
X161604762Y-81113095D01*
X161557143Y-81065476D01*
X161461905Y-81017857D01*
X161271429Y-80970238D01*
X161033333Y-80970238D01*
X160842857Y-81017857D01*
X160747619Y-81065476D01*
X160700000Y-81113095D01*
X160652381Y-81208333D01*
X130742857Y-118957143D02*
X130790476Y-119004762D01*
X130933333Y-119052381D01*
X131028571Y-119052381D01*
X131171429Y-119004762D01*
X131266667Y-118909524D01*
X131314286Y-118814286D01*
X131361905Y-118623810D01*
X131361905Y-118480952D01*
X131314286Y-118290476D01*
X131266667Y-118195238D01*
X131171429Y-118100000D01*
X131028571Y-118052381D01*
X130933333Y-118052381D01*
X130790476Y-118100000D01*
X130742857Y-118147619D01*
X129885714Y-118385714D02*
X129885714Y-119052381D01*
X130123810Y-118004762D02*
X130361905Y-118719048D01*
X129742857Y-118719048D01*
X128838095Y-119052381D02*
X129409524Y-119052381D01*
X129123810Y-119052381D02*
X129123810Y-118052381D01*
X129219048Y-118195238D01*
X129314286Y-118290476D01*
X129409524Y-118338095D01*
X158576191Y-131576190D02*
X158576191Y-132052381D01*
X158909524Y-131052381D02*
X158576191Y-131576190D01*
X158242857Y-131052381D01*
X158004762Y-131052381D02*
X157385714Y-131052381D01*
X157719048Y-131433333D01*
X157576190Y-131433333D01*
X157480952Y-131480952D01*
X157433333Y-131528571D01*
X157385714Y-131623810D01*
X157385714Y-131861905D01*
X157433333Y-131957143D01*
X157480952Y-132004762D01*
X157576190Y-132052381D01*
X157861905Y-132052381D01*
X157957143Y-132004762D01*
X158004762Y-131957143D01*
X158576191Y-126276190D02*
X158576191Y-126752381D01*
X158909524Y-125752381D02*
X158576191Y-126276190D01*
X158242857Y-125752381D01*
X157480952Y-126085714D02*
X157480952Y-126752381D01*
X157719048Y-125704762D02*
X157957143Y-126419048D01*
X157338095Y-126419048D01*
X158976191Y-137376190D02*
X158976191Y-137852381D01*
X159309524Y-136852381D02*
X158976191Y-137376190D01*
X158642857Y-136852381D01*
X157833333Y-136852381D02*
X158309524Y-136852381D01*
X158357143Y-137328571D01*
X158309524Y-137280952D01*
X158214286Y-137233333D01*
X157976190Y-137233333D01*
X157880952Y-137280952D01*
X157833333Y-137328571D01*
X157785714Y-137423810D01*
X157785714Y-137661905D01*
X157833333Y-137757143D01*
X157880952Y-137804762D01*
X157976190Y-137852381D01*
X158214286Y-137852381D01*
X158309524Y-137804762D01*
X158357143Y-137757143D01*
X152176190Y-142523809D02*
X152652381Y-142523809D01*
X151652381Y-142190476D02*
X152176190Y-142523809D01*
X151652381Y-142857143D01*
X151652381Y-143619048D02*
X151652381Y-143428571D01*
X151700000Y-143333333D01*
X151747619Y-143285714D01*
X151890476Y-143190476D01*
X152080952Y-143142857D01*
X152461905Y-143142857D01*
X152557143Y-143190476D01*
X152604762Y-143238095D01*
X152652381Y-143333333D01*
X152652381Y-143523810D01*
X152604762Y-143619048D01*
X152557143Y-143666667D01*
X152461905Y-143714286D01*
X152223810Y-143714286D01*
X152128571Y-143666667D01*
X152080952Y-143619048D01*
X152033333Y-143523810D01*
X152033333Y-143333333D01*
X152080952Y-143238095D01*
X152128571Y-143190476D01*
X152223810Y-143142857D01*
X145876190Y-134323809D02*
X146352381Y-134323809D01*
X145352381Y-133990476D02*
X145876190Y-134323809D01*
X145352381Y-134657143D01*
X145352381Y-134895238D02*
X145352381Y-135561905D01*
X146352381Y-135133333D01*
X134276190Y-141223809D02*
X134752381Y-141223809D01*
X133752381Y-140890476D02*
X134276190Y-141223809D01*
X133752381Y-141557143D01*
X134180952Y-142033333D02*
X134133333Y-141938095D01*
X134085714Y-141890476D01*
X133990476Y-141842857D01*
X133942857Y-141842857D01*
X133847619Y-141890476D01*
X133800000Y-141938095D01*
X133752381Y-142033333D01*
X133752381Y-142223810D01*
X133800000Y-142319048D01*
X133847619Y-142366667D01*
X133942857Y-142414286D01*
X133990476Y-142414286D01*
X134085714Y-142366667D01*
X134133333Y-142319048D01*
X134180952Y-142223810D01*
X134180952Y-142033333D01*
X134228571Y-141938095D01*
X134276190Y-141890476D01*
X134371429Y-141842857D01*
X134561905Y-141842857D01*
X134657143Y-141890476D01*
X134704762Y-141938095D01*
X134752381Y-142033333D01*
X134752381Y-142223810D01*
X134704762Y-142319048D01*
X134657143Y-142366667D01*
X134561905Y-142414286D01*
X134371429Y-142414286D01*
X134276190Y-142366667D01*
X134228571Y-142319048D01*
X134180952Y-142223810D01*
X146676190Y-144623809D02*
X147152381Y-144623809D01*
X146152381Y-144290476D02*
X146676190Y-144623809D01*
X146152381Y-144957143D01*
X147152381Y-145338095D02*
X147152381Y-145528571D01*
X147104762Y-145623810D01*
X147057143Y-145671429D01*
X146914286Y-145766667D01*
X146723810Y-145814286D01*
X146342857Y-145814286D01*
X146247619Y-145766667D01*
X146200000Y-145719048D01*
X146152381Y-145623810D01*
X146152381Y-145433333D01*
X146200000Y-145338095D01*
X146247619Y-145290476D01*
X146342857Y-145242857D01*
X146580952Y-145242857D01*
X146676190Y-145290476D01*
X146723810Y-145338095D01*
X146771429Y-145433333D01*
X146771429Y-145623810D01*
X146723810Y-145719048D01*
X146676190Y-145766667D01*
X146580952Y-145814286D01*
X150052381Y-122838095D02*
X150052381Y-123409524D01*
X151052381Y-123123809D02*
X150052381Y-123123809D01*
X151052381Y-124266667D02*
X151052381Y-123695238D01*
X151052381Y-123980952D02*
X150052381Y-123980952D01*
X150195238Y-123885714D01*
X150290476Y-123790476D01*
X150338095Y-123695238D01*
X143032381Y-127598095D02*
X143032381Y-128169524D01*
X144032381Y-127883809D02*
X143032381Y-127883809D01*
X143127619Y-128455238D02*
X143080000Y-128502857D01*
X143032381Y-128598095D01*
X143032381Y-128836191D01*
X143080000Y-128931429D01*
X143127619Y-128979048D01*
X143222857Y-129026667D01*
X143318095Y-129026667D01*
X143460952Y-128979048D01*
X144032381Y-128407619D01*
X144032381Y-129026667D01*
X124952261Y-130833334D02*
X124952261Y-130357143D01*
X123952261Y-130357143D01*
X123952261Y-131071429D02*
X123952261Y-131690477D01*
X124333213Y-131357143D01*
X124333213Y-131500001D01*
X124380832Y-131595239D01*
X124428451Y-131642858D01*
X124523690Y-131690477D01*
X124761785Y-131690477D01*
X124857023Y-131642858D01*
X124904642Y-131595239D01*
X124952261Y-131500001D01*
X124952261Y-131214286D01*
X124904642Y-131119048D01*
X124857023Y-131071429D01*
X155633333Y-89052381D02*
X155633333Y-89766667D01*
X155680953Y-89909524D01*
X155776191Y-90004762D01*
X155919048Y-90052381D01*
X156014286Y-90052381D01*
X155109524Y-90052381D02*
X154919048Y-90052381D01*
X154823809Y-90004762D01*
X154776190Y-89957143D01*
X154680952Y-89814286D01*
X154633333Y-89623810D01*
X154633333Y-89242857D01*
X154680952Y-89147619D01*
X154728571Y-89100000D01*
X154823809Y-89052381D01*
X155014286Y-89052381D01*
X155109524Y-89100000D01*
X155157143Y-89147619D01*
X155204762Y-89242857D01*
X155204762Y-89480952D01*
X155157143Y-89576190D01*
X155109524Y-89623810D01*
X155014286Y-89671429D01*
X154823809Y-89671429D01*
X154728571Y-89623810D01*
X154680952Y-89576190D01*
X154633333Y-89480952D01*
X117376666Y-139192381D02*
X117852857Y-139192381D01*
X117852857Y-138192381D01*
X116614761Y-138525714D02*
X116614761Y-139192381D01*
X116852857Y-138144762D02*
X117090952Y-138859048D01*
X116471904Y-138859048D01*
X111627381Y-144083334D02*
X111627381Y-143607143D01*
X110627381Y-143607143D01*
X110627381Y-144321429D02*
X110627381Y-144988096D01*
X111627381Y-144559524D01*
X103684523Y-89122381D02*
X103684523Y-89836667D01*
X103732143Y-89979524D01*
X103827381Y-90074762D01*
X103970238Y-90122381D01*
X104065476Y-90122381D01*
X102684523Y-90122381D02*
X103255952Y-90122381D01*
X102970238Y-90122381D02*
X102970238Y-89122381D01*
X103065476Y-89265238D01*
X103160714Y-89360476D01*
X103255952Y-89408095D01*
X101732142Y-90122381D02*
X102303571Y-90122381D01*
X102017857Y-90122381D02*
X102017857Y-89122381D01*
X102113095Y-89265238D01*
X102208333Y-89360476D01*
X102303571Y-89408095D01*
X139202381Y-133440477D02*
X139916667Y-133440477D01*
X140059524Y-133392857D01*
X140154762Y-133297619D01*
X140202381Y-133154762D01*
X140202381Y-133059524D01*
X140202381Y-134440477D02*
X140202381Y-133869048D01*
X140202381Y-134154762D02*
X139202381Y-134154762D01*
X139345238Y-134059524D01*
X139440476Y-133964286D01*
X139488095Y-133869048D01*
X139202381Y-134773810D02*
X139202381Y-135440477D01*
X140202381Y-135011905D01*
M02*
