G04 #@! TF.FileFunction,Legend,Top*
%FSLAX46Y46*%
G04 Gerber Fmt 4.6, Leading zero omitted, Abs format (unit mm)*
G04 Created by KiCad (PCBNEW 4.0.7) date 09/18/22 11:46:45*
%MOMM*%
%LPD*%
G01*
G04 APERTURE LIST*
%ADD10C,0.100000*%
%ADD11C,0.120000*%
%ADD12C,0.150000*%
G04 APERTURE END LIST*
D10*
D11*
X148110000Y-79365000D02*
X146850000Y-79365000D01*
X141290000Y-79365000D02*
X142550000Y-79365000D01*
X148110000Y-83125000D02*
X148110000Y-79365000D01*
X141290000Y-85375000D02*
X141290000Y-79365000D01*
D12*
X125500000Y-110150000D02*
X125500000Y-109650000D01*
X126700000Y-109650000D02*
X126700000Y-110150000D01*
X123550000Y-117875000D02*
X124050000Y-117875000D01*
X124050000Y-119075000D02*
X123550000Y-119075000D01*
X144950000Y-87925000D02*
X144950000Y-88425000D01*
X143750000Y-88425000D02*
X143750000Y-87925000D01*
X143650000Y-95300000D02*
X144150000Y-95300000D01*
X144150000Y-96500000D02*
X143650000Y-96500000D01*
X108650000Y-119725000D02*
X108650000Y-119225000D01*
X109850000Y-119225000D02*
X109850000Y-119725000D01*
X123600000Y-99925000D02*
X124100000Y-99925000D01*
X124100000Y-101125000D02*
X123600000Y-101125000D01*
X107270000Y-97760000D02*
X106770000Y-97760000D01*
X106770000Y-96560000D02*
X107270000Y-96560000D01*
X122200000Y-95050000D02*
X122200000Y-94550000D01*
X123400000Y-94550000D02*
X123400000Y-95050000D01*
X110900000Y-105375000D02*
X110900000Y-105875000D01*
X109700000Y-105875000D02*
X109700000Y-105375000D01*
X105525000Y-101150000D02*
X105525000Y-100650000D01*
X106725000Y-100650000D02*
X106725000Y-101150000D01*
D11*
X134380000Y-91940000D02*
X133450000Y-91940000D01*
X131220000Y-91940000D02*
X132150000Y-91940000D01*
X131220000Y-91940000D02*
X131220000Y-94100000D01*
X134380000Y-91940000D02*
X134380000Y-93400000D01*
X132240000Y-80720000D02*
X132240000Y-81650000D01*
X132240000Y-83880000D02*
X132240000Y-82950000D01*
X132240000Y-83880000D02*
X134400000Y-83880000D01*
X132240000Y-80720000D02*
X133700000Y-80720000D01*
D12*
X120675000Y-104950000D02*
X120675000Y-104150000D01*
X122025000Y-104150000D02*
X122025000Y-104950000D01*
X131175000Y-111825000D02*
X130950000Y-111825000D01*
X131175000Y-115175000D02*
X130875000Y-115175000D01*
X127825000Y-115175000D02*
X128125000Y-115175000D01*
X127825000Y-111825000D02*
X128125000Y-111825000D01*
X131175000Y-111825000D02*
X131175000Y-115175000D01*
X127825000Y-111825000D02*
X127825000Y-115175000D01*
X130950000Y-111825000D02*
X130950000Y-110600000D01*
D11*
X108910000Y-130160000D02*
X108910000Y-128900000D01*
X108910000Y-123340000D02*
X108910000Y-124600000D01*
X105150000Y-130160000D02*
X108910000Y-130160000D01*
X102900000Y-123340000D02*
X108910000Y-123340000D01*
D12*
X111225000Y-93525000D02*
X111225000Y-93750000D01*
X118475000Y-93525000D02*
X118475000Y-93850000D01*
X118475000Y-100775000D02*
X118475000Y-100450000D01*
X111225000Y-100775000D02*
X111225000Y-100450000D01*
X111225000Y-93525000D02*
X111550000Y-93525000D01*
X111225000Y-100775000D02*
X111550000Y-100775000D01*
X118475000Y-100775000D02*
X118150000Y-100775000D01*
X118475000Y-93525000D02*
X118150000Y-93525000D01*
X111225000Y-93750000D02*
X109800000Y-93750000D01*
D11*
X136350000Y-112050000D02*
X136350000Y-99450000D01*
X136350000Y-99450000D02*
X131250000Y-99450000D01*
X131250000Y-99450000D02*
X131250000Y-112050000D01*
D12*
X106200000Y-134350000D02*
X106200000Y-134850000D01*
X105000000Y-134850000D02*
X105000000Y-134350000D01*
X105400000Y-142650000D02*
X105400000Y-143150000D01*
X104200000Y-143150000D02*
X104200000Y-142650000D01*
X110150000Y-150000000D02*
X109650000Y-150000000D01*
X109650000Y-148800000D02*
X110150000Y-148800000D01*
D11*
X156208000Y-93528000D02*
X156208000Y-92598000D01*
X156208000Y-90368000D02*
X156208000Y-91298000D01*
X156208000Y-90368000D02*
X154048000Y-90368000D01*
X156208000Y-93528000D02*
X154748000Y-93528000D01*
D12*
X107825000Y-143400000D02*
X107825000Y-142600000D01*
X109175000Y-142600000D02*
X109175000Y-143400000D01*
X112525000Y-145400000D02*
X112525000Y-144600000D01*
X113875000Y-144600000D02*
X113875000Y-145400000D01*
X103000000Y-148025000D02*
X103800000Y-148025000D01*
X103800000Y-149375000D02*
X103000000Y-149375000D01*
D11*
X117550000Y-132100000D02*
X117550000Y-134500000D01*
X120650000Y-134500000D02*
X120650000Y-131550000D01*
D12*
X113915000Y-129600000D02*
X113915000Y-130400000D01*
X112565000Y-130400000D02*
X112565000Y-129600000D01*
X123975000Y-132600000D02*
X123975000Y-133400000D01*
X122625000Y-133400000D02*
X122625000Y-132600000D01*
X120500000Y-128350000D02*
X120500000Y-128850000D01*
X119300000Y-128850000D02*
X119300000Y-128350000D01*
X121558000Y-125135000D02*
X120758000Y-125135000D01*
X120758000Y-123785000D02*
X121558000Y-123785000D01*
X117475000Y-128200000D02*
X117475000Y-129000000D01*
X116125000Y-129000000D02*
X116125000Y-128200000D01*
X143856000Y-102874000D02*
X143856000Y-103374000D01*
X142656000Y-103374000D02*
X142656000Y-102874000D01*
X142950000Y-110525000D02*
X142950000Y-111025000D01*
X141750000Y-111025000D02*
X141750000Y-110525000D01*
X144475000Y-114125000D02*
X144975000Y-114125000D01*
X144975000Y-115325000D02*
X144475000Y-115325000D01*
X160950000Y-117850000D02*
X161450000Y-117850000D01*
X161450000Y-119050000D02*
X160950000Y-119050000D01*
X149610000Y-107858000D02*
X150110000Y-107858000D01*
X150110000Y-109058000D02*
X149610000Y-109058000D01*
X149775000Y-96525000D02*
X149275000Y-96525000D01*
X149275000Y-95325000D02*
X149775000Y-95325000D01*
X167040000Y-100834000D02*
X167040000Y-100334000D01*
X168240000Y-100334000D02*
X168240000Y-100834000D01*
D11*
X166050000Y-126100000D02*
X166050000Y-121800000D01*
X166050000Y-121800000D02*
X164050000Y-121800000D01*
X164050000Y-121800000D02*
X164050000Y-126100000D01*
X161572000Y-92694000D02*
X165872000Y-92694000D01*
X165872000Y-92694000D02*
X165872000Y-90694000D01*
X165872000Y-90694000D02*
X161572000Y-90694000D01*
D12*
X146875000Y-92075000D02*
X147675000Y-92075000D01*
X147675000Y-93425000D02*
X146875000Y-93425000D01*
X161000000Y-124175000D02*
X161000000Y-123375000D01*
X162350000Y-123375000D02*
X162350000Y-124175000D01*
X113550000Y-89600000D02*
X113050000Y-89600000D01*
X113050000Y-88400000D02*
X113550000Y-88400000D01*
X106375000Y-70700000D02*
X106375000Y-70200000D01*
X107575000Y-70200000D02*
X107575000Y-70700000D01*
X110100000Y-70700000D02*
X110100000Y-70200000D01*
X111300000Y-70200000D02*
X111300000Y-70700000D01*
X102525000Y-85475000D02*
X103100000Y-85475000D01*
X102525000Y-79725000D02*
X103175000Y-79725000D01*
X113175000Y-79725000D02*
X112525000Y-79725000D01*
X113175000Y-85475000D02*
X112525000Y-85475000D01*
X102525000Y-85475000D02*
X102525000Y-79725000D01*
X113175000Y-85475000D02*
X113175000Y-79725000D01*
X103100000Y-85475000D02*
X103100000Y-87075000D01*
X130000000Y-79775000D02*
X129200000Y-79775000D01*
X129200000Y-78425000D02*
X130000000Y-78425000D01*
X122050000Y-89350000D02*
X122850000Y-89350000D01*
X122850000Y-90700000D02*
X122050000Y-90700000D01*
X137575000Y-81900000D02*
X137575000Y-82700000D01*
X136225000Y-82700000D02*
X136225000Y-81900000D01*
X133200000Y-96675000D02*
X132400000Y-96675000D01*
X132400000Y-95325000D02*
X133200000Y-95325000D01*
X132400000Y-74175000D02*
X131600000Y-74175000D01*
X131600000Y-72825000D02*
X132400000Y-72825000D01*
X137400000Y-74175000D02*
X136600000Y-74175000D01*
X136600000Y-72825000D02*
X137400000Y-72825000D01*
D11*
X106800000Y-90820000D02*
X107800000Y-90820000D01*
X107800000Y-92180000D02*
X106800000Y-92180000D01*
X105725000Y-88270000D02*
X106725000Y-88270000D01*
X106725000Y-89630000D02*
X105725000Y-89630000D01*
D12*
X122990000Y-137760000D02*
X122490000Y-137760000D01*
X122490000Y-136560000D02*
X122990000Y-136560000D01*
X117675000Y-121025000D02*
X118175000Y-121025000D01*
X118175000Y-122225000D02*
X117675000Y-122225000D01*
X128600000Y-129750000D02*
X128600000Y-130250000D01*
X127400000Y-130250000D02*
X127400000Y-129750000D01*
X146808000Y-100422000D02*
X146308000Y-100422000D01*
X146308000Y-99222000D02*
X146808000Y-99222000D01*
X135750000Y-119175000D02*
X136250000Y-119175000D01*
X136250000Y-120375000D02*
X135750000Y-120375000D01*
X135120000Y-130160000D02*
X135620000Y-130160000D01*
X135620000Y-131360000D02*
X135120000Y-131360000D01*
X166975000Y-136550000D02*
X167475000Y-136550000D01*
X167475000Y-137750000D02*
X166975000Y-137750000D01*
X159050000Y-136550000D02*
X159550000Y-136550000D01*
X159550000Y-137750000D02*
X159050000Y-137750000D01*
X151925000Y-136550000D02*
X152425000Y-136550000D01*
X152425000Y-137750000D02*
X151925000Y-137750000D01*
X128690000Y-147120000D02*
X129190000Y-147120000D01*
X129190000Y-148320000D02*
X128690000Y-148320000D01*
X148090000Y-142350000D02*
X148590000Y-142350000D01*
X148590000Y-143550000D02*
X148090000Y-143550000D01*
X120900000Y-142400000D02*
X120900000Y-142900000D01*
X119700000Y-142900000D02*
X119700000Y-142400000D01*
X125425000Y-143525000D02*
X124925000Y-143525000D01*
X124925000Y-142325000D02*
X125425000Y-142325000D01*
X136500000Y-135150000D02*
X136500000Y-134650000D01*
X137700000Y-134650000D02*
X137700000Y-135150000D01*
D11*
X146628000Y-119898000D02*
X149028000Y-119898000D01*
X149028000Y-116798000D02*
X146078000Y-116798000D01*
X146628000Y-123708000D02*
X149028000Y-123708000D01*
X149028000Y-120608000D02*
X146078000Y-120608000D01*
X146628000Y-127518000D02*
X149028000Y-127518000D01*
X149028000Y-124418000D02*
X146078000Y-124418000D01*
X146628000Y-131328000D02*
X149028000Y-131328000D01*
X149028000Y-128228000D02*
X146078000Y-128228000D01*
X129250000Y-139600000D02*
X129250000Y-142000000D01*
X132350000Y-142000000D02*
X132350000Y-139050000D01*
D12*
X152650000Y-118200000D02*
X152650000Y-117400000D01*
X154000000Y-117400000D02*
X154000000Y-118200000D01*
X144575000Y-128740000D02*
X144575000Y-129540000D01*
X143225000Y-129540000D02*
X143225000Y-128740000D01*
X133275000Y-127025000D02*
X133275000Y-126225000D01*
X134625000Y-126225000D02*
X134625000Y-127025000D01*
X130425000Y-130400000D02*
X130425000Y-129600000D01*
X131775000Y-129600000D02*
X131775000Y-130400000D01*
X134875000Y-140500000D02*
X134875000Y-141300000D01*
X133525000Y-141300000D02*
X133525000Y-140500000D01*
X124500000Y-128275000D02*
X123700000Y-128275000D01*
X123700000Y-126925000D02*
X124500000Y-126925000D01*
X134875000Y-134500000D02*
X134875000Y-135300000D01*
X133525000Y-135300000D02*
X133525000Y-134500000D01*
X130425000Y-135450000D02*
X130425000Y-134650000D01*
X131775000Y-134650000D02*
X131775000Y-135450000D01*
X147350000Y-71700000D02*
X147850000Y-71700000D01*
X147850000Y-72900000D02*
X147350000Y-72900000D01*
X162300000Y-71850000D02*
X162300000Y-71350000D01*
X163500000Y-71350000D02*
X163500000Y-71850000D01*
X166500000Y-71850000D02*
X166500000Y-71350000D01*
X167700000Y-71350000D02*
X167700000Y-71850000D01*
X153300000Y-71650000D02*
X153300000Y-71150000D01*
X154500000Y-71150000D02*
X154500000Y-71650000D01*
X148702381Y-82011905D02*
X149511905Y-82011905D01*
X149607143Y-81964286D01*
X149654762Y-81916667D01*
X149702381Y-81821429D01*
X149702381Y-81630952D01*
X149654762Y-81535714D01*
X149607143Y-81488095D01*
X149511905Y-81440476D01*
X148702381Y-81440476D01*
X149035714Y-80535714D02*
X149702381Y-80535714D01*
X148654762Y-80773810D02*
X149369048Y-81011905D01*
X149369048Y-80392857D01*
X128182143Y-110041666D02*
X128229762Y-110089285D01*
X128277381Y-110232142D01*
X128277381Y-110327380D01*
X128229762Y-110470238D01*
X128134524Y-110565476D01*
X128039286Y-110613095D01*
X127848810Y-110660714D01*
X127705952Y-110660714D01*
X127515476Y-110613095D01*
X127420238Y-110565476D01*
X127325000Y-110470238D01*
X127277381Y-110327380D01*
X127277381Y-110232142D01*
X127325000Y-110089285D01*
X127372619Y-110041666D01*
X128277381Y-109089285D02*
X128277381Y-109660714D01*
X128277381Y-109375000D02*
X127277381Y-109375000D01*
X127420238Y-109470238D01*
X127515476Y-109565476D01*
X127563095Y-109660714D01*
X123658334Y-120532143D02*
X123610715Y-120579762D01*
X123467858Y-120627381D01*
X123372620Y-120627381D01*
X123229762Y-120579762D01*
X123134524Y-120484524D01*
X123086905Y-120389286D01*
X123039286Y-120198810D01*
X123039286Y-120055952D01*
X123086905Y-119865476D01*
X123134524Y-119770238D01*
X123229762Y-119675000D01*
X123372620Y-119627381D01*
X123467858Y-119627381D01*
X123610715Y-119675000D01*
X123658334Y-119722619D01*
X124039286Y-119722619D02*
X124086905Y-119675000D01*
X124182143Y-119627381D01*
X124420239Y-119627381D01*
X124515477Y-119675000D01*
X124563096Y-119722619D01*
X124610715Y-119817857D01*
X124610715Y-119913095D01*
X124563096Y-120055952D01*
X123991667Y-120627381D01*
X124610715Y-120627381D01*
X143032143Y-88341666D02*
X143079762Y-88389285D01*
X143127381Y-88532142D01*
X143127381Y-88627380D01*
X143079762Y-88770238D01*
X142984524Y-88865476D01*
X142889286Y-88913095D01*
X142698810Y-88960714D01*
X142555952Y-88960714D01*
X142365476Y-88913095D01*
X142270238Y-88865476D01*
X142175000Y-88770238D01*
X142127381Y-88627380D01*
X142127381Y-88532142D01*
X142175000Y-88389285D01*
X142222619Y-88341666D01*
X143127381Y-87865476D02*
X143127381Y-87675000D01*
X143079762Y-87579761D01*
X143032143Y-87532142D01*
X142889286Y-87436904D01*
X142698810Y-87389285D01*
X142317857Y-87389285D01*
X142222619Y-87436904D01*
X142175000Y-87484523D01*
X142127381Y-87579761D01*
X142127381Y-87770238D01*
X142175000Y-87865476D01*
X142222619Y-87913095D01*
X142317857Y-87960714D01*
X142555952Y-87960714D01*
X142651190Y-87913095D01*
X142698810Y-87865476D01*
X142746429Y-87770238D01*
X142746429Y-87579761D01*
X142698810Y-87484523D01*
X142651190Y-87436904D01*
X142555952Y-87389285D01*
X143257143Y-98057143D02*
X143209524Y-98104762D01*
X143066667Y-98152381D01*
X142971429Y-98152381D01*
X142828571Y-98104762D01*
X142733333Y-98009524D01*
X142685714Y-97914286D01*
X142638095Y-97723810D01*
X142638095Y-97580952D01*
X142685714Y-97390476D01*
X142733333Y-97295238D01*
X142828571Y-97200000D01*
X142971429Y-97152381D01*
X143066667Y-97152381D01*
X143209524Y-97200000D01*
X143257143Y-97247619D01*
X144209524Y-98152381D02*
X143638095Y-98152381D01*
X143923809Y-98152381D02*
X143923809Y-97152381D01*
X143828571Y-97295238D01*
X143733333Y-97390476D01*
X143638095Y-97438095D01*
X144590476Y-97247619D02*
X144638095Y-97200000D01*
X144733333Y-97152381D01*
X144971429Y-97152381D01*
X145066667Y-97200000D01*
X145114286Y-97247619D01*
X145161905Y-97342857D01*
X145161905Y-97438095D01*
X145114286Y-97580952D01*
X144542857Y-98152381D01*
X145161905Y-98152381D01*
X111557143Y-120142857D02*
X111604762Y-120190476D01*
X111652381Y-120333333D01*
X111652381Y-120428571D01*
X111604762Y-120571429D01*
X111509524Y-120666667D01*
X111414286Y-120714286D01*
X111223810Y-120761905D01*
X111080952Y-120761905D01*
X110890476Y-120714286D01*
X110795238Y-120666667D01*
X110700000Y-120571429D01*
X110652381Y-120428571D01*
X110652381Y-120333333D01*
X110700000Y-120190476D01*
X110747619Y-120142857D01*
X111652381Y-119190476D02*
X111652381Y-119761905D01*
X111652381Y-119476191D02*
X110652381Y-119476191D01*
X110795238Y-119571429D01*
X110890476Y-119666667D01*
X110938095Y-119761905D01*
X110652381Y-118857143D02*
X110652381Y-118238095D01*
X111033333Y-118571429D01*
X111033333Y-118428571D01*
X111080952Y-118333333D01*
X111128571Y-118285714D01*
X111223810Y-118238095D01*
X111461905Y-118238095D01*
X111557143Y-118285714D01*
X111604762Y-118333333D01*
X111652381Y-118428571D01*
X111652381Y-118714286D01*
X111604762Y-118809524D01*
X111557143Y-118857143D01*
X123207143Y-98982143D02*
X123159524Y-99029762D01*
X123016667Y-99077381D01*
X122921429Y-99077381D01*
X122778571Y-99029762D01*
X122683333Y-98934524D01*
X122635714Y-98839286D01*
X122588095Y-98648810D01*
X122588095Y-98505952D01*
X122635714Y-98315476D01*
X122683333Y-98220238D01*
X122778571Y-98125000D01*
X122921429Y-98077381D01*
X123016667Y-98077381D01*
X123159524Y-98125000D01*
X123207143Y-98172619D01*
X124159524Y-99077381D02*
X123588095Y-99077381D01*
X123873809Y-99077381D02*
X123873809Y-98077381D01*
X123778571Y-98220238D01*
X123683333Y-98315476D01*
X123588095Y-98363095D01*
X125064286Y-98077381D02*
X124588095Y-98077381D01*
X124540476Y-98553571D01*
X124588095Y-98505952D01*
X124683333Y-98458333D01*
X124921429Y-98458333D01*
X125016667Y-98505952D01*
X125064286Y-98553571D01*
X125111905Y-98648810D01*
X125111905Y-98886905D01*
X125064286Y-98982143D01*
X125016667Y-99029762D01*
X124921429Y-99077381D01*
X124683333Y-99077381D01*
X124588095Y-99029762D01*
X124540476Y-98982143D01*
X106357143Y-95557143D02*
X106309524Y-95604762D01*
X106166667Y-95652381D01*
X106071429Y-95652381D01*
X105928571Y-95604762D01*
X105833333Y-95509524D01*
X105785714Y-95414286D01*
X105738095Y-95223810D01*
X105738095Y-95080952D01*
X105785714Y-94890476D01*
X105833333Y-94795238D01*
X105928571Y-94700000D01*
X106071429Y-94652381D01*
X106166667Y-94652381D01*
X106309524Y-94700000D01*
X106357143Y-94747619D01*
X107309524Y-95652381D02*
X106738095Y-95652381D01*
X107023809Y-95652381D02*
X107023809Y-94652381D01*
X106928571Y-94795238D01*
X106833333Y-94890476D01*
X106738095Y-94938095D01*
X107642857Y-94652381D02*
X108309524Y-94652381D01*
X107880952Y-95652381D01*
X124957143Y-95942857D02*
X125004762Y-95990476D01*
X125052381Y-96133333D01*
X125052381Y-96228571D01*
X125004762Y-96371429D01*
X124909524Y-96466667D01*
X124814286Y-96514286D01*
X124623810Y-96561905D01*
X124480952Y-96561905D01*
X124290476Y-96514286D01*
X124195238Y-96466667D01*
X124100000Y-96371429D01*
X124052381Y-96228571D01*
X124052381Y-96133333D01*
X124100000Y-95990476D01*
X124147619Y-95942857D01*
X125052381Y-94990476D02*
X125052381Y-95561905D01*
X125052381Y-95276191D02*
X124052381Y-95276191D01*
X124195238Y-95371429D01*
X124290476Y-95466667D01*
X124338095Y-95561905D01*
X124480952Y-94419048D02*
X124433333Y-94514286D01*
X124385714Y-94561905D01*
X124290476Y-94609524D01*
X124242857Y-94609524D01*
X124147619Y-94561905D01*
X124100000Y-94514286D01*
X124052381Y-94419048D01*
X124052381Y-94228571D01*
X124100000Y-94133333D01*
X124147619Y-94085714D01*
X124242857Y-94038095D01*
X124290476Y-94038095D01*
X124385714Y-94085714D01*
X124433333Y-94133333D01*
X124480952Y-94228571D01*
X124480952Y-94419048D01*
X124528571Y-94514286D01*
X124576190Y-94561905D01*
X124671429Y-94609524D01*
X124861905Y-94609524D01*
X124957143Y-94561905D01*
X125004762Y-94514286D01*
X125052381Y-94419048D01*
X125052381Y-94228571D01*
X125004762Y-94133333D01*
X124957143Y-94085714D01*
X124861905Y-94038095D01*
X124671429Y-94038095D01*
X124576190Y-94085714D01*
X124528571Y-94133333D01*
X124480952Y-94228571D01*
X112457143Y-106242857D02*
X112504762Y-106290476D01*
X112552381Y-106433333D01*
X112552381Y-106528571D01*
X112504762Y-106671429D01*
X112409524Y-106766667D01*
X112314286Y-106814286D01*
X112123810Y-106861905D01*
X111980952Y-106861905D01*
X111790476Y-106814286D01*
X111695238Y-106766667D01*
X111600000Y-106671429D01*
X111552381Y-106528571D01*
X111552381Y-106433333D01*
X111600000Y-106290476D01*
X111647619Y-106242857D01*
X112552381Y-105290476D02*
X112552381Y-105861905D01*
X112552381Y-105576191D02*
X111552381Y-105576191D01*
X111695238Y-105671429D01*
X111790476Y-105766667D01*
X111838095Y-105861905D01*
X112552381Y-104814286D02*
X112552381Y-104623810D01*
X112504762Y-104528571D01*
X112457143Y-104480952D01*
X112314286Y-104385714D01*
X112123810Y-104338095D01*
X111742857Y-104338095D01*
X111647619Y-104385714D01*
X111600000Y-104433333D01*
X111552381Y-104528571D01*
X111552381Y-104719048D01*
X111600000Y-104814286D01*
X111647619Y-104861905D01*
X111742857Y-104909524D01*
X111980952Y-104909524D01*
X112076190Y-104861905D01*
X112123810Y-104814286D01*
X112171429Y-104719048D01*
X112171429Y-104528571D01*
X112123810Y-104433333D01*
X112076190Y-104385714D01*
X111980952Y-104338095D01*
X108302143Y-101542857D02*
X108349762Y-101590476D01*
X108397381Y-101733333D01*
X108397381Y-101828571D01*
X108349762Y-101971429D01*
X108254524Y-102066667D01*
X108159286Y-102114286D01*
X107968810Y-102161905D01*
X107825952Y-102161905D01*
X107635476Y-102114286D01*
X107540238Y-102066667D01*
X107445000Y-101971429D01*
X107397381Y-101828571D01*
X107397381Y-101733333D01*
X107445000Y-101590476D01*
X107492619Y-101542857D01*
X107492619Y-101161905D02*
X107445000Y-101114286D01*
X107397381Y-101019048D01*
X107397381Y-100780952D01*
X107445000Y-100685714D01*
X107492619Y-100638095D01*
X107587857Y-100590476D01*
X107683095Y-100590476D01*
X107825952Y-100638095D01*
X108397381Y-101209524D01*
X108397381Y-100590476D01*
X107397381Y-99971429D02*
X107397381Y-99876190D01*
X107445000Y-99780952D01*
X107492619Y-99733333D01*
X107587857Y-99685714D01*
X107778333Y-99638095D01*
X108016429Y-99638095D01*
X108206905Y-99685714D01*
X108302143Y-99733333D01*
X108349762Y-99780952D01*
X108397381Y-99876190D01*
X108397381Y-99971429D01*
X108349762Y-100066667D01*
X108302143Y-100114286D01*
X108206905Y-100161905D01*
X108016429Y-100209524D01*
X107778333Y-100209524D01*
X107587857Y-100161905D01*
X107492619Y-100114286D01*
X107445000Y-100066667D01*
X107397381Y-99971429D01*
X132704762Y-90647619D02*
X132609524Y-90600000D01*
X132514286Y-90504762D01*
X132371429Y-90361905D01*
X132276190Y-90314286D01*
X132180952Y-90314286D01*
X132228571Y-90552381D02*
X132133333Y-90504762D01*
X132038095Y-90409524D01*
X131990476Y-90219048D01*
X131990476Y-89885714D01*
X132038095Y-89695238D01*
X132133333Y-89600000D01*
X132228571Y-89552381D01*
X132419048Y-89552381D01*
X132514286Y-89600000D01*
X132609524Y-89695238D01*
X132657143Y-89885714D01*
X132657143Y-90219048D01*
X132609524Y-90409524D01*
X132514286Y-90504762D01*
X132419048Y-90552381D01*
X132228571Y-90552381D01*
X133609524Y-90552381D02*
X133038095Y-90552381D01*
X133323809Y-90552381D02*
X133323809Y-89552381D01*
X133228571Y-89695238D01*
X133133333Y-89790476D01*
X133038095Y-89838095D01*
X130947619Y-82395238D02*
X130900000Y-82490476D01*
X130804762Y-82585714D01*
X130661905Y-82728571D01*
X130614286Y-82823810D01*
X130614286Y-82919048D01*
X130852381Y-82871429D02*
X130804762Y-82966667D01*
X130709524Y-83061905D01*
X130519048Y-83109524D01*
X130185714Y-83109524D01*
X129995238Y-83061905D01*
X129900000Y-82966667D01*
X129852381Y-82871429D01*
X129852381Y-82680952D01*
X129900000Y-82585714D01*
X129995238Y-82490476D01*
X130185714Y-82442857D01*
X130519048Y-82442857D01*
X130709524Y-82490476D01*
X130804762Y-82585714D01*
X130852381Y-82680952D01*
X130852381Y-82871429D01*
X129947619Y-82061905D02*
X129900000Y-82014286D01*
X129852381Y-81919048D01*
X129852381Y-81680952D01*
X129900000Y-81585714D01*
X129947619Y-81538095D01*
X130042857Y-81490476D01*
X130138095Y-81490476D01*
X130280952Y-81538095D01*
X130852381Y-82109524D01*
X130852381Y-81490476D01*
X123602381Y-104716666D02*
X123126190Y-105050000D01*
X123602381Y-105288095D02*
X122602381Y-105288095D01*
X122602381Y-104907142D01*
X122650000Y-104811904D01*
X122697619Y-104764285D01*
X122792857Y-104716666D01*
X122935714Y-104716666D01*
X123030952Y-104764285D01*
X123078571Y-104811904D01*
X123126190Y-104907142D01*
X123126190Y-105288095D01*
X122602381Y-104383333D02*
X122602381Y-103716666D01*
X123602381Y-104145238D01*
X126252381Y-114211905D02*
X127061905Y-114211905D01*
X127157143Y-114164286D01*
X127204762Y-114116667D01*
X127252381Y-114021429D01*
X127252381Y-113830952D01*
X127204762Y-113735714D01*
X127157143Y-113688095D01*
X127061905Y-113640476D01*
X126252381Y-113640476D01*
X126347619Y-113211905D02*
X126300000Y-113164286D01*
X126252381Y-113069048D01*
X126252381Y-112830952D01*
X126300000Y-112735714D01*
X126347619Y-112688095D01*
X126442857Y-112640476D01*
X126538095Y-112640476D01*
X126680952Y-112688095D01*
X127252381Y-113259524D01*
X127252381Y-112640476D01*
X101277381Y-127511905D02*
X102086905Y-127511905D01*
X102182143Y-127464286D01*
X102229762Y-127416667D01*
X102277381Y-127321429D01*
X102277381Y-127130952D01*
X102229762Y-127035714D01*
X102182143Y-126988095D01*
X102086905Y-126940476D01*
X101277381Y-126940476D01*
X101277381Y-125988095D02*
X101277381Y-126464286D01*
X101753571Y-126511905D01*
X101705952Y-126464286D01*
X101658333Y-126369048D01*
X101658333Y-126130952D01*
X101705952Y-126035714D01*
X101753571Y-125988095D01*
X101848810Y-125940476D01*
X102086905Y-125940476D01*
X102182143Y-125988095D01*
X102229762Y-126035714D01*
X102277381Y-126130952D01*
X102277381Y-126369048D01*
X102229762Y-126464286D01*
X102182143Y-126511905D01*
X109438095Y-92352381D02*
X109438095Y-93161905D01*
X109485714Y-93257143D01*
X109533333Y-93304762D01*
X109628571Y-93352381D01*
X109819048Y-93352381D01*
X109914286Y-93304762D01*
X109961905Y-93257143D01*
X110009524Y-93161905D01*
X110009524Y-92352381D01*
X110914286Y-92352381D02*
X110723809Y-92352381D01*
X110628571Y-92400000D01*
X110580952Y-92447619D01*
X110485714Y-92590476D01*
X110438095Y-92780952D01*
X110438095Y-93161905D01*
X110485714Y-93257143D01*
X110533333Y-93304762D01*
X110628571Y-93352381D01*
X110819048Y-93352381D01*
X110914286Y-93304762D01*
X110961905Y-93257143D01*
X111009524Y-93161905D01*
X111009524Y-92923810D01*
X110961905Y-92828571D01*
X110914286Y-92780952D01*
X110819048Y-92733333D01*
X110628571Y-92733333D01*
X110533333Y-92780952D01*
X110485714Y-92828571D01*
X110438095Y-92923810D01*
X137326190Y-106626191D02*
X137802381Y-106626191D01*
X136802381Y-106959524D02*
X137326190Y-106626191D01*
X136802381Y-106292857D01*
X137802381Y-105435714D02*
X137802381Y-106007143D01*
X137802381Y-105721429D02*
X136802381Y-105721429D01*
X136945238Y-105816667D01*
X137040476Y-105911905D01*
X137088095Y-106007143D01*
X107857143Y-135242857D02*
X107904762Y-135290476D01*
X107952381Y-135433333D01*
X107952381Y-135528571D01*
X107904762Y-135671429D01*
X107809524Y-135766667D01*
X107714286Y-135814286D01*
X107523810Y-135861905D01*
X107380952Y-135861905D01*
X107190476Y-135814286D01*
X107095238Y-135766667D01*
X107000000Y-135671429D01*
X106952381Y-135528571D01*
X106952381Y-135433333D01*
X107000000Y-135290476D01*
X107047619Y-135242857D01*
X106952381Y-134338095D02*
X106952381Y-134814286D01*
X107428571Y-134861905D01*
X107380952Y-134814286D01*
X107333333Y-134719048D01*
X107333333Y-134480952D01*
X107380952Y-134385714D01*
X107428571Y-134338095D01*
X107523810Y-134290476D01*
X107761905Y-134290476D01*
X107857143Y-134338095D01*
X107904762Y-134385714D01*
X107952381Y-134480952D01*
X107952381Y-134719048D01*
X107904762Y-134814286D01*
X107857143Y-134861905D01*
X107952381Y-133338095D02*
X107952381Y-133909524D01*
X107952381Y-133623810D02*
X106952381Y-133623810D01*
X107095238Y-133719048D01*
X107190476Y-133814286D01*
X107238095Y-133909524D01*
X103357143Y-143542857D02*
X103404762Y-143590476D01*
X103452381Y-143733333D01*
X103452381Y-143828571D01*
X103404762Y-143971429D01*
X103309524Y-144066667D01*
X103214286Y-144114286D01*
X103023810Y-144161905D01*
X102880952Y-144161905D01*
X102690476Y-144114286D01*
X102595238Y-144066667D01*
X102500000Y-143971429D01*
X102452381Y-143828571D01*
X102452381Y-143733333D01*
X102500000Y-143590476D01*
X102547619Y-143542857D01*
X102452381Y-142638095D02*
X102452381Y-143114286D01*
X102928571Y-143161905D01*
X102880952Y-143114286D01*
X102833333Y-143019048D01*
X102833333Y-142780952D01*
X102880952Y-142685714D01*
X102928571Y-142638095D01*
X103023810Y-142590476D01*
X103261905Y-142590476D01*
X103357143Y-142638095D01*
X103404762Y-142685714D01*
X103452381Y-142780952D01*
X103452381Y-143019048D01*
X103404762Y-143114286D01*
X103357143Y-143161905D01*
X102547619Y-142209524D02*
X102500000Y-142161905D01*
X102452381Y-142066667D01*
X102452381Y-141828571D01*
X102500000Y-141733333D01*
X102547619Y-141685714D01*
X102642857Y-141638095D01*
X102738095Y-141638095D01*
X102880952Y-141685714D01*
X103452381Y-142257143D01*
X103452381Y-141638095D01*
X108757143Y-151557143D02*
X108709524Y-151604762D01*
X108566667Y-151652381D01*
X108471429Y-151652381D01*
X108328571Y-151604762D01*
X108233333Y-151509524D01*
X108185714Y-151414286D01*
X108138095Y-151223810D01*
X108138095Y-151080952D01*
X108185714Y-150890476D01*
X108233333Y-150795238D01*
X108328571Y-150700000D01*
X108471429Y-150652381D01*
X108566667Y-150652381D01*
X108709524Y-150700000D01*
X108757143Y-150747619D01*
X109661905Y-150652381D02*
X109185714Y-150652381D01*
X109138095Y-151128571D01*
X109185714Y-151080952D01*
X109280952Y-151033333D01*
X109519048Y-151033333D01*
X109614286Y-151080952D01*
X109661905Y-151128571D01*
X109709524Y-151223810D01*
X109709524Y-151461905D01*
X109661905Y-151557143D01*
X109614286Y-151604762D01*
X109519048Y-151652381D01*
X109280952Y-151652381D01*
X109185714Y-151604762D01*
X109138095Y-151557143D01*
X110042857Y-150652381D02*
X110661905Y-150652381D01*
X110328571Y-151033333D01*
X110471429Y-151033333D01*
X110566667Y-151080952D01*
X110614286Y-151128571D01*
X110661905Y-151223810D01*
X110661905Y-151461905D01*
X110614286Y-151557143D01*
X110566667Y-151604762D01*
X110471429Y-151652381D01*
X110185714Y-151652381D01*
X110090476Y-151604762D01*
X110042857Y-151557143D01*
X155277762Y-94995619D02*
X155182524Y-94948000D01*
X155087286Y-94852762D01*
X154944429Y-94709905D01*
X154849190Y-94662286D01*
X154753952Y-94662286D01*
X154801571Y-94900381D02*
X154706333Y-94852762D01*
X154611095Y-94757524D01*
X154563476Y-94567048D01*
X154563476Y-94233714D01*
X154611095Y-94043238D01*
X154706333Y-93948000D01*
X154801571Y-93900381D01*
X154992048Y-93900381D01*
X155087286Y-93948000D01*
X155182524Y-94043238D01*
X155230143Y-94233714D01*
X155230143Y-94567048D01*
X155182524Y-94757524D01*
X155087286Y-94852762D01*
X154992048Y-94900381D01*
X154801571Y-94900381D01*
X155706333Y-94900381D02*
X155896809Y-94900381D01*
X155992048Y-94852762D01*
X156039667Y-94805143D01*
X156134905Y-94662286D01*
X156182524Y-94471810D01*
X156182524Y-94090857D01*
X156134905Y-93995619D01*
X156087286Y-93948000D01*
X155992048Y-93900381D01*
X155801571Y-93900381D01*
X155706333Y-93948000D01*
X155658714Y-93995619D01*
X155611095Y-94090857D01*
X155611095Y-94328952D01*
X155658714Y-94424190D01*
X155706333Y-94471810D01*
X155801571Y-94519429D01*
X155992048Y-94519429D01*
X156087286Y-94471810D01*
X156134905Y-94424190D01*
X156182524Y-94328952D01*
X110902381Y-142942857D02*
X110426190Y-143276191D01*
X110902381Y-143514286D02*
X109902381Y-143514286D01*
X109902381Y-143133333D01*
X109950000Y-143038095D01*
X109997619Y-142990476D01*
X110092857Y-142942857D01*
X110235714Y-142942857D01*
X110330952Y-142990476D01*
X110378571Y-143038095D01*
X110426190Y-143133333D01*
X110426190Y-143514286D01*
X110902381Y-141990476D02*
X110902381Y-142561905D01*
X110902381Y-142276191D02*
X109902381Y-142276191D01*
X110045238Y-142371429D01*
X110140476Y-142466667D01*
X110188095Y-142561905D01*
X109902381Y-141657143D02*
X109902381Y-140990476D01*
X110902381Y-141419048D01*
X115552381Y-145642857D02*
X115076190Y-145976191D01*
X115552381Y-146214286D02*
X114552381Y-146214286D01*
X114552381Y-145833333D01*
X114600000Y-145738095D01*
X114647619Y-145690476D01*
X114742857Y-145642857D01*
X114885714Y-145642857D01*
X114980952Y-145690476D01*
X115028571Y-145738095D01*
X115076190Y-145833333D01*
X115076190Y-146214286D01*
X115552381Y-144690476D02*
X115552381Y-145261905D01*
X115552381Y-144976191D02*
X114552381Y-144976191D01*
X114695238Y-145071429D01*
X114790476Y-145166667D01*
X114838095Y-145261905D01*
X114980952Y-144119048D02*
X114933333Y-144214286D01*
X114885714Y-144261905D01*
X114790476Y-144309524D01*
X114742857Y-144309524D01*
X114647619Y-144261905D01*
X114600000Y-144214286D01*
X114552381Y-144119048D01*
X114552381Y-143928571D01*
X114600000Y-143833333D01*
X114647619Y-143785714D01*
X114742857Y-143738095D01*
X114790476Y-143738095D01*
X114885714Y-143785714D01*
X114933333Y-143833333D01*
X114980952Y-143928571D01*
X114980952Y-144119048D01*
X115028571Y-144214286D01*
X115076190Y-144261905D01*
X115171429Y-144309524D01*
X115361905Y-144309524D01*
X115457143Y-144261905D01*
X115504762Y-144214286D01*
X115552381Y-144119048D01*
X115552381Y-143928571D01*
X115504762Y-143833333D01*
X115457143Y-143785714D01*
X115361905Y-143738095D01*
X115171429Y-143738095D01*
X115076190Y-143785714D01*
X115028571Y-143833333D01*
X114980952Y-143928571D01*
X102357143Y-147202381D02*
X102023809Y-146726190D01*
X101785714Y-147202381D02*
X101785714Y-146202381D01*
X102166667Y-146202381D01*
X102261905Y-146250000D01*
X102309524Y-146297619D01*
X102357143Y-146392857D01*
X102357143Y-146535714D01*
X102309524Y-146630952D01*
X102261905Y-146678571D01*
X102166667Y-146726190D01*
X101785714Y-146726190D01*
X103309524Y-147202381D02*
X102738095Y-147202381D01*
X103023809Y-147202381D02*
X103023809Y-146202381D01*
X102928571Y-146345238D01*
X102833333Y-146440476D01*
X102738095Y-146488095D01*
X103785714Y-147202381D02*
X103976190Y-147202381D01*
X104071429Y-147154762D01*
X104119048Y-147107143D01*
X104214286Y-146964286D01*
X104261905Y-146773810D01*
X104261905Y-146392857D01*
X104214286Y-146297619D01*
X104166667Y-146250000D01*
X104071429Y-146202381D01*
X103880952Y-146202381D01*
X103785714Y-146250000D01*
X103738095Y-146297619D01*
X103690476Y-146392857D01*
X103690476Y-146630952D01*
X103738095Y-146726190D01*
X103785714Y-146773810D01*
X103880952Y-146821429D01*
X104071429Y-146821429D01*
X104166667Y-146773810D01*
X104214286Y-146726190D01*
X104261905Y-146630952D01*
X116947619Y-133395238D02*
X116900000Y-133490476D01*
X116804762Y-133585714D01*
X116661905Y-133728571D01*
X116614286Y-133823810D01*
X116614286Y-133919048D01*
X116852381Y-133871429D02*
X116804762Y-133966667D01*
X116709524Y-134061905D01*
X116519048Y-134109524D01*
X116185714Y-134109524D01*
X115995238Y-134061905D01*
X115900000Y-133966667D01*
X115852381Y-133871429D01*
X115852381Y-133680952D01*
X115900000Y-133585714D01*
X115995238Y-133490476D01*
X116185714Y-133442857D01*
X116519048Y-133442857D01*
X116709524Y-133490476D01*
X116804762Y-133585714D01*
X116852381Y-133680952D01*
X116852381Y-133871429D01*
X115852381Y-133109524D02*
X115852381Y-132442857D01*
X116852381Y-132871429D01*
X111962381Y-131246666D02*
X111486190Y-131580000D01*
X111962381Y-131818095D02*
X110962381Y-131818095D01*
X110962381Y-131437142D01*
X111010000Y-131341904D01*
X111057619Y-131294285D01*
X111152857Y-131246666D01*
X111295714Y-131246666D01*
X111390952Y-131294285D01*
X111438571Y-131341904D01*
X111486190Y-131437142D01*
X111486190Y-131818095D01*
X111390952Y-130675238D02*
X111343333Y-130770476D01*
X111295714Y-130818095D01*
X111200476Y-130865714D01*
X111152857Y-130865714D01*
X111057619Y-130818095D01*
X111010000Y-130770476D01*
X110962381Y-130675238D01*
X110962381Y-130484761D01*
X111010000Y-130389523D01*
X111057619Y-130341904D01*
X111152857Y-130294285D01*
X111200476Y-130294285D01*
X111295714Y-130341904D01*
X111343333Y-130389523D01*
X111390952Y-130484761D01*
X111390952Y-130675238D01*
X111438571Y-130770476D01*
X111486190Y-130818095D01*
X111581429Y-130865714D01*
X111771905Y-130865714D01*
X111867143Y-130818095D01*
X111914762Y-130770476D01*
X111962381Y-130675238D01*
X111962381Y-130484761D01*
X111914762Y-130389523D01*
X111867143Y-130341904D01*
X111771905Y-130294285D01*
X111581429Y-130294285D01*
X111486190Y-130341904D01*
X111438571Y-130389523D01*
X111390952Y-130484761D01*
X125452381Y-133166666D02*
X124976190Y-133500000D01*
X125452381Y-133738095D02*
X124452381Y-133738095D01*
X124452381Y-133357142D01*
X124500000Y-133261904D01*
X124547619Y-133214285D01*
X124642857Y-133166666D01*
X124785714Y-133166666D01*
X124880952Y-133214285D01*
X124928571Y-133261904D01*
X124976190Y-133357142D01*
X124976190Y-133738095D01*
X125452381Y-132690476D02*
X125452381Y-132500000D01*
X125404762Y-132404761D01*
X125357143Y-132357142D01*
X125214286Y-132261904D01*
X125023810Y-132214285D01*
X124642857Y-132214285D01*
X124547619Y-132261904D01*
X124500000Y-132309523D01*
X124452381Y-132404761D01*
X124452381Y-132595238D01*
X124500000Y-132690476D01*
X124547619Y-132738095D01*
X124642857Y-132785714D01*
X124880952Y-132785714D01*
X124976190Y-132738095D01*
X125023810Y-132690476D01*
X125071429Y-132595238D01*
X125071429Y-132404761D01*
X125023810Y-132309523D01*
X124976190Y-132261904D01*
X124880952Y-132214285D01*
X121982143Y-130867857D02*
X122029762Y-130915476D01*
X122077381Y-131058333D01*
X122077381Y-131153571D01*
X122029762Y-131296429D01*
X121934524Y-131391667D01*
X121839286Y-131439286D01*
X121648810Y-131486905D01*
X121505952Y-131486905D01*
X121315476Y-131439286D01*
X121220238Y-131391667D01*
X121125000Y-131296429D01*
X121077381Y-131153571D01*
X121077381Y-131058333D01*
X121125000Y-130915476D01*
X121172619Y-130867857D01*
X121172619Y-130486905D02*
X121125000Y-130439286D01*
X121077381Y-130344048D01*
X121077381Y-130105952D01*
X121125000Y-130010714D01*
X121172619Y-129963095D01*
X121267857Y-129915476D01*
X121363095Y-129915476D01*
X121505952Y-129963095D01*
X122077381Y-130534524D01*
X122077381Y-129915476D01*
X121172619Y-129534524D02*
X121125000Y-129486905D01*
X121077381Y-129391667D01*
X121077381Y-129153571D01*
X121125000Y-129058333D01*
X121172619Y-129010714D01*
X121267857Y-128963095D01*
X121363095Y-128963095D01*
X121505952Y-129010714D01*
X122077381Y-129582143D01*
X122077381Y-128963095D01*
X120991334Y-123112381D02*
X120658000Y-122636190D01*
X120419905Y-123112381D02*
X120419905Y-122112381D01*
X120800858Y-122112381D01*
X120896096Y-122160000D01*
X120943715Y-122207619D01*
X120991334Y-122302857D01*
X120991334Y-122445714D01*
X120943715Y-122540952D01*
X120896096Y-122588571D01*
X120800858Y-122636190D01*
X120419905Y-122636190D01*
X121896096Y-122112381D02*
X121419905Y-122112381D01*
X121372286Y-122588571D01*
X121419905Y-122540952D01*
X121515143Y-122493333D01*
X121753239Y-122493333D01*
X121848477Y-122540952D01*
X121896096Y-122588571D01*
X121943715Y-122683810D01*
X121943715Y-122921905D01*
X121896096Y-123017143D01*
X121848477Y-123064762D01*
X121753239Y-123112381D01*
X121515143Y-123112381D01*
X121419905Y-123064762D01*
X121372286Y-123017143D01*
X115652381Y-128766666D02*
X115176190Y-129100000D01*
X115652381Y-129338095D02*
X114652381Y-129338095D01*
X114652381Y-128957142D01*
X114700000Y-128861904D01*
X114747619Y-128814285D01*
X114842857Y-128766666D01*
X114985714Y-128766666D01*
X115080952Y-128814285D01*
X115128571Y-128861904D01*
X115176190Y-128957142D01*
X115176190Y-129338095D01*
X114652381Y-127909523D02*
X114652381Y-128100000D01*
X114700000Y-128195238D01*
X114747619Y-128242857D01*
X114890476Y-128338095D01*
X115080952Y-128385714D01*
X115461905Y-128385714D01*
X115557143Y-128338095D01*
X115604762Y-128290476D01*
X115652381Y-128195238D01*
X115652381Y-128004761D01*
X115604762Y-127909523D01*
X115557143Y-127861904D01*
X115461905Y-127814285D01*
X115223810Y-127814285D01*
X115128571Y-127861904D01*
X115080952Y-127909523D01*
X115033333Y-128004761D01*
X115033333Y-128195238D01*
X115080952Y-128290476D01*
X115128571Y-128338095D01*
X115223810Y-128385714D01*
X142057143Y-103092857D02*
X142104762Y-103140476D01*
X142152381Y-103283333D01*
X142152381Y-103378571D01*
X142104762Y-103521429D01*
X142009524Y-103616667D01*
X141914286Y-103664286D01*
X141723810Y-103711905D01*
X141580952Y-103711905D01*
X141390476Y-103664286D01*
X141295238Y-103616667D01*
X141200000Y-103521429D01*
X141152381Y-103378571D01*
X141152381Y-103283333D01*
X141200000Y-103140476D01*
X141247619Y-103092857D01*
X141485714Y-102235714D02*
X142152381Y-102235714D01*
X141104762Y-102473810D02*
X141819048Y-102711905D01*
X141819048Y-102092857D01*
X141152381Y-101235714D02*
X141152381Y-101711905D01*
X141628571Y-101759524D01*
X141580952Y-101711905D01*
X141533333Y-101616667D01*
X141533333Y-101378571D01*
X141580952Y-101283333D01*
X141628571Y-101235714D01*
X141723810Y-101188095D01*
X141961905Y-101188095D01*
X142057143Y-101235714D01*
X142104762Y-101283333D01*
X142152381Y-101378571D01*
X142152381Y-101616667D01*
X142104762Y-101711905D01*
X142057143Y-101759524D01*
X144607143Y-111417857D02*
X144654762Y-111465476D01*
X144702381Y-111608333D01*
X144702381Y-111703571D01*
X144654762Y-111846429D01*
X144559524Y-111941667D01*
X144464286Y-111989286D01*
X144273810Y-112036905D01*
X144130952Y-112036905D01*
X143940476Y-111989286D01*
X143845238Y-111941667D01*
X143750000Y-111846429D01*
X143702381Y-111703571D01*
X143702381Y-111608333D01*
X143750000Y-111465476D01*
X143797619Y-111417857D01*
X144035714Y-110560714D02*
X144702381Y-110560714D01*
X143654762Y-110798810D02*
X144369048Y-111036905D01*
X144369048Y-110417857D01*
X143702381Y-110132143D02*
X143702381Y-109465476D01*
X144702381Y-109894048D01*
X143032143Y-116907143D02*
X142984524Y-116954762D01*
X142841667Y-117002381D01*
X142746429Y-117002381D01*
X142603571Y-116954762D01*
X142508333Y-116859524D01*
X142460714Y-116764286D01*
X142413095Y-116573810D01*
X142413095Y-116430952D01*
X142460714Y-116240476D01*
X142508333Y-116145238D01*
X142603571Y-116050000D01*
X142746429Y-116002381D01*
X142841667Y-116002381D01*
X142984524Y-116050000D01*
X143032143Y-116097619D01*
X143889286Y-116335714D02*
X143889286Y-117002381D01*
X143651190Y-115954762D02*
X143413095Y-116669048D01*
X144032143Y-116669048D01*
X144460714Y-117002381D02*
X144651190Y-117002381D01*
X144746429Y-116954762D01*
X144794048Y-116907143D01*
X144889286Y-116764286D01*
X144936905Y-116573810D01*
X144936905Y-116192857D01*
X144889286Y-116097619D01*
X144841667Y-116050000D01*
X144746429Y-116002381D01*
X144555952Y-116002381D01*
X144460714Y-116050000D01*
X144413095Y-116097619D01*
X144365476Y-116192857D01*
X144365476Y-116430952D01*
X144413095Y-116526190D01*
X144460714Y-116573810D01*
X144555952Y-116621429D01*
X144746429Y-116621429D01*
X144841667Y-116573810D01*
X144889286Y-116526190D01*
X144936905Y-116430952D01*
X160557143Y-120607143D02*
X160509524Y-120654762D01*
X160366667Y-120702381D01*
X160271429Y-120702381D01*
X160128571Y-120654762D01*
X160033333Y-120559524D01*
X159985714Y-120464286D01*
X159938095Y-120273810D01*
X159938095Y-120130952D01*
X159985714Y-119940476D01*
X160033333Y-119845238D01*
X160128571Y-119750000D01*
X160271429Y-119702381D01*
X160366667Y-119702381D01*
X160509524Y-119750000D01*
X160557143Y-119797619D01*
X160938095Y-119797619D02*
X160985714Y-119750000D01*
X161080952Y-119702381D01*
X161319048Y-119702381D01*
X161414286Y-119750000D01*
X161461905Y-119797619D01*
X161509524Y-119892857D01*
X161509524Y-119988095D01*
X161461905Y-120130952D01*
X160890476Y-120702381D01*
X161509524Y-120702381D01*
X162414286Y-119702381D02*
X161938095Y-119702381D01*
X161890476Y-120178571D01*
X161938095Y-120130952D01*
X162033333Y-120083333D01*
X162271429Y-120083333D01*
X162366667Y-120130952D01*
X162414286Y-120178571D01*
X162461905Y-120273810D01*
X162461905Y-120511905D01*
X162414286Y-120607143D01*
X162366667Y-120654762D01*
X162271429Y-120702381D01*
X162033333Y-120702381D01*
X161938095Y-120654762D01*
X161890476Y-120607143D01*
X152907143Y-108807143D02*
X152859524Y-108854762D01*
X152716667Y-108902381D01*
X152621429Y-108902381D01*
X152478571Y-108854762D01*
X152383333Y-108759524D01*
X152335714Y-108664286D01*
X152288095Y-108473810D01*
X152288095Y-108330952D01*
X152335714Y-108140476D01*
X152383333Y-108045238D01*
X152478571Y-107950000D01*
X152621429Y-107902381D01*
X152716667Y-107902381D01*
X152859524Y-107950000D01*
X152907143Y-107997619D01*
X153288095Y-107997619D02*
X153335714Y-107950000D01*
X153430952Y-107902381D01*
X153669048Y-107902381D01*
X153764286Y-107950000D01*
X153811905Y-107997619D01*
X153859524Y-108092857D01*
X153859524Y-108188095D01*
X153811905Y-108330952D01*
X153240476Y-108902381D01*
X153859524Y-108902381D01*
X154716667Y-107902381D02*
X154526190Y-107902381D01*
X154430952Y-107950000D01*
X154383333Y-107997619D01*
X154288095Y-108140476D01*
X154240476Y-108330952D01*
X154240476Y-108711905D01*
X154288095Y-108807143D01*
X154335714Y-108854762D01*
X154430952Y-108902381D01*
X154621429Y-108902381D01*
X154716667Y-108854762D01*
X154764286Y-108807143D01*
X154811905Y-108711905D01*
X154811905Y-108473810D01*
X154764286Y-108378571D01*
X154716667Y-108330952D01*
X154621429Y-108283333D01*
X154430952Y-108283333D01*
X154335714Y-108330952D01*
X154288095Y-108378571D01*
X154240476Y-108473810D01*
X148882143Y-98032143D02*
X148834524Y-98079762D01*
X148691667Y-98127381D01*
X148596429Y-98127381D01*
X148453571Y-98079762D01*
X148358333Y-97984524D01*
X148310714Y-97889286D01*
X148263095Y-97698810D01*
X148263095Y-97555952D01*
X148310714Y-97365476D01*
X148358333Y-97270238D01*
X148453571Y-97175000D01*
X148596429Y-97127381D01*
X148691667Y-97127381D01*
X148834524Y-97175000D01*
X148882143Y-97222619D01*
X149263095Y-97222619D02*
X149310714Y-97175000D01*
X149405952Y-97127381D01*
X149644048Y-97127381D01*
X149739286Y-97175000D01*
X149786905Y-97222619D01*
X149834524Y-97317857D01*
X149834524Y-97413095D01*
X149786905Y-97555952D01*
X149215476Y-98127381D01*
X149834524Y-98127381D01*
X150405952Y-97555952D02*
X150310714Y-97508333D01*
X150263095Y-97460714D01*
X150215476Y-97365476D01*
X150215476Y-97317857D01*
X150263095Y-97222619D01*
X150310714Y-97175000D01*
X150405952Y-97127381D01*
X150596429Y-97127381D01*
X150691667Y-97175000D01*
X150739286Y-97222619D01*
X150786905Y-97317857D01*
X150786905Y-97365476D01*
X150739286Y-97460714D01*
X150691667Y-97508333D01*
X150596429Y-97555952D01*
X150405952Y-97555952D01*
X150310714Y-97603571D01*
X150263095Y-97651190D01*
X150215476Y-97746429D01*
X150215476Y-97936905D01*
X150263095Y-98032143D01*
X150310714Y-98079762D01*
X150405952Y-98127381D01*
X150596429Y-98127381D01*
X150691667Y-98079762D01*
X150739286Y-98032143D01*
X150786905Y-97936905D01*
X150786905Y-97746429D01*
X150739286Y-97651190D01*
X150691667Y-97603571D01*
X150596429Y-97555952D01*
X166357143Y-101217857D02*
X166404762Y-101265476D01*
X166452381Y-101408333D01*
X166452381Y-101503571D01*
X166404762Y-101646429D01*
X166309524Y-101741667D01*
X166214286Y-101789286D01*
X166023810Y-101836905D01*
X165880952Y-101836905D01*
X165690476Y-101789286D01*
X165595238Y-101741667D01*
X165500000Y-101646429D01*
X165452381Y-101503571D01*
X165452381Y-101408333D01*
X165500000Y-101265476D01*
X165547619Y-101217857D01*
X165547619Y-100836905D02*
X165500000Y-100789286D01*
X165452381Y-100694048D01*
X165452381Y-100455952D01*
X165500000Y-100360714D01*
X165547619Y-100313095D01*
X165642857Y-100265476D01*
X165738095Y-100265476D01*
X165880952Y-100313095D01*
X166452381Y-100884524D01*
X166452381Y-100265476D01*
X166452381Y-99789286D02*
X166452381Y-99598810D01*
X166404762Y-99503571D01*
X166357143Y-99455952D01*
X166214286Y-99360714D01*
X166023810Y-99313095D01*
X165642857Y-99313095D01*
X165547619Y-99360714D01*
X165500000Y-99408333D01*
X165452381Y-99503571D01*
X165452381Y-99694048D01*
X165500000Y-99789286D01*
X165547619Y-99836905D01*
X165642857Y-99884524D01*
X165880952Y-99884524D01*
X165976190Y-99836905D01*
X166023810Y-99789286D01*
X166071429Y-99694048D01*
X166071429Y-99503571D01*
X166023810Y-99408333D01*
X165976190Y-99360714D01*
X165880952Y-99313095D01*
X163777381Y-124713095D02*
X162777381Y-124713095D01*
X162777381Y-124475000D01*
X162825000Y-124332142D01*
X162920238Y-124236904D01*
X163015476Y-124189285D01*
X163205952Y-124141666D01*
X163348810Y-124141666D01*
X163539286Y-124189285D01*
X163634524Y-124236904D01*
X163729762Y-124332142D01*
X163777381Y-124475000D01*
X163777381Y-124713095D01*
X163777381Y-123189285D02*
X163777381Y-123760714D01*
X163777381Y-123475000D02*
X162777381Y-123475000D01*
X162920238Y-123570238D01*
X163015476Y-123665476D01*
X163063095Y-123760714D01*
X162583905Y-94146381D02*
X162583905Y-93146381D01*
X162822000Y-93146381D01*
X162964858Y-93194000D01*
X163060096Y-93289238D01*
X163107715Y-93384476D01*
X163155334Y-93574952D01*
X163155334Y-93717810D01*
X163107715Y-93908286D01*
X163060096Y-94003524D01*
X162964858Y-94098762D01*
X162822000Y-94146381D01*
X162583905Y-94146381D01*
X163536286Y-93241619D02*
X163583905Y-93194000D01*
X163679143Y-93146381D01*
X163917239Y-93146381D01*
X164012477Y-93194000D01*
X164060096Y-93241619D01*
X164107715Y-93336857D01*
X164107715Y-93432095D01*
X164060096Y-93574952D01*
X163488667Y-94146381D01*
X164107715Y-94146381D01*
X146632143Y-91302381D02*
X146298809Y-90826190D01*
X146060714Y-91302381D02*
X146060714Y-90302381D01*
X146441667Y-90302381D01*
X146536905Y-90350000D01*
X146584524Y-90397619D01*
X146632143Y-90492857D01*
X146632143Y-90635714D01*
X146584524Y-90730952D01*
X146536905Y-90778571D01*
X146441667Y-90826190D01*
X146060714Y-90826190D01*
X147584524Y-91302381D02*
X147013095Y-91302381D01*
X147298809Y-91302381D02*
X147298809Y-90302381D01*
X147203571Y-90445238D01*
X147108333Y-90540476D01*
X147013095Y-90588095D01*
X148489286Y-90302381D02*
X148013095Y-90302381D01*
X147965476Y-90778571D01*
X148013095Y-90730952D01*
X148108333Y-90683333D01*
X148346429Y-90683333D01*
X148441667Y-90730952D01*
X148489286Y-90778571D01*
X148536905Y-90873810D01*
X148536905Y-91111905D01*
X148489286Y-91207143D01*
X148441667Y-91254762D01*
X148346429Y-91302381D01*
X148108333Y-91302381D01*
X148013095Y-91254762D01*
X147965476Y-91207143D01*
X160427381Y-124592857D02*
X159951190Y-124926191D01*
X160427381Y-125164286D02*
X159427381Y-125164286D01*
X159427381Y-124783333D01*
X159475000Y-124688095D01*
X159522619Y-124640476D01*
X159617857Y-124592857D01*
X159760714Y-124592857D01*
X159855952Y-124640476D01*
X159903571Y-124688095D01*
X159951190Y-124783333D01*
X159951190Y-125164286D01*
X160427381Y-123640476D02*
X160427381Y-124211905D01*
X160427381Y-123926191D02*
X159427381Y-123926191D01*
X159570238Y-124021429D01*
X159665476Y-124116667D01*
X159713095Y-124211905D01*
X159760714Y-122783333D02*
X160427381Y-122783333D01*
X159379762Y-123021429D02*
X160094048Y-123259524D01*
X160094048Y-122640476D01*
X112657143Y-91257143D02*
X112609524Y-91304762D01*
X112466667Y-91352381D01*
X112371429Y-91352381D01*
X112228571Y-91304762D01*
X112133333Y-91209524D01*
X112085714Y-91114286D01*
X112038095Y-90923810D01*
X112038095Y-90780952D01*
X112085714Y-90590476D01*
X112133333Y-90495238D01*
X112228571Y-90400000D01*
X112371429Y-90352381D01*
X112466667Y-90352381D01*
X112609524Y-90400000D01*
X112657143Y-90447619D01*
X112990476Y-90352381D02*
X113609524Y-90352381D01*
X113276190Y-90733333D01*
X113419048Y-90733333D01*
X113514286Y-90780952D01*
X113561905Y-90828571D01*
X113609524Y-90923810D01*
X113609524Y-91161905D01*
X113561905Y-91257143D01*
X113514286Y-91304762D01*
X113419048Y-91352381D01*
X113133333Y-91352381D01*
X113038095Y-91304762D01*
X112990476Y-91257143D01*
X114180952Y-90780952D02*
X114085714Y-90733333D01*
X114038095Y-90685714D01*
X113990476Y-90590476D01*
X113990476Y-90542857D01*
X114038095Y-90447619D01*
X114085714Y-90400000D01*
X114180952Y-90352381D01*
X114371429Y-90352381D01*
X114466667Y-90400000D01*
X114514286Y-90447619D01*
X114561905Y-90542857D01*
X114561905Y-90590476D01*
X114514286Y-90685714D01*
X114466667Y-90733333D01*
X114371429Y-90780952D01*
X114180952Y-90780952D01*
X114085714Y-90828571D01*
X114038095Y-90876190D01*
X113990476Y-90971429D01*
X113990476Y-91161905D01*
X114038095Y-91257143D01*
X114085714Y-91304762D01*
X114180952Y-91352381D01*
X114371429Y-91352381D01*
X114466667Y-91304762D01*
X114514286Y-91257143D01*
X114561905Y-91161905D01*
X114561905Y-90971429D01*
X114514286Y-90876190D01*
X114466667Y-90828571D01*
X114371429Y-90780952D01*
X105757143Y-71142857D02*
X105804762Y-71190476D01*
X105852381Y-71333333D01*
X105852381Y-71428571D01*
X105804762Y-71571429D01*
X105709524Y-71666667D01*
X105614286Y-71714286D01*
X105423810Y-71761905D01*
X105280952Y-71761905D01*
X105090476Y-71714286D01*
X104995238Y-71666667D01*
X104900000Y-71571429D01*
X104852381Y-71428571D01*
X104852381Y-71333333D01*
X104900000Y-71190476D01*
X104947619Y-71142857D01*
X104852381Y-70809524D02*
X104852381Y-70190476D01*
X105233333Y-70523810D01*
X105233333Y-70380952D01*
X105280952Y-70285714D01*
X105328571Y-70238095D01*
X105423810Y-70190476D01*
X105661905Y-70190476D01*
X105757143Y-70238095D01*
X105804762Y-70285714D01*
X105852381Y-70380952D01*
X105852381Y-70666667D01*
X105804762Y-70761905D01*
X105757143Y-70809524D01*
X105852381Y-69238095D02*
X105852381Y-69809524D01*
X105852381Y-69523810D02*
X104852381Y-69523810D01*
X104995238Y-69619048D01*
X105090476Y-69714286D01*
X105138095Y-69809524D01*
X109457143Y-71042857D02*
X109504762Y-71090476D01*
X109552381Y-71233333D01*
X109552381Y-71328571D01*
X109504762Y-71471429D01*
X109409524Y-71566667D01*
X109314286Y-71614286D01*
X109123810Y-71661905D01*
X108980952Y-71661905D01*
X108790476Y-71614286D01*
X108695238Y-71566667D01*
X108600000Y-71471429D01*
X108552381Y-71328571D01*
X108552381Y-71233333D01*
X108600000Y-71090476D01*
X108647619Y-71042857D01*
X108552381Y-70709524D02*
X108552381Y-70090476D01*
X108933333Y-70423810D01*
X108933333Y-70280952D01*
X108980952Y-70185714D01*
X109028571Y-70138095D01*
X109123810Y-70090476D01*
X109361905Y-70090476D01*
X109457143Y-70138095D01*
X109504762Y-70185714D01*
X109552381Y-70280952D01*
X109552381Y-70566667D01*
X109504762Y-70661905D01*
X109457143Y-70709524D01*
X108552381Y-69757143D02*
X108552381Y-69138095D01*
X108933333Y-69471429D01*
X108933333Y-69328571D01*
X108980952Y-69233333D01*
X109028571Y-69185714D01*
X109123810Y-69138095D01*
X109361905Y-69138095D01*
X109457143Y-69185714D01*
X109504762Y-69233333D01*
X109552381Y-69328571D01*
X109552381Y-69614286D01*
X109504762Y-69709524D01*
X109457143Y-69757143D01*
X113627381Y-83636905D02*
X114436905Y-83636905D01*
X114532143Y-83589286D01*
X114579762Y-83541667D01*
X114627381Y-83446429D01*
X114627381Y-83255952D01*
X114579762Y-83160714D01*
X114532143Y-83113095D01*
X114436905Y-83065476D01*
X113627381Y-83065476D01*
X113627381Y-82684524D02*
X113627381Y-82065476D01*
X114008333Y-82398810D01*
X114008333Y-82255952D01*
X114055952Y-82160714D01*
X114103571Y-82113095D01*
X114198810Y-82065476D01*
X114436905Y-82065476D01*
X114532143Y-82113095D01*
X114579762Y-82160714D01*
X114627381Y-82255952D01*
X114627381Y-82541667D01*
X114579762Y-82636905D01*
X114532143Y-82684524D01*
X129433334Y-77652381D02*
X129100000Y-77176190D01*
X128861905Y-77652381D02*
X128861905Y-76652381D01*
X129242858Y-76652381D01*
X129338096Y-76700000D01*
X129385715Y-76747619D01*
X129433334Y-76842857D01*
X129433334Y-76985714D01*
X129385715Y-77080952D01*
X129338096Y-77128571D01*
X129242858Y-77176190D01*
X128861905Y-77176190D01*
X130385715Y-77652381D02*
X129814286Y-77652381D01*
X130100000Y-77652381D02*
X130100000Y-76652381D01*
X130004762Y-76795238D01*
X129909524Y-76890476D01*
X129814286Y-76938095D01*
X122333334Y-88752381D02*
X122000000Y-88276190D01*
X121761905Y-88752381D02*
X121761905Y-87752381D01*
X122142858Y-87752381D01*
X122238096Y-87800000D01*
X122285715Y-87847619D01*
X122333334Y-87942857D01*
X122333334Y-88085714D01*
X122285715Y-88180952D01*
X122238096Y-88228571D01*
X122142858Y-88276190D01*
X121761905Y-88276190D01*
X122666667Y-87752381D02*
X123285715Y-87752381D01*
X122952381Y-88133333D01*
X123095239Y-88133333D01*
X123190477Y-88180952D01*
X123238096Y-88228571D01*
X123285715Y-88323810D01*
X123285715Y-88561905D01*
X123238096Y-88657143D01*
X123190477Y-88704762D01*
X123095239Y-88752381D01*
X122809524Y-88752381D01*
X122714286Y-88704762D01*
X122666667Y-88657143D01*
X139152381Y-82466666D02*
X138676190Y-82800000D01*
X139152381Y-83038095D02*
X138152381Y-83038095D01*
X138152381Y-82657142D01*
X138200000Y-82561904D01*
X138247619Y-82514285D01*
X138342857Y-82466666D01*
X138485714Y-82466666D01*
X138580952Y-82514285D01*
X138628571Y-82561904D01*
X138676190Y-82657142D01*
X138676190Y-83038095D01*
X138485714Y-81609523D02*
X139152381Y-81609523D01*
X138104762Y-81847619D02*
X138819048Y-82085714D01*
X138819048Y-81466666D01*
X132157143Y-98252381D02*
X131823809Y-97776190D01*
X131585714Y-98252381D02*
X131585714Y-97252381D01*
X131966667Y-97252381D01*
X132061905Y-97300000D01*
X132109524Y-97347619D01*
X132157143Y-97442857D01*
X132157143Y-97585714D01*
X132109524Y-97680952D01*
X132061905Y-97728571D01*
X131966667Y-97776190D01*
X131585714Y-97776190D01*
X133109524Y-98252381D02*
X132538095Y-98252381D01*
X132823809Y-98252381D02*
X132823809Y-97252381D01*
X132728571Y-97395238D01*
X132633333Y-97490476D01*
X132538095Y-97538095D01*
X134061905Y-98252381D02*
X133490476Y-98252381D01*
X133776190Y-98252381D02*
X133776190Y-97252381D01*
X133680952Y-97395238D01*
X133585714Y-97490476D01*
X133490476Y-97538095D01*
X131357143Y-72052381D02*
X131023809Y-71576190D01*
X130785714Y-72052381D02*
X130785714Y-71052381D01*
X131166667Y-71052381D01*
X131261905Y-71100000D01*
X131309524Y-71147619D01*
X131357143Y-71242857D01*
X131357143Y-71385714D01*
X131309524Y-71480952D01*
X131261905Y-71528571D01*
X131166667Y-71576190D01*
X130785714Y-71576190D01*
X132309524Y-72052381D02*
X131738095Y-72052381D01*
X132023809Y-72052381D02*
X132023809Y-71052381D01*
X131928571Y-71195238D01*
X131833333Y-71290476D01*
X131738095Y-71338095D01*
X132690476Y-71147619D02*
X132738095Y-71100000D01*
X132833333Y-71052381D01*
X133071429Y-71052381D01*
X133166667Y-71100000D01*
X133214286Y-71147619D01*
X133261905Y-71242857D01*
X133261905Y-71338095D01*
X133214286Y-71480952D01*
X132642857Y-72052381D01*
X133261905Y-72052381D01*
X136357143Y-72052381D02*
X136023809Y-71576190D01*
X135785714Y-72052381D02*
X135785714Y-71052381D01*
X136166667Y-71052381D01*
X136261905Y-71100000D01*
X136309524Y-71147619D01*
X136357143Y-71242857D01*
X136357143Y-71385714D01*
X136309524Y-71480952D01*
X136261905Y-71528571D01*
X136166667Y-71576190D01*
X135785714Y-71576190D01*
X137309524Y-72052381D02*
X136738095Y-72052381D01*
X137023809Y-72052381D02*
X137023809Y-71052381D01*
X136928571Y-71195238D01*
X136833333Y-71290476D01*
X136738095Y-71338095D01*
X137642857Y-71052381D02*
X138261905Y-71052381D01*
X137928571Y-71433333D01*
X138071429Y-71433333D01*
X138166667Y-71480952D01*
X138214286Y-71528571D01*
X138261905Y-71623810D01*
X138261905Y-71861905D01*
X138214286Y-71957143D01*
X138166667Y-72004762D01*
X138071429Y-72052381D01*
X137785714Y-72052381D01*
X137690476Y-72004762D01*
X137642857Y-71957143D01*
X106657143Y-93552381D02*
X106323809Y-93076190D01*
X106085714Y-93552381D02*
X106085714Y-92552381D01*
X106466667Y-92552381D01*
X106561905Y-92600000D01*
X106609524Y-92647619D01*
X106657143Y-92742857D01*
X106657143Y-92885714D01*
X106609524Y-92980952D01*
X106561905Y-93028571D01*
X106466667Y-93076190D01*
X106085714Y-93076190D01*
X107038095Y-92647619D02*
X107085714Y-92600000D01*
X107180952Y-92552381D01*
X107419048Y-92552381D01*
X107514286Y-92600000D01*
X107561905Y-92647619D01*
X107609524Y-92742857D01*
X107609524Y-92838095D01*
X107561905Y-92980952D01*
X106990476Y-93552381D01*
X107609524Y-93552381D01*
X108228571Y-92552381D02*
X108323810Y-92552381D01*
X108419048Y-92600000D01*
X108466667Y-92647619D01*
X108514286Y-92742857D01*
X108561905Y-92933333D01*
X108561905Y-93171429D01*
X108514286Y-93361905D01*
X108466667Y-93457143D01*
X108419048Y-93504762D01*
X108323810Y-93552381D01*
X108228571Y-93552381D01*
X108133333Y-93504762D01*
X108085714Y-93457143D01*
X108038095Y-93361905D01*
X107990476Y-93171429D01*
X107990476Y-92933333D01*
X108038095Y-92742857D01*
X108085714Y-92647619D01*
X108133333Y-92600000D01*
X108228571Y-92552381D01*
X102057143Y-89352381D02*
X101723809Y-88876190D01*
X101485714Y-89352381D02*
X101485714Y-88352381D01*
X101866667Y-88352381D01*
X101961905Y-88400000D01*
X102009524Y-88447619D01*
X102057143Y-88542857D01*
X102057143Y-88685714D01*
X102009524Y-88780952D01*
X101961905Y-88828571D01*
X101866667Y-88876190D01*
X101485714Y-88876190D01*
X102438095Y-88447619D02*
X102485714Y-88400000D01*
X102580952Y-88352381D01*
X102819048Y-88352381D01*
X102914286Y-88400000D01*
X102961905Y-88447619D01*
X103009524Y-88542857D01*
X103009524Y-88638095D01*
X102961905Y-88780952D01*
X102390476Y-89352381D01*
X103009524Y-89352381D01*
X103961905Y-89352381D02*
X103390476Y-89352381D01*
X103676190Y-89352381D02*
X103676190Y-88352381D01*
X103580952Y-88495238D01*
X103485714Y-88590476D01*
X103390476Y-88638095D01*
X120957143Y-139157143D02*
X120909524Y-139204762D01*
X120766667Y-139252381D01*
X120671429Y-139252381D01*
X120528571Y-139204762D01*
X120433333Y-139109524D01*
X120385714Y-139014286D01*
X120338095Y-138823810D01*
X120338095Y-138680952D01*
X120385714Y-138490476D01*
X120433333Y-138395238D01*
X120528571Y-138300000D01*
X120671429Y-138252381D01*
X120766667Y-138252381D01*
X120909524Y-138300000D01*
X120957143Y-138347619D01*
X121909524Y-139252381D02*
X121338095Y-139252381D01*
X121623809Y-139252381D02*
X121623809Y-138252381D01*
X121528571Y-138395238D01*
X121433333Y-138490476D01*
X121338095Y-138538095D01*
X122766667Y-138585714D02*
X122766667Y-139252381D01*
X122528571Y-138204762D02*
X122290476Y-138919048D01*
X122909524Y-138919048D01*
X117733334Y-120357143D02*
X117685715Y-120404762D01*
X117542858Y-120452381D01*
X117447620Y-120452381D01*
X117304762Y-120404762D01*
X117209524Y-120309524D01*
X117161905Y-120214286D01*
X117114286Y-120023810D01*
X117114286Y-119880952D01*
X117161905Y-119690476D01*
X117209524Y-119595238D01*
X117304762Y-119500000D01*
X117447620Y-119452381D01*
X117542858Y-119452381D01*
X117685715Y-119500000D01*
X117733334Y-119547619D01*
X118066667Y-119452381D02*
X118733334Y-119452381D01*
X118304762Y-120452381D01*
X126807143Y-131117857D02*
X126854762Y-131165476D01*
X126902381Y-131308333D01*
X126902381Y-131403571D01*
X126854762Y-131546429D01*
X126759524Y-131641667D01*
X126664286Y-131689286D01*
X126473810Y-131736905D01*
X126330952Y-131736905D01*
X126140476Y-131689286D01*
X126045238Y-131641667D01*
X125950000Y-131546429D01*
X125902381Y-131403571D01*
X125902381Y-131308333D01*
X125950000Y-131165476D01*
X125997619Y-131117857D01*
X125997619Y-130736905D02*
X125950000Y-130689286D01*
X125902381Y-130594048D01*
X125902381Y-130355952D01*
X125950000Y-130260714D01*
X125997619Y-130213095D01*
X126092857Y-130165476D01*
X126188095Y-130165476D01*
X126330952Y-130213095D01*
X126902381Y-130784524D01*
X126902381Y-130165476D01*
X126235714Y-129308333D02*
X126902381Y-129308333D01*
X125854762Y-129546429D02*
X126569048Y-129784524D01*
X126569048Y-129165476D01*
X145915143Y-102079143D02*
X145867524Y-102126762D01*
X145724667Y-102174381D01*
X145629429Y-102174381D01*
X145486571Y-102126762D01*
X145391333Y-102031524D01*
X145343714Y-101936286D01*
X145296095Y-101745810D01*
X145296095Y-101602952D01*
X145343714Y-101412476D01*
X145391333Y-101317238D01*
X145486571Y-101222000D01*
X145629429Y-101174381D01*
X145724667Y-101174381D01*
X145867524Y-101222000D01*
X145915143Y-101269619D01*
X146296095Y-101269619D02*
X146343714Y-101222000D01*
X146438952Y-101174381D01*
X146677048Y-101174381D01*
X146772286Y-101222000D01*
X146819905Y-101269619D01*
X146867524Y-101364857D01*
X146867524Y-101460095D01*
X146819905Y-101602952D01*
X146248476Y-102174381D01*
X146867524Y-102174381D01*
X147819905Y-102174381D02*
X147248476Y-102174381D01*
X147534190Y-102174381D02*
X147534190Y-101174381D01*
X147438952Y-101317238D01*
X147343714Y-101412476D01*
X147248476Y-101460095D01*
X135833334Y-118232143D02*
X135785715Y-118279762D01*
X135642858Y-118327381D01*
X135547620Y-118327381D01*
X135404762Y-118279762D01*
X135309524Y-118184524D01*
X135261905Y-118089286D01*
X135214286Y-117898810D01*
X135214286Y-117755952D01*
X135261905Y-117565476D01*
X135309524Y-117470238D01*
X135404762Y-117375000D01*
X135547620Y-117327381D01*
X135642858Y-117327381D01*
X135785715Y-117375000D01*
X135833334Y-117422619D01*
X136166667Y-117327381D02*
X136785715Y-117327381D01*
X136452381Y-117708333D01*
X136595239Y-117708333D01*
X136690477Y-117755952D01*
X136738096Y-117803571D01*
X136785715Y-117898810D01*
X136785715Y-118136905D01*
X136738096Y-118232143D01*
X136690477Y-118279762D01*
X136595239Y-118327381D01*
X136309524Y-118327381D01*
X136214286Y-118279762D01*
X136166667Y-118232143D01*
X136008334Y-129482143D02*
X135960715Y-129529762D01*
X135817858Y-129577381D01*
X135722620Y-129577381D01*
X135579762Y-129529762D01*
X135484524Y-129434524D01*
X135436905Y-129339286D01*
X135389286Y-129148810D01*
X135389286Y-129005952D01*
X135436905Y-128815476D01*
X135484524Y-128720238D01*
X135579762Y-128625000D01*
X135722620Y-128577381D01*
X135817858Y-128577381D01*
X135960715Y-128625000D01*
X136008334Y-128672619D01*
X136913096Y-128577381D02*
X136436905Y-128577381D01*
X136389286Y-129053571D01*
X136436905Y-129005952D01*
X136532143Y-128958333D01*
X136770239Y-128958333D01*
X136865477Y-129005952D01*
X136913096Y-129053571D01*
X136960715Y-129148810D01*
X136960715Y-129386905D01*
X136913096Y-129482143D01*
X136865477Y-129529762D01*
X136770239Y-129577381D01*
X136532143Y-129577381D01*
X136436905Y-129529762D01*
X136389286Y-129482143D01*
X167858334Y-135932143D02*
X167810715Y-135979762D01*
X167667858Y-136027381D01*
X167572620Y-136027381D01*
X167429762Y-135979762D01*
X167334524Y-135884524D01*
X167286905Y-135789286D01*
X167239286Y-135598810D01*
X167239286Y-135455952D01*
X167286905Y-135265476D01*
X167334524Y-135170238D01*
X167429762Y-135075000D01*
X167572620Y-135027381D01*
X167667858Y-135027381D01*
X167810715Y-135075000D01*
X167858334Y-135122619D01*
X168715477Y-135027381D02*
X168525000Y-135027381D01*
X168429762Y-135075000D01*
X168382143Y-135122619D01*
X168286905Y-135265476D01*
X168239286Y-135455952D01*
X168239286Y-135836905D01*
X168286905Y-135932143D01*
X168334524Y-135979762D01*
X168429762Y-136027381D01*
X168620239Y-136027381D01*
X168715477Y-135979762D01*
X168763096Y-135932143D01*
X168810715Y-135836905D01*
X168810715Y-135598810D01*
X168763096Y-135503571D01*
X168715477Y-135455952D01*
X168620239Y-135408333D01*
X168429762Y-135408333D01*
X168334524Y-135455952D01*
X168286905Y-135503571D01*
X168239286Y-135598810D01*
X157857143Y-135557143D02*
X157809524Y-135604762D01*
X157666667Y-135652381D01*
X157571429Y-135652381D01*
X157428571Y-135604762D01*
X157333333Y-135509524D01*
X157285714Y-135414286D01*
X157238095Y-135223810D01*
X157238095Y-135080952D01*
X157285714Y-134890476D01*
X157333333Y-134795238D01*
X157428571Y-134700000D01*
X157571429Y-134652381D01*
X157666667Y-134652381D01*
X157809524Y-134700000D01*
X157857143Y-134747619D01*
X158809524Y-135652381D02*
X158238095Y-135652381D01*
X158523809Y-135652381D02*
X158523809Y-134652381D01*
X158428571Y-134795238D01*
X158333333Y-134890476D01*
X158238095Y-134938095D01*
X159666667Y-134652381D02*
X159476190Y-134652381D01*
X159380952Y-134700000D01*
X159333333Y-134747619D01*
X159238095Y-134890476D01*
X159190476Y-135080952D01*
X159190476Y-135461905D01*
X159238095Y-135557143D01*
X159285714Y-135604762D01*
X159380952Y-135652381D01*
X159571429Y-135652381D01*
X159666667Y-135604762D01*
X159714286Y-135557143D01*
X159761905Y-135461905D01*
X159761905Y-135223810D01*
X159714286Y-135128571D01*
X159666667Y-135080952D01*
X159571429Y-135033333D01*
X159380952Y-135033333D01*
X159285714Y-135080952D01*
X159238095Y-135128571D01*
X159190476Y-135223810D01*
X151532143Y-135607143D02*
X151484524Y-135654762D01*
X151341667Y-135702381D01*
X151246429Y-135702381D01*
X151103571Y-135654762D01*
X151008333Y-135559524D01*
X150960714Y-135464286D01*
X150913095Y-135273810D01*
X150913095Y-135130952D01*
X150960714Y-134940476D01*
X151008333Y-134845238D01*
X151103571Y-134750000D01*
X151246429Y-134702381D01*
X151341667Y-134702381D01*
X151484524Y-134750000D01*
X151532143Y-134797619D01*
X151913095Y-134797619D02*
X151960714Y-134750000D01*
X152055952Y-134702381D01*
X152294048Y-134702381D01*
X152389286Y-134750000D01*
X152436905Y-134797619D01*
X152484524Y-134892857D01*
X152484524Y-134988095D01*
X152436905Y-135130952D01*
X151865476Y-135702381D01*
X152484524Y-135702381D01*
X152817857Y-134702381D02*
X153436905Y-134702381D01*
X153103571Y-135083333D01*
X153246429Y-135083333D01*
X153341667Y-135130952D01*
X153389286Y-135178571D01*
X153436905Y-135273810D01*
X153436905Y-135511905D01*
X153389286Y-135607143D01*
X153341667Y-135654762D01*
X153246429Y-135702381D01*
X152960714Y-135702381D01*
X152865476Y-135654762D01*
X152817857Y-135607143D01*
X128297143Y-146177143D02*
X128249524Y-146224762D01*
X128106667Y-146272381D01*
X128011429Y-146272381D01*
X127868571Y-146224762D01*
X127773333Y-146129524D01*
X127725714Y-146034286D01*
X127678095Y-145843810D01*
X127678095Y-145700952D01*
X127725714Y-145510476D01*
X127773333Y-145415238D01*
X127868571Y-145320000D01*
X128011429Y-145272381D01*
X128106667Y-145272381D01*
X128249524Y-145320000D01*
X128297143Y-145367619D01*
X128630476Y-145272381D02*
X129249524Y-145272381D01*
X128916190Y-145653333D01*
X129059048Y-145653333D01*
X129154286Y-145700952D01*
X129201905Y-145748571D01*
X129249524Y-145843810D01*
X129249524Y-146081905D01*
X129201905Y-146177143D01*
X129154286Y-146224762D01*
X129059048Y-146272381D01*
X128773333Y-146272381D01*
X128678095Y-146224762D01*
X128630476Y-146177143D01*
X129582857Y-145272381D02*
X130249524Y-145272381D01*
X129820952Y-146272381D01*
X147677143Y-145057143D02*
X147629524Y-145104762D01*
X147486667Y-145152381D01*
X147391429Y-145152381D01*
X147248571Y-145104762D01*
X147153333Y-145009524D01*
X147105714Y-144914286D01*
X147058095Y-144723810D01*
X147058095Y-144580952D01*
X147105714Y-144390476D01*
X147153333Y-144295238D01*
X147248571Y-144200000D01*
X147391429Y-144152381D01*
X147486667Y-144152381D01*
X147629524Y-144200000D01*
X147677143Y-144247619D01*
X148010476Y-144152381D02*
X148629524Y-144152381D01*
X148296190Y-144533333D01*
X148439048Y-144533333D01*
X148534286Y-144580952D01*
X148581905Y-144628571D01*
X148629524Y-144723810D01*
X148629524Y-144961905D01*
X148581905Y-145057143D01*
X148534286Y-145104762D01*
X148439048Y-145152381D01*
X148153333Y-145152381D01*
X148058095Y-145104762D01*
X148010476Y-145057143D01*
X149105714Y-145152381D02*
X149296190Y-145152381D01*
X149391429Y-145104762D01*
X149439048Y-145057143D01*
X149534286Y-144914286D01*
X149581905Y-144723810D01*
X149581905Y-144342857D01*
X149534286Y-144247619D01*
X149486667Y-144200000D01*
X149391429Y-144152381D01*
X149200952Y-144152381D01*
X149105714Y-144200000D01*
X149058095Y-144247619D01*
X149010476Y-144342857D01*
X149010476Y-144580952D01*
X149058095Y-144676190D01*
X149105714Y-144723810D01*
X149200952Y-144771429D01*
X149391429Y-144771429D01*
X149486667Y-144723810D01*
X149534286Y-144676190D01*
X149581905Y-144580952D01*
X118967143Y-143272857D02*
X119014762Y-143320476D01*
X119062381Y-143463333D01*
X119062381Y-143558571D01*
X119014762Y-143701429D01*
X118919524Y-143796667D01*
X118824286Y-143844286D01*
X118633810Y-143891905D01*
X118490952Y-143891905D01*
X118300476Y-143844286D01*
X118205238Y-143796667D01*
X118110000Y-143701429D01*
X118062381Y-143558571D01*
X118062381Y-143463333D01*
X118110000Y-143320476D01*
X118157619Y-143272857D01*
X118395714Y-142415714D02*
X119062381Y-142415714D01*
X118014762Y-142653810D02*
X118729048Y-142891905D01*
X118729048Y-142272857D01*
X118062381Y-141701429D02*
X118062381Y-141606190D01*
X118110000Y-141510952D01*
X118157619Y-141463333D01*
X118252857Y-141415714D01*
X118443333Y-141368095D01*
X118681429Y-141368095D01*
X118871905Y-141415714D01*
X118967143Y-141463333D01*
X119014762Y-141510952D01*
X119062381Y-141606190D01*
X119062381Y-141701429D01*
X119014762Y-141796667D01*
X118967143Y-141844286D01*
X118871905Y-141891905D01*
X118681429Y-141939524D01*
X118443333Y-141939524D01*
X118252857Y-141891905D01*
X118157619Y-141844286D01*
X118110000Y-141796667D01*
X118062381Y-141701429D01*
X123532143Y-145082143D02*
X123484524Y-145129762D01*
X123341667Y-145177381D01*
X123246429Y-145177381D01*
X123103571Y-145129762D01*
X123008333Y-145034524D01*
X122960714Y-144939286D01*
X122913095Y-144748810D01*
X122913095Y-144605952D01*
X122960714Y-144415476D01*
X123008333Y-144320238D01*
X123103571Y-144225000D01*
X123246429Y-144177381D01*
X123341667Y-144177381D01*
X123484524Y-144225000D01*
X123532143Y-144272619D01*
X124389286Y-144510714D02*
X124389286Y-145177381D01*
X124151190Y-144129762D02*
X123913095Y-144844048D01*
X124532143Y-144844048D01*
X124865476Y-144272619D02*
X124913095Y-144225000D01*
X125008333Y-144177381D01*
X125246429Y-144177381D01*
X125341667Y-144225000D01*
X125389286Y-144272619D01*
X125436905Y-144367857D01*
X125436905Y-144463095D01*
X125389286Y-144605952D01*
X124817857Y-145177381D01*
X125436905Y-145177381D01*
X139132143Y-135542857D02*
X139179762Y-135590476D01*
X139227381Y-135733333D01*
X139227381Y-135828571D01*
X139179762Y-135971429D01*
X139084524Y-136066667D01*
X138989286Y-136114286D01*
X138798810Y-136161905D01*
X138655952Y-136161905D01*
X138465476Y-136114286D01*
X138370238Y-136066667D01*
X138275000Y-135971429D01*
X138227381Y-135828571D01*
X138227381Y-135733333D01*
X138275000Y-135590476D01*
X138322619Y-135542857D01*
X138560714Y-134685714D02*
X139227381Y-134685714D01*
X138179762Y-134923810D02*
X138894048Y-135161905D01*
X138894048Y-134542857D01*
X138227381Y-134257143D02*
X138227381Y-133638095D01*
X138608333Y-133971429D01*
X138608333Y-133828571D01*
X138655952Y-133733333D01*
X138703571Y-133685714D01*
X138798810Y-133638095D01*
X139036905Y-133638095D01*
X139132143Y-133685714D01*
X139179762Y-133733333D01*
X139227381Y-133828571D01*
X139227381Y-134114286D01*
X139179762Y-134209524D01*
X139132143Y-134257143D01*
X151347619Y-118395238D02*
X151300000Y-118490476D01*
X151204762Y-118585714D01*
X151061905Y-118728571D01*
X151014286Y-118823810D01*
X151014286Y-118919048D01*
X151252381Y-118871429D02*
X151204762Y-118966667D01*
X151109524Y-119061905D01*
X150919048Y-119109524D01*
X150585714Y-119109524D01*
X150395238Y-119061905D01*
X150300000Y-118966667D01*
X150252381Y-118871429D01*
X150252381Y-118680952D01*
X150300000Y-118585714D01*
X150395238Y-118490476D01*
X150585714Y-118442857D01*
X150919048Y-118442857D01*
X151109524Y-118490476D01*
X151204762Y-118585714D01*
X151252381Y-118680952D01*
X151252381Y-118871429D01*
X150252381Y-118109524D02*
X150252381Y-117490476D01*
X150633333Y-117823810D01*
X150633333Y-117680952D01*
X150680952Y-117585714D01*
X150728571Y-117538095D01*
X150823810Y-117490476D01*
X151061905Y-117490476D01*
X151157143Y-117538095D01*
X151204762Y-117585714D01*
X151252381Y-117680952D01*
X151252381Y-117966667D01*
X151204762Y-118061905D01*
X151157143Y-118109524D01*
X151247619Y-122295238D02*
X151200000Y-122390476D01*
X151104762Y-122485714D01*
X150961905Y-122628571D01*
X150914286Y-122723810D01*
X150914286Y-122819048D01*
X151152381Y-122771429D02*
X151104762Y-122866667D01*
X151009524Y-122961905D01*
X150819048Y-123009524D01*
X150485714Y-123009524D01*
X150295238Y-122961905D01*
X150200000Y-122866667D01*
X150152381Y-122771429D01*
X150152381Y-122580952D01*
X150200000Y-122485714D01*
X150295238Y-122390476D01*
X150485714Y-122342857D01*
X150819048Y-122342857D01*
X151009524Y-122390476D01*
X151104762Y-122485714D01*
X151152381Y-122580952D01*
X151152381Y-122771429D01*
X150152381Y-121438095D02*
X150152381Y-121914286D01*
X150628571Y-121961905D01*
X150580952Y-121914286D01*
X150533333Y-121819048D01*
X150533333Y-121580952D01*
X150580952Y-121485714D01*
X150628571Y-121438095D01*
X150723810Y-121390476D01*
X150961905Y-121390476D01*
X151057143Y-121438095D01*
X151104762Y-121485714D01*
X151152381Y-121580952D01*
X151152381Y-121819048D01*
X151104762Y-121914286D01*
X151057143Y-121961905D01*
X151147619Y-126571428D02*
X151100000Y-126666666D01*
X151004762Y-126761904D01*
X150861905Y-126904761D01*
X150814286Y-127000000D01*
X150814286Y-127095238D01*
X151052381Y-127047619D02*
X151004762Y-127142857D01*
X150909524Y-127238095D01*
X150719048Y-127285714D01*
X150385714Y-127285714D01*
X150195238Y-127238095D01*
X150100000Y-127142857D01*
X150052381Y-127047619D01*
X150052381Y-126857142D01*
X150100000Y-126761904D01*
X150195238Y-126666666D01*
X150385714Y-126619047D01*
X150719048Y-126619047D01*
X150909524Y-126666666D01*
X151004762Y-126761904D01*
X151052381Y-126857142D01*
X151052381Y-127047619D01*
X151052381Y-125666666D02*
X151052381Y-126238095D01*
X151052381Y-125952381D02*
X150052381Y-125952381D01*
X150195238Y-126047619D01*
X150290476Y-126142857D01*
X150338095Y-126238095D01*
X150052381Y-125047619D02*
X150052381Y-124952380D01*
X150100000Y-124857142D01*
X150147619Y-124809523D01*
X150242857Y-124761904D01*
X150433333Y-124714285D01*
X150671429Y-124714285D01*
X150861905Y-124761904D01*
X150957143Y-124809523D01*
X151004762Y-124857142D01*
X151052381Y-124952380D01*
X151052381Y-125047619D01*
X151004762Y-125142857D01*
X150957143Y-125190476D01*
X150861905Y-125238095D01*
X150671429Y-125285714D01*
X150433333Y-125285714D01*
X150242857Y-125238095D01*
X150147619Y-125190476D01*
X150100000Y-125142857D01*
X150052381Y-125047619D01*
X151147619Y-130371428D02*
X151100000Y-130466666D01*
X151004762Y-130561904D01*
X150861905Y-130704761D01*
X150814286Y-130800000D01*
X150814286Y-130895238D01*
X151052381Y-130847619D02*
X151004762Y-130942857D01*
X150909524Y-131038095D01*
X150719048Y-131085714D01*
X150385714Y-131085714D01*
X150195238Y-131038095D01*
X150100000Y-130942857D01*
X150052381Y-130847619D01*
X150052381Y-130657142D01*
X150100000Y-130561904D01*
X150195238Y-130466666D01*
X150385714Y-130419047D01*
X150719048Y-130419047D01*
X150909524Y-130466666D01*
X151004762Y-130561904D01*
X151052381Y-130657142D01*
X151052381Y-130847619D01*
X151052381Y-129466666D02*
X151052381Y-130038095D01*
X151052381Y-129752381D02*
X150052381Y-129752381D01*
X150195238Y-129847619D01*
X150290476Y-129942857D01*
X150338095Y-130038095D01*
X151052381Y-128514285D02*
X151052381Y-129085714D01*
X151052381Y-128800000D02*
X150052381Y-128800000D01*
X150195238Y-128895238D01*
X150290476Y-128990476D01*
X150338095Y-129085714D01*
X130253572Y-144122619D02*
X130158334Y-144075000D01*
X130063096Y-143979762D01*
X129920239Y-143836905D01*
X129825000Y-143789286D01*
X129729762Y-143789286D01*
X129777381Y-144027381D02*
X129682143Y-143979762D01*
X129586905Y-143884524D01*
X129539286Y-143694048D01*
X129539286Y-143360714D01*
X129586905Y-143170238D01*
X129682143Y-143075000D01*
X129777381Y-143027381D01*
X129967858Y-143027381D01*
X130063096Y-143075000D01*
X130158334Y-143170238D01*
X130205953Y-143360714D01*
X130205953Y-143694048D01*
X130158334Y-143884524D01*
X130063096Y-143979762D01*
X129967858Y-144027381D01*
X129777381Y-144027381D01*
X131158334Y-144027381D02*
X130586905Y-144027381D01*
X130872619Y-144027381D02*
X130872619Y-143027381D01*
X130777381Y-143170238D01*
X130682143Y-143265476D01*
X130586905Y-143313095D01*
X131539286Y-143122619D02*
X131586905Y-143075000D01*
X131682143Y-143027381D01*
X131920239Y-143027381D01*
X132015477Y-143075000D01*
X132063096Y-143122619D01*
X132110715Y-143217857D01*
X132110715Y-143313095D01*
X132063096Y-143455952D01*
X131491667Y-144027381D01*
X132110715Y-144027381D01*
X155677381Y-117966666D02*
X155201190Y-118300000D01*
X155677381Y-118538095D02*
X154677381Y-118538095D01*
X154677381Y-118157142D01*
X154725000Y-118061904D01*
X154772619Y-118014285D01*
X154867857Y-117966666D01*
X155010714Y-117966666D01*
X155105952Y-118014285D01*
X155153571Y-118061904D01*
X155201190Y-118157142D01*
X155201190Y-118538095D01*
X154772619Y-117585714D02*
X154725000Y-117538095D01*
X154677381Y-117442857D01*
X154677381Y-117204761D01*
X154725000Y-117109523D01*
X154772619Y-117061904D01*
X154867857Y-117014285D01*
X154963095Y-117014285D01*
X155105952Y-117061904D01*
X155677381Y-117633333D01*
X155677381Y-117014285D01*
X143257143Y-132477381D02*
X142923809Y-132001190D01*
X142685714Y-132477381D02*
X142685714Y-131477381D01*
X143066667Y-131477381D01*
X143161905Y-131525000D01*
X143209524Y-131572619D01*
X143257143Y-131667857D01*
X143257143Y-131810714D01*
X143209524Y-131905952D01*
X143161905Y-131953571D01*
X143066667Y-132001190D01*
X142685714Y-132001190D01*
X144209524Y-132477381D02*
X143638095Y-132477381D01*
X143923809Y-132477381D02*
X143923809Y-131477381D01*
X143828571Y-131620238D01*
X143733333Y-131715476D01*
X143638095Y-131763095D01*
X144828571Y-131477381D02*
X144923810Y-131477381D01*
X145019048Y-131525000D01*
X145066667Y-131572619D01*
X145114286Y-131667857D01*
X145161905Y-131858333D01*
X145161905Y-132096429D01*
X145114286Y-132286905D01*
X145066667Y-132382143D01*
X145019048Y-132429762D01*
X144923810Y-132477381D01*
X144828571Y-132477381D01*
X144733333Y-132429762D01*
X144685714Y-132382143D01*
X144638095Y-132286905D01*
X144590476Y-132096429D01*
X144590476Y-131858333D01*
X144638095Y-131667857D01*
X144685714Y-131572619D01*
X144733333Y-131525000D01*
X144828571Y-131477381D01*
X136302381Y-127267857D02*
X135826190Y-127601191D01*
X136302381Y-127839286D02*
X135302381Y-127839286D01*
X135302381Y-127458333D01*
X135350000Y-127363095D01*
X135397619Y-127315476D01*
X135492857Y-127267857D01*
X135635714Y-127267857D01*
X135730952Y-127315476D01*
X135778571Y-127363095D01*
X135826190Y-127458333D01*
X135826190Y-127839286D01*
X135397619Y-126886905D02*
X135350000Y-126839286D01*
X135302381Y-126744048D01*
X135302381Y-126505952D01*
X135350000Y-126410714D01*
X135397619Y-126363095D01*
X135492857Y-126315476D01*
X135588095Y-126315476D01*
X135730952Y-126363095D01*
X136302381Y-126934524D01*
X136302381Y-126315476D01*
X135397619Y-125934524D02*
X135350000Y-125886905D01*
X135302381Y-125791667D01*
X135302381Y-125553571D01*
X135350000Y-125458333D01*
X135397619Y-125410714D01*
X135492857Y-125363095D01*
X135588095Y-125363095D01*
X135730952Y-125410714D01*
X136302381Y-125982143D01*
X136302381Y-125363095D01*
X131602381Y-127017857D02*
X131126190Y-127351191D01*
X131602381Y-127589286D02*
X130602381Y-127589286D01*
X130602381Y-127208333D01*
X130650000Y-127113095D01*
X130697619Y-127065476D01*
X130792857Y-127017857D01*
X130935714Y-127017857D01*
X131030952Y-127065476D01*
X131078571Y-127113095D01*
X131126190Y-127208333D01*
X131126190Y-127589286D01*
X130697619Y-126636905D02*
X130650000Y-126589286D01*
X130602381Y-126494048D01*
X130602381Y-126255952D01*
X130650000Y-126160714D01*
X130697619Y-126113095D01*
X130792857Y-126065476D01*
X130888095Y-126065476D01*
X131030952Y-126113095D01*
X131602381Y-126684524D01*
X131602381Y-126065476D01*
X130602381Y-125732143D02*
X130602381Y-125113095D01*
X130983333Y-125446429D01*
X130983333Y-125303571D01*
X131030952Y-125208333D01*
X131078571Y-125160714D01*
X131173810Y-125113095D01*
X131411905Y-125113095D01*
X131507143Y-125160714D01*
X131554762Y-125208333D01*
X131602381Y-125303571D01*
X131602381Y-125589286D01*
X131554762Y-125684524D01*
X131507143Y-125732143D01*
X136452381Y-141592857D02*
X135976190Y-141926191D01*
X136452381Y-142164286D02*
X135452381Y-142164286D01*
X135452381Y-141783333D01*
X135500000Y-141688095D01*
X135547619Y-141640476D01*
X135642857Y-141592857D01*
X135785714Y-141592857D01*
X135880952Y-141640476D01*
X135928571Y-141688095D01*
X135976190Y-141783333D01*
X135976190Y-142164286D01*
X135547619Y-141211905D02*
X135500000Y-141164286D01*
X135452381Y-141069048D01*
X135452381Y-140830952D01*
X135500000Y-140735714D01*
X135547619Y-140688095D01*
X135642857Y-140640476D01*
X135738095Y-140640476D01*
X135880952Y-140688095D01*
X136452381Y-141259524D01*
X136452381Y-140640476D01*
X135785714Y-139783333D02*
X136452381Y-139783333D01*
X135404762Y-140021429D02*
X136119048Y-140259524D01*
X136119048Y-139640476D01*
X124082143Y-126377381D02*
X123748809Y-125901190D01*
X123510714Y-126377381D02*
X123510714Y-125377381D01*
X123891667Y-125377381D01*
X123986905Y-125425000D01*
X124034524Y-125472619D01*
X124082143Y-125567857D01*
X124082143Y-125710714D01*
X124034524Y-125805952D01*
X123986905Y-125853571D01*
X123891667Y-125901190D01*
X123510714Y-125901190D01*
X124463095Y-125472619D02*
X124510714Y-125425000D01*
X124605952Y-125377381D01*
X124844048Y-125377381D01*
X124939286Y-125425000D01*
X124986905Y-125472619D01*
X125034524Y-125567857D01*
X125034524Y-125663095D01*
X124986905Y-125805952D01*
X124415476Y-126377381D01*
X125034524Y-126377381D01*
X125939286Y-125377381D02*
X125463095Y-125377381D01*
X125415476Y-125853571D01*
X125463095Y-125805952D01*
X125558333Y-125758333D01*
X125796429Y-125758333D01*
X125891667Y-125805952D01*
X125939286Y-125853571D01*
X125986905Y-125948810D01*
X125986905Y-126186905D01*
X125939286Y-126282143D01*
X125891667Y-126329762D01*
X125796429Y-126377381D01*
X125558333Y-126377381D01*
X125463095Y-126329762D01*
X125415476Y-126282143D01*
X133557143Y-138277381D02*
X133223809Y-137801190D01*
X132985714Y-138277381D02*
X132985714Y-137277381D01*
X133366667Y-137277381D01*
X133461905Y-137325000D01*
X133509524Y-137372619D01*
X133557143Y-137467857D01*
X133557143Y-137610714D01*
X133509524Y-137705952D01*
X133461905Y-137753571D01*
X133366667Y-137801190D01*
X132985714Y-137801190D01*
X133938095Y-137372619D02*
X133985714Y-137325000D01*
X134080952Y-137277381D01*
X134319048Y-137277381D01*
X134414286Y-137325000D01*
X134461905Y-137372619D01*
X134509524Y-137467857D01*
X134509524Y-137563095D01*
X134461905Y-137705952D01*
X133890476Y-138277381D01*
X134509524Y-138277381D01*
X135366667Y-137277381D02*
X135176190Y-137277381D01*
X135080952Y-137325000D01*
X135033333Y-137372619D01*
X134938095Y-137515476D01*
X134890476Y-137705952D01*
X134890476Y-138086905D01*
X134938095Y-138182143D01*
X134985714Y-138229762D01*
X135080952Y-138277381D01*
X135271429Y-138277381D01*
X135366667Y-138229762D01*
X135414286Y-138182143D01*
X135461905Y-138086905D01*
X135461905Y-137848810D01*
X135414286Y-137753571D01*
X135366667Y-137705952D01*
X135271429Y-137658333D01*
X135080952Y-137658333D01*
X134985714Y-137705952D01*
X134938095Y-137753571D01*
X134890476Y-137848810D01*
X129802381Y-134467857D02*
X129326190Y-134801191D01*
X129802381Y-135039286D02*
X128802381Y-135039286D01*
X128802381Y-134658333D01*
X128850000Y-134563095D01*
X128897619Y-134515476D01*
X128992857Y-134467857D01*
X129135714Y-134467857D01*
X129230952Y-134515476D01*
X129278571Y-134563095D01*
X129326190Y-134658333D01*
X129326190Y-135039286D01*
X129802381Y-133515476D02*
X129802381Y-134086905D01*
X129802381Y-133801191D02*
X128802381Y-133801191D01*
X128945238Y-133896429D01*
X129040476Y-133991667D01*
X129088095Y-134086905D01*
X128802381Y-132658333D02*
X128802381Y-132848810D01*
X128850000Y-132944048D01*
X128897619Y-132991667D01*
X129040476Y-133086905D01*
X129230952Y-133134524D01*
X129611905Y-133134524D01*
X129707143Y-133086905D01*
X129754762Y-133039286D01*
X129802381Y-132944048D01*
X129802381Y-132753571D01*
X129754762Y-132658333D01*
X129707143Y-132610714D01*
X129611905Y-132563095D01*
X129373810Y-132563095D01*
X129278571Y-132610714D01*
X129230952Y-132658333D01*
X129183333Y-132753571D01*
X129183333Y-132944048D01*
X129230952Y-133039286D01*
X129278571Y-133086905D01*
X129373810Y-133134524D01*
X146957143Y-70757143D02*
X146909524Y-70804762D01*
X146766667Y-70852381D01*
X146671429Y-70852381D01*
X146528571Y-70804762D01*
X146433333Y-70709524D01*
X146385714Y-70614286D01*
X146338095Y-70423810D01*
X146338095Y-70280952D01*
X146385714Y-70090476D01*
X146433333Y-69995238D01*
X146528571Y-69900000D01*
X146671429Y-69852381D01*
X146766667Y-69852381D01*
X146909524Y-69900000D01*
X146957143Y-69947619D01*
X147814286Y-70185714D02*
X147814286Y-70852381D01*
X147576190Y-69804762D02*
X147338095Y-70519048D01*
X147957143Y-70519048D01*
X148766667Y-69852381D02*
X148576190Y-69852381D01*
X148480952Y-69900000D01*
X148433333Y-69947619D01*
X148338095Y-70090476D01*
X148290476Y-70280952D01*
X148290476Y-70661905D01*
X148338095Y-70757143D01*
X148385714Y-70804762D01*
X148480952Y-70852381D01*
X148671429Y-70852381D01*
X148766667Y-70804762D01*
X148814286Y-70757143D01*
X148861905Y-70661905D01*
X148861905Y-70423810D01*
X148814286Y-70328571D01*
X148766667Y-70280952D01*
X148671429Y-70233333D01*
X148480952Y-70233333D01*
X148385714Y-70280952D01*
X148338095Y-70328571D01*
X148290476Y-70423810D01*
X161357143Y-72242857D02*
X161404762Y-72290476D01*
X161452381Y-72433333D01*
X161452381Y-72528571D01*
X161404762Y-72671429D01*
X161309524Y-72766667D01*
X161214286Y-72814286D01*
X161023810Y-72861905D01*
X160880952Y-72861905D01*
X160690476Y-72814286D01*
X160595238Y-72766667D01*
X160500000Y-72671429D01*
X160452381Y-72528571D01*
X160452381Y-72433333D01*
X160500000Y-72290476D01*
X160547619Y-72242857D01*
X160452381Y-71338095D02*
X160452381Y-71814286D01*
X160928571Y-71861905D01*
X160880952Y-71814286D01*
X160833333Y-71719048D01*
X160833333Y-71480952D01*
X160880952Y-71385714D01*
X160928571Y-71338095D01*
X161023810Y-71290476D01*
X161261905Y-71290476D01*
X161357143Y-71338095D01*
X161404762Y-71385714D01*
X161452381Y-71480952D01*
X161452381Y-71719048D01*
X161404762Y-71814286D01*
X161357143Y-71861905D01*
X160452381Y-70671429D02*
X160452381Y-70576190D01*
X160500000Y-70480952D01*
X160547619Y-70433333D01*
X160642857Y-70385714D01*
X160833333Y-70338095D01*
X161071429Y-70338095D01*
X161261905Y-70385714D01*
X161357143Y-70433333D01*
X161404762Y-70480952D01*
X161452381Y-70576190D01*
X161452381Y-70671429D01*
X161404762Y-70766667D01*
X161357143Y-70814286D01*
X161261905Y-70861905D01*
X161071429Y-70909524D01*
X160833333Y-70909524D01*
X160642857Y-70861905D01*
X160547619Y-70814286D01*
X160500000Y-70766667D01*
X160452381Y-70671429D01*
X165557143Y-72242857D02*
X165604762Y-72290476D01*
X165652381Y-72433333D01*
X165652381Y-72528571D01*
X165604762Y-72671429D01*
X165509524Y-72766667D01*
X165414286Y-72814286D01*
X165223810Y-72861905D01*
X165080952Y-72861905D01*
X164890476Y-72814286D01*
X164795238Y-72766667D01*
X164700000Y-72671429D01*
X164652381Y-72528571D01*
X164652381Y-72433333D01*
X164700000Y-72290476D01*
X164747619Y-72242857D01*
X164652381Y-71338095D02*
X164652381Y-71814286D01*
X165128571Y-71861905D01*
X165080952Y-71814286D01*
X165033333Y-71719048D01*
X165033333Y-71480952D01*
X165080952Y-71385714D01*
X165128571Y-71338095D01*
X165223810Y-71290476D01*
X165461905Y-71290476D01*
X165557143Y-71338095D01*
X165604762Y-71385714D01*
X165652381Y-71480952D01*
X165652381Y-71719048D01*
X165604762Y-71814286D01*
X165557143Y-71861905D01*
X164985714Y-70433333D02*
X165652381Y-70433333D01*
X164604762Y-70671429D02*
X165319048Y-70909524D01*
X165319048Y-70290476D01*
X152357143Y-72042857D02*
X152404762Y-72090476D01*
X152452381Y-72233333D01*
X152452381Y-72328571D01*
X152404762Y-72471429D01*
X152309524Y-72566667D01*
X152214286Y-72614286D01*
X152023810Y-72661905D01*
X151880952Y-72661905D01*
X151690476Y-72614286D01*
X151595238Y-72566667D01*
X151500000Y-72471429D01*
X151452381Y-72328571D01*
X151452381Y-72233333D01*
X151500000Y-72090476D01*
X151547619Y-72042857D01*
X151785714Y-71185714D02*
X152452381Y-71185714D01*
X151404762Y-71423810D02*
X152119048Y-71661905D01*
X152119048Y-71042857D01*
X151880952Y-70519048D02*
X151833333Y-70614286D01*
X151785714Y-70661905D01*
X151690476Y-70709524D01*
X151642857Y-70709524D01*
X151547619Y-70661905D01*
X151500000Y-70614286D01*
X151452381Y-70519048D01*
X151452381Y-70328571D01*
X151500000Y-70233333D01*
X151547619Y-70185714D01*
X151642857Y-70138095D01*
X151690476Y-70138095D01*
X151785714Y-70185714D01*
X151833333Y-70233333D01*
X151880952Y-70328571D01*
X151880952Y-70519048D01*
X151928571Y-70614286D01*
X151976190Y-70661905D01*
X152071429Y-70709524D01*
X152261905Y-70709524D01*
X152357143Y-70661905D01*
X152404762Y-70614286D01*
X152452381Y-70519048D01*
X152452381Y-70328571D01*
X152404762Y-70233333D01*
X152357143Y-70185714D01*
X152261905Y-70138095D01*
X152071429Y-70138095D01*
X151976190Y-70185714D01*
X151928571Y-70233333D01*
X151880952Y-70328571D01*
M02*
