M48
;DRILL file {KiCad 4.0.7} date 12/26/22 11:34:20
;FORMAT={-:-/ absolute / inch / decimal}
FMAT,2
INCH,TZ
T1C0.016
T2C0.031
T3C0.035
T4C0.039
T5C0.039
T6C0.047
T7C0.059
T8C0.067
T9C0.126
%
G90
G05
M72
T1
X4.2549Y-4.6417
X4.3406Y-5.7628
X4.4498Y-5.749
X4.4498Y-5.8612
X4.503Y-5.4852
X4.5098Y-5.4193
X4.5157Y-5.2677
X4.6299Y-5.2913
X4.7057Y-5.6988
X4.7441Y-5.497
X4.7549Y-4.6663
X4.8563Y-4.564
X4.8957Y-4.5128
X4.9252Y-4.6329
X5.1811Y-4.8898
X5.4163Y-5.0108
X5.497Y-5.3091
X5.5817Y-4.3593
X5.6122Y-5.0423
X5.6348Y-5.3091
X5.6594Y-5.2126
X5.7392Y-5.5059
X5.7549Y-4.8337
X5.8169Y-5.0787
X5.8543Y-4.8711
X5.8563Y-4.5226
X5.8583Y-4.3937
X5.9311Y-4.9193
X5.9606Y-4.3839
X6.0463Y-4.9872
X6.0659Y-5.3652
X6.1476Y-4.5059
X6.2224Y-4.5541
X6.252Y-5.3474
X6.2697Y-5.1516
X6.2707Y-5.0305
X6.2992Y-4.688
X6.2992Y-4.8839
X6.311Y-4.4104
X6.4508Y-4.3396
X6.4695Y-5.0384
T2
X3.9931Y-4.3967
X4.0787Y-4.6949
X4.0787Y-4.7933
X4.278Y-4.748
X4.278Y-4.848
X4.278Y-4.948
X4.278Y-5.048
X4.278Y-5.148
X4.278Y-5.248
X4.278Y-5.348
X4.278Y-5.448
X4.278Y-5.548
X4.278Y-5.648
X4.278Y-5.748
X4.278Y-5.848
X4.278Y-5.948
X4.278Y-6.048
X4.278Y-6.148
X4.3868Y-4.3967
X4.5571Y-4.4459
X4.6555Y-4.4459
X4.878Y-4.748
X4.878Y-4.848
X4.878Y-4.948
X4.878Y-5.048
X4.878Y-5.148
X4.878Y-5.248
X4.878Y-5.348
X4.878Y-5.448
X4.878Y-5.548
X4.878Y-5.648
X4.878Y-5.748
X4.878Y-5.848
X4.878Y-5.948
X4.878Y-6.048
X4.878Y-6.148
X5.2136Y-4.6211
X5.4057Y-4.6211
X5.5984Y-5.6811
X5.5984Y-5.7598
X5.9478Y-4.5217
X6.0463Y-4.5217
X6.2402Y-5.5079
X6.3386Y-5.5079
X6.6132Y-4.6732
X6.6132Y-4.7732
X6.6132Y-4.8732
X6.6142Y-5.1535
X6.6142Y-5.2535
X6.6142Y-5.3535
X6.6142Y-5.5945
X6.6142Y-5.6945
X6.6142Y-5.7945
T4
X4.0394Y-4.9898
X4.0394Y-5.0898
X4.0394Y-5.1898
X4.0394Y-5.2898
X4.0394Y-5.3898
X4.0394Y-5.4898
X4.0394Y-5.5898
X4.0394Y-5.6898
X4.0394Y-5.7898
X4.0394Y-5.8898
X4.9591Y-3.9685
X5.0591Y-3.9685
X5.1289Y-5.1299
X5.1289Y-5.2299
X5.5709Y-3.9685
X5.6709Y-3.9685
X5.8465Y-3.9764
X5.8465Y-4.2764
X6.2465Y-3.9764
X6.2465Y-4.2764
X6.3465Y-3.9764
X6.3465Y-4.2764
X6.5846Y-4.3049
X6.5846Y-4.4049
X6.5846Y-4.5049
T5
X4.8701Y-4.2488
X5.0177Y-4.6161
X5.0177Y-5.0161
X5.0701Y-4.2488
X5.1969Y-4.2488
X5.3969Y-4.2488
X5.5236Y-4.2488
X5.7236Y-4.2488
X5.7323Y-4.6614
X5.7323Y-5.0614
X5.976Y-5.2767
X5.976Y-5.6767
X6.1578Y-5.1032
X6.3778Y-5.1032
T7
X4.687Y-4.061
T8
X4.587Y-3.961
X4.587Y-4.161
X4.787Y-3.961
X4.787Y-4.161
T9
X4.0945Y-4.0551
X4.0945Y-6.1417
X6.5354Y-4.0551
X6.5354Y-6.1417
T3
X5.0039Y-5.9508G85X5.0039Y-5.9783
G05
X5.1024Y-5.9508G85X5.1024Y-5.9783
G05
X5.187Y-6.1614G85X5.2146Y-6.1614
G05
X5.2992Y-5.9508G85X5.2992Y-5.9783
G05
X5.3976Y-5.9508G85X5.3976Y-5.9783
G05
X5.5039Y-5.9508G85X5.5039Y-5.9783
G05
X5.6024Y-5.9508G85X5.6024Y-5.9783
G05
X5.687Y-6.1614G85X5.7146Y-6.1614
G05
X5.7992Y-5.9508G85X5.7992Y-5.9783
G05
X5.8976Y-5.9508G85X5.8976Y-5.9783
G05
T5
X6.0355Y-5.8976G85X6.0355Y-5.8189
G05
X6.1811Y-5.7402G85X6.2598Y-5.7402
G05
X6.1811Y-5.9764G85X6.2598Y-5.9764
G05
T6
X5.0039Y-6.1614G85X5.0039Y-6.1614
G05
X5.0039Y-6.2598G85X5.0039Y-6.2598
G05
X5.2008Y-5.9646G85X5.2008Y-5.9646
G05
X5.3976Y-6.1614G85X5.3976Y-6.1614
G05
X5.3976Y-6.2598G85X5.3976Y-6.2598
G05
X5.5039Y-6.1614G85X5.5039Y-6.1614
G05
X5.5039Y-6.2598G85X5.5039Y-6.2598
G05
X5.7008Y-5.9646G85X5.7008Y-5.9646
G05
X5.8976Y-6.1614G85X5.8976Y-6.1614
G05
X5.8976Y-6.2598G85X5.8976Y-6.2598
G05
T0
M30
