G04 #@! TF.FileFunction,Legend,Bot*
%FSLAX46Y46*%
G04 Gerber Fmt 4.6, Leading zero omitted, Abs format (unit mm)*
G04 Created by KiCad (PCBNEW 4.0.7) date 05/26/22 10:22:03*
%MOMM*%
%LPD*%
G01*
G04 APERTURE LIST*
%ADD10C,0.100000*%
%ADD11C,0.120000*%
%ADD12C,0.150000*%
G04 APERTURE END LIST*
D10*
D11*
X129710000Y-100930000D02*
X129710000Y-98270000D01*
X139930000Y-100930000D02*
X129710000Y-100930000D01*
X139930000Y-98270000D02*
X129710000Y-98270000D01*
X139930000Y-100930000D02*
X139930000Y-98270000D01*
X141200000Y-100930000D02*
X142530000Y-100930000D01*
X142530000Y-100930000D02*
X142530000Y-99600000D01*
X146480000Y-69490000D02*
G75*
G03X146480000Y-71490000I0J-1000000D01*
G01*
X146480000Y-71490000D02*
X146480000Y-73140000D01*
X146480000Y-73140000D02*
X141280000Y-73140000D01*
X141280000Y-73140000D02*
X141280000Y-67840000D01*
X141280000Y-67840000D02*
X146480000Y-67840000D01*
X146480000Y-67840000D02*
X146480000Y-69490000D01*
X118950000Y-54630000D02*
X118950000Y-51970000D01*
X126630000Y-54630000D02*
X118950000Y-54630000D01*
X126630000Y-51970000D02*
X118950000Y-51970000D01*
X126630000Y-54630000D02*
X126630000Y-51970000D01*
X127900000Y-54630000D02*
X129230000Y-54630000D01*
X129230000Y-54630000D02*
X129230000Y-53300000D01*
X120870864Y-97467820D02*
G75*
G02X120870000Y-91432518I1179136J3017820D01*
G01*
X123229136Y-97467820D02*
G75*
G03X123230000Y-91432518I-1179136J3017820D01*
G01*
X123229136Y-97467820D02*
G75*
G02X120870000Y-97467482I-1179136J3017820D01*
G01*
X118850000Y-94450000D02*
X125250000Y-94450000D01*
X118850000Y-94490000D02*
X125250000Y-94490000D01*
X118850000Y-94530000D02*
X125250000Y-94530000D01*
X118852000Y-94570000D02*
X125248000Y-94570000D01*
X118853000Y-94610000D02*
X125247000Y-94610000D01*
X118856000Y-94650000D02*
X125244000Y-94650000D01*
X118858000Y-94690000D02*
X125242000Y-94690000D01*
X118862000Y-94730000D02*
X121070000Y-94730000D01*
X123030000Y-94730000D02*
X125238000Y-94730000D01*
X118865000Y-94770000D02*
X121070000Y-94770000D01*
X123030000Y-94770000D02*
X125235000Y-94770000D01*
X118870000Y-94810000D02*
X121070000Y-94810000D01*
X123030000Y-94810000D02*
X125230000Y-94810000D01*
X118874000Y-94850000D02*
X121070000Y-94850000D01*
X123030000Y-94850000D02*
X125226000Y-94850000D01*
X118880000Y-94890000D02*
X121070000Y-94890000D01*
X123030000Y-94890000D02*
X125220000Y-94890000D01*
X118885000Y-94930000D02*
X121070000Y-94930000D01*
X123030000Y-94930000D02*
X125215000Y-94930000D01*
X118892000Y-94970000D02*
X121070000Y-94970000D01*
X123030000Y-94970000D02*
X125208000Y-94970000D01*
X118898000Y-95010000D02*
X121070000Y-95010000D01*
X123030000Y-95010000D02*
X125202000Y-95010000D01*
X118906000Y-95050000D02*
X121070000Y-95050000D01*
X123030000Y-95050000D02*
X125194000Y-95050000D01*
X118913000Y-95090000D02*
X121070000Y-95090000D01*
X123030000Y-95090000D02*
X125187000Y-95090000D01*
X118922000Y-95130000D02*
X121070000Y-95130000D01*
X123030000Y-95130000D02*
X125178000Y-95130000D01*
X118931000Y-95171000D02*
X121070000Y-95171000D01*
X123030000Y-95171000D02*
X125169000Y-95171000D01*
X118940000Y-95211000D02*
X121070000Y-95211000D01*
X123030000Y-95211000D02*
X125160000Y-95211000D01*
X118950000Y-95251000D02*
X121070000Y-95251000D01*
X123030000Y-95251000D02*
X125150000Y-95251000D01*
X118960000Y-95291000D02*
X121070000Y-95291000D01*
X123030000Y-95291000D02*
X125140000Y-95291000D01*
X118971000Y-95331000D02*
X121070000Y-95331000D01*
X123030000Y-95331000D02*
X125129000Y-95331000D01*
X118983000Y-95371000D02*
X121070000Y-95371000D01*
X123030000Y-95371000D02*
X125117000Y-95371000D01*
X118995000Y-95411000D02*
X121070000Y-95411000D01*
X123030000Y-95411000D02*
X125105000Y-95411000D01*
X119008000Y-95451000D02*
X121070000Y-95451000D01*
X123030000Y-95451000D02*
X125092000Y-95451000D01*
X119021000Y-95491000D02*
X121070000Y-95491000D01*
X123030000Y-95491000D02*
X125079000Y-95491000D01*
X119035000Y-95531000D02*
X121070000Y-95531000D01*
X123030000Y-95531000D02*
X125065000Y-95531000D01*
X119049000Y-95571000D02*
X121070000Y-95571000D01*
X123030000Y-95571000D02*
X125051000Y-95571000D01*
X119064000Y-95611000D02*
X121070000Y-95611000D01*
X123030000Y-95611000D02*
X125036000Y-95611000D01*
X119080000Y-95651000D02*
X121070000Y-95651000D01*
X123030000Y-95651000D02*
X125020000Y-95651000D01*
X119096000Y-95691000D02*
X121070000Y-95691000D01*
X123030000Y-95691000D02*
X125004000Y-95691000D01*
X119113000Y-95731000D02*
X121070000Y-95731000D01*
X123030000Y-95731000D02*
X124987000Y-95731000D01*
X119131000Y-95771000D02*
X121070000Y-95771000D01*
X123030000Y-95771000D02*
X124969000Y-95771000D01*
X119149000Y-95811000D02*
X121070000Y-95811000D01*
X123030000Y-95811000D02*
X124951000Y-95811000D01*
X119168000Y-95851000D02*
X121070000Y-95851000D01*
X123030000Y-95851000D02*
X124932000Y-95851000D01*
X119187000Y-95891000D02*
X121070000Y-95891000D01*
X123030000Y-95891000D02*
X124913000Y-95891000D01*
X119207000Y-95931000D02*
X121070000Y-95931000D01*
X123030000Y-95931000D02*
X124893000Y-95931000D01*
X119228000Y-95971000D02*
X121070000Y-95971000D01*
X123030000Y-95971000D02*
X124872000Y-95971000D01*
X119250000Y-96011000D02*
X121070000Y-96011000D01*
X123030000Y-96011000D02*
X124850000Y-96011000D01*
X119272000Y-96051000D02*
X121070000Y-96051000D01*
X123030000Y-96051000D02*
X124828000Y-96051000D01*
X119295000Y-96091000D02*
X121070000Y-96091000D01*
X123030000Y-96091000D02*
X124805000Y-96091000D01*
X119319000Y-96131000D02*
X121070000Y-96131000D01*
X123030000Y-96131000D02*
X124781000Y-96131000D01*
X119344000Y-96171000D02*
X121070000Y-96171000D01*
X123030000Y-96171000D02*
X124756000Y-96171000D01*
X119369000Y-96211000D02*
X121070000Y-96211000D01*
X123030000Y-96211000D02*
X124731000Y-96211000D01*
X119396000Y-96251000D02*
X121070000Y-96251000D01*
X123030000Y-96251000D02*
X124704000Y-96251000D01*
X119423000Y-96291000D02*
X121070000Y-96291000D01*
X123030000Y-96291000D02*
X124677000Y-96291000D01*
X119451000Y-96331000D02*
X121070000Y-96331000D01*
X123030000Y-96331000D02*
X124649000Y-96331000D01*
X119480000Y-96371000D02*
X121070000Y-96371000D01*
X123030000Y-96371000D02*
X124620000Y-96371000D01*
X119510000Y-96411000D02*
X121070000Y-96411000D01*
X123030000Y-96411000D02*
X124590000Y-96411000D01*
X119540000Y-96451000D02*
X121070000Y-96451000D01*
X123030000Y-96451000D02*
X124560000Y-96451000D01*
X119572000Y-96491000D02*
X121070000Y-96491000D01*
X123030000Y-96491000D02*
X124528000Y-96491000D01*
X119605000Y-96531000D02*
X121070000Y-96531000D01*
X123030000Y-96531000D02*
X124495000Y-96531000D01*
X119639000Y-96571000D02*
X121070000Y-96571000D01*
X123030000Y-96571000D02*
X124461000Y-96571000D01*
X119675000Y-96611000D02*
X121070000Y-96611000D01*
X123030000Y-96611000D02*
X124425000Y-96611000D01*
X119711000Y-96651000D02*
X121070000Y-96651000D01*
X123030000Y-96651000D02*
X124389000Y-96651000D01*
X119749000Y-96691000D02*
X124351000Y-96691000D01*
X119788000Y-96731000D02*
X124312000Y-96731000D01*
X119828000Y-96771000D02*
X124272000Y-96771000D01*
X119870000Y-96811000D02*
X124230000Y-96811000D01*
X119913000Y-96851000D02*
X124187000Y-96851000D01*
X119958000Y-96891000D02*
X124142000Y-96891000D01*
X120005000Y-96931000D02*
X124095000Y-96931000D01*
X120053000Y-96971000D02*
X124047000Y-96971000D01*
X120104000Y-97011000D02*
X123996000Y-97011000D01*
X120156000Y-97051000D02*
X123944000Y-97051000D01*
X120211000Y-97091000D02*
X123889000Y-97091000D01*
X120269000Y-97131000D02*
X123831000Y-97131000D01*
X120329000Y-97171000D02*
X123771000Y-97171000D01*
X120392000Y-97211000D02*
X123708000Y-97211000D01*
X120459000Y-97251000D02*
X123641000Y-97251000D01*
X120530000Y-97291000D02*
X123570000Y-97291000D01*
X120605000Y-97331000D02*
X123495000Y-97331000D01*
X120686000Y-97371000D02*
X123414000Y-97371000D01*
X120772000Y-97411000D02*
X123328000Y-97411000D01*
X120866000Y-97451000D02*
X123234000Y-97451000D01*
X120969000Y-97491000D02*
X123131000Y-97491000D01*
X121084000Y-97531000D02*
X123016000Y-97531000D01*
X121216000Y-97571000D02*
X122884000Y-97571000D01*
X121374000Y-97611000D02*
X122726000Y-97611000D01*
X121582000Y-97651000D02*
X122518000Y-97651000D01*
X122050000Y-91000000D02*
X122050000Y-92200000D01*
X121400000Y-91600000D02*
X122700000Y-91600000D01*
X128620864Y-95667820D02*
G75*
G02X128620000Y-89632518I1179136J3017820D01*
G01*
X130979136Y-95667820D02*
G75*
G03X130980000Y-89632518I-1179136J3017820D01*
G01*
X130979136Y-95667820D02*
G75*
G02X128620000Y-95667482I-1179136J3017820D01*
G01*
X126600000Y-92650000D02*
X133000000Y-92650000D01*
X126600000Y-92690000D02*
X133000000Y-92690000D01*
X126600000Y-92730000D02*
X133000000Y-92730000D01*
X126602000Y-92770000D02*
X132998000Y-92770000D01*
X126603000Y-92810000D02*
X132997000Y-92810000D01*
X126606000Y-92850000D02*
X132994000Y-92850000D01*
X126608000Y-92890000D02*
X132992000Y-92890000D01*
X126612000Y-92930000D02*
X128820000Y-92930000D01*
X130780000Y-92930000D02*
X132988000Y-92930000D01*
X126615000Y-92970000D02*
X128820000Y-92970000D01*
X130780000Y-92970000D02*
X132985000Y-92970000D01*
X126620000Y-93010000D02*
X128820000Y-93010000D01*
X130780000Y-93010000D02*
X132980000Y-93010000D01*
X126624000Y-93050000D02*
X128820000Y-93050000D01*
X130780000Y-93050000D02*
X132976000Y-93050000D01*
X126630000Y-93090000D02*
X128820000Y-93090000D01*
X130780000Y-93090000D02*
X132970000Y-93090000D01*
X126635000Y-93130000D02*
X128820000Y-93130000D01*
X130780000Y-93130000D02*
X132965000Y-93130000D01*
X126642000Y-93170000D02*
X128820000Y-93170000D01*
X130780000Y-93170000D02*
X132958000Y-93170000D01*
X126648000Y-93210000D02*
X128820000Y-93210000D01*
X130780000Y-93210000D02*
X132952000Y-93210000D01*
X126656000Y-93250000D02*
X128820000Y-93250000D01*
X130780000Y-93250000D02*
X132944000Y-93250000D01*
X126663000Y-93290000D02*
X128820000Y-93290000D01*
X130780000Y-93290000D02*
X132937000Y-93290000D01*
X126672000Y-93330000D02*
X128820000Y-93330000D01*
X130780000Y-93330000D02*
X132928000Y-93330000D01*
X126681000Y-93371000D02*
X128820000Y-93371000D01*
X130780000Y-93371000D02*
X132919000Y-93371000D01*
X126690000Y-93411000D02*
X128820000Y-93411000D01*
X130780000Y-93411000D02*
X132910000Y-93411000D01*
X126700000Y-93451000D02*
X128820000Y-93451000D01*
X130780000Y-93451000D02*
X132900000Y-93451000D01*
X126710000Y-93491000D02*
X128820000Y-93491000D01*
X130780000Y-93491000D02*
X132890000Y-93491000D01*
X126721000Y-93531000D02*
X128820000Y-93531000D01*
X130780000Y-93531000D02*
X132879000Y-93531000D01*
X126733000Y-93571000D02*
X128820000Y-93571000D01*
X130780000Y-93571000D02*
X132867000Y-93571000D01*
X126745000Y-93611000D02*
X128820000Y-93611000D01*
X130780000Y-93611000D02*
X132855000Y-93611000D01*
X126758000Y-93651000D02*
X128820000Y-93651000D01*
X130780000Y-93651000D02*
X132842000Y-93651000D01*
X126771000Y-93691000D02*
X128820000Y-93691000D01*
X130780000Y-93691000D02*
X132829000Y-93691000D01*
X126785000Y-93731000D02*
X128820000Y-93731000D01*
X130780000Y-93731000D02*
X132815000Y-93731000D01*
X126799000Y-93771000D02*
X128820000Y-93771000D01*
X130780000Y-93771000D02*
X132801000Y-93771000D01*
X126814000Y-93811000D02*
X128820000Y-93811000D01*
X130780000Y-93811000D02*
X132786000Y-93811000D01*
X126830000Y-93851000D02*
X128820000Y-93851000D01*
X130780000Y-93851000D02*
X132770000Y-93851000D01*
X126846000Y-93891000D02*
X128820000Y-93891000D01*
X130780000Y-93891000D02*
X132754000Y-93891000D01*
X126863000Y-93931000D02*
X128820000Y-93931000D01*
X130780000Y-93931000D02*
X132737000Y-93931000D01*
X126881000Y-93971000D02*
X128820000Y-93971000D01*
X130780000Y-93971000D02*
X132719000Y-93971000D01*
X126899000Y-94011000D02*
X128820000Y-94011000D01*
X130780000Y-94011000D02*
X132701000Y-94011000D01*
X126918000Y-94051000D02*
X128820000Y-94051000D01*
X130780000Y-94051000D02*
X132682000Y-94051000D01*
X126937000Y-94091000D02*
X128820000Y-94091000D01*
X130780000Y-94091000D02*
X132663000Y-94091000D01*
X126957000Y-94131000D02*
X128820000Y-94131000D01*
X130780000Y-94131000D02*
X132643000Y-94131000D01*
X126978000Y-94171000D02*
X128820000Y-94171000D01*
X130780000Y-94171000D02*
X132622000Y-94171000D01*
X127000000Y-94211000D02*
X128820000Y-94211000D01*
X130780000Y-94211000D02*
X132600000Y-94211000D01*
X127022000Y-94251000D02*
X128820000Y-94251000D01*
X130780000Y-94251000D02*
X132578000Y-94251000D01*
X127045000Y-94291000D02*
X128820000Y-94291000D01*
X130780000Y-94291000D02*
X132555000Y-94291000D01*
X127069000Y-94331000D02*
X128820000Y-94331000D01*
X130780000Y-94331000D02*
X132531000Y-94331000D01*
X127094000Y-94371000D02*
X128820000Y-94371000D01*
X130780000Y-94371000D02*
X132506000Y-94371000D01*
X127119000Y-94411000D02*
X128820000Y-94411000D01*
X130780000Y-94411000D02*
X132481000Y-94411000D01*
X127146000Y-94451000D02*
X128820000Y-94451000D01*
X130780000Y-94451000D02*
X132454000Y-94451000D01*
X127173000Y-94491000D02*
X128820000Y-94491000D01*
X130780000Y-94491000D02*
X132427000Y-94491000D01*
X127201000Y-94531000D02*
X128820000Y-94531000D01*
X130780000Y-94531000D02*
X132399000Y-94531000D01*
X127230000Y-94571000D02*
X128820000Y-94571000D01*
X130780000Y-94571000D02*
X132370000Y-94571000D01*
X127260000Y-94611000D02*
X128820000Y-94611000D01*
X130780000Y-94611000D02*
X132340000Y-94611000D01*
X127290000Y-94651000D02*
X128820000Y-94651000D01*
X130780000Y-94651000D02*
X132310000Y-94651000D01*
X127322000Y-94691000D02*
X128820000Y-94691000D01*
X130780000Y-94691000D02*
X132278000Y-94691000D01*
X127355000Y-94731000D02*
X128820000Y-94731000D01*
X130780000Y-94731000D02*
X132245000Y-94731000D01*
X127389000Y-94771000D02*
X128820000Y-94771000D01*
X130780000Y-94771000D02*
X132211000Y-94771000D01*
X127425000Y-94811000D02*
X128820000Y-94811000D01*
X130780000Y-94811000D02*
X132175000Y-94811000D01*
X127461000Y-94851000D02*
X128820000Y-94851000D01*
X130780000Y-94851000D02*
X132139000Y-94851000D01*
X127499000Y-94891000D02*
X132101000Y-94891000D01*
X127538000Y-94931000D02*
X132062000Y-94931000D01*
X127578000Y-94971000D02*
X132022000Y-94971000D01*
X127620000Y-95011000D02*
X131980000Y-95011000D01*
X127663000Y-95051000D02*
X131937000Y-95051000D01*
X127708000Y-95091000D02*
X131892000Y-95091000D01*
X127755000Y-95131000D02*
X131845000Y-95131000D01*
X127803000Y-95171000D02*
X131797000Y-95171000D01*
X127854000Y-95211000D02*
X131746000Y-95211000D01*
X127906000Y-95251000D02*
X131694000Y-95251000D01*
X127961000Y-95291000D02*
X131639000Y-95291000D01*
X128019000Y-95331000D02*
X131581000Y-95331000D01*
X128079000Y-95371000D02*
X131521000Y-95371000D01*
X128142000Y-95411000D02*
X131458000Y-95411000D01*
X128209000Y-95451000D02*
X131391000Y-95451000D01*
X128280000Y-95491000D02*
X131320000Y-95491000D01*
X128355000Y-95531000D02*
X131245000Y-95531000D01*
X128436000Y-95571000D02*
X131164000Y-95571000D01*
X128522000Y-95611000D02*
X131078000Y-95611000D01*
X128616000Y-95651000D02*
X130984000Y-95651000D01*
X128719000Y-95691000D02*
X130881000Y-95691000D01*
X128834000Y-95731000D02*
X130766000Y-95731000D01*
X128966000Y-95771000D02*
X130634000Y-95771000D01*
X129124000Y-95811000D02*
X130476000Y-95811000D01*
X129332000Y-95851000D02*
X130268000Y-95851000D01*
X129800000Y-89200000D02*
X129800000Y-90400000D01*
X129150000Y-89800000D02*
X130450000Y-89800000D01*
X121132180Y-27620864D02*
G75*
G02X127167482Y-27620000I3017820J-1179136D01*
G01*
X121132180Y-29979136D02*
G75*
G03X127167482Y-29980000I3017820J1179136D01*
G01*
X121132180Y-29979136D02*
G75*
G02X121132518Y-27620000I3017820J1179136D01*
G01*
X124150000Y-25600000D02*
X124150000Y-32000000D01*
X124110000Y-25600000D02*
X124110000Y-32000000D01*
X124070000Y-25600000D02*
X124070000Y-32000000D01*
X124030000Y-25602000D02*
X124030000Y-31998000D01*
X123990000Y-25603000D02*
X123990000Y-31997000D01*
X123950000Y-25606000D02*
X123950000Y-31994000D01*
X123910000Y-25608000D02*
X123910000Y-31992000D01*
X123870000Y-25612000D02*
X123870000Y-27820000D01*
X123870000Y-29780000D02*
X123870000Y-31988000D01*
X123830000Y-25615000D02*
X123830000Y-27820000D01*
X123830000Y-29780000D02*
X123830000Y-31985000D01*
X123790000Y-25620000D02*
X123790000Y-27820000D01*
X123790000Y-29780000D02*
X123790000Y-31980000D01*
X123750000Y-25624000D02*
X123750000Y-27820000D01*
X123750000Y-29780000D02*
X123750000Y-31976000D01*
X123710000Y-25630000D02*
X123710000Y-27820000D01*
X123710000Y-29780000D02*
X123710000Y-31970000D01*
X123670000Y-25635000D02*
X123670000Y-27820000D01*
X123670000Y-29780000D02*
X123670000Y-31965000D01*
X123630000Y-25642000D02*
X123630000Y-27820000D01*
X123630000Y-29780000D02*
X123630000Y-31958000D01*
X123590000Y-25648000D02*
X123590000Y-27820000D01*
X123590000Y-29780000D02*
X123590000Y-31952000D01*
X123550000Y-25656000D02*
X123550000Y-27820000D01*
X123550000Y-29780000D02*
X123550000Y-31944000D01*
X123510000Y-25663000D02*
X123510000Y-27820000D01*
X123510000Y-29780000D02*
X123510000Y-31937000D01*
X123470000Y-25672000D02*
X123470000Y-27820000D01*
X123470000Y-29780000D02*
X123470000Y-31928000D01*
X123429000Y-25681000D02*
X123429000Y-27820000D01*
X123429000Y-29780000D02*
X123429000Y-31919000D01*
X123389000Y-25690000D02*
X123389000Y-27820000D01*
X123389000Y-29780000D02*
X123389000Y-31910000D01*
X123349000Y-25700000D02*
X123349000Y-27820000D01*
X123349000Y-29780000D02*
X123349000Y-31900000D01*
X123309000Y-25710000D02*
X123309000Y-27820000D01*
X123309000Y-29780000D02*
X123309000Y-31890000D01*
X123269000Y-25721000D02*
X123269000Y-27820000D01*
X123269000Y-29780000D02*
X123269000Y-31879000D01*
X123229000Y-25733000D02*
X123229000Y-27820000D01*
X123229000Y-29780000D02*
X123229000Y-31867000D01*
X123189000Y-25745000D02*
X123189000Y-27820000D01*
X123189000Y-29780000D02*
X123189000Y-31855000D01*
X123149000Y-25758000D02*
X123149000Y-27820000D01*
X123149000Y-29780000D02*
X123149000Y-31842000D01*
X123109000Y-25771000D02*
X123109000Y-27820000D01*
X123109000Y-29780000D02*
X123109000Y-31829000D01*
X123069000Y-25785000D02*
X123069000Y-27820000D01*
X123069000Y-29780000D02*
X123069000Y-31815000D01*
X123029000Y-25799000D02*
X123029000Y-27820000D01*
X123029000Y-29780000D02*
X123029000Y-31801000D01*
X122989000Y-25814000D02*
X122989000Y-27820000D01*
X122989000Y-29780000D02*
X122989000Y-31786000D01*
X122949000Y-25830000D02*
X122949000Y-27820000D01*
X122949000Y-29780000D02*
X122949000Y-31770000D01*
X122909000Y-25846000D02*
X122909000Y-27820000D01*
X122909000Y-29780000D02*
X122909000Y-31754000D01*
X122869000Y-25863000D02*
X122869000Y-27820000D01*
X122869000Y-29780000D02*
X122869000Y-31737000D01*
X122829000Y-25881000D02*
X122829000Y-27820000D01*
X122829000Y-29780000D02*
X122829000Y-31719000D01*
X122789000Y-25899000D02*
X122789000Y-27820000D01*
X122789000Y-29780000D02*
X122789000Y-31701000D01*
X122749000Y-25918000D02*
X122749000Y-27820000D01*
X122749000Y-29780000D02*
X122749000Y-31682000D01*
X122709000Y-25937000D02*
X122709000Y-27820000D01*
X122709000Y-29780000D02*
X122709000Y-31663000D01*
X122669000Y-25957000D02*
X122669000Y-27820000D01*
X122669000Y-29780000D02*
X122669000Y-31643000D01*
X122629000Y-25978000D02*
X122629000Y-27820000D01*
X122629000Y-29780000D02*
X122629000Y-31622000D01*
X122589000Y-26000000D02*
X122589000Y-27820000D01*
X122589000Y-29780000D02*
X122589000Y-31600000D01*
X122549000Y-26022000D02*
X122549000Y-27820000D01*
X122549000Y-29780000D02*
X122549000Y-31578000D01*
X122509000Y-26045000D02*
X122509000Y-27820000D01*
X122509000Y-29780000D02*
X122509000Y-31555000D01*
X122469000Y-26069000D02*
X122469000Y-27820000D01*
X122469000Y-29780000D02*
X122469000Y-31531000D01*
X122429000Y-26094000D02*
X122429000Y-27820000D01*
X122429000Y-29780000D02*
X122429000Y-31506000D01*
X122389000Y-26119000D02*
X122389000Y-27820000D01*
X122389000Y-29780000D02*
X122389000Y-31481000D01*
X122349000Y-26146000D02*
X122349000Y-27820000D01*
X122349000Y-29780000D02*
X122349000Y-31454000D01*
X122309000Y-26173000D02*
X122309000Y-27820000D01*
X122309000Y-29780000D02*
X122309000Y-31427000D01*
X122269000Y-26201000D02*
X122269000Y-27820000D01*
X122269000Y-29780000D02*
X122269000Y-31399000D01*
X122229000Y-26230000D02*
X122229000Y-27820000D01*
X122229000Y-29780000D02*
X122229000Y-31370000D01*
X122189000Y-26260000D02*
X122189000Y-27820000D01*
X122189000Y-29780000D02*
X122189000Y-31340000D01*
X122149000Y-26290000D02*
X122149000Y-27820000D01*
X122149000Y-29780000D02*
X122149000Y-31310000D01*
X122109000Y-26322000D02*
X122109000Y-27820000D01*
X122109000Y-29780000D02*
X122109000Y-31278000D01*
X122069000Y-26355000D02*
X122069000Y-27820000D01*
X122069000Y-29780000D02*
X122069000Y-31245000D01*
X122029000Y-26389000D02*
X122029000Y-27820000D01*
X122029000Y-29780000D02*
X122029000Y-31211000D01*
X121989000Y-26425000D02*
X121989000Y-27820000D01*
X121989000Y-29780000D02*
X121989000Y-31175000D01*
X121949000Y-26461000D02*
X121949000Y-27820000D01*
X121949000Y-29780000D02*
X121949000Y-31139000D01*
X121909000Y-26499000D02*
X121909000Y-31101000D01*
X121869000Y-26538000D02*
X121869000Y-31062000D01*
X121829000Y-26578000D02*
X121829000Y-31022000D01*
X121789000Y-26620000D02*
X121789000Y-30980000D01*
X121749000Y-26663000D02*
X121749000Y-30937000D01*
X121709000Y-26708000D02*
X121709000Y-30892000D01*
X121669000Y-26755000D02*
X121669000Y-30845000D01*
X121629000Y-26803000D02*
X121629000Y-30797000D01*
X121589000Y-26854000D02*
X121589000Y-30746000D01*
X121549000Y-26906000D02*
X121549000Y-30694000D01*
X121509000Y-26961000D02*
X121509000Y-30639000D01*
X121469000Y-27019000D02*
X121469000Y-30581000D01*
X121429000Y-27079000D02*
X121429000Y-30521000D01*
X121389000Y-27142000D02*
X121389000Y-30458000D01*
X121349000Y-27209000D02*
X121349000Y-30391000D01*
X121309000Y-27280000D02*
X121309000Y-30320000D01*
X121269000Y-27355000D02*
X121269000Y-30245000D01*
X121229000Y-27436000D02*
X121229000Y-30164000D01*
X121189000Y-27522000D02*
X121189000Y-30078000D01*
X121149000Y-27616000D02*
X121149000Y-29984000D01*
X121109000Y-27719000D02*
X121109000Y-29881000D01*
X121069000Y-27834000D02*
X121069000Y-29766000D01*
X121029000Y-27966000D02*
X121029000Y-29634000D01*
X120989000Y-28124000D02*
X120989000Y-29476000D01*
X120949000Y-28332000D02*
X120949000Y-29268000D01*
X127600000Y-28800000D02*
X126400000Y-28800000D01*
X127000000Y-28150000D02*
X127000000Y-29450000D01*
X105330000Y-61950000D02*
X102670000Y-61950000D01*
X105330000Y-54270000D02*
X105330000Y-61950000D01*
X102670000Y-54270000D02*
X102670000Y-61950000D01*
X105330000Y-54270000D02*
X102670000Y-54270000D01*
X105330000Y-53000000D02*
X105330000Y-51670000D01*
X105330000Y-51670000D02*
X104000000Y-51670000D01*
X148670000Y-69550000D02*
X151330000Y-69550000D01*
X148670000Y-77230000D02*
X148670000Y-69550000D01*
X151330000Y-77230000D02*
X151330000Y-69550000D01*
X148670000Y-77230000D02*
X151330000Y-77230000D01*
X148670000Y-78500000D02*
X148670000Y-79830000D01*
X148670000Y-79830000D02*
X150000000Y-79830000D01*
X146800000Y-38700000D02*
X148800000Y-38700000D01*
X146800000Y-32100000D02*
X148800000Y-32100000D01*
X151100000Y-36400000D02*
X151100000Y-34400000D01*
X144500000Y-36400000D02*
X144500000Y-34400000D01*
X146800000Y-47000000D02*
X148800000Y-47000000D01*
X146800000Y-40400000D02*
X148800000Y-40400000D01*
X151100000Y-44700000D02*
X151100000Y-42700000D01*
X144500000Y-44700000D02*
X144500000Y-42700000D01*
X146800000Y-55300000D02*
X148800000Y-55300000D01*
X146800000Y-48700000D02*
X148800000Y-48700000D01*
X151100000Y-53000000D02*
X151100000Y-51000000D01*
X144500000Y-53000000D02*
X144500000Y-51000000D01*
X116230000Y-101130000D02*
X116230000Y-98470000D01*
X118830000Y-101130000D02*
X116230000Y-101130000D01*
X118830000Y-98470000D02*
X116230000Y-98470000D01*
X118830000Y-101130000D02*
X118830000Y-98470000D01*
X120100000Y-101130000D02*
X121430000Y-101130000D01*
X121430000Y-101130000D02*
X121430000Y-99800000D01*
X111525000Y-71685000D02*
X111525000Y-65435000D01*
X106475000Y-71685000D02*
X106475000Y-65435000D01*
X106475000Y-71685000D02*
G75*
G03X111525000Y-71685000I2525000J0D01*
G01*
X106475000Y-65435000D02*
G75*
G02X111525000Y-65435000I2525000J0D01*
G01*
X118950000Y-40755000D02*
X103170000Y-40755000D01*
X103170000Y-40755000D02*
X103170000Y-50105000D01*
X103170000Y-50105000D02*
X118950000Y-50105000D01*
X118950000Y-50105000D02*
X118950000Y-40755000D01*
X119200000Y-50355000D02*
X116660000Y-50355000D01*
X119200000Y-50355000D02*
X119200000Y-47815000D01*
X124550000Y-74345000D02*
X140330000Y-74345000D01*
X140330000Y-74345000D02*
X140330000Y-64995000D01*
X140330000Y-64995000D02*
X124550000Y-64995000D01*
X124550000Y-64995000D02*
X124550000Y-74345000D01*
X124300000Y-64745000D02*
X126840000Y-64745000D01*
X124300000Y-64745000D02*
X124300000Y-67285000D01*
X105330000Y-94110000D02*
X102670000Y-94110000D01*
X105330000Y-76270000D02*
X105330000Y-94110000D01*
X102670000Y-76270000D02*
X102670000Y-94110000D01*
X105330000Y-76270000D02*
X102670000Y-76270000D01*
X105330000Y-75000000D02*
X105330000Y-73670000D01*
X105330000Y-73670000D02*
X104000000Y-73670000D01*
X148670000Y-81310000D02*
X151330000Y-81310000D01*
X148670000Y-91530000D02*
X148670000Y-81310000D01*
X151330000Y-91530000D02*
X151330000Y-81310000D01*
X148670000Y-91530000D02*
X151330000Y-91530000D01*
X148670000Y-92800000D02*
X148670000Y-94130000D01*
X148670000Y-94130000D02*
X150000000Y-94130000D01*
X148670000Y-57400000D02*
X151330000Y-57400000D01*
X148670000Y-65080000D02*
X148670000Y-57400000D01*
X151330000Y-65080000D02*
X151330000Y-57400000D01*
X148670000Y-65080000D02*
X151330000Y-65080000D01*
X148670000Y-66350000D02*
X148670000Y-67680000D01*
X148670000Y-67680000D02*
X150000000Y-67680000D01*
X136390000Y-33110000D02*
X136510000Y-32970000D01*
X136510000Y-32970000D02*
X136600000Y-32810000D01*
X136600000Y-32810000D02*
X136650000Y-32560000D01*
X136650000Y-32560000D02*
X136620000Y-32300000D01*
X136620000Y-32300000D02*
X136470000Y-32040000D01*
X136470000Y-32040000D02*
X136250000Y-31870000D01*
X136250000Y-31870000D02*
X135960000Y-31790000D01*
X135960000Y-31790000D02*
X135670000Y-31830000D01*
X135670000Y-31830000D02*
X135490000Y-31910000D01*
X135490000Y-31910000D02*
X135360000Y-32060000D01*
X137290000Y-35890000D02*
G75*
G03X137290000Y-35890000I-4750000J0D01*
G01*
X116290000Y-96840000D02*
X116430000Y-96960000D01*
X116430000Y-96960000D02*
X116590000Y-97050000D01*
X116590000Y-97050000D02*
X116840000Y-97100000D01*
X116840000Y-97100000D02*
X117100000Y-97070000D01*
X117100000Y-97070000D02*
X117360000Y-96920000D01*
X117360000Y-96920000D02*
X117530000Y-96700000D01*
X117530000Y-96700000D02*
X117610000Y-96410000D01*
X117610000Y-96410000D02*
X117570000Y-96120000D01*
X117570000Y-96120000D02*
X117490000Y-95940000D01*
X117490000Y-95940000D02*
X117340000Y-95810000D01*
X118260000Y-92990000D02*
G75*
G03X118260000Y-92990000I-4750000J0D01*
G01*
D12*
X137333333Y-96552381D02*
X137333333Y-97266667D01*
X137380953Y-97409524D01*
X137476191Y-97504762D01*
X137619048Y-97552381D01*
X137714286Y-97552381D01*
X136809524Y-97552381D02*
X136619048Y-97552381D01*
X136523809Y-97504762D01*
X136476190Y-97457143D01*
X136380952Y-97314286D01*
X136333333Y-97123810D01*
X136333333Y-96742857D01*
X136380952Y-96647619D01*
X136428571Y-96600000D01*
X136523809Y-96552381D01*
X136714286Y-96552381D01*
X136809524Y-96600000D01*
X136857143Y-96647619D01*
X136904762Y-96742857D01*
X136904762Y-96980952D01*
X136857143Y-97076190D01*
X136809524Y-97123810D01*
X136714286Y-97171429D01*
X136523809Y-97171429D01*
X136428571Y-97123810D01*
X136380952Y-97076190D01*
X136333333Y-96980952D01*
X141102381Y-75788095D02*
X141911905Y-75788095D01*
X142007143Y-75835714D01*
X142054762Y-75883333D01*
X142102381Y-75978571D01*
X142102381Y-76169048D01*
X142054762Y-76264286D01*
X142007143Y-76311905D01*
X141911905Y-76359524D01*
X141102381Y-76359524D01*
X142102381Y-77359524D02*
X142102381Y-76788095D01*
X142102381Y-77073809D02*
X141102381Y-77073809D01*
X141245238Y-76978571D01*
X141340476Y-76883333D01*
X141388095Y-76788095D01*
X125473333Y-54892381D02*
X125473333Y-55606667D01*
X125520953Y-55749524D01*
X125616191Y-55844762D01*
X125759048Y-55892381D01*
X125854286Y-55892381D01*
X124568571Y-54892381D02*
X124759048Y-54892381D01*
X124854286Y-54940000D01*
X124901905Y-54987619D01*
X124997143Y-55130476D01*
X125044762Y-55320952D01*
X125044762Y-55701905D01*
X124997143Y-55797143D01*
X124949524Y-55844762D01*
X124854286Y-55892381D01*
X124663809Y-55892381D01*
X124568571Y-55844762D01*
X124520952Y-55797143D01*
X124473333Y-55701905D01*
X124473333Y-55463810D01*
X124520952Y-55368571D01*
X124568571Y-55320952D01*
X124663809Y-55273333D01*
X124854286Y-55273333D01*
X124949524Y-55320952D01*
X124997143Y-55368571D01*
X125044762Y-55463810D01*
X122166666Y-90507143D02*
X122214285Y-90554762D01*
X122357142Y-90602381D01*
X122452380Y-90602381D01*
X122595238Y-90554762D01*
X122690476Y-90459524D01*
X122738095Y-90364286D01*
X122785714Y-90173810D01*
X122785714Y-90030952D01*
X122738095Y-89840476D01*
X122690476Y-89745238D01*
X122595238Y-89650000D01*
X122452380Y-89602381D01*
X122357142Y-89602381D01*
X122214285Y-89650000D01*
X122166666Y-89697619D01*
X121595238Y-90030952D02*
X121690476Y-89983333D01*
X121738095Y-89935714D01*
X121785714Y-89840476D01*
X121785714Y-89792857D01*
X121738095Y-89697619D01*
X121690476Y-89650000D01*
X121595238Y-89602381D01*
X121404761Y-89602381D01*
X121309523Y-89650000D01*
X121261904Y-89697619D01*
X121214285Y-89792857D01*
X121214285Y-89840476D01*
X121261904Y-89935714D01*
X121309523Y-89983333D01*
X121404761Y-90030952D01*
X121595238Y-90030952D01*
X121690476Y-90078571D01*
X121738095Y-90126190D01*
X121785714Y-90221429D01*
X121785714Y-90411905D01*
X121738095Y-90507143D01*
X121690476Y-90554762D01*
X121595238Y-90602381D01*
X121404761Y-90602381D01*
X121309523Y-90554762D01*
X121261904Y-90507143D01*
X121214285Y-90411905D01*
X121214285Y-90221429D01*
X121261904Y-90126190D01*
X121309523Y-90078571D01*
X121404761Y-90030952D01*
X130442857Y-88657143D02*
X130490476Y-88704762D01*
X130633333Y-88752381D01*
X130728571Y-88752381D01*
X130871429Y-88704762D01*
X130966667Y-88609524D01*
X131014286Y-88514286D01*
X131061905Y-88323810D01*
X131061905Y-88180952D01*
X131014286Y-87990476D01*
X130966667Y-87895238D01*
X130871429Y-87800000D01*
X130728571Y-87752381D01*
X130633333Y-87752381D01*
X130490476Y-87800000D01*
X130442857Y-87847619D01*
X129490476Y-88752381D02*
X130061905Y-88752381D01*
X129776191Y-88752381D02*
X129776191Y-87752381D01*
X129871429Y-87895238D01*
X129966667Y-87990476D01*
X130061905Y-88038095D01*
X128871429Y-87752381D02*
X128776190Y-87752381D01*
X128680952Y-87800000D01*
X128633333Y-87847619D01*
X128585714Y-87942857D01*
X128538095Y-88133333D01*
X128538095Y-88371429D01*
X128585714Y-88561905D01*
X128633333Y-88657143D01*
X128680952Y-88704762D01*
X128776190Y-88752381D01*
X128871429Y-88752381D01*
X128966667Y-88704762D01*
X129014286Y-88657143D01*
X129061905Y-88561905D01*
X129109524Y-88371429D01*
X129109524Y-88133333D01*
X129061905Y-87942857D01*
X129014286Y-87847619D01*
X128966667Y-87800000D01*
X128871429Y-87752381D01*
X128792857Y-26007143D02*
X128840476Y-26054762D01*
X128983333Y-26102381D01*
X129078571Y-26102381D01*
X129221429Y-26054762D01*
X129316667Y-25959524D01*
X129364286Y-25864286D01*
X129411905Y-25673810D01*
X129411905Y-25530952D01*
X129364286Y-25340476D01*
X129316667Y-25245238D01*
X129221429Y-25150000D01*
X129078571Y-25102381D01*
X128983333Y-25102381D01*
X128840476Y-25150000D01*
X128792857Y-25197619D01*
X127840476Y-26102381D02*
X128411905Y-26102381D01*
X128126191Y-26102381D02*
X128126191Y-25102381D01*
X128221429Y-25245238D01*
X128316667Y-25340476D01*
X128411905Y-25388095D01*
X126888095Y-26102381D02*
X127459524Y-26102381D01*
X127173810Y-26102381D02*
X127173810Y-25102381D01*
X127269048Y-25245238D01*
X127364286Y-25340476D01*
X127459524Y-25388095D01*
X105702381Y-56466667D02*
X106416667Y-56466667D01*
X106559524Y-56419047D01*
X106654762Y-56323809D01*
X106702381Y-56180952D01*
X106702381Y-56085714D01*
X106702381Y-57466667D02*
X106702381Y-56895238D01*
X106702381Y-57180952D02*
X105702381Y-57180952D01*
X105845238Y-57085714D01*
X105940476Y-56990476D01*
X105988095Y-56895238D01*
X147202381Y-74366667D02*
X147916667Y-74366667D01*
X148059524Y-74319047D01*
X148154762Y-74223809D01*
X148202381Y-74080952D01*
X148202381Y-73985714D01*
X147297619Y-74795238D02*
X147250000Y-74842857D01*
X147202381Y-74938095D01*
X147202381Y-75176191D01*
X147250000Y-75271429D01*
X147297619Y-75319048D01*
X147392857Y-75366667D01*
X147488095Y-75366667D01*
X147630952Y-75319048D01*
X148202381Y-74747619D01*
X148202381Y-75366667D01*
X143152381Y-35066667D02*
X143866667Y-35066667D01*
X144009524Y-35019047D01*
X144104762Y-34923809D01*
X144152381Y-34780952D01*
X144152381Y-34685714D01*
X143152381Y-35447619D02*
X143152381Y-36066667D01*
X143533333Y-35733333D01*
X143533333Y-35876191D01*
X143580952Y-35971429D01*
X143628571Y-36019048D01*
X143723810Y-36066667D01*
X143961905Y-36066667D01*
X144057143Y-36019048D01*
X144104762Y-35971429D01*
X144152381Y-35876191D01*
X144152381Y-35590476D01*
X144104762Y-35495238D01*
X144057143Y-35447619D01*
X143152381Y-43416667D02*
X143866667Y-43416667D01*
X144009524Y-43369047D01*
X144104762Y-43273809D01*
X144152381Y-43130952D01*
X144152381Y-43035714D01*
X143485714Y-44321429D02*
X144152381Y-44321429D01*
X143104762Y-44083333D02*
X143819048Y-43845238D01*
X143819048Y-44464286D01*
X143102381Y-51666667D02*
X143816667Y-51666667D01*
X143959524Y-51619047D01*
X144054762Y-51523809D01*
X144102381Y-51380952D01*
X144102381Y-51285714D01*
X143102381Y-52619048D02*
X143102381Y-52142857D01*
X143578571Y-52095238D01*
X143530952Y-52142857D01*
X143483333Y-52238095D01*
X143483333Y-52476191D01*
X143530952Y-52571429D01*
X143578571Y-52619048D01*
X143673810Y-52666667D01*
X143911905Y-52666667D01*
X144007143Y-52619048D01*
X144054762Y-52571429D01*
X144102381Y-52476191D01*
X144102381Y-52238095D01*
X144054762Y-52142857D01*
X144007143Y-52095238D01*
X119233333Y-96802381D02*
X119233333Y-97516667D01*
X119280953Y-97659524D01*
X119376191Y-97754762D01*
X119519048Y-97802381D01*
X119614286Y-97802381D01*
X118614286Y-97230952D02*
X118709524Y-97183333D01*
X118757143Y-97135714D01*
X118804762Y-97040476D01*
X118804762Y-96992857D01*
X118757143Y-96897619D01*
X118709524Y-96850000D01*
X118614286Y-96802381D01*
X118423809Y-96802381D01*
X118328571Y-96850000D01*
X118280952Y-96897619D01*
X118233333Y-96992857D01*
X118233333Y-97040476D01*
X118280952Y-97135714D01*
X118328571Y-97183333D01*
X118423809Y-97230952D01*
X118614286Y-97230952D01*
X118709524Y-97278571D01*
X118757143Y-97326190D01*
X118804762Y-97421429D01*
X118804762Y-97611905D01*
X118757143Y-97707143D01*
X118709524Y-97754762D01*
X118614286Y-97802381D01*
X118423809Y-97802381D01*
X118328571Y-97754762D01*
X118280952Y-97707143D01*
X118233333Y-97611905D01*
X118233333Y-97421429D01*
X118280952Y-97326190D01*
X118328571Y-97278571D01*
X118423809Y-97230952D01*
X112501190Y-68083809D02*
X112977381Y-68083809D01*
X111977381Y-67750476D02*
X112501190Y-68083809D01*
X111977381Y-68417143D01*
X112072619Y-68702857D02*
X112025000Y-68750476D01*
X111977381Y-68845714D01*
X111977381Y-69083810D01*
X112025000Y-69179048D01*
X112072619Y-69226667D01*
X112167857Y-69274286D01*
X112263095Y-69274286D01*
X112405952Y-69226667D01*
X112977381Y-68655238D01*
X112977381Y-69274286D01*
X120561143Y-44215715D02*
X120608762Y-44168096D01*
X120656381Y-44025239D01*
X120656381Y-43930001D01*
X120608762Y-43787143D01*
X120513524Y-43691905D01*
X120418286Y-43644286D01*
X120227810Y-43596667D01*
X120084952Y-43596667D01*
X119894476Y-43644286D01*
X119799238Y-43691905D01*
X119704000Y-43787143D01*
X119656381Y-43930001D01*
X119656381Y-44025239D01*
X119704000Y-44168096D01*
X119751619Y-44215715D01*
X119656381Y-44834762D02*
X119656381Y-45025239D01*
X119704000Y-45120477D01*
X119799238Y-45215715D01*
X119989714Y-45263334D01*
X120323048Y-45263334D01*
X120513524Y-45215715D01*
X120608762Y-45120477D01*
X120656381Y-45025239D01*
X120656381Y-44834762D01*
X120608762Y-44739524D01*
X120513524Y-44644286D01*
X120323048Y-44596667D01*
X119989714Y-44596667D01*
X119799238Y-44644286D01*
X119704000Y-44739524D01*
X119656381Y-44834762D01*
X120656381Y-45691905D02*
X119656381Y-45691905D01*
X120656381Y-46263334D01*
X119656381Y-46263334D01*
X120656381Y-47263334D02*
X120656381Y-46691905D01*
X120656381Y-46977619D02*
X119656381Y-46977619D01*
X119799238Y-46882381D01*
X119894476Y-46787143D01*
X119942095Y-46691905D01*
X123653143Y-68455715D02*
X123700762Y-68408096D01*
X123748381Y-68265239D01*
X123748381Y-68170001D01*
X123700762Y-68027143D01*
X123605524Y-67931905D01*
X123510286Y-67884286D01*
X123319810Y-67836667D01*
X123176952Y-67836667D01*
X122986476Y-67884286D01*
X122891238Y-67931905D01*
X122796000Y-68027143D01*
X122748381Y-68170001D01*
X122748381Y-68265239D01*
X122796000Y-68408096D01*
X122843619Y-68455715D01*
X122748381Y-69074762D02*
X122748381Y-69265239D01*
X122796000Y-69360477D01*
X122891238Y-69455715D01*
X123081714Y-69503334D01*
X123415048Y-69503334D01*
X123605524Y-69455715D01*
X123700762Y-69360477D01*
X123748381Y-69265239D01*
X123748381Y-69074762D01*
X123700762Y-68979524D01*
X123605524Y-68884286D01*
X123415048Y-68836667D01*
X123081714Y-68836667D01*
X122891238Y-68884286D01*
X122796000Y-68979524D01*
X122748381Y-69074762D01*
X123748381Y-69931905D02*
X122748381Y-69931905D01*
X123748381Y-70503334D01*
X122748381Y-70503334D01*
X122843619Y-70931905D02*
X122796000Y-70979524D01*
X122748381Y-71074762D01*
X122748381Y-71312858D01*
X122796000Y-71408096D01*
X122843619Y-71455715D01*
X122938857Y-71503334D01*
X123034095Y-71503334D01*
X123176952Y-71455715D01*
X123748381Y-70884286D01*
X123748381Y-71503334D01*
X105852381Y-83440477D02*
X106566667Y-83440477D01*
X106709524Y-83392857D01*
X106804762Y-83297619D01*
X106852381Y-83154762D01*
X106852381Y-83059524D01*
X106852381Y-84440477D02*
X106852381Y-83869048D01*
X106852381Y-84154762D02*
X105852381Y-84154762D01*
X105995238Y-84059524D01*
X106090476Y-83964286D01*
X106138095Y-83869048D01*
X106852381Y-85392858D02*
X106852381Y-84821429D01*
X106852381Y-85107143D02*
X105852381Y-85107143D01*
X105995238Y-85011905D01*
X106090476Y-84916667D01*
X106138095Y-84821429D01*
X147302381Y-86540477D02*
X148016667Y-86540477D01*
X148159524Y-86492857D01*
X148254762Y-86397619D01*
X148302381Y-86254762D01*
X148302381Y-86159524D01*
X148302381Y-87540477D02*
X148302381Y-86969048D01*
X148302381Y-87254762D02*
X147302381Y-87254762D01*
X147445238Y-87159524D01*
X147540476Y-87064286D01*
X147588095Y-86969048D01*
X147302381Y-88159524D02*
X147302381Y-88254763D01*
X147350000Y-88350001D01*
X147397619Y-88397620D01*
X147492857Y-88445239D01*
X147683333Y-88492858D01*
X147921429Y-88492858D01*
X148111905Y-88445239D01*
X148207143Y-88397620D01*
X148254762Y-88350001D01*
X148302381Y-88254763D01*
X148302381Y-88159524D01*
X148254762Y-88064286D01*
X148207143Y-88016667D01*
X148111905Y-87969048D01*
X147921429Y-87921429D01*
X147683333Y-87921429D01*
X147492857Y-87969048D01*
X147397619Y-88016667D01*
X147350000Y-88064286D01*
X147302381Y-88159524D01*
X147152381Y-62216667D02*
X147866667Y-62216667D01*
X148009524Y-62169047D01*
X148104762Y-62073809D01*
X148152381Y-61930952D01*
X148152381Y-61835714D01*
X147152381Y-62597619D02*
X147152381Y-63264286D01*
X148152381Y-62835714D01*
X132366666Y-42602381D02*
X132842857Y-42602381D01*
X132842857Y-41602381D01*
X131509523Y-42602381D02*
X132080952Y-42602381D01*
X131795238Y-42602381D02*
X131795238Y-41602381D01*
X131890476Y-41745238D01*
X131985714Y-41840476D01*
X132080952Y-41888095D01*
X113566666Y-87652381D02*
X114042857Y-87652381D01*
X114042857Y-86652381D01*
X113280952Y-86747619D02*
X113233333Y-86700000D01*
X113138095Y-86652381D01*
X112899999Y-86652381D01*
X112804761Y-86700000D01*
X112757142Y-86747619D01*
X112709523Y-86842857D01*
X112709523Y-86938095D01*
X112757142Y-87080952D01*
X113328571Y-87652381D01*
X112709523Y-87652381D01*
M02*
