G04 #@! TF.FileFunction,Legend,Bot*
%FSLAX46Y46*%
G04 Gerber Fmt 4.6, Leading zero omitted, Abs format (unit mm)*
G04 Created by KiCad (PCBNEW 4.0.7) date 12/26/22 11:34:17*
%MOMM*%
%LPD*%
G01*
G04 APERTURE LIST*
%ADD10C,0.100000*%
%ADD11C,0.120000*%
%ADD12C,0.150000*%
G04 APERTURE END LIST*
D10*
D11*
X122630000Y-121870000D02*
X122630000Y-119330000D01*
X122630000Y-119330000D02*
X125297000Y-119330000D01*
X125297000Y-121870000D02*
X125297000Y-160097000D01*
X125297000Y-116663000D02*
X125297000Y-119330000D01*
X109930000Y-119330000D02*
X107260000Y-119330000D01*
X109930000Y-119330000D02*
X109930000Y-157430000D01*
X109930000Y-157430000D02*
X107260000Y-157430000D01*
X122630000Y-121870000D02*
X125297000Y-121870000D01*
X122630000Y-121870000D02*
X122630000Y-157430000D01*
X122630000Y-157430000D02*
X125300000Y-157430000D01*
X125297000Y-160097000D02*
X120217000Y-160097000D01*
X107263000Y-160097000D02*
X107263000Y-116663000D01*
X107263000Y-116663000D02*
X125297000Y-116663000D01*
X120217000Y-162637000D02*
X120217000Y-160097000D01*
X112343000Y-160097000D02*
X107263000Y-160097000D01*
X112343000Y-162637000D02*
X112343000Y-160097000D01*
X120217000Y-162637000D02*
X112343000Y-162637000D01*
D12*
X132000000Y-113000000D02*
X132000000Y-109444000D01*
X137080000Y-113000000D02*
X137080000Y-109444000D01*
X132000000Y-105380000D02*
X132000000Y-106396000D01*
X137080000Y-105380000D02*
X137080000Y-106396000D01*
X132000000Y-102840000D02*
X132000000Y-105380000D01*
X137080000Y-102840000D02*
X137080000Y-105380000D01*
X132000000Y-102840000D02*
X137080000Y-102840000D01*
X137080000Y-113000000D02*
X132000000Y-113000000D01*
D11*
X155342820Y-116029136D02*
G75*
G02X149307518Y-116030000I-3017820J1179136D01*
G01*
X155342820Y-113670864D02*
G75*
G03X149307518Y-113670000I-3017820J-1179136D01*
G01*
X155342820Y-113670864D02*
G75*
G02X155342482Y-116030000I-3017820J-1179136D01*
G01*
X152325000Y-118050000D02*
X152325000Y-111650000D01*
X152365000Y-118050000D02*
X152365000Y-111650000D01*
X152405000Y-118050000D02*
X152405000Y-111650000D01*
X152445000Y-118048000D02*
X152445000Y-111652000D01*
X152485000Y-118047000D02*
X152485000Y-111653000D01*
X152525000Y-118044000D02*
X152525000Y-111656000D01*
X152565000Y-118042000D02*
X152565000Y-111658000D01*
X152605000Y-118038000D02*
X152605000Y-115830000D01*
X152605000Y-113870000D02*
X152605000Y-111662000D01*
X152645000Y-118035000D02*
X152645000Y-115830000D01*
X152645000Y-113870000D02*
X152645000Y-111665000D01*
X152685000Y-118030000D02*
X152685000Y-115830000D01*
X152685000Y-113870000D02*
X152685000Y-111670000D01*
X152725000Y-118026000D02*
X152725000Y-115830000D01*
X152725000Y-113870000D02*
X152725000Y-111674000D01*
X152765000Y-118020000D02*
X152765000Y-115830000D01*
X152765000Y-113870000D02*
X152765000Y-111680000D01*
X152805000Y-118015000D02*
X152805000Y-115830000D01*
X152805000Y-113870000D02*
X152805000Y-111685000D01*
X152845000Y-118008000D02*
X152845000Y-115830000D01*
X152845000Y-113870000D02*
X152845000Y-111692000D01*
X152885000Y-118002000D02*
X152885000Y-115830000D01*
X152885000Y-113870000D02*
X152885000Y-111698000D01*
X152925000Y-117994000D02*
X152925000Y-115830000D01*
X152925000Y-113870000D02*
X152925000Y-111706000D01*
X152965000Y-117987000D02*
X152965000Y-115830000D01*
X152965000Y-113870000D02*
X152965000Y-111713000D01*
X153005000Y-117978000D02*
X153005000Y-115830000D01*
X153005000Y-113870000D02*
X153005000Y-111722000D01*
X153046000Y-117969000D02*
X153046000Y-115830000D01*
X153046000Y-113870000D02*
X153046000Y-111731000D01*
X153086000Y-117960000D02*
X153086000Y-115830000D01*
X153086000Y-113870000D02*
X153086000Y-111740000D01*
X153126000Y-117950000D02*
X153126000Y-115830000D01*
X153126000Y-113870000D02*
X153126000Y-111750000D01*
X153166000Y-117940000D02*
X153166000Y-115830000D01*
X153166000Y-113870000D02*
X153166000Y-111760000D01*
X153206000Y-117929000D02*
X153206000Y-115830000D01*
X153206000Y-113870000D02*
X153206000Y-111771000D01*
X153246000Y-117917000D02*
X153246000Y-115830000D01*
X153246000Y-113870000D02*
X153246000Y-111783000D01*
X153286000Y-117905000D02*
X153286000Y-115830000D01*
X153286000Y-113870000D02*
X153286000Y-111795000D01*
X153326000Y-117892000D02*
X153326000Y-115830000D01*
X153326000Y-113870000D02*
X153326000Y-111808000D01*
X153366000Y-117879000D02*
X153366000Y-115830000D01*
X153366000Y-113870000D02*
X153366000Y-111821000D01*
X153406000Y-117865000D02*
X153406000Y-115830000D01*
X153406000Y-113870000D02*
X153406000Y-111835000D01*
X153446000Y-117851000D02*
X153446000Y-115830000D01*
X153446000Y-113870000D02*
X153446000Y-111849000D01*
X153486000Y-117836000D02*
X153486000Y-115830000D01*
X153486000Y-113870000D02*
X153486000Y-111864000D01*
X153526000Y-117820000D02*
X153526000Y-115830000D01*
X153526000Y-113870000D02*
X153526000Y-111880000D01*
X153566000Y-117804000D02*
X153566000Y-115830000D01*
X153566000Y-113870000D02*
X153566000Y-111896000D01*
X153606000Y-117787000D02*
X153606000Y-115830000D01*
X153606000Y-113870000D02*
X153606000Y-111913000D01*
X153646000Y-117769000D02*
X153646000Y-115830000D01*
X153646000Y-113870000D02*
X153646000Y-111931000D01*
X153686000Y-117751000D02*
X153686000Y-115830000D01*
X153686000Y-113870000D02*
X153686000Y-111949000D01*
X153726000Y-117732000D02*
X153726000Y-115830000D01*
X153726000Y-113870000D02*
X153726000Y-111968000D01*
X153766000Y-117713000D02*
X153766000Y-115830000D01*
X153766000Y-113870000D02*
X153766000Y-111987000D01*
X153806000Y-117693000D02*
X153806000Y-115830000D01*
X153806000Y-113870000D02*
X153806000Y-112007000D01*
X153846000Y-117672000D02*
X153846000Y-115830000D01*
X153846000Y-113870000D02*
X153846000Y-112028000D01*
X153886000Y-117650000D02*
X153886000Y-115830000D01*
X153886000Y-113870000D02*
X153886000Y-112050000D01*
X153926000Y-117628000D02*
X153926000Y-115830000D01*
X153926000Y-113870000D02*
X153926000Y-112072000D01*
X153966000Y-117605000D02*
X153966000Y-115830000D01*
X153966000Y-113870000D02*
X153966000Y-112095000D01*
X154006000Y-117581000D02*
X154006000Y-115830000D01*
X154006000Y-113870000D02*
X154006000Y-112119000D01*
X154046000Y-117556000D02*
X154046000Y-115830000D01*
X154046000Y-113870000D02*
X154046000Y-112144000D01*
X154086000Y-117531000D02*
X154086000Y-115830000D01*
X154086000Y-113870000D02*
X154086000Y-112169000D01*
X154126000Y-117504000D02*
X154126000Y-115830000D01*
X154126000Y-113870000D02*
X154126000Y-112196000D01*
X154166000Y-117477000D02*
X154166000Y-115830000D01*
X154166000Y-113870000D02*
X154166000Y-112223000D01*
X154206000Y-117449000D02*
X154206000Y-115830000D01*
X154206000Y-113870000D02*
X154206000Y-112251000D01*
X154246000Y-117420000D02*
X154246000Y-115830000D01*
X154246000Y-113870000D02*
X154246000Y-112280000D01*
X154286000Y-117390000D02*
X154286000Y-115830000D01*
X154286000Y-113870000D02*
X154286000Y-112310000D01*
X154326000Y-117360000D02*
X154326000Y-115830000D01*
X154326000Y-113870000D02*
X154326000Y-112340000D01*
X154366000Y-117328000D02*
X154366000Y-115830000D01*
X154366000Y-113870000D02*
X154366000Y-112372000D01*
X154406000Y-117295000D02*
X154406000Y-115830000D01*
X154406000Y-113870000D02*
X154406000Y-112405000D01*
X154446000Y-117261000D02*
X154446000Y-115830000D01*
X154446000Y-113870000D02*
X154446000Y-112439000D01*
X154486000Y-117225000D02*
X154486000Y-115830000D01*
X154486000Y-113870000D02*
X154486000Y-112475000D01*
X154526000Y-117189000D02*
X154526000Y-115830000D01*
X154526000Y-113870000D02*
X154526000Y-112511000D01*
X154566000Y-117151000D02*
X154566000Y-112549000D01*
X154606000Y-117112000D02*
X154606000Y-112588000D01*
X154646000Y-117072000D02*
X154646000Y-112628000D01*
X154686000Y-117030000D02*
X154686000Y-112670000D01*
X154726000Y-116987000D02*
X154726000Y-112713000D01*
X154766000Y-116942000D02*
X154766000Y-112758000D01*
X154806000Y-116895000D02*
X154806000Y-112805000D01*
X154846000Y-116847000D02*
X154846000Y-112853000D01*
X154886000Y-116796000D02*
X154886000Y-112904000D01*
X154926000Y-116744000D02*
X154926000Y-112956000D01*
X154966000Y-116689000D02*
X154966000Y-113011000D01*
X155006000Y-116631000D02*
X155006000Y-113069000D01*
X155046000Y-116571000D02*
X155046000Y-113129000D01*
X155086000Y-116508000D02*
X155086000Y-113192000D01*
X155126000Y-116441000D02*
X155126000Y-113259000D01*
X155166000Y-116370000D02*
X155166000Y-113330000D01*
X155206000Y-116295000D02*
X155206000Y-113405000D01*
X155246000Y-116214000D02*
X155246000Y-113486000D01*
X155286000Y-116128000D02*
X155286000Y-113572000D01*
X155326000Y-116034000D02*
X155326000Y-113666000D01*
X155366000Y-115931000D02*
X155366000Y-113769000D01*
X155406000Y-115816000D02*
X155406000Y-113884000D01*
X155446000Y-115684000D02*
X155446000Y-114016000D01*
X155486000Y-115526000D02*
X155486000Y-114174000D01*
X155526000Y-115318000D02*
X155526000Y-114382000D01*
X148875000Y-114850000D02*
X150075000Y-114850000D01*
X149475000Y-115500000D02*
X149475000Y-114200000D01*
X104779136Y-117482180D02*
G75*
G02X104780000Y-123517482I-1179136J-3017820D01*
G01*
X102420864Y-117482180D02*
G75*
G03X102420000Y-123517482I1179136J-3017820D01*
G01*
X102420864Y-117482180D02*
G75*
G02X104780000Y-117482518I1179136J-3017820D01*
G01*
X106800000Y-120500000D02*
X100400000Y-120500000D01*
X106800000Y-120460000D02*
X100400000Y-120460000D01*
X106800000Y-120420000D02*
X100400000Y-120420000D01*
X106798000Y-120380000D02*
X100402000Y-120380000D01*
X106797000Y-120340000D02*
X100403000Y-120340000D01*
X106794000Y-120300000D02*
X100406000Y-120300000D01*
X106792000Y-120260000D02*
X100408000Y-120260000D01*
X106788000Y-120220000D02*
X104580000Y-120220000D01*
X102620000Y-120220000D02*
X100412000Y-120220000D01*
X106785000Y-120180000D02*
X104580000Y-120180000D01*
X102620000Y-120180000D02*
X100415000Y-120180000D01*
X106780000Y-120140000D02*
X104580000Y-120140000D01*
X102620000Y-120140000D02*
X100420000Y-120140000D01*
X106776000Y-120100000D02*
X104580000Y-120100000D01*
X102620000Y-120100000D02*
X100424000Y-120100000D01*
X106770000Y-120060000D02*
X104580000Y-120060000D01*
X102620000Y-120060000D02*
X100430000Y-120060000D01*
X106765000Y-120020000D02*
X104580000Y-120020000D01*
X102620000Y-120020000D02*
X100435000Y-120020000D01*
X106758000Y-119980000D02*
X104580000Y-119980000D01*
X102620000Y-119980000D02*
X100442000Y-119980000D01*
X106752000Y-119940000D02*
X104580000Y-119940000D01*
X102620000Y-119940000D02*
X100448000Y-119940000D01*
X106744000Y-119900000D02*
X104580000Y-119900000D01*
X102620000Y-119900000D02*
X100456000Y-119900000D01*
X106737000Y-119860000D02*
X104580000Y-119860000D01*
X102620000Y-119860000D02*
X100463000Y-119860000D01*
X106728000Y-119820000D02*
X104580000Y-119820000D01*
X102620000Y-119820000D02*
X100472000Y-119820000D01*
X106719000Y-119779000D02*
X104580000Y-119779000D01*
X102620000Y-119779000D02*
X100481000Y-119779000D01*
X106710000Y-119739000D02*
X104580000Y-119739000D01*
X102620000Y-119739000D02*
X100490000Y-119739000D01*
X106700000Y-119699000D02*
X104580000Y-119699000D01*
X102620000Y-119699000D02*
X100500000Y-119699000D01*
X106690000Y-119659000D02*
X104580000Y-119659000D01*
X102620000Y-119659000D02*
X100510000Y-119659000D01*
X106679000Y-119619000D02*
X104580000Y-119619000D01*
X102620000Y-119619000D02*
X100521000Y-119619000D01*
X106667000Y-119579000D02*
X104580000Y-119579000D01*
X102620000Y-119579000D02*
X100533000Y-119579000D01*
X106655000Y-119539000D02*
X104580000Y-119539000D01*
X102620000Y-119539000D02*
X100545000Y-119539000D01*
X106642000Y-119499000D02*
X104580000Y-119499000D01*
X102620000Y-119499000D02*
X100558000Y-119499000D01*
X106629000Y-119459000D02*
X104580000Y-119459000D01*
X102620000Y-119459000D02*
X100571000Y-119459000D01*
X106615000Y-119419000D02*
X104580000Y-119419000D01*
X102620000Y-119419000D02*
X100585000Y-119419000D01*
X106601000Y-119379000D02*
X104580000Y-119379000D01*
X102620000Y-119379000D02*
X100599000Y-119379000D01*
X106586000Y-119339000D02*
X104580000Y-119339000D01*
X102620000Y-119339000D02*
X100614000Y-119339000D01*
X106570000Y-119299000D02*
X104580000Y-119299000D01*
X102620000Y-119299000D02*
X100630000Y-119299000D01*
X106554000Y-119259000D02*
X104580000Y-119259000D01*
X102620000Y-119259000D02*
X100646000Y-119259000D01*
X106537000Y-119219000D02*
X104580000Y-119219000D01*
X102620000Y-119219000D02*
X100663000Y-119219000D01*
X106519000Y-119179000D02*
X104580000Y-119179000D01*
X102620000Y-119179000D02*
X100681000Y-119179000D01*
X106501000Y-119139000D02*
X104580000Y-119139000D01*
X102620000Y-119139000D02*
X100699000Y-119139000D01*
X106482000Y-119099000D02*
X104580000Y-119099000D01*
X102620000Y-119099000D02*
X100718000Y-119099000D01*
X106463000Y-119059000D02*
X104580000Y-119059000D01*
X102620000Y-119059000D02*
X100737000Y-119059000D01*
X106443000Y-119019000D02*
X104580000Y-119019000D01*
X102620000Y-119019000D02*
X100757000Y-119019000D01*
X106422000Y-118979000D02*
X104580000Y-118979000D01*
X102620000Y-118979000D02*
X100778000Y-118979000D01*
X106400000Y-118939000D02*
X104580000Y-118939000D01*
X102620000Y-118939000D02*
X100800000Y-118939000D01*
X106378000Y-118899000D02*
X104580000Y-118899000D01*
X102620000Y-118899000D02*
X100822000Y-118899000D01*
X106355000Y-118859000D02*
X104580000Y-118859000D01*
X102620000Y-118859000D02*
X100845000Y-118859000D01*
X106331000Y-118819000D02*
X104580000Y-118819000D01*
X102620000Y-118819000D02*
X100869000Y-118819000D01*
X106306000Y-118779000D02*
X104580000Y-118779000D01*
X102620000Y-118779000D02*
X100894000Y-118779000D01*
X106281000Y-118739000D02*
X104580000Y-118739000D01*
X102620000Y-118739000D02*
X100919000Y-118739000D01*
X106254000Y-118699000D02*
X104580000Y-118699000D01*
X102620000Y-118699000D02*
X100946000Y-118699000D01*
X106227000Y-118659000D02*
X104580000Y-118659000D01*
X102620000Y-118659000D02*
X100973000Y-118659000D01*
X106199000Y-118619000D02*
X104580000Y-118619000D01*
X102620000Y-118619000D02*
X101001000Y-118619000D01*
X106170000Y-118579000D02*
X104580000Y-118579000D01*
X102620000Y-118579000D02*
X101030000Y-118579000D01*
X106140000Y-118539000D02*
X104580000Y-118539000D01*
X102620000Y-118539000D02*
X101060000Y-118539000D01*
X106110000Y-118499000D02*
X104580000Y-118499000D01*
X102620000Y-118499000D02*
X101090000Y-118499000D01*
X106078000Y-118459000D02*
X104580000Y-118459000D01*
X102620000Y-118459000D02*
X101122000Y-118459000D01*
X106045000Y-118419000D02*
X104580000Y-118419000D01*
X102620000Y-118419000D02*
X101155000Y-118419000D01*
X106011000Y-118379000D02*
X104580000Y-118379000D01*
X102620000Y-118379000D02*
X101189000Y-118379000D01*
X105975000Y-118339000D02*
X104580000Y-118339000D01*
X102620000Y-118339000D02*
X101225000Y-118339000D01*
X105939000Y-118299000D02*
X104580000Y-118299000D01*
X102620000Y-118299000D02*
X101261000Y-118299000D01*
X105901000Y-118259000D02*
X101299000Y-118259000D01*
X105862000Y-118219000D02*
X101338000Y-118219000D01*
X105822000Y-118179000D02*
X101378000Y-118179000D01*
X105780000Y-118139000D02*
X101420000Y-118139000D01*
X105737000Y-118099000D02*
X101463000Y-118099000D01*
X105692000Y-118059000D02*
X101508000Y-118059000D01*
X105645000Y-118019000D02*
X101555000Y-118019000D01*
X105597000Y-117979000D02*
X101603000Y-117979000D01*
X105546000Y-117939000D02*
X101654000Y-117939000D01*
X105494000Y-117899000D02*
X101706000Y-117899000D01*
X105439000Y-117859000D02*
X101761000Y-117859000D01*
X105381000Y-117819000D02*
X101819000Y-117819000D01*
X105321000Y-117779000D02*
X101879000Y-117779000D01*
X105258000Y-117739000D02*
X101942000Y-117739000D01*
X105191000Y-117699000D02*
X102009000Y-117699000D01*
X105120000Y-117659000D02*
X102080000Y-117659000D01*
X105045000Y-117619000D02*
X102155000Y-117619000D01*
X104964000Y-117579000D02*
X102236000Y-117579000D01*
X104878000Y-117539000D02*
X102322000Y-117539000D01*
X104784000Y-117499000D02*
X102416000Y-117499000D01*
X104681000Y-117459000D02*
X102519000Y-117459000D01*
X104566000Y-117419000D02*
X102634000Y-117419000D01*
X104434000Y-117379000D02*
X102766000Y-117379000D01*
X104276000Y-117339000D02*
X102924000Y-117339000D01*
X104068000Y-117299000D02*
X103132000Y-117299000D01*
X103600000Y-123950000D02*
X103600000Y-122750000D01*
X104250000Y-123350000D02*
X102950000Y-123350000D01*
X118050000Y-106450000D02*
X120050000Y-106450000D01*
X118050000Y-99850000D02*
X120050000Y-99850000D01*
X122350000Y-104150000D02*
X122350000Y-102150000D01*
X115750000Y-104150000D02*
X115750000Y-102150000D01*
D12*
X126100000Y-160000000D02*
X126100000Y-149000000D01*
X138100000Y-160000000D02*
X138100000Y-149000000D01*
X126100000Y-160000000D02*
X138100000Y-160000000D01*
D11*
X147484000Y-109890000D02*
X162216000Y-109890000D01*
X162216000Y-109890000D02*
X162216000Y-99730000D01*
X162216000Y-99730000D02*
X147484000Y-99730000D01*
X147484000Y-99730000D02*
X147484000Y-109890000D01*
X158660000Y-105216000D02*
X159676000Y-104581000D01*
X158533000Y-103032000D02*
X159168000Y-103032000D01*
X159168000Y-103032000D02*
X159168000Y-103692000D01*
X158533000Y-106232000D02*
X159168000Y-106232000D01*
X159168000Y-106232000D02*
X159168000Y-105597000D01*
X158660000Y-105597000D02*
X158660000Y-103692000D01*
X158660000Y-103692000D02*
X159676000Y-103692000D01*
X159676000Y-103692000D02*
X159676000Y-105597000D01*
X158660000Y-105597000D02*
X159676000Y-105597000D01*
X141020277Y-147605722D02*
G75*
G02X141020000Y-142994420I1179723J2305722D01*
G01*
X143379723Y-147605722D02*
G75*
G03X143380000Y-142994420I-1179723J2305722D01*
G01*
X143379723Y-147605722D02*
G75*
G02X141020000Y-147605580I-1179723J2305722D01*
G01*
X139650000Y-145300000D02*
X144750000Y-145300000D01*
X139650000Y-145340000D02*
X141220000Y-145340000D01*
X143180000Y-145340000D02*
X144750000Y-145340000D01*
X139651000Y-145380000D02*
X141220000Y-145380000D01*
X143180000Y-145380000D02*
X144749000Y-145380000D01*
X139652000Y-145420000D02*
X141220000Y-145420000D01*
X143180000Y-145420000D02*
X144748000Y-145420000D01*
X139654000Y-145460000D02*
X141220000Y-145460000D01*
X143180000Y-145460000D02*
X144746000Y-145460000D01*
X139657000Y-145500000D02*
X141220000Y-145500000D01*
X143180000Y-145500000D02*
X144743000Y-145500000D01*
X139661000Y-145540000D02*
X141220000Y-145540000D01*
X143180000Y-145540000D02*
X144739000Y-145540000D01*
X139665000Y-145580000D02*
X141220000Y-145580000D01*
X143180000Y-145580000D02*
X144735000Y-145580000D01*
X139669000Y-145620000D02*
X141220000Y-145620000D01*
X143180000Y-145620000D02*
X144731000Y-145620000D01*
X139675000Y-145660000D02*
X141220000Y-145660000D01*
X143180000Y-145660000D02*
X144725000Y-145660000D01*
X139681000Y-145700000D02*
X141220000Y-145700000D01*
X143180000Y-145700000D02*
X144719000Y-145700000D01*
X139687000Y-145740000D02*
X141220000Y-145740000D01*
X143180000Y-145740000D02*
X144713000Y-145740000D01*
X139694000Y-145780000D02*
X141220000Y-145780000D01*
X143180000Y-145780000D02*
X144706000Y-145780000D01*
X139702000Y-145820000D02*
X141220000Y-145820000D01*
X143180000Y-145820000D02*
X144698000Y-145820000D01*
X139711000Y-145860000D02*
X141220000Y-145860000D01*
X143180000Y-145860000D02*
X144689000Y-145860000D01*
X139720000Y-145900000D02*
X141220000Y-145900000D01*
X143180000Y-145900000D02*
X144680000Y-145900000D01*
X139730000Y-145940000D02*
X141220000Y-145940000D01*
X143180000Y-145940000D02*
X144670000Y-145940000D01*
X139740000Y-145980000D02*
X141220000Y-145980000D01*
X143180000Y-145980000D02*
X144660000Y-145980000D01*
X139752000Y-146021000D02*
X141220000Y-146021000D01*
X143180000Y-146021000D02*
X144648000Y-146021000D01*
X139764000Y-146061000D02*
X141220000Y-146061000D01*
X143180000Y-146061000D02*
X144636000Y-146061000D01*
X139776000Y-146101000D02*
X141220000Y-146101000D01*
X143180000Y-146101000D02*
X144624000Y-146101000D01*
X139790000Y-146141000D02*
X141220000Y-146141000D01*
X143180000Y-146141000D02*
X144610000Y-146141000D01*
X139804000Y-146181000D02*
X141220000Y-146181000D01*
X143180000Y-146181000D02*
X144596000Y-146181000D01*
X139818000Y-146221000D02*
X141220000Y-146221000D01*
X143180000Y-146221000D02*
X144582000Y-146221000D01*
X139834000Y-146261000D02*
X141220000Y-146261000D01*
X143180000Y-146261000D02*
X144566000Y-146261000D01*
X139850000Y-146301000D02*
X141220000Y-146301000D01*
X143180000Y-146301000D02*
X144550000Y-146301000D01*
X139867000Y-146341000D02*
X141220000Y-146341000D01*
X143180000Y-146341000D02*
X144533000Y-146341000D01*
X139885000Y-146381000D02*
X141220000Y-146381000D01*
X143180000Y-146381000D02*
X144515000Y-146381000D01*
X139904000Y-146421000D02*
X141220000Y-146421000D01*
X143180000Y-146421000D02*
X144496000Y-146421000D01*
X139924000Y-146461000D02*
X141220000Y-146461000D01*
X143180000Y-146461000D02*
X144476000Y-146461000D01*
X139944000Y-146501000D02*
X141220000Y-146501000D01*
X143180000Y-146501000D02*
X144456000Y-146501000D01*
X139966000Y-146541000D02*
X141220000Y-146541000D01*
X143180000Y-146541000D02*
X144434000Y-146541000D01*
X139988000Y-146581000D02*
X141220000Y-146581000D01*
X143180000Y-146581000D02*
X144412000Y-146581000D01*
X140011000Y-146621000D02*
X141220000Y-146621000D01*
X143180000Y-146621000D02*
X144389000Y-146621000D01*
X140035000Y-146661000D02*
X141220000Y-146661000D01*
X143180000Y-146661000D02*
X144365000Y-146661000D01*
X140060000Y-146701000D02*
X141220000Y-146701000D01*
X143180000Y-146701000D02*
X144340000Y-146701000D01*
X140087000Y-146741000D02*
X141220000Y-146741000D01*
X143180000Y-146741000D02*
X144313000Y-146741000D01*
X140114000Y-146781000D02*
X141220000Y-146781000D01*
X143180000Y-146781000D02*
X144286000Y-146781000D01*
X140142000Y-146821000D02*
X141220000Y-146821000D01*
X143180000Y-146821000D02*
X144258000Y-146821000D01*
X140172000Y-146861000D02*
X141220000Y-146861000D01*
X143180000Y-146861000D02*
X144228000Y-146861000D01*
X140203000Y-146901000D02*
X141220000Y-146901000D01*
X143180000Y-146901000D02*
X144197000Y-146901000D01*
X140235000Y-146941000D02*
X141220000Y-146941000D01*
X143180000Y-146941000D02*
X144165000Y-146941000D01*
X140268000Y-146981000D02*
X141220000Y-146981000D01*
X143180000Y-146981000D02*
X144132000Y-146981000D01*
X140303000Y-147021000D02*
X141220000Y-147021000D01*
X143180000Y-147021000D02*
X144097000Y-147021000D01*
X140339000Y-147061000D02*
X141220000Y-147061000D01*
X143180000Y-147061000D02*
X144061000Y-147061000D01*
X140377000Y-147101000D02*
X141220000Y-147101000D01*
X143180000Y-147101000D02*
X144023000Y-147101000D01*
X140417000Y-147141000D02*
X141220000Y-147141000D01*
X143180000Y-147141000D02*
X143983000Y-147141000D01*
X140458000Y-147181000D02*
X141220000Y-147181000D01*
X143180000Y-147181000D02*
X143942000Y-147181000D01*
X140501000Y-147221000D02*
X141220000Y-147221000D01*
X143180000Y-147221000D02*
X143899000Y-147221000D01*
X140546000Y-147261000D02*
X141220000Y-147261000D01*
X143180000Y-147261000D02*
X143854000Y-147261000D01*
X140594000Y-147301000D02*
X143806000Y-147301000D01*
X140644000Y-147341000D02*
X143756000Y-147341000D01*
X140696000Y-147381000D02*
X143704000Y-147381000D01*
X140752000Y-147421000D02*
X143648000Y-147421000D01*
X140810000Y-147461000D02*
X143590000Y-147461000D01*
X140873000Y-147501000D02*
X143527000Y-147501000D01*
X140939000Y-147541000D02*
X143461000Y-147541000D01*
X141011000Y-147581000D02*
X143389000Y-147581000D01*
X141088000Y-147621000D02*
X143312000Y-147621000D01*
X141172000Y-147661000D02*
X143228000Y-147661000D01*
X141266000Y-147701000D02*
X143134000Y-147701000D01*
X141371000Y-147741000D02*
X143029000Y-147741000D01*
X141493000Y-147781000D02*
X142907000Y-147781000D01*
X141641000Y-147821000D02*
X142759000Y-147821000D01*
X141846000Y-147861000D02*
X142554000Y-147861000D01*
X142200000Y-142100000D02*
X142200000Y-143300000D01*
X141550000Y-142700000D02*
X142850000Y-142700000D01*
D12*
X151790000Y-136314740D02*
X151790000Y-135552740D01*
X151790000Y-141775740D02*
X151790000Y-142664740D01*
X153060000Y-136314740D02*
X150393000Y-136314740D01*
X150393000Y-136314740D02*
X150393000Y-141775740D01*
X150393000Y-141775740D02*
X153060000Y-141775740D01*
X153060000Y-141775740D02*
X153060000Y-136314740D01*
X138800000Y-160000000D02*
X138800000Y-149000000D01*
X150800000Y-160000000D02*
X150800000Y-149000000D01*
X138800000Y-160000000D02*
X150800000Y-160000000D01*
X162504000Y-136225000D02*
X162504000Y-131018000D01*
X162504000Y-123144000D02*
X162504000Y-128097000D01*
X155900000Y-136225000D02*
X155900000Y-131145000D01*
X155900000Y-123144000D02*
X155900000Y-128224000D01*
X155900000Y-123144000D02*
X162504000Y-123144000D01*
X162504000Y-136225000D02*
X155900000Y-136225000D01*
D11*
X169850000Y-142840000D02*
X169850000Y-146440000D01*
X169122795Y-142315816D02*
G75*
G02X169850000Y-142840000I-1122795J-2324184D01*
G01*
X166901193Y-142283600D02*
G75*
G03X165400000Y-144640000I1098807J-2356400D01*
G01*
X166901193Y-146996400D02*
G75*
G02X165400000Y-144640000I1098807J2356400D01*
G01*
X169122795Y-146964184D02*
G75*
G03X169850000Y-146440000I-1122795J2324184D01*
G01*
X169825000Y-119440000D02*
X169825000Y-123040000D01*
X169097795Y-118915816D02*
G75*
G02X169825000Y-119440000I-1122795J-2324184D01*
G01*
X166876193Y-118883600D02*
G75*
G03X165375000Y-121240000I1098807J-2356400D01*
G01*
X166876193Y-123596400D02*
G75*
G02X165375000Y-121240000I1098807J2356400D01*
G01*
X169097795Y-123564184D02*
G75*
G03X169825000Y-123040000I-1122795J2324184D01*
G01*
D12*
X162500880Y-156000500D02*
X153499120Y-156000500D01*
X162500880Y-159500620D02*
X153499120Y-159500620D01*
X153499120Y-159500620D02*
X153499120Y-144999760D01*
X153499120Y-144999760D02*
X162500880Y-144999760D01*
X162500880Y-144999760D02*
X162500880Y-159500620D01*
D11*
X162767820Y-141079136D02*
G75*
G02X156732518Y-141080000I-3017820J1179136D01*
G01*
X162767820Y-138720864D02*
G75*
G03X156732518Y-138720000I-3017820J-1179136D01*
G01*
X162767820Y-138720864D02*
G75*
G02X162767482Y-141080000I-3017820J-1179136D01*
G01*
X159750000Y-143100000D02*
X159750000Y-136700000D01*
X159790000Y-143100000D02*
X159790000Y-136700000D01*
X159830000Y-143100000D02*
X159830000Y-136700000D01*
X159870000Y-143098000D02*
X159870000Y-136702000D01*
X159910000Y-143097000D02*
X159910000Y-136703000D01*
X159950000Y-143094000D02*
X159950000Y-136706000D01*
X159990000Y-143092000D02*
X159990000Y-136708000D01*
X160030000Y-143088000D02*
X160030000Y-140880000D01*
X160030000Y-138920000D02*
X160030000Y-136712000D01*
X160070000Y-143085000D02*
X160070000Y-140880000D01*
X160070000Y-138920000D02*
X160070000Y-136715000D01*
X160110000Y-143080000D02*
X160110000Y-140880000D01*
X160110000Y-138920000D02*
X160110000Y-136720000D01*
X160150000Y-143076000D02*
X160150000Y-140880000D01*
X160150000Y-138920000D02*
X160150000Y-136724000D01*
X160190000Y-143070000D02*
X160190000Y-140880000D01*
X160190000Y-138920000D02*
X160190000Y-136730000D01*
X160230000Y-143065000D02*
X160230000Y-140880000D01*
X160230000Y-138920000D02*
X160230000Y-136735000D01*
X160270000Y-143058000D02*
X160270000Y-140880000D01*
X160270000Y-138920000D02*
X160270000Y-136742000D01*
X160310000Y-143052000D02*
X160310000Y-140880000D01*
X160310000Y-138920000D02*
X160310000Y-136748000D01*
X160350000Y-143044000D02*
X160350000Y-140880000D01*
X160350000Y-138920000D02*
X160350000Y-136756000D01*
X160390000Y-143037000D02*
X160390000Y-140880000D01*
X160390000Y-138920000D02*
X160390000Y-136763000D01*
X160430000Y-143028000D02*
X160430000Y-140880000D01*
X160430000Y-138920000D02*
X160430000Y-136772000D01*
X160471000Y-143019000D02*
X160471000Y-140880000D01*
X160471000Y-138920000D02*
X160471000Y-136781000D01*
X160511000Y-143010000D02*
X160511000Y-140880000D01*
X160511000Y-138920000D02*
X160511000Y-136790000D01*
X160551000Y-143000000D02*
X160551000Y-140880000D01*
X160551000Y-138920000D02*
X160551000Y-136800000D01*
X160591000Y-142990000D02*
X160591000Y-140880000D01*
X160591000Y-138920000D02*
X160591000Y-136810000D01*
X160631000Y-142979000D02*
X160631000Y-140880000D01*
X160631000Y-138920000D02*
X160631000Y-136821000D01*
X160671000Y-142967000D02*
X160671000Y-140880000D01*
X160671000Y-138920000D02*
X160671000Y-136833000D01*
X160711000Y-142955000D02*
X160711000Y-140880000D01*
X160711000Y-138920000D02*
X160711000Y-136845000D01*
X160751000Y-142942000D02*
X160751000Y-140880000D01*
X160751000Y-138920000D02*
X160751000Y-136858000D01*
X160791000Y-142929000D02*
X160791000Y-140880000D01*
X160791000Y-138920000D02*
X160791000Y-136871000D01*
X160831000Y-142915000D02*
X160831000Y-140880000D01*
X160831000Y-138920000D02*
X160831000Y-136885000D01*
X160871000Y-142901000D02*
X160871000Y-140880000D01*
X160871000Y-138920000D02*
X160871000Y-136899000D01*
X160911000Y-142886000D02*
X160911000Y-140880000D01*
X160911000Y-138920000D02*
X160911000Y-136914000D01*
X160951000Y-142870000D02*
X160951000Y-140880000D01*
X160951000Y-138920000D02*
X160951000Y-136930000D01*
X160991000Y-142854000D02*
X160991000Y-140880000D01*
X160991000Y-138920000D02*
X160991000Y-136946000D01*
X161031000Y-142837000D02*
X161031000Y-140880000D01*
X161031000Y-138920000D02*
X161031000Y-136963000D01*
X161071000Y-142819000D02*
X161071000Y-140880000D01*
X161071000Y-138920000D02*
X161071000Y-136981000D01*
X161111000Y-142801000D02*
X161111000Y-140880000D01*
X161111000Y-138920000D02*
X161111000Y-136999000D01*
X161151000Y-142782000D02*
X161151000Y-140880000D01*
X161151000Y-138920000D02*
X161151000Y-137018000D01*
X161191000Y-142763000D02*
X161191000Y-140880000D01*
X161191000Y-138920000D02*
X161191000Y-137037000D01*
X161231000Y-142743000D02*
X161231000Y-140880000D01*
X161231000Y-138920000D02*
X161231000Y-137057000D01*
X161271000Y-142722000D02*
X161271000Y-140880000D01*
X161271000Y-138920000D02*
X161271000Y-137078000D01*
X161311000Y-142700000D02*
X161311000Y-140880000D01*
X161311000Y-138920000D02*
X161311000Y-137100000D01*
X161351000Y-142678000D02*
X161351000Y-140880000D01*
X161351000Y-138920000D02*
X161351000Y-137122000D01*
X161391000Y-142655000D02*
X161391000Y-140880000D01*
X161391000Y-138920000D02*
X161391000Y-137145000D01*
X161431000Y-142631000D02*
X161431000Y-140880000D01*
X161431000Y-138920000D02*
X161431000Y-137169000D01*
X161471000Y-142606000D02*
X161471000Y-140880000D01*
X161471000Y-138920000D02*
X161471000Y-137194000D01*
X161511000Y-142581000D02*
X161511000Y-140880000D01*
X161511000Y-138920000D02*
X161511000Y-137219000D01*
X161551000Y-142554000D02*
X161551000Y-140880000D01*
X161551000Y-138920000D02*
X161551000Y-137246000D01*
X161591000Y-142527000D02*
X161591000Y-140880000D01*
X161591000Y-138920000D02*
X161591000Y-137273000D01*
X161631000Y-142499000D02*
X161631000Y-140880000D01*
X161631000Y-138920000D02*
X161631000Y-137301000D01*
X161671000Y-142470000D02*
X161671000Y-140880000D01*
X161671000Y-138920000D02*
X161671000Y-137330000D01*
X161711000Y-142440000D02*
X161711000Y-140880000D01*
X161711000Y-138920000D02*
X161711000Y-137360000D01*
X161751000Y-142410000D02*
X161751000Y-140880000D01*
X161751000Y-138920000D02*
X161751000Y-137390000D01*
X161791000Y-142378000D02*
X161791000Y-140880000D01*
X161791000Y-138920000D02*
X161791000Y-137422000D01*
X161831000Y-142345000D02*
X161831000Y-140880000D01*
X161831000Y-138920000D02*
X161831000Y-137455000D01*
X161871000Y-142311000D02*
X161871000Y-140880000D01*
X161871000Y-138920000D02*
X161871000Y-137489000D01*
X161911000Y-142275000D02*
X161911000Y-140880000D01*
X161911000Y-138920000D02*
X161911000Y-137525000D01*
X161951000Y-142239000D02*
X161951000Y-140880000D01*
X161951000Y-138920000D02*
X161951000Y-137561000D01*
X161991000Y-142201000D02*
X161991000Y-137599000D01*
X162031000Y-142162000D02*
X162031000Y-137638000D01*
X162071000Y-142122000D02*
X162071000Y-137678000D01*
X162111000Y-142080000D02*
X162111000Y-137720000D01*
X162151000Y-142037000D02*
X162151000Y-137763000D01*
X162191000Y-141992000D02*
X162191000Y-137808000D01*
X162231000Y-141945000D02*
X162231000Y-137855000D01*
X162271000Y-141897000D02*
X162271000Y-137903000D01*
X162311000Y-141846000D02*
X162311000Y-137954000D01*
X162351000Y-141794000D02*
X162351000Y-138006000D01*
X162391000Y-141739000D02*
X162391000Y-138061000D01*
X162431000Y-141681000D02*
X162431000Y-138119000D01*
X162471000Y-141621000D02*
X162471000Y-138179000D01*
X162511000Y-141558000D02*
X162511000Y-138242000D01*
X162551000Y-141491000D02*
X162551000Y-138309000D01*
X162591000Y-141420000D02*
X162591000Y-138380000D01*
X162631000Y-141345000D02*
X162631000Y-138455000D01*
X162671000Y-141264000D02*
X162671000Y-138536000D01*
X162711000Y-141178000D02*
X162711000Y-138622000D01*
X162751000Y-141084000D02*
X162751000Y-138716000D01*
X162791000Y-140981000D02*
X162791000Y-138819000D01*
X162831000Y-140866000D02*
X162831000Y-138934000D01*
X162871000Y-140734000D02*
X162871000Y-139066000D01*
X162911000Y-140576000D02*
X162911000Y-139224000D01*
X162951000Y-140368000D02*
X162951000Y-139432000D01*
X156300000Y-139900000D02*
X157500000Y-139900000D01*
X156900000Y-140550000D02*
X156900000Y-139250000D01*
X113982180Y-111745864D02*
G75*
G02X120017482Y-111745000I3017820J-1179136D01*
G01*
X113982180Y-114104136D02*
G75*
G03X120017482Y-114105000I3017820J1179136D01*
G01*
X113982180Y-114104136D02*
G75*
G02X113982518Y-111745000I3017820J1179136D01*
G01*
X117000000Y-109725000D02*
X117000000Y-116125000D01*
X116960000Y-109725000D02*
X116960000Y-116125000D01*
X116920000Y-109725000D02*
X116920000Y-116125000D01*
X116880000Y-109727000D02*
X116880000Y-116123000D01*
X116840000Y-109728000D02*
X116840000Y-116122000D01*
X116800000Y-109731000D02*
X116800000Y-116119000D01*
X116760000Y-109733000D02*
X116760000Y-116117000D01*
X116720000Y-109737000D02*
X116720000Y-111945000D01*
X116720000Y-113905000D02*
X116720000Y-116113000D01*
X116680000Y-109740000D02*
X116680000Y-111945000D01*
X116680000Y-113905000D02*
X116680000Y-116110000D01*
X116640000Y-109745000D02*
X116640000Y-111945000D01*
X116640000Y-113905000D02*
X116640000Y-116105000D01*
X116600000Y-109749000D02*
X116600000Y-111945000D01*
X116600000Y-113905000D02*
X116600000Y-116101000D01*
X116560000Y-109755000D02*
X116560000Y-111945000D01*
X116560000Y-113905000D02*
X116560000Y-116095000D01*
X116520000Y-109760000D02*
X116520000Y-111945000D01*
X116520000Y-113905000D02*
X116520000Y-116090000D01*
X116480000Y-109767000D02*
X116480000Y-111945000D01*
X116480000Y-113905000D02*
X116480000Y-116083000D01*
X116440000Y-109773000D02*
X116440000Y-111945000D01*
X116440000Y-113905000D02*
X116440000Y-116077000D01*
X116400000Y-109781000D02*
X116400000Y-111945000D01*
X116400000Y-113905000D02*
X116400000Y-116069000D01*
X116360000Y-109788000D02*
X116360000Y-111945000D01*
X116360000Y-113905000D02*
X116360000Y-116062000D01*
X116320000Y-109797000D02*
X116320000Y-111945000D01*
X116320000Y-113905000D02*
X116320000Y-116053000D01*
X116279000Y-109806000D02*
X116279000Y-111945000D01*
X116279000Y-113905000D02*
X116279000Y-116044000D01*
X116239000Y-109815000D02*
X116239000Y-111945000D01*
X116239000Y-113905000D02*
X116239000Y-116035000D01*
X116199000Y-109825000D02*
X116199000Y-111945000D01*
X116199000Y-113905000D02*
X116199000Y-116025000D01*
X116159000Y-109835000D02*
X116159000Y-111945000D01*
X116159000Y-113905000D02*
X116159000Y-116015000D01*
X116119000Y-109846000D02*
X116119000Y-111945000D01*
X116119000Y-113905000D02*
X116119000Y-116004000D01*
X116079000Y-109858000D02*
X116079000Y-111945000D01*
X116079000Y-113905000D02*
X116079000Y-115992000D01*
X116039000Y-109870000D02*
X116039000Y-111945000D01*
X116039000Y-113905000D02*
X116039000Y-115980000D01*
X115999000Y-109883000D02*
X115999000Y-111945000D01*
X115999000Y-113905000D02*
X115999000Y-115967000D01*
X115959000Y-109896000D02*
X115959000Y-111945000D01*
X115959000Y-113905000D02*
X115959000Y-115954000D01*
X115919000Y-109910000D02*
X115919000Y-111945000D01*
X115919000Y-113905000D02*
X115919000Y-115940000D01*
X115879000Y-109924000D02*
X115879000Y-111945000D01*
X115879000Y-113905000D02*
X115879000Y-115926000D01*
X115839000Y-109939000D02*
X115839000Y-111945000D01*
X115839000Y-113905000D02*
X115839000Y-115911000D01*
X115799000Y-109955000D02*
X115799000Y-111945000D01*
X115799000Y-113905000D02*
X115799000Y-115895000D01*
X115759000Y-109971000D02*
X115759000Y-111945000D01*
X115759000Y-113905000D02*
X115759000Y-115879000D01*
X115719000Y-109988000D02*
X115719000Y-111945000D01*
X115719000Y-113905000D02*
X115719000Y-115862000D01*
X115679000Y-110006000D02*
X115679000Y-111945000D01*
X115679000Y-113905000D02*
X115679000Y-115844000D01*
X115639000Y-110024000D02*
X115639000Y-111945000D01*
X115639000Y-113905000D02*
X115639000Y-115826000D01*
X115599000Y-110043000D02*
X115599000Y-111945000D01*
X115599000Y-113905000D02*
X115599000Y-115807000D01*
X115559000Y-110062000D02*
X115559000Y-111945000D01*
X115559000Y-113905000D02*
X115559000Y-115788000D01*
X115519000Y-110082000D02*
X115519000Y-111945000D01*
X115519000Y-113905000D02*
X115519000Y-115768000D01*
X115479000Y-110103000D02*
X115479000Y-111945000D01*
X115479000Y-113905000D02*
X115479000Y-115747000D01*
X115439000Y-110125000D02*
X115439000Y-111945000D01*
X115439000Y-113905000D02*
X115439000Y-115725000D01*
X115399000Y-110147000D02*
X115399000Y-111945000D01*
X115399000Y-113905000D02*
X115399000Y-115703000D01*
X115359000Y-110170000D02*
X115359000Y-111945000D01*
X115359000Y-113905000D02*
X115359000Y-115680000D01*
X115319000Y-110194000D02*
X115319000Y-111945000D01*
X115319000Y-113905000D02*
X115319000Y-115656000D01*
X115279000Y-110219000D02*
X115279000Y-111945000D01*
X115279000Y-113905000D02*
X115279000Y-115631000D01*
X115239000Y-110244000D02*
X115239000Y-111945000D01*
X115239000Y-113905000D02*
X115239000Y-115606000D01*
X115199000Y-110271000D02*
X115199000Y-111945000D01*
X115199000Y-113905000D02*
X115199000Y-115579000D01*
X115159000Y-110298000D02*
X115159000Y-111945000D01*
X115159000Y-113905000D02*
X115159000Y-115552000D01*
X115119000Y-110326000D02*
X115119000Y-111945000D01*
X115119000Y-113905000D02*
X115119000Y-115524000D01*
X115079000Y-110355000D02*
X115079000Y-111945000D01*
X115079000Y-113905000D02*
X115079000Y-115495000D01*
X115039000Y-110385000D02*
X115039000Y-111945000D01*
X115039000Y-113905000D02*
X115039000Y-115465000D01*
X114999000Y-110415000D02*
X114999000Y-111945000D01*
X114999000Y-113905000D02*
X114999000Y-115435000D01*
X114959000Y-110447000D02*
X114959000Y-111945000D01*
X114959000Y-113905000D02*
X114959000Y-115403000D01*
X114919000Y-110480000D02*
X114919000Y-111945000D01*
X114919000Y-113905000D02*
X114919000Y-115370000D01*
X114879000Y-110514000D02*
X114879000Y-111945000D01*
X114879000Y-113905000D02*
X114879000Y-115336000D01*
X114839000Y-110550000D02*
X114839000Y-111945000D01*
X114839000Y-113905000D02*
X114839000Y-115300000D01*
X114799000Y-110586000D02*
X114799000Y-111945000D01*
X114799000Y-113905000D02*
X114799000Y-115264000D01*
X114759000Y-110624000D02*
X114759000Y-115226000D01*
X114719000Y-110663000D02*
X114719000Y-115187000D01*
X114679000Y-110703000D02*
X114679000Y-115147000D01*
X114639000Y-110745000D02*
X114639000Y-115105000D01*
X114599000Y-110788000D02*
X114599000Y-115062000D01*
X114559000Y-110833000D02*
X114559000Y-115017000D01*
X114519000Y-110880000D02*
X114519000Y-114970000D01*
X114479000Y-110928000D02*
X114479000Y-114922000D01*
X114439000Y-110979000D02*
X114439000Y-114871000D01*
X114399000Y-111031000D02*
X114399000Y-114819000D01*
X114359000Y-111086000D02*
X114359000Y-114764000D01*
X114319000Y-111144000D02*
X114319000Y-114706000D01*
X114279000Y-111204000D02*
X114279000Y-114646000D01*
X114239000Y-111267000D02*
X114239000Y-114583000D01*
X114199000Y-111334000D02*
X114199000Y-114516000D01*
X114159000Y-111405000D02*
X114159000Y-114445000D01*
X114119000Y-111480000D02*
X114119000Y-114370000D01*
X114079000Y-111561000D02*
X114079000Y-114289000D01*
X114039000Y-111647000D02*
X114039000Y-114203000D01*
X113999000Y-111741000D02*
X113999000Y-114109000D01*
X113959000Y-111844000D02*
X113959000Y-114006000D01*
X113919000Y-111959000D02*
X113919000Y-113891000D01*
X113879000Y-112091000D02*
X113879000Y-113759000D01*
X113839000Y-112249000D02*
X113839000Y-113601000D01*
X113799000Y-112457000D02*
X113799000Y-113393000D01*
X120450000Y-112925000D02*
X119250000Y-112925000D01*
X119850000Y-112275000D02*
X119850000Y-113575000D01*
X169850000Y-131640000D02*
X169850000Y-135240000D01*
X169122795Y-131115816D02*
G75*
G02X169850000Y-131640000I-1122795J-2324184D01*
G01*
X166901193Y-131083600D02*
G75*
G03X165400000Y-133440000I1098807J-2356400D01*
G01*
X166901193Y-135796400D02*
G75*
G02X165400000Y-133440000I1098807J2356400D01*
G01*
X169122795Y-135764184D02*
G75*
G03X169850000Y-135240000I-1122795J2324184D01*
G01*
X100865000Y-112671000D02*
X100865000Y-116135000D01*
X100865000Y-107215000D02*
X100865000Y-110679000D01*
X111985000Y-112671000D02*
X111985000Y-116135000D01*
X111985000Y-107215000D02*
X111985000Y-110679000D01*
X111985000Y-116135000D02*
X100865000Y-116135000D01*
X111985000Y-107215000D02*
X100865000Y-107215000D01*
D12*
X145600000Y-120684740D02*
X145600000Y-119922740D01*
X145600000Y-126145740D02*
X145600000Y-127034740D01*
X146870000Y-120684740D02*
X144203000Y-120684740D01*
X144203000Y-120684740D02*
X144203000Y-126145740D01*
X144203000Y-126145740D02*
X146870000Y-126145740D01*
X146870000Y-126145740D02*
X146870000Y-120684740D01*
D11*
X101270000Y-125410000D02*
X103930000Y-125410000D01*
X101270000Y-148330000D02*
X101270000Y-125410000D01*
X103930000Y-148330000D02*
X103930000Y-125410000D01*
X101270000Y-148330000D02*
X103930000Y-148330000D01*
X101270000Y-149600000D02*
X101270000Y-150930000D01*
X101270000Y-150930000D02*
X102600000Y-150930000D01*
X124630000Y-102130000D02*
X124630000Y-99470000D01*
X127230000Y-102130000D02*
X124630000Y-102130000D01*
X127230000Y-99470000D02*
X124630000Y-99470000D01*
X127230000Y-102130000D02*
X127230000Y-99470000D01*
X128500000Y-102130000D02*
X129830000Y-102130000D01*
X129830000Y-102130000D02*
X129830000Y-100800000D01*
X145370000Y-99470000D02*
X145370000Y-102130000D01*
X142770000Y-99470000D02*
X145370000Y-99470000D01*
X142770000Y-102130000D02*
X145370000Y-102130000D01*
X142770000Y-99470000D02*
X142770000Y-102130000D01*
X141500000Y-99470000D02*
X140170000Y-99470000D01*
X140170000Y-99470000D02*
X140170000Y-100800000D01*
X131740000Y-119900000D02*
X137990000Y-119900000D01*
X131740000Y-114850000D02*
X137990000Y-114850000D01*
X131740000Y-114850000D02*
G75*
G03X131740000Y-119900000I0J-2525000D01*
G01*
X137990000Y-114850000D02*
G75*
G02X137990000Y-119900000I0J-2525000D01*
G01*
D12*
X123700000Y-113000000D02*
X123700000Y-109444000D01*
X128780000Y-113000000D02*
X128780000Y-109444000D01*
X123700000Y-105380000D02*
X123700000Y-106396000D01*
X128780000Y-105380000D02*
X128780000Y-106396000D01*
X123700000Y-102840000D02*
X123700000Y-105380000D01*
X128780000Y-102840000D02*
X128780000Y-105380000D01*
X123700000Y-102840000D02*
X128780000Y-102840000D01*
X128780000Y-113000000D02*
X123700000Y-113000000D01*
X140300000Y-113000000D02*
X140300000Y-109444000D01*
X145380000Y-113000000D02*
X145380000Y-109444000D01*
X140300000Y-105380000D02*
X140300000Y-106396000D01*
X145380000Y-105380000D02*
X145380000Y-106396000D01*
X140300000Y-102840000D02*
X140300000Y-105380000D01*
X145380000Y-102840000D02*
X145380000Y-105380000D01*
X140300000Y-102840000D02*
X145380000Y-102840000D01*
X145380000Y-113000000D02*
X140300000Y-113000000D01*
D11*
X114425000Y-99375000D02*
X114425000Y-100475000D01*
X114425000Y-100475000D02*
X111825000Y-100475000D01*
X114425000Y-99375000D02*
X111825000Y-99375000D01*
X106425000Y-100475000D02*
X106425000Y-99375000D01*
X106425000Y-99375000D02*
X109025000Y-99375000D01*
X106425000Y-100475000D02*
X109025000Y-100475000D01*
X111720000Y-103475000D02*
X111720000Y-104475000D01*
X113080000Y-104475000D02*
X113080000Y-103475000D01*
X107995000Y-103450000D02*
X107995000Y-104450000D01*
X109355000Y-104450000D02*
X109355000Y-103450000D01*
D12*
X127450000Y-119534740D02*
X127450000Y-118772740D01*
X127450000Y-124995740D02*
X127450000Y-125884740D01*
X128720000Y-119534740D02*
X126053000Y-119534740D01*
X126053000Y-119534740D02*
X126053000Y-124995740D01*
X126053000Y-124995740D02*
X128720000Y-124995740D01*
X128720000Y-124995740D02*
X128720000Y-119534740D01*
D11*
X169870000Y-117005000D02*
X169870000Y-106765000D01*
X165229000Y-117005000D02*
X165229000Y-106765000D01*
X169870000Y-117005000D02*
X165229000Y-117005000D01*
X169870000Y-106765000D02*
X165229000Y-106765000D01*
X168360000Y-117005000D02*
X168360000Y-106765000D01*
X169870000Y-113735000D02*
X168360000Y-113735000D01*
X169870000Y-110034000D02*
X168360000Y-110034000D01*
X131605000Y-134170000D02*
X128945000Y-134170000D01*
X131605000Y-131570000D02*
X131605000Y-134170000D01*
X128945000Y-131570000D02*
X128945000Y-134170000D01*
X131605000Y-131570000D02*
X128945000Y-131570000D01*
X131605000Y-130300000D02*
X131605000Y-128970000D01*
X131605000Y-128970000D02*
X130275000Y-128970000D01*
D12*
X117041905Y-114972381D02*
X117041905Y-115781905D01*
X116994286Y-115877143D01*
X116946667Y-115924762D01*
X116851429Y-115972381D01*
X116660952Y-115972381D01*
X116565714Y-115924762D01*
X116518095Y-115877143D01*
X116470476Y-115781905D01*
X116470476Y-114972381D01*
X115565714Y-114972381D02*
X115756191Y-114972381D01*
X115851429Y-115020000D01*
X115899048Y-115067619D01*
X115994286Y-115210476D01*
X116041905Y-115400952D01*
X116041905Y-115781905D01*
X115994286Y-115877143D01*
X115946667Y-115924762D01*
X115851429Y-115972381D01*
X115660952Y-115972381D01*
X115565714Y-115924762D01*
X115518095Y-115877143D01*
X115470476Y-115781905D01*
X115470476Y-115543810D01*
X115518095Y-115448571D01*
X115565714Y-115400952D01*
X115660952Y-115353333D01*
X115851429Y-115353333D01*
X115946667Y-115400952D01*
X115994286Y-115448571D01*
X116041905Y-115543810D01*
X131702381Y-110758334D02*
X131702381Y-110282143D01*
X130702381Y-110282143D01*
X131130952Y-111234524D02*
X131083333Y-111139286D01*
X131035714Y-111091667D01*
X130940476Y-111044048D01*
X130892857Y-111044048D01*
X130797619Y-111091667D01*
X130750000Y-111139286D01*
X130702381Y-111234524D01*
X130702381Y-111425001D01*
X130750000Y-111520239D01*
X130797619Y-111567858D01*
X130892857Y-111615477D01*
X130940476Y-111615477D01*
X131035714Y-111567858D01*
X131083333Y-111520239D01*
X131130952Y-111425001D01*
X131130952Y-111234524D01*
X131178571Y-111139286D01*
X131226190Y-111091667D01*
X131321429Y-111044048D01*
X131511905Y-111044048D01*
X131607143Y-111091667D01*
X131654762Y-111139286D01*
X131702381Y-111234524D01*
X131702381Y-111425001D01*
X131654762Y-111520239D01*
X131607143Y-111567858D01*
X131511905Y-111615477D01*
X131321429Y-111615477D01*
X131226190Y-111567858D01*
X131178571Y-111520239D01*
X131130952Y-111425001D01*
X148057143Y-114683334D02*
X148104762Y-114635715D01*
X148152381Y-114492858D01*
X148152381Y-114397620D01*
X148104762Y-114254762D01*
X148009524Y-114159524D01*
X147914286Y-114111905D01*
X147723810Y-114064286D01*
X147580952Y-114064286D01*
X147390476Y-114111905D01*
X147295238Y-114159524D01*
X147200000Y-114254762D01*
X147152381Y-114397620D01*
X147152381Y-114492858D01*
X147200000Y-114635715D01*
X147247619Y-114683334D01*
X147580952Y-115254762D02*
X147533333Y-115159524D01*
X147485714Y-115111905D01*
X147390476Y-115064286D01*
X147342857Y-115064286D01*
X147247619Y-115111905D01*
X147200000Y-115159524D01*
X147152381Y-115254762D01*
X147152381Y-115445239D01*
X147200000Y-115540477D01*
X147247619Y-115588096D01*
X147342857Y-115635715D01*
X147390476Y-115635715D01*
X147485714Y-115588096D01*
X147533333Y-115540477D01*
X147580952Y-115445239D01*
X147580952Y-115254762D01*
X147628571Y-115159524D01*
X147676190Y-115111905D01*
X147771429Y-115064286D01*
X147961905Y-115064286D01*
X148057143Y-115111905D01*
X148104762Y-115159524D01*
X148152381Y-115254762D01*
X148152381Y-115445239D01*
X148104762Y-115540477D01*
X148057143Y-115588096D01*
X147961905Y-115635715D01*
X147771429Y-115635715D01*
X147676190Y-115588096D01*
X147628571Y-115540477D01*
X147580952Y-115445239D01*
X105992857Y-124757143D02*
X106040476Y-124804762D01*
X106183333Y-124852381D01*
X106278571Y-124852381D01*
X106421429Y-124804762D01*
X106516667Y-124709524D01*
X106564286Y-124614286D01*
X106611905Y-124423810D01*
X106611905Y-124280952D01*
X106564286Y-124090476D01*
X106516667Y-123995238D01*
X106421429Y-123900000D01*
X106278571Y-123852381D01*
X106183333Y-123852381D01*
X106040476Y-123900000D01*
X105992857Y-123947619D01*
X105040476Y-124852381D02*
X105611905Y-124852381D01*
X105326191Y-124852381D02*
X105326191Y-123852381D01*
X105421429Y-123995238D01*
X105516667Y-124090476D01*
X105611905Y-124138095D01*
X104421429Y-123852381D02*
X104326190Y-123852381D01*
X104230952Y-123900000D01*
X104183333Y-123947619D01*
X104135714Y-124042857D01*
X104088095Y-124233333D01*
X104088095Y-124471429D01*
X104135714Y-124661905D01*
X104183333Y-124757143D01*
X104230952Y-124804762D01*
X104326190Y-124852381D01*
X104421429Y-124852381D01*
X104516667Y-124804762D01*
X104564286Y-124757143D01*
X104611905Y-124661905D01*
X104659524Y-124471429D01*
X104659524Y-124233333D01*
X104611905Y-124042857D01*
X104564286Y-123947619D01*
X104516667Y-123900000D01*
X104421429Y-123852381D01*
X119383333Y-107602381D02*
X119383333Y-108316667D01*
X119430953Y-108459524D01*
X119526191Y-108554762D01*
X119669048Y-108602381D01*
X119764286Y-108602381D01*
X118954762Y-107697619D02*
X118907143Y-107650000D01*
X118811905Y-107602381D01*
X118573809Y-107602381D01*
X118478571Y-107650000D01*
X118430952Y-107697619D01*
X118383333Y-107792857D01*
X118383333Y-107888095D01*
X118430952Y-108030952D01*
X119002381Y-108602381D01*
X118383333Y-108602381D01*
X132849523Y-147112381D02*
X132849523Y-147826667D01*
X132897143Y-147969524D01*
X132992381Y-148064762D01*
X133135238Y-148112381D01*
X133230476Y-148112381D01*
X131849523Y-148112381D02*
X132420952Y-148112381D01*
X132135238Y-148112381D02*
X132135238Y-147112381D01*
X132230476Y-147255238D01*
X132325714Y-147350476D01*
X132420952Y-147398095D01*
X131230476Y-147112381D02*
X131135237Y-147112381D01*
X131039999Y-147160000D01*
X130992380Y-147207619D01*
X130944761Y-147302857D01*
X130897142Y-147493333D01*
X130897142Y-147731429D01*
X130944761Y-147921905D01*
X130992380Y-148017143D01*
X131039999Y-148064762D01*
X131135237Y-148112381D01*
X131230476Y-148112381D01*
X131325714Y-148064762D01*
X131373333Y-148017143D01*
X131420952Y-147921905D01*
X131468571Y-147731429D01*
X131468571Y-147493333D01*
X131420952Y-147302857D01*
X131373333Y-147207619D01*
X131325714Y-147160000D01*
X131230476Y-147112381D01*
X147174381Y-101531905D02*
X146174381Y-101531905D01*
X147174381Y-102103334D02*
X146602952Y-101674762D01*
X146174381Y-102103334D02*
X146745810Y-101531905D01*
X147174381Y-103055715D02*
X147174381Y-102484286D01*
X147174381Y-102770000D02*
X146174381Y-102770000D01*
X146317238Y-102674762D01*
X146412476Y-102579524D01*
X146460095Y-102484286D01*
X139041143Y-144645143D02*
X139088762Y-144597524D01*
X139136381Y-144454667D01*
X139136381Y-144359429D01*
X139088762Y-144216571D01*
X138993524Y-144121333D01*
X138898286Y-144073714D01*
X138707810Y-144026095D01*
X138564952Y-144026095D01*
X138374476Y-144073714D01*
X138279238Y-144121333D01*
X138184000Y-144216571D01*
X138136381Y-144359429D01*
X138136381Y-144454667D01*
X138184000Y-144597524D01*
X138231619Y-144645143D01*
X139136381Y-145597524D02*
X139136381Y-145026095D01*
X139136381Y-145311809D02*
X138136381Y-145311809D01*
X138279238Y-145216571D01*
X138374476Y-145121333D01*
X138422095Y-145026095D01*
X138469714Y-146454667D02*
X139136381Y-146454667D01*
X138088762Y-146216571D02*
X138803048Y-145978476D01*
X138803048Y-146597524D01*
X154402381Y-138433334D02*
X154402381Y-137957143D01*
X153402381Y-137957143D01*
X153497619Y-138719048D02*
X153450000Y-138766667D01*
X153402381Y-138861905D01*
X153402381Y-139100001D01*
X153450000Y-139195239D01*
X153497619Y-139242858D01*
X153592857Y-139290477D01*
X153688095Y-139290477D01*
X153830952Y-139242858D01*
X154402381Y-138671429D01*
X154402381Y-139290477D01*
X148161333Y-147534381D02*
X148161333Y-148248667D01*
X148208953Y-148391524D01*
X148304191Y-148486762D01*
X148447048Y-148534381D01*
X148542286Y-148534381D01*
X147161333Y-148534381D02*
X147732762Y-148534381D01*
X147447048Y-148534381D02*
X147447048Y-147534381D01*
X147542286Y-147677238D01*
X147637524Y-147772476D01*
X147732762Y-147820095D01*
X155652381Y-125658334D02*
X155652381Y-125182143D01*
X154652381Y-125182143D01*
X154652381Y-126467858D02*
X154652381Y-125991667D01*
X155128571Y-125944048D01*
X155080952Y-125991667D01*
X155033333Y-126086905D01*
X155033333Y-126325001D01*
X155080952Y-126420239D01*
X155128571Y-126467858D01*
X155223810Y-126515477D01*
X155461905Y-126515477D01*
X155557143Y-126467858D01*
X155604762Y-126420239D01*
X155652381Y-126325001D01*
X155652381Y-126086905D01*
X155604762Y-125991667D01*
X155557143Y-125944048D01*
X164987619Y-144544762D02*
X164940000Y-144449524D01*
X164844762Y-144354286D01*
X164701905Y-144211429D01*
X164654286Y-144116190D01*
X164654286Y-144020952D01*
X164892381Y-144068571D02*
X164844762Y-143973333D01*
X164749524Y-143878095D01*
X164559048Y-143830476D01*
X164225714Y-143830476D01*
X164035238Y-143878095D01*
X163940000Y-143973333D01*
X163892381Y-144068571D01*
X163892381Y-144259048D01*
X163940000Y-144354286D01*
X164035238Y-144449524D01*
X164225714Y-144497143D01*
X164559048Y-144497143D01*
X164749524Y-144449524D01*
X164844762Y-144354286D01*
X164892381Y-144259048D01*
X164892381Y-144068571D01*
X163892381Y-145354286D02*
X163892381Y-145163809D01*
X163940000Y-145068571D01*
X163987619Y-145020952D01*
X164130476Y-144925714D01*
X164320952Y-144878095D01*
X164701905Y-144878095D01*
X164797143Y-144925714D01*
X164844762Y-144973333D01*
X164892381Y-145068571D01*
X164892381Y-145259048D01*
X164844762Y-145354286D01*
X164797143Y-145401905D01*
X164701905Y-145449524D01*
X164463810Y-145449524D01*
X164368571Y-145401905D01*
X164320952Y-145354286D01*
X164273333Y-145259048D01*
X164273333Y-145068571D01*
X164320952Y-144973333D01*
X164368571Y-144925714D01*
X164463810Y-144878095D01*
X164962619Y-121144762D02*
X164915000Y-121049524D01*
X164819762Y-120954286D01*
X164676905Y-120811429D01*
X164629286Y-120716190D01*
X164629286Y-120620952D01*
X164867381Y-120668571D02*
X164819762Y-120573333D01*
X164724524Y-120478095D01*
X164534048Y-120430476D01*
X164200714Y-120430476D01*
X164010238Y-120478095D01*
X163915000Y-120573333D01*
X163867381Y-120668571D01*
X163867381Y-120859048D01*
X163915000Y-120954286D01*
X164010238Y-121049524D01*
X164200714Y-121097143D01*
X164534048Y-121097143D01*
X164724524Y-121049524D01*
X164819762Y-120954286D01*
X164867381Y-120859048D01*
X164867381Y-120668571D01*
X164295952Y-121668571D02*
X164248333Y-121573333D01*
X164200714Y-121525714D01*
X164105476Y-121478095D01*
X164057857Y-121478095D01*
X163962619Y-121525714D01*
X163915000Y-121573333D01*
X163867381Y-121668571D01*
X163867381Y-121859048D01*
X163915000Y-121954286D01*
X163962619Y-122001905D01*
X164057857Y-122049524D01*
X164105476Y-122049524D01*
X164200714Y-122001905D01*
X164248333Y-121954286D01*
X164295952Y-121859048D01*
X164295952Y-121668571D01*
X164343571Y-121573333D01*
X164391190Y-121525714D01*
X164486429Y-121478095D01*
X164676905Y-121478095D01*
X164772143Y-121525714D01*
X164819762Y-121573333D01*
X164867381Y-121668571D01*
X164867381Y-121859048D01*
X164819762Y-121954286D01*
X164772143Y-122001905D01*
X164676905Y-122049524D01*
X164486429Y-122049524D01*
X164391190Y-122001905D01*
X164343571Y-121954286D01*
X164295952Y-121859048D01*
X156533333Y-142177381D02*
X156533333Y-142891667D01*
X156580953Y-143034524D01*
X156676191Y-143129762D01*
X156819048Y-143177381D01*
X156914286Y-143177381D01*
X155914286Y-142605952D02*
X156009524Y-142558333D01*
X156057143Y-142510714D01*
X156104762Y-142415476D01*
X156104762Y-142367857D01*
X156057143Y-142272619D01*
X156009524Y-142225000D01*
X155914286Y-142177381D01*
X155723809Y-142177381D01*
X155628571Y-142225000D01*
X155580952Y-142272619D01*
X155533333Y-142367857D01*
X155533333Y-142415476D01*
X155580952Y-142510714D01*
X155628571Y-142558333D01*
X155723809Y-142605952D01*
X155914286Y-142605952D01*
X156009524Y-142653571D01*
X156057143Y-142701190D01*
X156104762Y-142796429D01*
X156104762Y-142986905D01*
X156057143Y-143082143D01*
X156009524Y-143129762D01*
X155914286Y-143177381D01*
X155723809Y-143177381D01*
X155628571Y-143129762D01*
X155580952Y-143082143D01*
X155533333Y-142986905D01*
X155533333Y-142796429D01*
X155580952Y-142701190D01*
X155628571Y-142653571D01*
X155723809Y-142605952D01*
X164457143Y-139557143D02*
X164504762Y-139509524D01*
X164552381Y-139366667D01*
X164552381Y-139271429D01*
X164504762Y-139128571D01*
X164409524Y-139033333D01*
X164314286Y-138985714D01*
X164123810Y-138938095D01*
X163980952Y-138938095D01*
X163790476Y-138985714D01*
X163695238Y-139033333D01*
X163600000Y-139128571D01*
X163552381Y-139271429D01*
X163552381Y-139366667D01*
X163600000Y-139509524D01*
X163647619Y-139557143D01*
X163552381Y-139890476D02*
X163552381Y-140509524D01*
X163933333Y-140176190D01*
X163933333Y-140319048D01*
X163980952Y-140414286D01*
X164028571Y-140461905D01*
X164123810Y-140509524D01*
X164361905Y-140509524D01*
X164457143Y-140461905D01*
X164504762Y-140414286D01*
X164552381Y-140319048D01*
X164552381Y-140033333D01*
X164504762Y-139938095D01*
X164457143Y-139890476D01*
X163552381Y-141414286D02*
X163552381Y-140938095D01*
X164028571Y-140890476D01*
X163980952Y-140938095D01*
X163933333Y-141033333D01*
X163933333Y-141271429D01*
X163980952Y-141366667D01*
X164028571Y-141414286D01*
X164123810Y-141461905D01*
X164361905Y-141461905D01*
X164457143Y-141414286D01*
X164504762Y-141366667D01*
X164552381Y-141271429D01*
X164552381Y-141033333D01*
X164504762Y-140938095D01*
X164457143Y-140890476D01*
X121332143Y-114032143D02*
X121379762Y-113984524D01*
X121427381Y-113841667D01*
X121427381Y-113746429D01*
X121379762Y-113603571D01*
X121284524Y-113508333D01*
X121189286Y-113460714D01*
X120998810Y-113413095D01*
X120855952Y-113413095D01*
X120665476Y-113460714D01*
X120570238Y-113508333D01*
X120475000Y-113603571D01*
X120427381Y-113746429D01*
X120427381Y-113841667D01*
X120475000Y-113984524D01*
X120522619Y-114032143D01*
X121427381Y-114984524D02*
X121427381Y-114413095D01*
X121427381Y-114698809D02*
X120427381Y-114698809D01*
X120570238Y-114603571D01*
X120665476Y-114508333D01*
X120713095Y-114413095D01*
X121427381Y-115936905D02*
X121427381Y-115365476D01*
X121427381Y-115651190D02*
X120427381Y-115651190D01*
X120570238Y-115555952D01*
X120665476Y-115460714D01*
X120713095Y-115365476D01*
X164987619Y-133344762D02*
X164940000Y-133249524D01*
X164844762Y-133154286D01*
X164701905Y-133011429D01*
X164654286Y-132916190D01*
X164654286Y-132820952D01*
X164892381Y-132868571D02*
X164844762Y-132773333D01*
X164749524Y-132678095D01*
X164559048Y-132630476D01*
X164225714Y-132630476D01*
X164035238Y-132678095D01*
X163940000Y-132773333D01*
X163892381Y-132868571D01*
X163892381Y-133059048D01*
X163940000Y-133154286D01*
X164035238Y-133249524D01*
X164225714Y-133297143D01*
X164559048Y-133297143D01*
X164749524Y-133249524D01*
X164844762Y-133154286D01*
X164892381Y-133059048D01*
X164892381Y-132868571D01*
X164225714Y-134154286D02*
X164892381Y-134154286D01*
X163844762Y-133916190D02*
X164559048Y-133678095D01*
X164559048Y-134297143D01*
X112903571Y-108234524D02*
X112903571Y-108567858D01*
X113427381Y-108710715D02*
X113427381Y-108234524D01*
X112427381Y-108234524D01*
X112427381Y-108710715D01*
X113427381Y-109663096D02*
X113427381Y-109091667D01*
X113427381Y-109377381D02*
X112427381Y-109377381D01*
X112570238Y-109282143D01*
X112665476Y-109186905D01*
X112713095Y-109091667D01*
X143952381Y-123458334D02*
X143952381Y-122982143D01*
X142952381Y-122982143D01*
X142952381Y-123696429D02*
X142952381Y-124315477D01*
X143333333Y-123982143D01*
X143333333Y-124125001D01*
X143380952Y-124220239D01*
X143428571Y-124267858D01*
X143523810Y-124315477D01*
X143761905Y-124315477D01*
X143857143Y-124267858D01*
X143904762Y-124220239D01*
X143952381Y-124125001D01*
X143952381Y-123839286D01*
X143904762Y-123744048D01*
X143857143Y-123696429D01*
X102933333Y-151382381D02*
X102933333Y-152096667D01*
X102980953Y-152239524D01*
X103076191Y-152334762D01*
X103219048Y-152382381D01*
X103314286Y-152382381D01*
X102552381Y-151382381D02*
X101885714Y-151382381D01*
X102314286Y-152382381D01*
X130282381Y-100466667D02*
X130996667Y-100466667D01*
X131139524Y-100419047D01*
X131234762Y-100323809D01*
X131282381Y-100180952D01*
X131282381Y-100085714D01*
X130282381Y-101419048D02*
X130282381Y-100942857D01*
X130758571Y-100895238D01*
X130710952Y-100942857D01*
X130663333Y-101038095D01*
X130663333Y-101276191D01*
X130710952Y-101371429D01*
X130758571Y-101419048D01*
X130853810Y-101466667D01*
X131091905Y-101466667D01*
X131187143Y-101419048D01*
X131234762Y-101371429D01*
X131282381Y-101276191D01*
X131282381Y-101038095D01*
X131234762Y-100942857D01*
X131187143Y-100895238D01*
X138622381Y-100466667D02*
X139336667Y-100466667D01*
X139479524Y-100419047D01*
X139574762Y-100323809D01*
X139622381Y-100180952D01*
X139622381Y-100085714D01*
X139622381Y-100990476D02*
X139622381Y-101180952D01*
X139574762Y-101276191D01*
X139527143Y-101323810D01*
X139384286Y-101419048D01*
X139193810Y-101466667D01*
X138812857Y-101466667D01*
X138717619Y-101419048D01*
X138670000Y-101371429D01*
X138622381Y-101276191D01*
X138622381Y-101085714D01*
X138670000Y-100990476D01*
X138717619Y-100942857D01*
X138812857Y-100895238D01*
X139050952Y-100895238D01*
X139146190Y-100942857D01*
X139193810Y-100990476D01*
X139241429Y-101085714D01*
X139241429Y-101276191D01*
X139193810Y-101371429D01*
X139146190Y-101419048D01*
X139050952Y-101466667D01*
X135341191Y-120876190D02*
X135341191Y-121352381D01*
X135674524Y-120352381D02*
X135341191Y-120876190D01*
X135007857Y-120352381D01*
X134150714Y-121352381D02*
X134722143Y-121352381D01*
X134436429Y-121352381D02*
X134436429Y-120352381D01*
X134531667Y-120495238D01*
X134626905Y-120590476D01*
X134722143Y-120638095D01*
X123377381Y-110633334D02*
X123377381Y-110157143D01*
X122377381Y-110157143D01*
X122377381Y-111395239D02*
X122377381Y-111204762D01*
X122425000Y-111109524D01*
X122472619Y-111061905D01*
X122615476Y-110966667D01*
X122805952Y-110919048D01*
X123186905Y-110919048D01*
X123282143Y-110966667D01*
X123329762Y-111014286D01*
X123377381Y-111109524D01*
X123377381Y-111300001D01*
X123329762Y-111395239D01*
X123282143Y-111442858D01*
X123186905Y-111490477D01*
X122948810Y-111490477D01*
X122853571Y-111442858D01*
X122805952Y-111395239D01*
X122758333Y-111300001D01*
X122758333Y-111109524D01*
X122805952Y-111014286D01*
X122853571Y-110966667D01*
X122948810Y-110919048D01*
X139977381Y-110332143D02*
X139977381Y-109855952D01*
X138977381Y-109855952D01*
X139977381Y-111189286D02*
X139977381Y-110617857D01*
X139977381Y-110903571D02*
X138977381Y-110903571D01*
X139120238Y-110808333D01*
X139215476Y-110713095D01*
X139263095Y-110617857D01*
X138977381Y-111808333D02*
X138977381Y-111903572D01*
X139025000Y-111998810D01*
X139072619Y-112046429D01*
X139167857Y-112094048D01*
X139358333Y-112141667D01*
X139596429Y-112141667D01*
X139786905Y-112094048D01*
X139882143Y-112046429D01*
X139929762Y-111998810D01*
X139977381Y-111903572D01*
X139977381Y-111808333D01*
X139929762Y-111713095D01*
X139882143Y-111665476D01*
X139786905Y-111617857D01*
X139596429Y-111570238D01*
X139358333Y-111570238D01*
X139167857Y-111617857D01*
X139072619Y-111665476D01*
X139025000Y-111713095D01*
X138977381Y-111808333D01*
X113363095Y-101752381D02*
X113363095Y-100752381D01*
X113125000Y-100752381D01*
X112982142Y-100800000D01*
X112886904Y-100895238D01*
X112839285Y-100990476D01*
X112791666Y-101180952D01*
X112791666Y-101323810D01*
X112839285Y-101514286D01*
X112886904Y-101609524D01*
X112982142Y-101704762D01*
X113125000Y-101752381D01*
X113363095Y-101752381D01*
X112458333Y-100752381D02*
X111839285Y-100752381D01*
X112172619Y-101133333D01*
X112029761Y-101133333D01*
X111934523Y-101180952D01*
X111886904Y-101228571D01*
X111839285Y-101323810D01*
X111839285Y-101561905D01*
X111886904Y-101657143D01*
X111934523Y-101704762D01*
X112029761Y-101752381D01*
X112315476Y-101752381D01*
X112410714Y-101704762D01*
X112458333Y-101657143D01*
X108963095Y-101777381D02*
X108963095Y-100777381D01*
X108725000Y-100777381D01*
X108582142Y-100825000D01*
X108486904Y-100920238D01*
X108439285Y-101015476D01*
X108391666Y-101205952D01*
X108391666Y-101348810D01*
X108439285Y-101539286D01*
X108486904Y-101634524D01*
X108582142Y-101729762D01*
X108725000Y-101777381D01*
X108963095Y-101777381D01*
X107534523Y-101110714D02*
X107534523Y-101777381D01*
X107772619Y-100729762D02*
X108010714Y-101444048D01*
X107391666Y-101444048D01*
X114302381Y-103332143D02*
X113826190Y-102998809D01*
X114302381Y-102760714D02*
X113302381Y-102760714D01*
X113302381Y-103141667D01*
X113350000Y-103236905D01*
X113397619Y-103284524D01*
X113492857Y-103332143D01*
X113635714Y-103332143D01*
X113730952Y-103284524D01*
X113778571Y-103236905D01*
X113826190Y-103141667D01*
X113826190Y-102760714D01*
X114302381Y-104284524D02*
X114302381Y-103713095D01*
X114302381Y-103998809D02*
X113302381Y-103998809D01*
X113445238Y-103903571D01*
X113540476Y-103808333D01*
X113588095Y-103713095D01*
X113397619Y-104665476D02*
X113350000Y-104713095D01*
X113302381Y-104808333D01*
X113302381Y-105046429D01*
X113350000Y-105141667D01*
X113397619Y-105189286D01*
X113492857Y-105236905D01*
X113588095Y-105236905D01*
X113730952Y-105189286D01*
X114302381Y-104617857D01*
X114302381Y-105236905D01*
X110577381Y-103307143D02*
X110101190Y-102973809D01*
X110577381Y-102735714D02*
X109577381Y-102735714D01*
X109577381Y-103116667D01*
X109625000Y-103211905D01*
X109672619Y-103259524D01*
X109767857Y-103307143D01*
X109910714Y-103307143D01*
X110005952Y-103259524D01*
X110053571Y-103211905D01*
X110101190Y-103116667D01*
X110101190Y-102735714D01*
X110577381Y-104259524D02*
X110577381Y-103688095D01*
X110577381Y-103973809D02*
X109577381Y-103973809D01*
X109720238Y-103878571D01*
X109815476Y-103783333D01*
X109863095Y-103688095D01*
X109577381Y-104592857D02*
X109577381Y-105211905D01*
X109958333Y-104878571D01*
X109958333Y-105021429D01*
X110005952Y-105116667D01*
X110053571Y-105164286D01*
X110148810Y-105211905D01*
X110386905Y-105211905D01*
X110482143Y-105164286D01*
X110529762Y-105116667D01*
X110577381Y-105021429D01*
X110577381Y-104735714D01*
X110529762Y-104640476D01*
X110482143Y-104592857D01*
X129952381Y-122258334D02*
X129952381Y-121782143D01*
X128952381Y-121782143D01*
X129952381Y-123115477D02*
X129952381Y-122544048D01*
X129952381Y-122829762D02*
X128952381Y-122829762D01*
X129095238Y-122734524D01*
X129190476Y-122639286D01*
X129238095Y-122544048D01*
X163777381Y-114538095D02*
X164586905Y-114538095D01*
X164682143Y-114585714D01*
X164729762Y-114633333D01*
X164777381Y-114728571D01*
X164777381Y-114919048D01*
X164729762Y-115014286D01*
X164682143Y-115061905D01*
X164586905Y-115109524D01*
X163777381Y-115109524D01*
X163777381Y-115490476D02*
X163777381Y-116109524D01*
X164158333Y-115776190D01*
X164158333Y-115919048D01*
X164205952Y-116014286D01*
X164253571Y-116061905D01*
X164348810Y-116109524D01*
X164586905Y-116109524D01*
X164682143Y-116061905D01*
X164729762Y-116014286D01*
X164777381Y-115919048D01*
X164777381Y-115633333D01*
X164729762Y-115538095D01*
X164682143Y-115490476D01*
X130608333Y-127422381D02*
X130608333Y-128136667D01*
X130655953Y-128279524D01*
X130751191Y-128374762D01*
X130894048Y-128422381D01*
X130989286Y-128422381D01*
X130227381Y-127422381D02*
X129608333Y-127422381D01*
X129941667Y-127803333D01*
X129798809Y-127803333D01*
X129703571Y-127850952D01*
X129655952Y-127898571D01*
X129608333Y-127993810D01*
X129608333Y-128231905D01*
X129655952Y-128327143D01*
X129703571Y-128374762D01*
X129798809Y-128422381D01*
X130084524Y-128422381D01*
X130179762Y-128374762D01*
X130227381Y-128327143D01*
M02*
