G04 #@! TF.FileFunction,Soldermask,Bot*
%FSLAX46Y46*%
G04 Gerber Fmt 4.6, Leading zero omitted, Abs format (unit mm)*
G04 Created by KiCad (PCBNEW 4.0.7) date 05/26/22 10:22:03*
%MOMM*%
%LPD*%
G01*
G04 APERTURE LIST*
%ADD10C,0.100000*%
%ADD11R,1.700000X1.700000*%
%ADD12O,1.700000X1.700000*%
%ADD13R,1.600000X1.600000*%
%ADD14O,1.600000X1.600000*%
%ADD15C,5.600000*%
%ADD16C,1.600000*%
%ADD17C,2.200000*%
%ADD18C,2.000000*%
%ADD19C,1.500000*%
%ADD20R,1.727200X1.727200*%
%ADD21O,1.727200X1.727200*%
G04 APERTURE END LIST*
D10*
D11*
X141200000Y-99600000D03*
D12*
X138660000Y-99600000D03*
X136120000Y-99600000D03*
X133580000Y-99600000D03*
X131040000Y-99600000D03*
D13*
X145150000Y-74300000D03*
D14*
X142610000Y-66680000D03*
X142610000Y-74300000D03*
X145150000Y-66680000D03*
D11*
X127900000Y-53300000D03*
D12*
X125360000Y-53300000D03*
X122820000Y-53300000D03*
X120280000Y-53300000D03*
D15*
X106000000Y-98000000D03*
X148000000Y-98000000D03*
X148000000Y-28000000D03*
X106000000Y-28000000D03*
D13*
X122050000Y-93200000D03*
D16*
X122050000Y-95700000D03*
D13*
X129800000Y-91400000D03*
D16*
X129800000Y-93900000D03*
D13*
X125400000Y-28800000D03*
D16*
X122900000Y-28800000D03*
D11*
X104000000Y-53000000D03*
D12*
X104000000Y-55540000D03*
X104000000Y-58080000D03*
X104000000Y-60620000D03*
D11*
X150000000Y-78500000D03*
D12*
X150000000Y-75960000D03*
X150000000Y-73420000D03*
X150000000Y-70880000D03*
D17*
X145260000Y-32860000D03*
X145260000Y-37940000D03*
X150340000Y-37940000D03*
X150340000Y-32860000D03*
D18*
X147800000Y-35400000D03*
D17*
X145260000Y-41160000D03*
X145260000Y-46240000D03*
X150340000Y-46240000D03*
X150340000Y-41160000D03*
D18*
X147800000Y-43700000D03*
D17*
X145260000Y-49460000D03*
X145260000Y-54540000D03*
X150340000Y-54540000D03*
X150340000Y-49460000D03*
D18*
X147800000Y-52000000D03*
D11*
X120100000Y-99800000D03*
D12*
X117560000Y-99800000D03*
D19*
X109000000Y-71000000D03*
X109000000Y-66120000D03*
D20*
X113600000Y-46700000D03*
D21*
X113600000Y-44160000D03*
X111060000Y-46700000D03*
X111060000Y-44160000D03*
X108520000Y-46700000D03*
X108520000Y-44160000D03*
D20*
X129900000Y-68400000D03*
D21*
X129900000Y-70940000D03*
X132440000Y-68400000D03*
X132440000Y-70940000D03*
X134980000Y-68400000D03*
X134980000Y-70940000D03*
D11*
X104000000Y-75000000D03*
D12*
X104000000Y-77540000D03*
X104000000Y-80080000D03*
X104000000Y-82620000D03*
X104000000Y-85160000D03*
X104000000Y-87700000D03*
X104000000Y-90240000D03*
X104000000Y-92780000D03*
D11*
X150000000Y-92800000D03*
D12*
X150000000Y-90260000D03*
X150000000Y-87720000D03*
X150000000Y-85180000D03*
X150000000Y-82640000D03*
D11*
X150000000Y-66350000D03*
D12*
X150000000Y-63810000D03*
X150000000Y-61270000D03*
X150000000Y-58730000D03*
D18*
X130000000Y-35900000D03*
X135080000Y-35890000D03*
X113500000Y-90450000D03*
X113510000Y-95530000D03*
M02*
