M48
;DRILL file {KiCad 4.0.7} date 05/26/22 10:21:58
;FORMAT={-:-/ absolute / inch / decimal}
FMAT,2
INCH,TZ
T1C0.016
T2C0.031
T3C0.039
T4C0.040
T5C0.059
T6C0.067
T7C0.126
%
G90
G05
M72
T1
X4.2992Y-1.9409
X4.3445Y-2.4016
X4.3445Y-2.5413
X4.5079Y-2.2795
X4.5217Y-1.935
X4.5591Y-1.6949
X4.5866Y-2.2205
X4.6437Y-2.0039
X4.6673Y-3.1555
X4.6988Y-2.4469
X4.7028Y-2.3701
X4.7579Y-2.5217
X4.7736Y-1.6437
X4.8051Y-2.3681
X4.8189Y-1.9488
X4.8465Y-2.4173
X4.8858Y-1.6437
X4.9252Y-1.9862
X4.9685Y-2.6654
X5.2402Y-1.4685
X5.3976Y-1.5984
X5.4409Y-2.2559
X5.4941Y-2.7618
X5.5413Y-2.2874
X5.5925Y-2.8071
X5.7717Y-2.4626
T2
X4.2913Y-2.6031
X4.2913Y-2.7953
X4.8051Y-3.6693
X4.8051Y-3.7677
X4.8386Y-1.1339
X4.937Y-1.1339
X5.1102Y-3.5984
X5.1102Y-3.6969
X5.6146Y-2.6252
X5.6146Y-2.9252
X5.7146Y-2.6252
X5.7146Y-2.9252
T3
X4.0945Y-2.0866
X4.0945Y-2.1866
X4.0945Y-2.2866
X4.0945Y-2.3866
X4.0945Y-2.9528
X4.0945Y-3.0528
X4.0945Y-3.1528
X4.0945Y-3.2528
X4.0945Y-3.3528
X4.0945Y-3.4528
X4.0945Y-3.5528
X4.0945Y-3.6528
X4.4685Y-3.561
X4.4689Y-3.761
X4.6283Y-3.9291
X4.7283Y-3.9291
X4.7354Y-2.0984
X4.8354Y-2.0984
X4.9354Y-2.0984
X5.0354Y-2.0984
X5.1181Y-1.4134
X5.1591Y-3.9213
X5.2591Y-3.9213
X5.3181Y-1.413
X5.3591Y-3.9213
X5.4591Y-3.9213
X5.5591Y-3.9213
X5.9055Y-2.3122
X5.9055Y-2.4122
X5.9055Y-2.5122
X5.9055Y-2.6122
X5.9055Y-2.7906
X5.9055Y-2.8906
X5.9055Y-2.9906
X5.9055Y-3.0906
X5.9055Y-3.2535
X5.9055Y-3.3535
X5.9055Y-3.4535
X5.9055Y-3.5535
X5.9055Y-3.6535
T4
X4.2724Y-1.7386
X4.2724Y-1.8386
X4.3724Y-1.7386
X4.3724Y-1.8386
X4.4724Y-1.7386
X4.4724Y-1.8386
X5.1142Y-2.6929
X5.1142Y-2.7929
X5.2142Y-2.6929
X5.2142Y-2.7929
X5.3142Y-2.6929
X5.3142Y-2.7929
T5
X5.8189Y-1.3937
X5.8189Y-1.7205
X5.8189Y-2.0472
T6
X5.7189Y-1.2937
X5.7189Y-1.4937
X5.7189Y-1.6205
X5.7189Y-1.8205
X5.7189Y-1.9472
X5.7189Y-2.1472
X5.9189Y-1.2937
X5.9189Y-1.4937
X5.9189Y-1.6205
X5.9189Y-1.8205
X5.9189Y-1.9472
X5.9189Y-2.1472
T7
X4.1732Y-1.1024
X4.1732Y-3.8583
X5.8268Y-1.1024
X5.8268Y-3.8583
T0
M30
